  <svg
    width="3"
    height="2"
    viewBox="0 0 3 2"
    fill="none"
    xmlns="http://www.w3.org/2000/svg"
  >
    <style>
       #vector-base { color: #eba300; }
       #vector-10 { color: #ffb100; }
       #vector-09 { color: #ffb714; }
       #vector-08 { color: #ffbd29; }
       #vector-07 { color: #ffc43d; }
       #vector-06 { color: #ffca52; }
       #vector-05 { color: #ffd066; }
       #vector-04 { color: #ffd67a; }
       #vector-03 { color: #ffdd8f; }
       #vector-02 { color: #ffe3a3; }
       #vector-01 { color: #ffe9b8; }

       <!-- #vector-base { color: #64af6b; }
       #vector-10 { color: #72b678; }
       #vector-09 { color: #7fbd85; }
       #vector-08 { color: #8dc492; }
       #vector-07 { color: #9acb9f; }
       #vector-06 { color: #a8d2ab; }
       #vector-05 { color: #b5d9b8; }
       #vector-04 { color: #c2e0c5; }
       #vector-03 { color: #d0e7d2; }
       #vector-02 { color: #ddeedf; }
       #vector-01 { color: #ebf5ec; } -->
    </style>
    <g id="background">
      <path id="vector-base" d="M3 0H0V2H3V0Z" fill="currentColor" />
      <g id="vector-shapes">
        <path
          id="vector-10"
          d="M0.911193 1.76449C0.706268 1.70999 0.492344 1.68399 0.282545 1.71599C0.186551 1.73024 0.0918693 1.75749 0 1.79949V1.99999H1.58203C1.36473 1.91699 1.1493 1.82974 0.930317 1.76949C0.923942 1.76774 0.917568 1.76624 0.911193 1.76449Z"
          fill="currentColor"
        />
        <path
          id="vector-09"
          d="M2.99981 0H0V1.7995C0.0918693 1.7575 0.186551 1.73 0.282545 1.71575C0.492344 1.684 0.706268 1.70975 0.911193 1.76425C0.917568 1.766 0.923942 1.76775 0.930317 1.76925C1.1493 1.82925 1.36473 1.91675 1.58203 1.99975H2.99981V0Z"
          fill="currentColor"
        />
        <path
          id="vector-08"
          d="M0.896944 1.4525C0.902944 1.4545 0.908943 1.45675 0.914755 1.45875C1.28261 1.59 1.64352 1.7925 2.0275 1.90025C2.3541 1.99175 2.68277 1.97325 2.99981 1.87475V0H0V1.43725C0.0980564 1.39325 0.199675 1.368 0.302044 1.36C0.503219 1.3435 0.704393 1.3855 0.896944 1.4525Z"
          fill="currentColor"
        />
        <path
          id="vector-07"
          d="M0 0V1.0735C0.104243 1.0275 0.212799 1.00525 0.321355 1.00425C0.514093 1.00225 0.702331 1.061 0.882507 1.1405C0.888132 1.143 0.893569 1.1455 0.899194 1.148C1.24342 1.303 1.58484 1.51325 1.95363 1.62825C2.30367 1.7375 2.65915 1.71425 2.99962 1.59675V0H0Z"
          fill="currentColor"
        />
        <path
          id="vector-06"
          d="M0.340854 0.6485C0.524967 0.6635 0.700644 0.7365 0.868258 0.82875C0.873508 0.8315 0.87857 0.8345 0.88382 0.83725C1.20442 1.01625 1.52634 1.2335 1.87995 1.3565C2.25267 1.486 2.63627 1.4585 2.99981 1.3195V0H0V0.708C0.110618 0.659 0.226111 0.63925 0.340854 0.6485Z"
          fill="currentColor"
        />
        <path
          id="vector-05"
          d="M2.99981 0H0V0.34075C0.116805 0.2885 0.239423 0.272 0.360352 0.29275C0.535842 0.323 0.698769 0.412 0.854009 0.51675C0.858884 0.52 0.863571 0.52325 0.868446 0.5265C1.16543 0.72925 1.46785 0.95375 1.80645 1.0845C2.20111 1.237 2.61415 1.207 3 1.043V0H2.99981Z"
          fill="currentColor"
        />
        <path
          id="vector-04"
          d="M0.852884 0.21575C1.12624 0.4425 1.40916 0.67325 1.73258 0.8125C2.12368 0.981 2.54122 0.9645 2.92857 0.79925C2.95257 0.789 2.97619 0.77825 3 0.767V0H0.540154C0.645147 0.05325 0.743953 0.1265 0.839572 0.205C0.844072 0.2085 0.848384 0.21225 0.852884 0.21575Z"
          fill="currentColor"
        />
        <path
          id="vector-03"
          d="M2.99981 0H0.933691C1.15511 0.2145 1.39022 0.41125 1.6589 0.5405C2.0185 0.7135 2.40885 0.72725 2.77445 0.59325C2.85095 0.56525 2.9265 0.53025 3 0.489V0H2.99981Z"
          fill="currentColor"
        />
        <path
          id="vector-02"
          d="M2.62015 0.387C2.70864 0.3605 2.79564 0.32375 2.88001 0.2775C2.92069 0.25525 2.96063 0.2305 2.99981 0.20375V0H1.2063C1.32423 0.10425 1.44947 0.1955 1.58521 0.2685C1.91313 0.44525 2.27648 0.49025 2.62015 0.387Z"
          fill="currentColor"
        />
        <path
          id="vector-01"
          d="M2.46603 0.181C2.60721 0.1495 2.7452 0.08825 2.87251 0H1.51697C1.81264 0.1775 2.14618 0.2525 2.46603 0.181Z"
          fill="currentColor"
        />
      </g>

    </g>
  </svg>
