<svg width="1690" height="835" viewBox="0 0 1690 835" fill="none" xmlns="http://www.w3.org/2000/svg">
<rect width="1690" height="835" fill="white"/>
<path d="M375 785L430.5 834.5V751L461.5 726.5L455.5 710.5L490.5 679V651L528 637L541.5 574L560.5 547V523.5L477.5 489.5L468 459.5L430.5 449.5L412 423.5L358.5 414L323.5 436.5L307 433L292.5 419.5V395L266 387.5L277 356.5L258 367L233 374L220.5 356.5L237 311.5L292.5 297L323.5 332V288.5L358.5 264V243.5L430.5 198L412 181.5L501 159L468 107.5L455.5 130L412 95V130L375 159L334 130L412 64L455.5 95L490.5 74.5L430.5 35L552.5 0H455.5L393.5 35L323.5 23L247.5 64H191.5L138 49.5L74.5 64L0 146.5L101 107.5L148.5 130V181.5L119.5 227V264L138 321.5L177.5 367L233 387.5L247.5 408H266L282.5 433L334 449.5L307 482.5V523.5L334 581L375 608V785Z" fill="#EDF2F7"/>
<path d="M577 0L511.5 23L552.5 49.5L528 74.5L560.5 107.5L589.5 83.5L655 64L710.5 0H577Z" fill="#EDF2F7"/>
<path d="M821.5 574L859.5 710.5H900L935.5 670V657.5L949.5 651V618L987.5 595L972.5 523.5L1019.5 472L1041.5 419.5L1002.5 423.5L964.5 374L935.5 297L871 279.5L859.5 304L813.5 279.5L806.5 255.5L730.5 270.5L700.5 304L664 348.5L655 401.5L710.5 459.5L775.5 449.5L793 459.5H813.5L806.5 496L834.5 559.5L821.5 574Z" fill="#EDF2F7"/>
<path d="M1037 590.5L1014 655H1002.5L994.5 632L1006 618L1002.5 595H1019.5L1037 574V590.5Z" fill="#EDF2F7"/>
<path d="M727.5 155.5L714.5 164.5V151.5L722 145H730.5L727.5 155.5Z" fill="#EDF2F7"/>
<path d="M763.5 167L734.5 175L738.5 155.5L747 151.5L730.5 134L738.5 124.5H747V137L764.5 157.5L763.5 167Z" fill="#EDF2F7"/>
<path d="M679.5 95.5L664 93L659 80.5L692.5 77L700.5 86.5L679.5 95.5Z" fill="#EDF2F7"/>
<path d="M818 22.5L799 12.5L831 5.5L855 10L831 12.5L818 22.5Z" fill="#EDF2F7"/>
<path d="M714.5 214L710.5 255.5L730.5 262L747 257.5L763.5 229L774 226.5V216.5H792.5L802.5 208.5L815 222L840.5 235.5L843 250L852 235.5L818 204L827 200L857.5 223L859.5 231.5L880 255.5L884.5 244.5L880 231.5H892.5L930.5 264.5L950 255.5L944 297L1008 408.5L1075.5 370L1087 348.5L1065 330.5L1046 343.5L1019.5 304L1027 297L1060 323.5L1072 319L1125.5 330.5L1136.5 348.5L1159.5 357.5L1196.5 439L1208.5 419.5V390L1240 357.5L1258.5 343.5L1282 390L1299.5 385.5L1307.5 434.5L1341 479.5V459.5L1319 428.5V401.5L1351.5 434.5L1370.5 414.5L1341 374L1351.5 357.5L1403 348.5L1420.5 304L1370.5 244.5L1383.5 231.5L1403 238.5L1429.5 270.5L1443.5 264.5L1420.5 238.5L1429.5 219L1449.5 183.5L1434.5 151.5L1396 145L1403 117L1481 104L1476.5 134L1522 164.5L1497.5 113.5L1542.5 98L1489.5 64L1319 44.5L1277 52.5L1136.5 22.5L1049.5 44.5L1072 72L1060 77L1039 41L1027 52.5L1046 67.5L1008 61.5L978.5 67.5L918.5 93L898.5 77L924 80.5L930.5 72L880 57H849L780.5 104L792.5 124.5L806.5 117L818 142.5L834 134V119.5L843 113.5L831 104L855 80.5L868 83.5L852 98L855 113.5L884.5 110V119.5H862L871 124.5V134L862 127.5L855 134L859.5 142.5L852 148L843 145L824.5 151.5L806.5 145V127.5L796.5 134L799 151.5L780.5 155.5L776 167L764.5 175L734.5 183.5L754 197.5L750.5 214H714.5Z" fill="#EDF2F7"/>
<path d="M1502 264.5L1460 290.5L1449.5 278L1476.5 255.5V200L1502 264.5Z" fill="#EDF2F7"/>
<path d="M1347 528.5L1295 459.5L1307.5 455L1355.5 508V528.5L1403 546L1351.5 539L1347 528.5Z" fill="#EDF2F7"/>
<path d="M1370.5 479.5L1377.5 508L1411 516.5L1425 479.5L1417 468.5L1429.5 459.5L1411 447.5L1370.5 479.5Z" fill="#EDF2F7"/>
<path d="M1531.5 528.5L1497.5 504.5L1519.5 510.5L1531.5 500.5L1576 516.5L1599 559.5L1570.5 539L1561 551L1535 546L1531.5 528.5Z" fill="#EDF2F7"/>
<path d="M1387 632L1374 708L1464 690.5L1476.5 696V708L1493.5 700V733.5H1519.5L1546.5 726L1592 651.5L1564 608.5L1554 559.5L1539 606L1509.5 587L1522 569L1502 565L1481 587L1464 580.5L1429.5 618L1387 632Z" fill="#EDF2F7"/>
<path d="M1674 733.5L1592 782.5H1606L1690 733.5L1674 708V733.5Z" fill="#EDF2F7"/>
<path d="M1522 751.5L1502 771V751.5H1522Z" fill="#EDF2F7"/>
<path d="M1434.5 486L1429.5 522.5H1453L1439 500.5L1464 479.5L1434.5 486Z" fill="#EDF2F7"/>
<path d="M1425 394.5L1460 447.5L1466.5 432L1434.5 394.5V378.5L1425 370V394.5Z" fill="#EDF2F7"/>
<path d="M959.5 49.5L984.5 52.5L978.5 44.5L1011.5 23L971 32.5L959.5 49.5Z" fill="#EDF2F7"/>
</svg>