<svg width="791" height="104" viewBox="0 0 791 104" fill="none" xmlns="http://www.w3.org/2000/svg">
<path d="M62.1027 30.6482C61.5573 36.8695 57.8107 41.6095 51.1453 41.6095H40.9973L45.42 23.2415H55.196C60.4547 23.2415 62.4907 26.2042 62.1027 30.6482ZM55.2293 68.5682C54.504 76.8628 49.6747 80.4175 41.38 80.4175H31.8267L36.5387 60.4215H45.944C52.3133 60.4215 55.728 62.8655 55.2293 68.5682V68.5682ZM72.116 50.7935C82.3067 46.0535 88.932 38.0548 89.988 25.9828C91.2907 11.0948 82.856 1.69084 62.1173 1.69084H23.7534L0.0200195 101.971H38.4574C65.1947 101.971 80.9147 89.8988 82.632 70.2722C83.384 61.6815 79.212 54.3495 72.116 50.7935" fill="#122F5B"/>
<path d="M146.644 40.3506L141.229 63.3093C139.132 72.0491 136.196 81.9002 126.493 81.9002C116.791 81.9002 118.541 72.0491 120.565 63.3093L127.927 32.4999C129.38 26.0573 133.964 21.9079 140.629 21.9079C150.48 21.9079 148.661 31.6853 146.644 40.3506ZM145.787 0.207941C120.753 0.207941 103.639 12.1333 98.4626 34.0559L90.02 69.6053C84.8293 91.6757 96.2427 103.452 121.349 103.452C146.456 103.452 163.632 91.6757 168.823 69.6053L177.264 34.0559C182.441 12.1333 170.893 0.207941 145.787 0.207941" fill="#122F5B"/>
<path d="M234.553 40.3506L229.137 63.3093C227.04 72.0491 224.105 81.9002 214.403 81.9002C204.7 81.9002 206.451 72.0491 208.475 63.3093L215.836 32.4999C217.288 26.0573 221.873 21.9079 228.539 21.9079C238.388 21.9079 236.571 31.6853 234.553 40.3506ZM265.173 34.0559C270.351 12.1333 258.803 0.207941 233.696 0.207941C208.663 0.207941 191.548 12.1333 186.371 34.0559L177.928 69.6053C172.739 91.6757 184.151 103.452 209.257 103.452C234.365 103.452 251.541 91.6757 256.731 69.6053L265.173 34.0559Z" fill="#122F5B"/>
<path d="M271.127 40.0533C270.277 49.7559 273.723 55.2373 281.047 58.7173C295.337 65.5306 303.105 64.7919 302.541 71.2345C301.951 77.973 296.187 79.5293 287.744 79.5293C278.485 79.5293 269.731 77.1601 264.831 75.6038L255.921 98.7121C261.376 100.712 273.208 103.452 287.428 103.452C318.089 103.452 329.745 87.8986 331.644 66.1973C332.777 53.2373 327.155 47.2386 315.527 43.0173L306.695 39.8319C301.741 38.0546 299.533 36.2026 299.831 32.7973C300.343 26.9453 306.001 24.0559 314.223 24.0559C321.333 24.0559 329.681 25.9826 334.527 27.3146L343.241 3.91193C339.776 2.87459 329.937 0.207941 315.791 0.207941C289.573 0.207941 273.128 17.1693 271.127 40.0533" fill="#122F5B"/>
<path d="M425.716 1.69084H351.209L345.773 24.8708H368.584L350.285 101.971H379.171L397.395 24.8708H420.207L425.716 1.69084" fill="#122F5B"/>
<path d="M482.895 62.5695L487.979 40.8695H453.984L457.635 25.3908H493.109L498.739 1.69084H434.452L410.717 101.971H476.412L482.04 78.2707H445.157L448.9 62.5695H482.895" fill="#122F5B"/>
<path d="M550.024 33.0188L547.707 42.5735C546.3 48.4975 542.063 52.0522 536.064 52.0522H527.176L533.805 23.6868H542.841C548.767 23.6868 551.344 27.2415 550.024 33.0188V33.0188ZM548.321 1.69084H510.252L486.519 101.971H515.255L522.245 72.8639H529.207L534.437 101.971H565.247L556.855 67.5308C566.533 62.7175 573.735 54.0522 576.761 41.4628L578.44 34.1295C583.472 13.0228 572.243 1.69084 548.321 1.69084Z" fill="#122F5B"/>
<path d="M628.813 101.831H628.815V101.83L628.813 101.831Z" fill="#122F5B"/>
<path d="M693.843 101.831H693.844L693.841 101.83L693.843 101.831Z" fill="#122F5B"/>
<path d="M608.723 39.9868L594.065 101.831H628.813L641.336 63.5748L608.723 39.9868" fill="#122F5B"/>
<path d="M661.328 1.76125H617.781L608.723 39.9839L648.972 40.0732L661.328 1.76125" fill="#122F5B"/>
<path d="M790.117 1.76151H661.329L673.685 40.0735L713.937 39.9842L681.321 63.5748L693.844 101.831H774.679L750.7 51.7975L790.117 1.76151" fill="#122F5B"/>
<path d="M628.815 101.831H693.843L661.329 78.1004L628.815 101.831Z" fill="#122F5B"/>
</svg>
