<svg width="791" height="104" viewBox="0 0 791 104" fill="none" xmlns="http://www.w3.org/2000/svg">
<path d="M62.0827 30.4402C61.5373 36.6615 57.7907 41.4015 51.1253 41.4015H40.9787L45.4 23.0335H55.176C60.4347 23.0335 62.4707 25.9962 62.0827 30.4402ZM55.2093 68.3602C54.484 76.6548 49.6547 80.2095 41.36 80.2095H31.8067L36.5187 60.2135H45.924C52.2933 60.2135 55.708 62.6575 55.2093 68.3602V68.3602ZM72.096 50.5855C82.2867 45.8455 88.912 37.8468 89.968 25.7748C91.2707 10.8868 82.836 1.4815 62.0973 1.4815H23.7333L0 101.763H38.4373C65.1747 101.763 80.8947 89.6908 82.612 70.0642C83.364 61.4735 79.1907 54.1415 72.096 50.5855" fill="white"/>
<path d="M146.624 40.1426L141.208 63.1013C139.111 71.8411 136.176 81.6922 126.473 81.6922C116.771 81.6922 118.521 71.8411 120.545 63.1013L127.907 32.2919C129.359 25.8493 133.944 21.6999 140.609 21.6999C150.46 21.6999 148.641 31.4759 146.624 40.1426ZM145.767 -6.70884e-05C120.733 -6.70884e-05 103.619 11.9253 98.4413 33.8479L89.9987 69.3973C84.8093 91.4677 96.2213 103.244 121.329 103.244C146.436 103.244 163.612 91.4677 168.801 69.3973L177.244 33.8479C182.421 11.9253 170.873 -6.70884e-05 145.767 -6.70884e-05" fill="white"/>
<path d="M234.535 40.1426L229.117 63.1013C227.02 71.8411 224.085 81.6922 214.381 81.6922C204.68 81.6922 206.431 71.8411 208.455 63.1013L215.815 32.2919C217.268 25.8493 221.853 21.6999 228.519 21.6999C238.369 21.6999 236.551 31.4759 234.535 40.1426ZM265.153 33.8479C270.331 11.9253 258.783 -6.70884e-05 233.676 -6.70884e-05C208.643 -6.70884e-05 191.528 11.9253 186.351 33.8479L177.908 69.3973C172.719 91.4677 184.131 103.244 209.239 103.244C234.345 103.244 251.521 91.4677 256.711 69.3973L265.153 33.8479Z" fill="white"/>
<path d="M271.105 39.8453C270.257 49.5479 273.704 55.0293 281.027 58.5093C295.316 65.3226 303.085 64.5839 302.521 71.0265C301.931 77.765 296.167 79.3213 287.723 79.3213C278.465 79.3213 269.711 76.9521 264.812 75.3958L255.901 98.5041C261.356 100.504 273.188 103.244 287.408 103.244C318.069 103.244 329.725 87.6906 331.624 65.9893C332.759 53.0293 327.136 47.0306 315.507 42.8093L306.676 39.6239C301.72 37.8466 299.513 35.9946 299.812 32.5879C300.323 26.7373 305.981 23.8479 314.204 23.8479C321.313 23.8479 329.661 25.7746 334.507 27.1066L343.22 3.70392C339.757 2.66659 329.917 -6.70884e-05 315.771 -6.70884e-05C289.552 -6.70884e-05 273.108 16.9613 271.105 39.8453" fill="white"/>
<path d="M425.696 1.4815H351.189L345.753 24.6628H368.564L350.265 101.763H379.149L397.375 24.6628H420.187L425.696 1.4815" fill="white"/>
<path d="M482.875 62.3615L487.959 40.6615H453.964L457.613 25.1828H493.091L498.719 1.4815H434.432L410.699 101.763H476.391L482.02 78.0627H445.137L448.88 62.3615H482.875" fill="white"/>
<path d="M550.004 32.8095L547.687 42.3655C546.279 48.2895 542.043 51.8442 536.043 51.8442H527.156L533.785 23.4788H542.82C548.747 23.4788 551.323 27.0335 550.004 32.8095V32.8095ZM548.301 1.4815H510.232L486.499 101.763H515.235L522.224 72.6559H529.187L534.417 101.763H565.227L556.833 67.3228C566.513 62.5095 573.715 53.8442 576.743 41.2548L578.421 33.9215C583.452 12.8148 572.223 1.4815 548.301 1.4815Z" fill="white"/>
<path d="M628.793 101.623H628.795V101.621L628.793 101.623Z" fill="white"/>
<path d="M693.821 101.623H693.823L693.821 101.621V101.623Z" fill="white"/>
<path d="M608.703 39.7788L594.044 101.623H628.793L641.315 63.3668L608.703 39.7788" fill="white"/>
<path d="M661.308 1.55324H617.761L608.703 39.7759L648.952 39.8652L661.308 1.55324" fill="white"/>
<path d="M790.097 1.55351H661.311L673.664 39.8655L713.917 39.7762L681.301 63.3668L693.823 101.623H774.659L750.68 51.5895L790.097 1.55351Z" fill="white"/>
<path d="M628.795 101.623H693.821L661.309 77.8924L628.795 101.623Z" fill="white"/>
</svg>
