<svg width="180" height="44" viewBox="0 0 180 44" fill="none" xmlns="http://www.w3.org/2000/svg" >
  <path fill-rule="evenodd" clip-rule="evenodd" d="M161.012 11.9225H172.88C174.139 11.9225 175.346 12.427 176.236 13.3249C177.126 14.2229 177.627 15.4409 177.627 16.7108V28.6816C177.627 29.9515 177.126 31.1695 176.236 32.0675C175.346 32.9654 174.139 33.4699 172.88 33.4699H161.012C159.753 33.4699 158.546 32.9654 157.655 32.0675C156.765 31.1695 156.265 29.9515 156.265 28.6816V16.7108C156.265 15.4409 156.765 14.2229 157.655 13.3249C158.546 12.427 159.753 11.9225 161.012 11.9225ZM153.892 16.7108C153.892 14.8059 154.642 12.979 155.977 11.632C157.312 10.285 159.124 9.52832 161.012 9.52832H172.88C174.768 9.52832 176.579 10.285 177.915 11.632C179.25 12.979 180 14.8059 180 16.7108V28.6816C180 30.5865 179.25 32.4134 177.915 33.7604C176.579 35.1074 174.768 35.8641 172.88 35.8641H161.012C159.124 35.8641 157.312 35.1074 155.977 33.7604C154.642 32.4134 153.892 30.5865 153.892 28.6816V16.7108ZM169.101 25.4411C169.101 27.9717 167.207 29.5136 164.648 29.5136C162.106 29.5136 160.212 27.9717 160.212 25.4411V17.5488H162.488V25.258C162.488 26.3976 163.087 27.2523 164.648 27.2523C166.21 27.2523 166.808 26.3976 166.808 25.258V17.5488H169.101V25.4423V25.4411ZM171.499 29.2789V17.5488H173.792V29.2801H171.499V29.2789Z" fill="#161E2E" ></path>
  <path d="M20.6346 42.2771C19.6751 41.9685 18.1037 40.2712 17.8673 39.2753C17.6865 38.5038 17.756 37.7744 18.1037 37.087C18.2149 36.8626 19.5082 35.4458 20.9683 33.959C23.0682 31.8268 23.5132 31.2938 23.0821 31.5182C22.2477 31.939 21.6915 32.0092 20.8849 31.8268C20.1757 31.6585 19.9949 31.4902 13.9875 25.4585C9.85733 21.3064 7.74359 19.0901 7.56281 18.7114C7.22906 17.982 7.22906 16.7756 7.56281 16.0462C7.74359 15.6675 9.84342 13.4512 13.9875 9.29913C19.7446 3.53395 20.2035 3.0991 20.8154 2.9448C21.1769 2.86064 21.6358 2.7905 21.8583 2.80453C22.9291 2.81856 23.249 3.0991 29.4928 9.38329C33.5951 13.5073 35.6532 15.6675 35.8201 16.0462C36.1539 16.7616 36.1539 17.8557 35.8201 18.5711C35.5003 19.3005 34.0958 20.7173 33.3726 21.0399C32.6912 21.3625 31.6622 21.3766 30.9669 21.096C30.5497 20.9137 30.953 21.3766 33.0528 23.5087C35.7784 26.2721 36.0843 26.7069 36.0843 27.787C36.0843 29.2458 36.2373 29.0494 29.7153 35.6563C26.2944 39.121 23.4019 41.9264 23.1099 42.0807C22.4007 42.4595 21.4272 42.5296 20.6346 42.2771Z" fill="#2151A3" ></path>
  <path d="M20.718 31.7988C20.2452 31.6725 19.244 30.7327 13.9875 25.4585C9.85733 21.3064 7.74359 19.0901 7.56281 18.7114C7.22906 17.982 7.22906 16.7756 7.56281 16.0462C7.74359 15.6675 9.84342 13.4512 13.9875 9.29913C19.7446 3.53395 20.2035 3.0991 20.8154 2.9448C21.1769 2.86064 21.6358 2.7905 21.8583 2.80453C22.9291 2.81856 23.249 3.0991 29.4928 9.38329C33.5951 13.5073 35.6532 15.6675 35.8201 16.0462C36.1539 16.7616 36.1539 17.8557 35.8201 18.5711C35.5003 19.3005 34.0958 20.7173 33.3726 21.0399C32.6912 21.3625 31.6622 21.3766 30.9669 21.096C30.6331 20.9417 29.2286 19.6512 26.9758 17.3788C23.4019 13.8019 22.9847 13.4652 21.9418 13.4372C20.7319 13.381 20.2869 13.5774 19.2579 14.5313C18.0202 15.6815 17.6865 16.3969 17.7699 17.6173C17.8116 18.2765 17.9229 18.6132 18.1732 18.9498C18.3679 19.2023 19.981 20.8996 21.761 22.6951C25.4044 26.4123 25.7382 26.8893 25.613 28.2359C25.5296 29.1897 25.2932 29.6246 24.3754 30.5083C23.1516 31.7146 21.9557 32.1354 20.718 31.7988Z" fill="#4DAADF" ></path>
  <path d="M132.46 36.0847C130.98 35.8295 129.033 35.0244 127.515 34.0033C125.237 32.4913 123.563 30.2724 122.551 27.3662C122.045 25.8935 122.006 25.5989 122.006 22.6535C122.006 19.708 122.045 19.4135 122.551 17.9407C123.972 13.8957 126.873 10.9502 130.727 9.65421C132.168 9.1633 132.596 9.12402 135.146 9.12402C137.696 9.12402 138.124 9.1633 139.546 9.65421C143.692 11.0484 146.885 14.5633 147.994 18.9618C148.539 21.0433 148.52 24.0869 147.975 26.3058C146.495 32.3538 141.2 36.3793 134.854 36.2811C134.114 36.2615 133.024 36.1829 132.46 36.0847ZM136.548 30.7829C140.188 29.9975 142.505 26.9342 142.582 22.8302C142.641 19.3153 141.025 16.3895 138.241 15.0149C136.918 14.3669 134.932 14.1509 133.394 14.4847C130.513 15.1131 128.177 17.9211 127.749 21.2593C127.184 25.8346 129.54 29.7422 133.491 30.724C134.757 31.0382 135.282 31.0382 136.548 30.7829Z" fill="#2151A3" ></path>
  <path d="M106.686 36.1045C102.345 35.3584 98.9379 32.2558 97.3416 27.6216C96.7382 25.874 96.7187 25.658 96.6992 22.7518C96.6992 20.1009 96.7576 19.5118 97.147 18.2355C98.4902 13.8958 101.352 10.8718 105.304 9.57582C108.185 8.65292 113.343 8.90819 115.835 10.106C117.821 11.0878 118.599 12.0696 118.599 13.6209C118.599 15.3489 117.762 16.2718 116.166 16.2718C115.368 16.2718 114.998 16.154 114.142 15.5649C112.896 14.7206 111.552 14.3082 109.917 14.3082C106.9 14.3082 104.35 15.9576 103.084 18.746C102.384 20.2973 102.228 23.3213 102.734 25.226C103.123 26.6791 104.272 28.5445 105.226 29.2711C107.795 31.2544 111.552 31.5293 114.18 29.8995C115.485 29.0944 116.341 28.898 117.315 29.2318C118.755 29.7031 119.398 31.8435 118.483 33.0805C116.789 35.378 111.046 36.8311 106.686 36.1045Z" fill="#2151A3" ></path>
  <path d="M81.2806 36.0844C75.791 35.1615 71.7029 30.0364 71.3525 23.6349C71.0995 19.1186 72.3843 15.4073 75.207 12.56C77.5625 10.1448 80.5214 9.00586 84.3759 9.00586C90.2549 9.00586 93.9925 11.264 93.2917 14.4059C93.0386 15.5644 92.1626 16.2713 91.0141 16.2713C90.2938 16.2713 89.8266 16.1142 88.8338 15.5055C87.3932 14.6219 86.3226 14.3273 84.7263 14.3077C81.631 14.3077 79.2171 15.8589 77.8934 18.7062C77.3678 19.8451 77.251 20.336 77.1731 21.9659C77.0758 23.9688 77.3483 25.3826 78.1465 26.9535C78.711 28.0531 80.1905 29.5848 81.2222 30.1149C83.6167 31.3324 86.7314 31.2342 88.9506 29.8793C90.2938 29.0546 91.2088 28.8975 92.1626 29.2902C93.5643 29.8793 94.0899 31.7055 93.2528 32.9622C91.6565 35.3382 85.8748 36.8502 81.2806 36.0844Z" fill="#2151A3" ></path>
  <path d="M53.2884 36.006C49.0446 35.2009 45.9883 32.8838 44.2168 29.1332C42.2506 24.9507 42.4648 19.2758 44.7619 15.2896C45.7352 13.6009 47.9155 11.4016 49.4923 10.518C52.0425 9.10414 55.4686 8.61323 58.1551 9.3005C63.2749 10.5965 67.3824 15.5841 67.7328 20.886C67.8301 22.2998 67.7912 22.5158 67.3824 23.1245C67.1293 23.4976 66.6621 23.9885 66.3701 24.2045C65.825 24.5972 65.5914 24.6169 57.2596 24.6758L48.6942 24.7347L48.8304 25.363C49.0446 26.443 49.8816 27.8569 50.7771 28.7405C53.3662 31.2736 57.318 31.6663 61.0362 29.7223C62.8855 28.7601 63.8589 28.603 64.8712 29.1332C65.572 29.4867 66.0392 30.3507 66.0392 31.2343C66.0392 32.707 64.5013 34.1012 61.6591 35.2205C58.8754 36.3005 56.1889 36.5558 53.2884 36.006ZM61.5618 19.2561C61.5618 18.4707 60.6663 16.782 59.8876 16.075C59.5178 15.7609 58.7586 15.2503 58.194 14.9558C57.2791 14.4649 56.9871 14.406 55.1377 14.406C53.3662 14.406 52.9769 14.4649 52.1203 14.8772C50.2905 15.8001 49.2392 17.155 48.811 19.1776L48.6747 19.806H55.1182H61.5618V19.2561Z" fill="#2151A3" ></path>
  <path d="M20.6695 42.9401C19.6463 42.611 17.9706 40.801 17.7185 39.739C17.5257 38.9162 17.5998 38.1384 17.9706 37.4054C18.0892 37.1661 19.4684 35.6553 21.0255 34.0697C23.2647 31.796 23.7393 31.2275 23.2795 31.4669C22.3898 31.9156 21.7966 31.9904 20.9365 31.796C20.1802 31.6165 19.9874 31.4369 13.581 25.0048C9.17669 20.577 6.9226 18.2136 6.72982 17.8097C6.37391 17.0318 6.37391 15.7454 6.72982 14.9675C6.9226 14.5637 9.16186 12.2002 13.581 7.77247C19.7205 1.62449 20.2098 1.16077 20.8623 0.996228C21.2479 0.906476 21.7373 0.831684 21.9745 0.846642C23.1164 0.861601 23.4575 1.16077 30.1159 7.86222C34.4906 12.26 36.6854 14.5637 36.8634 14.9675C37.2193 15.7304 37.2193 16.8972 36.8634 17.6601C36.5223 18.4379 35.0245 19.9488 34.2534 20.2928C33.5267 20.6369 32.4293 20.6518 31.6879 20.3526C31.243 20.1582 31.673 20.6518 33.9123 22.9255C36.8189 25.8724 37.1451 26.3361 37.1451 27.4879C37.1451 29.0436 37.3082 28.8342 30.3532 35.8797C26.7052 39.5744 23.6206 42.5661 23.3092 42.7307C22.5529 43.1346 21.5148 43.2094 20.6695 42.9401Z" fill="#2151A3" ></path>
  <path d="M20.7585 31.766C20.2543 31.6314 19.1866 30.6292 13.581 25.0048C9.17669 20.577 6.9226 18.2136 6.72982 17.8097C6.37391 17.0318 6.37391 15.7454 6.72982 14.9675C6.9226 14.5637 9.16186 12.2002 13.581 7.77247C19.7205 1.62449 20.2098 1.16077 20.8623 0.996228C21.2479 0.906476 21.7373 0.831684 21.9745 0.846642C23.1164 0.861601 23.4575 1.16077 30.1159 7.86222C34.4906 12.26 36.6854 14.5637 36.8633 14.9675C37.2193 15.7304 37.2193 16.8972 36.8633 17.6601C36.5223 18.4379 35.0245 19.9488 34.2534 20.2928C33.5267 20.6368 32.4293 20.6518 31.6879 20.3526C31.3319 20.1881 29.8342 18.8119 27.4318 16.3886C23.6206 12.5742 23.1757 12.2152 22.0635 12.1852C20.7734 12.1254 20.2988 12.3348 19.2014 13.352C17.8816 14.5786 17.5257 15.3415 17.6147 16.6429C17.6592 17.346 17.7778 17.705 18.0447 18.064C18.2523 18.3332 19.9726 20.1432 21.8707 22.0579C25.7561 26.0219 26.112 26.5305 25.9785 27.9666C25.8895 28.9837 25.6374 29.4475 24.6587 30.3898C23.3537 31.6763 22.0783 32.125 20.7585 31.766Z" fill="#4DAADF" ></path>
</svg>
