<svg height="1200" preserveAspectRatio="xMidYMid meet" viewBox="0 0 12000 12000" width="1200" xmlns="http://www.w3.org/2000/svg"><g fill="#1a2141"><path d="m5715 10364c-11-1-83-10-160-19-878-100-1697-464-2375-1054-198-173-472-468-621-671-114-156-259-376-259-393 0-4 110-7 244-7h244l50 73c242 348 605 706 982 968 211 147 545 327 765 414 713 281 1465 356 2206 220 501-93 996-291 1429-574 400-260 766-607 1042-987l83-114h242c227 0 242 1 236 18-13 32-207 316-292 427-120 155-267 319-423 470-167 163-294 272-450 388-52 39-311 212-329 220-7 4-32 18-54 32-52 32-85 49-235 126-391 199-784 331-1220 408-273 49-437 61-770 60-173-1-324-3-335-5z"/><path d="m2254 7759c-26-6-55-23-77-46-137-136-7-364 183-322 96 21 154 89 154 179 0 93-54 164-142 187-53 14-61 14-118 2zm136-104c20-21 25-35 25-76 0-45-4-54-33-80-24-21-42-29-70-29-59 1-92 38-92 105 0 47 14 71 53 96 40 24 82 19 117-16z"/><path d="m7311 7758c-51-14-79-37-108-85-22-37-25-53-21-107 5-76 36-124 101-158 100-51 239-3 276 95 15 39 14 111-3 151-18 43-78 92-132 105-50 13-67 13-113-1zm105-83c103-43 65-205-48-205-59 0-88 34-88 102 1 58 12 80 56 103 36 18 37 18 80 0z"/><path d="m1394 7750c-48-15-60-34-40-65 19-28 31-30 66-10 34 20 109 20 116 0 10-24-10-39-81-64-98-35-128-88-90-161 30-58 124-77 212-44l42 16-16 32c-8 17-17 32-18 34-2 2-25-4-51-13-60-20-97-13-92 18 2 17 17 27 63 43 33 12 75 35 94 52 31 29 33 36 28 73-3 26-15 52-31 68-23 22-36 26-99 28-39 1-86-2-103-7z"/><path d="m3074 7749c-42-22-54-69-54-219v-140h50 50v123c0 116 1 125 23 145 29 27 57 28 88 3 23-18 24-27 27-145l4-126h49 49l-2 183-3 182-47 3c-46 3-48 2-48-22 0-32-14-33-34-4-12 17-27 22-73 25-32 1-67-2-79-8z"/><path d="m3922 7740c-13-16-18-46-22-143-5-117-6-122-27-125-19-3-23-10-23-43 0-35 3-39 25-39 23 0 25-4 25-45v-45h45 45v45 45h45 45v40 40h-45-45v86c0 104 9 124 55 124 33 0 35 2 35 34 0 39-14 46-93 46-35 0-52-5-65-20z"/><path d="m4590 7510v-250h50 50v91 90l36-27c42-32 105-37 146-10 45 29 58 81 58 226v130h-49-49l-4-126c-3-118-4-127-27-145-30-25-66-24-91 1-18 18-20 33-20 145v125h-50-50z"/><path d="m5890 7619c0-132-1-141-20-146-28-7-29-73-1-73 15 0 20-10 25-44 13-81 65-116 151-100 32 6 35 9 35 43 0 35-1 36-36 36-40 0-62 21-51 49 4 11 19 16 47 16 39 0 40 1 40 35 0 35 0 35-45 35h-45v145 145h-50-50z"/><path d="m6570 7510v-250h50 50v250 250h-50-50z"/><path d="m8080 7575v-185h50 50v36 35l34-35c18-20 38-36 44-36s17-3 26-6c13-5 16 3 16 50 0 50-2 56-20 56-12 0-34 7-50 15-37 19-50 64-50 173v82h-50-50z"/><path d="m8810 7576v-186h50 50l-2 183-3 182-47 3-48 3z"/><path d="m9500 7748c-54-29-97-130-86-202 23-138 173-209 263-124l23 21v-91-92h50 50v250 250h-50c-48 0-50-1-50-27v-26l-25 23c-20 19-39 25-88 27-38 3-72-1-87-9zm139-69c65-23 84-128 32-180-57-56-138-31-158 49-10 40 14 101 50 122 38 23 35 23 76 9z"/><path d="m10348 7745c-48-27-59-113-19-159 33-38 71-49 148-43 82 6 93-4 48-48-26-27-90-34-139-16-22 9-26 7-35-21-15-43-15-44 28-56 61-19 146-15 192 9 59 30 69 62 69 219v130h-44c-37 0-45-4-49-22-6-22-6-22-27-3-28 25-134 32-172 10zm177-70c33-32 32-63-1-75-60-23-124 0-124 45 0 56 80 76 125 30z"/><path d="m8800 7301v-41h56 55l-3 38-3 37-52 3-53 3z"/><path d="m2430 7085c-297-56-528-168-719-350-177-170-236-290-261-536-22-225 19-434 146-752 34-84 112-241 169-342 13-22 66-121 118-221 136-260 256-427 382-535 85-72 118-92 190-113 81-23 155-29 240-16 44 6 136 15 205 20 152 10 226 28 345 85 88 43 294 115 326 115s120 53 134 81c21 40 19 61-14 134-108 238-523 687-941 1019-253 201-431 372-473 455-34 66-51 170-45 276 3 65 10 93 36 146 56 114 188 254 292 309l35 18 140-85c77-47 197-127 267-179 153-112 352-246 506-339 72-43 117-77 123-92 5-13 11-85 15-160 4-93 13-157 25-195 11-32 19-76 19-98 0-23 7-71 15-108 27-124 54-356 65-567 6-115 13-215 15-221 5-18 107-46 190-51 79-5 147 3 380 45 55 10 110 24 121 30 35 19 49 68 49 177-1 122-33 805-42 860-5 40-5 40 163-126 93-92 243-235 334-320 91-84 203-188 249-232 114-107 171-151 238-183 93-44 186-64 300-64 89 0 129 4 230 25 27 6 47 63 68 195 25 156 16 315-34 650-22 140-36 330-26 330 46 0 786-699 888-839 66-90 209-183 362-236 62-22 100-28 165-29 76-1 90 2 132 27 73 43 74 56 22 314-25 120-49 241-54 268-4 28-13 70-19 95s-27 119-47 210-43 192-50 225c-21 88-29 283-15 331 19 61 53 134 64 134 15 0 98-64 137-105 19-21 58-55 85-77 28-22 71-65 96-94l46-55 6-122c13-275 95-511 315-906 151-273 247-426 294-472 67-65 97-70 377-63 436 9 706 46 809 108 31 19 75 40 96 48 34 11 106 85 106 108 0 9-216 50-261 50-19 0-55-7-81-14-62-19-276-56-324-56-103 0-238 155-369 425-130 266-216 523-260 780-20 116-32 365-17 365 19 0 112-80 143-123 17-23 61-88 97-145 295-454 368-550 655-864 114-126 117-126 327-114 149 9 228 22 284 45 85 37 83 90-12 362-50 145-86 310-112 512-18 143-19 173-4 229 4 12 48-26 167-145 171-171 303-280 489-402 108-72 128-82 128-69s-174 322-241 429c-28 44-110 158-183 253-72 96-147 196-166 222-59 81-126 126-239 160-103 32-206 25-316-21-140-57-205-144-316-414-44-109-47-111-73-72-80 117-153 225-163 242-6 11-33 56-59 100-58 100-135 174-206 200-46 17-79 20-248 20-174 0-204-3-280-23-47-13-112-38-145-55-79-42-161-125-175-176l-11-40-72 47c-133 88-245 124-403 130-160 6-271-22-472-120-92-45-103-59-122-156-38-190 32-476 230-937 80-188 94-250 48-208-12 10-164 197-340 416-175 219-349 426-385 460s-75 71-87 82c-96 92-248 225-277 243-28 17-52 22-105 22-38 0-83-4-99-9-172-55-320-164-370-274-36-77-42-198-22-412 9-93 19-210 22-259 4-49 10-112 16-140 12-69 40-339 35-344-8-7-62 27-110 70-27 23-84 88-128 143-43 55-83 105-88 112-5 6-24 35-41 65-53 86-134 192-222 291-98 109-191 223-237 292-19 28-91 106-161 175-90 89-138 146-168 197-46 80-81 113-120 113-14 0-57-12-96-26-38-14-81-29-95-33-112-38-228-102-263-148l-19-24-92 94c-50 51-118 114-151 139-55 42-227 160-267 183-10 5-68 41-130 80-150 93-163 100-242 124-90 28-221 26-386-4zm173-1844c260-233 449-441 554-608 24-40 43-78 41-84-5-14-137-48-190-49-21 0-50 8-66 18-67 41-192 164-292 289-75 93-189 326-217 443-16 66-16 70 2 90 10 11 22 20 27 20 4 0 68-53 141-119z"/><path d="m10178 4629c-47-27-254-102-417-152-44-13-45-14-96-128-213-472-570-956-965-1303-481-423-1000-705-1610-874-371-103-861-157-1207-134-292 20-467 44-708 98-109 25-146 35-280 76-339 103-775 312-1040 497-77 53-189 134-202 146-6 5-26 21-44 35-69 52-239 200-268 233-9 10-30 17-51 17-73 0-395 62-531 101-67 19-99 24-99 13 0-3 28-38 61-78 452-524 979-918 1589-1186 419-184 813-288 1310-347 233-27 681-25 930 5 536 64 1004 203 1470 436 443 222 787 472 1145 830 358 359 629 741 851 1200 87 180 204 475 204 513 0 15-18 16-42 2z"/><path d="m1685 4083c-36-8-80-27-108-47-29-21-100-141-111-188-13-56 38-72 276-88 266-18 509-54 763-115 61-14 153-35 205-46 52-10 163-33 245-50 113-24 179-32 265-33 109-1 118 0 180 30 99 48 142 84 164 139 15 38 16 49 6 55-30 18-435 89-810 141-245 34-468 78-695 138-163 43-339 73-380 64z"/></g></svg>