<svg enable-background="new 0 0 512 512" viewBox="0 0 512 512" xmlns="http://www.w3.org/2000/svg"><g fill="#8cc84b"><path d="m255.5 495.4c-6.4 0-12.8-1.7-18.4-4.9l-58.5-34.6c-8.7-4.9-4.5-6.6-1.6-7.6 11.7-4 14-5 26.5-12 1.3-.7 3-.5 4.4.3l45 26.7c1.6.9 3.9.9 5.4 0l175.3-101.3c1.6-.9 2.7-2.8 2.7-4.7v-202.4c0-2-1-3.8-2.7-4.8l-175.3-101.1c-1.6-.9-3.8-.9-5.4 0l-175.2 101.1c-1.7 1-2.8 2.9-2.8 4.8v202.3c0 1.9 1.1 3.8 2.8 4.7l48 27.7c26.1 13 42-2.3 42-17.7v-199.7c0-2.8 2.3-5.1 5.1-5.1h22.2c2.8 0 5.1 2.2 5.1 5.1v199.8c0 34.8-18.9 54.7-51.9 54.7-10.1 0-18.1 0-40.4-11l-46-26.5c-11.4-6.6-18.4-18.8-18.4-32v-202.3c0-13.1 7-25.4 18.4-32l175.3-101.2c11.1-6.3 25.8-6.3 36.8 0l175.4 101.3c11.4 6.6 18.4 18.8 18.4 32v202.3c0 13.1-7.1 25.4-18.4 32l-175.3 101.2c-5.6 3.2-12 4.9-18.5 4.9z"/><path d="m309.7 356c-76.7 0-92.8-35.2-92.8-64.8 0-2.8 2.3-5.1 5.1-5.1h22.7c2.5 0 4.6 1.8 5 4.3 3.4 23.1 13.6 34.7 60 34.7 36.9 0 52.7-8.4 52.7-28 0-11.3-4.5-19.7-61.9-25.3-48-4.7-77.6-15.3-77.6-53.7 0-35.4 29.8-56.5 79.8-56.5 56.2 0 84 19.5 87.5 61.3.1 1.4-.4 2.8-1.3 3.9-1 1-2.3 1.6-3.7 1.6h-22.8c-2.4 0-4.4-1.7-4.9-4-5.5-24.3-18.7-32-54.8-32-40.3 0-45 14-45 24.6 0 12.8 5.5 16.5 60 23.7 53.9 7.1 79.5 17.2 79.5 55.1-.1 38.3-31.9 60.2-87.5 60.2z"/></g></svg>