<svg width="250" height="250" viewBox="0 0 250 250" fill="none" xmlns="http://www.w3.org/2000/svg">
<path d="M227.37 117.021C227.37 103.482 210.415 90.6519 184.421 82.6954C190.42 56.2014 187.754 35.1229 176.007 28.3745C173.299 26.7915 170.133 26.0417 166.675 26.0417V35.3312C168.592 35.3312 170.133 35.7061 171.424 36.4143C177.09 39.6635 179.547 52.0357 177.631 67.9487C177.173 71.8645 176.423 75.9886 175.507 80.1959C167.342 78.1964 158.427 76.6551 149.054 75.6553C143.431 67.9487 137.599 60.9503 131.725 54.8267C145.305 42.2046 158.052 35.2895 166.717 35.2895V26C155.261 26 140.265 34.1648 125.102 48.3282C109.938 34.2481 94.9419 26.1666 83.4861 26.1666V35.4562C92.1092 35.4562 104.898 42.3296 118.478 54.8684C112.646 60.992 106.814 67.9487 101.274 75.6553C91.8592 76.6551 82.9446 78.1964 74.7798 80.2376C73.8217 76.0719 73.1135 72.0311 72.6136 68.157C70.6558 52.244 73.0719 39.8718 78.6956 36.5809C79.9453 35.8311 81.5699 35.4978 83.4861 35.4978V26.2083C79.987 26.2083 76.821 26.9581 74.0716 28.5411C62.366 35.2895 59.7416 56.3264 65.7819 82.737C39.8711 90.7352 23 103.524 23 117.021C23 130.559 39.9544 143.39 65.9485 151.346C59.9499 177.84 62.6159 198.919 74.3632 205.667C77.071 207.25 80.2369 208 83.7361 208C95.1918 208 110.188 199.835 125.352 185.672C140.515 199.752 155.511 207.833 166.967 207.833C170.466 207.833 173.632 207.084 176.382 205.501C188.087 198.752 190.712 177.715 184.671 151.305C210.499 143.348 227.37 130.518 227.37 117.021V117.021ZM173.132 89.2355C171.591 94.6093 169.675 100.15 167.509 105.69C165.801 102.358 164.009 99.0249 162.051 95.6924C160.135 92.3598 158.094 89.1105 156.053 85.9446C161.968 86.8194 167.675 87.9025 173.132 89.2355ZM154.053 133.6C150.804 139.224 147.472 144.556 144.014 149.513C137.807 150.055 131.517 150.347 125.185 150.347C118.895 150.347 112.604 150.055 106.439 149.555C102.982 144.598 99.6075 139.307 96.3582 133.725C93.1923 128.268 90.3179 122.728 87.6935 117.146C90.2763 111.564 93.1923 105.982 96.3166 100.525C99.5658 94.9009 102.898 89.5688 106.356 84.6116C112.563 84.07 118.853 83.7784 125.185 83.7784C131.475 83.7784 137.765 84.07 143.931 84.5699C147.388 89.5271 150.762 94.8176 154.012 100.4C157.178 105.857 160.052 111.397 162.676 116.979C160.052 122.561 157.178 128.143 154.053 133.6ZM167.509 128.185C169.758 133.767 171.674 139.349 173.257 144.764C167.8 146.098 162.051 147.222 156.095 148.097C158.136 144.889 160.177 141.599 162.093 138.224C164.009 134.892 165.801 131.518 167.509 128.185ZM125.268 172.633C121.394 168.634 117.52 164.177 113.688 159.303C117.437 159.469 121.269 159.594 125.143 159.594C129.059 159.594 132.933 159.511 136.724 159.303C132.975 164.177 129.101 168.634 125.268 172.633ZM94.2753 148.097C88.36 147.222 82.653 146.139 77.1959 144.806C78.7372 139.432 80.6535 133.892 82.8196 128.352C84.5276 131.684 86.3188 135.017 88.2767 138.349C90.2346 141.682 92.2341 144.931 94.2753 148.097ZM125.06 61.4086C128.934 65.4076 132.808 69.865 136.641 74.7388C132.892 74.5722 129.059 74.4472 125.185 74.4472C121.269 74.4472 117.395 74.5306 113.604 74.7388C117.353 69.865 121.228 65.4076 125.06 61.4086ZM94.2337 85.9446C92.1925 89.1522 90.1513 92.4431 88.2351 95.8174C86.3188 99.1499 84.5276 102.482 82.8196 105.815C80.5701 100.233 78.6539 94.6509 77.071 89.2355C82.528 87.9442 88.2767 86.8194 94.2337 85.9446V85.9446ZM56.534 138.099C41.7874 131.809 32.2479 123.561 32.2479 117.021C32.2479 110.481 41.7874 102.191 56.534 95.9423C60.1165 94.401 64.0323 93.0263 68.073 91.735C70.4475 99.8997 73.5718 108.398 77.4459 117.104C73.6134 125.769 70.5308 134.225 68.198 142.348C64.0739 141.057 60.1582 139.641 56.534 138.099ZM78.9455 197.627C73.2802 194.378 70.8224 182.006 72.7386 166.093C73.1968 162.177 73.9467 158.053 74.8631 153.846C83.0279 155.845 91.9426 157.387 101.315 158.386C106.939 166.093 112.771 173.091 118.645 179.215C105.065 191.837 92.3175 198.752 83.6528 198.752C81.7782 198.71 80.1952 198.336 78.9455 197.627V197.627ZM177.756 165.885C179.714 181.798 177.298 194.17 171.674 197.461C170.425 198.211 168.8 198.544 166.884 198.544C158.261 198.544 145.472 191.67 131.892 179.132C137.724 173.008 143.556 166.051 149.096 158.345C158.511 157.345 167.425 155.804 175.59 153.762C176.548 157.97 177.298 162.011 177.756 165.885V165.885ZM193.794 138.099C190.212 139.641 186.296 141.015 182.255 142.307C179.881 134.142 176.756 125.644 172.882 116.938C176.715 108.273 179.797 99.8164 182.13 91.6933C186.254 92.9847 190.17 94.401 193.836 95.9423C208.582 102.233 218.122 110.481 218.122 117.021C218.08 123.561 208.541 131.851 193.794 138.099V138.099Z" fill="#61DAFB"/>
<path d="M125.143 136.058C135.657 136.058 144.181 127.535 144.181 117.021C144.181 106.507 135.657 97.9835 125.143 97.9835C114.629 97.9835 106.106 106.507 106.106 117.021C106.106 127.535 114.629 136.058 125.143 136.058Z" fill="#61DAFB"/>
<rect x="0.5" y="0.5" width="249" height="249" stroke="white"/>
</svg>
