<svg width="24" height="24" viewBox="0 0 24 24" fill="none" xmlns="http://www.w3.org/2000/svg">
<path d="M18.3396 3.59164H14.2932C12.0631 3.59164 9.90199 3.62696 9.47666 3.67406L8.69497 3.7447V2.84991C8.69497 2.22591 8.74095 1.90802 8.8674 1.79028C9.00534 1.649 9.81002 1.6019 13.4886 1.54304C15.9371 1.50771 18.1442 1.44885 18.3741 1.40175C18.7764 1.33111 18.8109 1.35466 18.8914 1.66077C18.9374 1.84915 18.9719 2.23768 18.9834 2.50847C18.9834 2.93232 18.9259 3.0736 18.6615 3.30908L18.3396 3.59164Z" fill="#E85434"/>
<path fill-rule="evenodd" clip-rule="evenodd" d="M13.2701 22.4294C15.1554 22.1822 16.6268 21.4875 17.7878 20.3102C18.719 19.3565 19.1213 18.5324 19.2248 17.3668C19.2707 16.8605 19.2592 16.5308 19.2018 16.5662C18.2821 17.0018 17.7533 17.2019 16.7418 17.4492C15.7417 17.6964 15.3393 17.7317 14.2702 17.6964C13.1552 17.6611 12.9368 17.614 12.431 17.3314C12.1206 17.1548 11.7412 16.837 11.5918 16.6133C11.3389 16.2247 11.0055 14.9649 11.132 14.8354C11.1665 14.8001 11.7872 14.8237 12.5114 14.8943C15.6727 15.2004 18.4086 14.494 19.857 13.0223C20.7881 12.0686 21.041 11.3387 21.0525 9.65505C21.0525 8.52479 21.018 8.28931 20.7881 7.85369C20.1904 6.71165 19.1213 5.98169 17.3165 5.52252C15.9831 5.18108 12.454 5.20463 11.1205 5.58138C8.80992 6.21716 6.99365 7.47693 5.80962 9.26652C5.38429 9.89052 5.33831 9.93762 5.06242 9.83166C4.63709 9.66683 3.75194 9.01928 3.67148 8.81913C3.48755 8.30109 2.94727 9.03105 2.94727 9.79633C2.94727 10.385 3.43007 11.4329 3.94737 11.9745L4.3612 12.4101L4.15428 13.611C3.32661 18.4735 5.69467 21.7819 10.4768 22.4294C11.4539 22.5589 12.3045 22.5589 13.2701 22.4294ZM11.6033 11.5153C11.4194 12.2217 11.4194 12.3277 11.5688 12.4218C11.6608 12.4807 11.9482 12.5396 12.2126 12.5396C12.9138 12.5396 13.3966 12.1511 13.8564 11.2092C14.1898 10.5263 14.2587 10.2437 14.3047 9.43135C14.3852 7.95965 14.0518 7.59467 13.2242 8.24222C12.7528 8.6072 11.8907 10.3615 11.6033 11.5153Z" fill="#E85434"/>
</svg>
