<svg enable-background="new 0 0 379.588 84.04" height="84.04" viewBox="0 0 379.588 84.04" width="379.588" xmlns="http://www.w3.org/2000/svg"><g fill="#fff"><path d="m371.733 84.039v-8.887h1.788l2.134 6.608 2.158-6.608h1.775v8.887h-1.331v-6.68l-2.134 6.68h-1.008l-2.147-6.68v6.68z"/><path d="m366.908 84.039v-7.58h-2.435v-1.307h6.248v1.307h-2.434v7.58z"/><path d="m355.24 84.04h4.028l-70.125-81.065c-1.635-1.889-4.01-2.975-6.508-2.975h-.04-13.724v84.04h13.724v-16.446h44.75l5.282 6.106c5.681 6.566 13.933 10.34 22.613 10.34m-72.645-28.354v-39.822l34.448 39.822z"/><path d="m202.022 66.099v-66.099h56.479v12.816h-42.757v22.682h42.757v12.249h-42.757v17.95c0 3.303 2.677 5.98 5.979 5.98h36.777v12.361h-38.54c-9.906.001-17.938-8.031-17.938-17.939"/><path d="m124.859 66.099v-66.099h27.56c23.703 0 43.437 8.959 43.437 41.962 0 32.437-21.208 42.078-45.025 42.078h-8.032c-9.908 0-17.94-8.033-17.94-17.941m13.724-.402c0 3.304 2.677 5.98 5.98 5.98h8.31c18.373 0 28.92-8.166 28.92-29.715 0-21.434-10.094-29.146-30.168-29.146h-13.042z"/><path d="m100.767 0h13.724v84.039h-13.724z"/><path d="m76.673 68.175-50.032-57.836c-5.68-6.566-13.932-10.338-22.613-10.338h-4.028l70.126 81.063c1.634 1.889 4.009 2.975 6.507 2.975h.04 13.724v-84.038h-13.724z"/></g></svg>