<svg enable-background="new 0 0 596 138.5" viewBox="0 0 596 138.5" xmlns="http://www.w3.org/2000/svg"><path d="m67.2 80.2c-16.2-11.8-28.4-32.3-18.6-48.5 4.4-5.4 10-9.8 16.2-13.5.7-.3 1.4-.6 2.1-1-.1 0-.2 0-.4 0 30.4-16.8 74.6-16.3 74.6-16.3s-77.8-9-119.4 30.7c-8.2 6.9-14.4 16-18.1 26.1v.1c-3 8.3-4.2 17.3-3.3 26.6 2 20.9 14.3 38.3 31.4 47.8 5.7 3.7 12.7 5.5 20 4.8 17.3-1.7 30-17.1 28.3-34.4-.9-9.3-5.8-17.3-12.8-22.4z" fill="#003766"/><g fill="#fff"><path d="m95.5 27.3c-.3.1-31.7 13-12.2 34.3 16.4 17.7 24.7 25.1 19.7 48.5-1.9 9.6-7.9 18.1-17.5 25.1 24.1-10.2 39.9-35.2 37.2-62.6-1.9-19.2-12.3-35.5-27.2-45.3z"/><path d="m193.7 56.6c-1.4-1.8-3.4-3.2-5.9-4-2.5-.9-4.8-1.3-7-1.3-1.3 0-2.6.2-4 .5s-2.7.8-3.9 1.4-2.2 1.5-3 2.6-1.1 2.4-1.1 3.9c0 2.4.9 4.3 2.7 5.6s4.1 2.4 6.9 3.3 5.8 1.8 8.9 2.7 6.2 2.2 8.9 3.9c2.8 1.7 5.1 3.9 6.9 6.7s2.7 6.6 2.7 11.3c0 4.5-.8 8.4-2.5 11.7s-3.9 6.1-6.8 8.3-6.2 3.8-9.9 4.9c-3.8 1.1-7.7 1.6-11.9 1.6-5.2 0-10.1-.8-14.6-2.4s-8.7-4.2-12.5-7.8l12.7-13.9c1.8 2.4 4.1 4.3 6.9 5.6s5.6 2 8.6 2c1.4 0 2.9-.2 4.4-.5s2.8-.9 4-1.5c1.2-.7 2.1-1.6 2.9-2.6.7-1.1 1.1-2.3 1.1-3.8 0-2.4-.9-4.3-2.8-5.8-1.9-1.4-4.2-2.6-7-3.6s-5.9-2-9.1-3c-3.3-1-6.3-2.3-9.1-4s-5.1-3.9-7-6.6-2.8-6.3-2.8-10.8c0-4.3.9-8.1 2.6-11.4s4-6 6.8-8.2c2.9-2.2 6.1-3.9 9.9-5 3.7-1.1 7.6-1.7 11.5-1.7 4.6 0 9 .6 13.2 1.9 4.3 1.3 8.1 3.5 11.5 6.5z"/><path d="m249 110.7h-.2c-1.9 3-4.4 5.1-7.6 6.4s-6.5 1.9-10 1.9c-2.6 0-5.1-.4-7.5-1.1s-4.5-1.8-6.3-3.2-3.3-3.2-4.3-5.4c-1.1-2.1-1.6-4.6-1.6-7.4 0-3.2.6-5.9 1.8-8.1s2.8-4 4.8-5.5c2-1.4 4.3-2.6 6.9-3.4s5.3-1.4 8-1.8c2.8-.4 5.5-.6 8.3-.7s5.3-.1 7.7-.1c0-3-1.1-5.5-3.2-7.2-2.2-1.8-4.7-2.7-7.7-2.7-2.8 0-5.4.6-7.7 1.8s-4.4 2.8-6.2 4.8l-9.1-9.3c3.2-3 6.9-5.2 11.2-6.7s8.7-2.2 13.2-2.2c5 0 9.1.6 12.4 1.9 3.2 1.3 5.8 3.1 7.8 5.5 1.9 2.4 3.3 5.4 4 8.9.8 3.5 1.1 7.6 1.1 12.3v28.2h-15.8zm-4.2-17.3c-1.3 0-2.9.1-4.8.2s-3.8.4-5.6 1c-1.8.5-3.3 1.3-4.6 2.4s-1.9 2.5-1.9 4.4c0 2.1.9 3.6 2.6 4.6s3.6 1.5 5.5 1.5c1.7 0 3.3-.2 4.8-.7 1.6-.5 2.9-1.1 4.2-1.9 1.2-.8 2.2-1.9 2.9-3.2s1.1-2.8 1.1-4.6v-3.6h-4.2z"/><path d="m272.8 31.5h17.1v86.2h-17.1z"/><path d="m351.8 108.1c-2.7 3.5-6.2 6.2-10.4 8.1s-8.5 2.8-13 2.8c-4.3 0-8.3-.7-12-2.1s-7-3.3-9.8-5.9c-2.8-2.5-5-5.6-6.6-9.2s-2.4-7.6-2.4-12 .8-8.4 2.4-12 3.8-6.6 6.6-9.2c2.8-2.5 6-4.5 9.8-5.9s7.8-2.1 12-2.1c4 0 7.5.7 10.8 2.1 3.2 1.4 6 3.3 8.2 5.9 2.2 2.5 4 5.6 5.2 9.2s1.8 7.6 1.8 12v5.4h-39.7c.7 3.3 2.2 5.9 4.4 7.8 2.3 1.9 5.1 2.9 8.4 2.9 2.8 0 5.2-.6 7.1-1.9s3.6-2.9 5.1-4.8zm-14.4-24.4c.1-2.9-.9-5.4-2.8-7.4-2-2.1-4.5-3.1-7.6-3.1-1.9 0-3.6.3-5 .9s-2.7 1.4-3.7 2.3c-1 1-1.8 2.1-2.4 3.3-.6 1.3-.9 2.6-1 3.9h22.5z"/><path d="m393.3 78.5c-2.5-3.1-5.8-4.7-9.9-4.7-1.4 0-2.8.3-4.2 1s-2.1 1.9-2.1 3.5c0 1.4.7 2.4 2.1 3s3.2 1.2 5.4 1.7 4.5 1 7 1.6 4.8 1.5 7 2.7 4 2.9 5.4 5 2.1 4.9 2.1 8.4c0 3.6-.8 6.5-2.3 8.8-1.6 2.3-3.6 4.2-6 5.6s-5.2 2.4-8.2 3-6 .9-9 .9c-3.9 0-7.8-.6-11.7-1.7-4-1.1-7.3-3.1-10-5.9l10.1-11.4c1.6 2 3.4 3.5 5.3 4.5s4.2 1.5 6.8 1.5c2 0 3.8-.3 5.4-.9s2.4-1.6 2.4-3.1c0-1.4-.7-2.5-2.1-3.2s-3.2-1.3-5.4-1.8-4.5-1-7-1.6-4.8-1.4-7-2.6c-2.2-1.1-4-2.8-5.4-4.8-1.4-2.1-2.1-4.9-2.1-8.4 0-3.3.7-6.1 2-8.4 1.3-2.4 3.1-4.3 5.2-5.8 2.2-1.5 4.7-2.6 7.5-3.4 2.8-.7 5.7-1.1 8.6-1.1 3.6 0 7.3.5 11.1 1.6 3.7 1.1 6.9 3 9.5 5.7z"/></g><path d="m415.9 36.9h9.6v71.8h36.9v8.9h-46.5z" fill="#003766"/><path d="m465.4 91c0-4.2.7-8 2.2-11.4 1.4-3.4 3.4-6.4 5.9-8.8 2.5-2.5 5.5-4.4 9-5.8s7.3-2.1 11.4-2.1 7.9.7 11.4 2.1 6.5 3.3 9 5.8 4.5 5.4 5.9 8.8 2.2 7.2 2.2 11.4-.7 8-2.2 11.4c-1.4 3.4-3.4 6.4-5.9 8.8-2.5 2.5-5.5 4.4-9 5.8s-7.3 2.1-11.4 2.1-7.9-.7-11.4-2.1-6.5-3.3-9-5.8-4.5-5.4-5.9-8.8c-1.5-3.5-2.2-7.3-2.2-11.4zm9.6 0c0 2.8.4 5.4 1.3 7.8s2.1 4.5 3.8 6.3 3.7 3.2 6 4.2 4.9 1.5 7.8 1.5 5.5-.5 7.8-1.5 4.3-2.4 6-4.2 2.9-3.9 3.8-6.3 1.3-5 1.3-7.8-.4-5.4-1.3-7.8-2.1-4.5-3.8-6.3-3.7-3.2-6-4.2-4.9-1.5-7.8-1.5-5.5.5-7.8 1.5-4.3 2.4-6 4.2-2.9 3.9-3.8 6.3c-.9 2.3-1.3 5-1.3 7.8z" fill="#003766"/><path d="m537.9 71.8h-11.6v-7.5h11.6v-12c0-3.3.3-6.3.9-8.9.6-2.7 1.7-5 3.1-7 1.5-2 3.4-3.5 5.9-4.6 2.4-1.1 5.4-1.7 9-1.7 1.1 0 2.4.1 3.6.3 1.3.2 2.4.6 3.2 1l-1.3 8c-2.1-.8-4.1-1.1-6-1.1-2.3 0-4.1.4-5.4 1.2s-2.3 1.9-2.9 3.3-1 3.1-1.1 5.1-.2 4.1-.2 6.4v10h13v7.5h-13v45.8h-8.9v-45.8z" fill="#003766"/><path d="m595.6 71.8h-15.7v26.7c0 1.7 0 3.4.1 4.8.1 1.5.4 2.8.9 3.9s1.3 2 2.4 2.6 2.6 1 4.6 1c1.3 0 2.6-.2 4-.5s2.7-.8 3.9-1.4l.3 8.1c-1.5.7-3.2 1.2-5.1 1.5s-3.6.5-5.3.5c-3.2 0-5.7-.4-7.6-1.3-1.9-.8-3.4-2-4.4-3.5-1.1-1.5-1.8-3.4-2.1-5.6s-.5-4.7-.5-7.5v-29.3h-11.6v-7.5h11.6v-15.2h8.9v15.2h15.7v7.5z" fill="#003766"/></svg>