<svg enable-background="new 0 0 472.228 196.999" height="196.999" viewBox="0 0 472.228 196.999" width="472.228" xmlns="http://www.w3.org/2000/svg" xmlns:xlink="http://www.w3.org/1999/xlink"><clipPath id="a"><path d="m0 0h472.228v196.999h-472.228z"/></clipPath><path d="m157.246 56.48h13.724v84.039h-13.724z" fill="#64b1bc"/><path clip-path="url(#a)" d="m181.338 122.579v-66.099h27.56c23.703 0 43.437 8.959 43.437 41.962 0 32.437-21.208 42.078-45.025 42.078h-8.032c-9.908 0-17.94-8.033-17.94-17.941m13.725-.402c0 3.304 2.677 5.98 5.98 5.98h8.31c18.373 0 28.92-8.166 28.92-29.715 0-21.434-10.094-29.146-30.168-29.146h-13.042z" fill="#4296b4"/><path clip-path="url(#a)" d="m258.502 122.579v-66.099h56.479v12.816h-42.757v22.682h42.757v12.249h-42.757v17.95c0 3.303 2.677 5.98 5.979 5.98h36.777v12.361h-38.54c-9.907.001-17.938-8.031-17.938-17.939" fill="#276092"/><path clip-path="url(#a)" d="m411.72 140.52h4.028l-70.126-81.064c-1.635-1.889-4.01-2.975-6.508-2.975h-.04-13.724v84.04h13.724v-16.445h44.75l5.282 6.106c5.681 6.564 13.933 10.338 22.614 10.338m-72.646-28.354v-39.822l34.448 39.822z" fill="#1d4f90"/><path clip-path="url(#a)" d="m133.153 124.655-50.032-57.836c-5.68-6.566-13.932-10.338-22.613-10.338h-4.028l70.126 81.063c1.634 1.889 4.009 2.975 6.507 2.975h.04 13.724v-84.038h-13.724z" fill="#83c8bc"/><g fill="#1d4f90"><path clip-path="url(#a)" d="m423.388 140.519v-7.58h-2.436v-1.307h6.248v1.307h-2.433v7.58z"/><path clip-path="url(#a)" d="m428.213 140.519v-8.887h1.787l2.135 6.608 2.158-6.608h1.774v8.887h-1.331v-6.68l-2.133 6.68h-1.008l-2.148-6.68v6.68z"/></g></svg>