<svg width="791" height="104" viewBox="0 0 791 104" fill="none"><path d="M62.1022 30.648C61.5568 36.8694 57.8102 41.6094 51.1448 41.6094H40.9968L45.4195 23.2414H55.1955C60.4542 23.2414 62.4902 26.204 62.1022 30.648ZM55.2288 68.568C54.5035 76.8627 49.6742 80.4174 41.3795 80.4174H31.8262L36.5382 60.4214H45.9435C52.3128 60.4214 55.7275 62.8654 55.2288 68.568ZM72.1155 50.7934C82.3062 46.0534 88.9315 38.0547 89.9875 25.9827C91.2902 11.0947 82.8555 1.69067 62.1168 1.69067H23.7529L0.0195312 101.971H38.4569C65.1942 101.971 80.9142 89.8987 82.6315 70.272C83.3835 61.6814 79.2115 54.3494 72.1155 50.7934ZM146.644 40.3507L141.229 63.3094C139.132 72.0492 136.196 81.9003 126.493 81.9003C116.791 81.9003 118.541 72.0492 120.565 63.3094L127.927 32.5C129.38 26.0574 133.964 21.908 140.629 21.908C150.48 21.908 148.661 31.6854 146.644 40.3507ZM145.787 0.208008C120.753 0.208008 103.639 12.1334 98.4622 34.056L90.0195 69.6054C84.8288 91.6758 96.2422 103.452 121.349 103.452C146.456 103.452 163.632 91.6758 168.823 69.6054L177.264 34.056C182.441 12.1334 170.893 0.208008 145.787 0.208008ZM234.553 40.3507L229.137 63.3094C227.04 72.0492 224.105 81.9003 214.403 81.9003C204.7 81.9003 206.451 72.0492 208.475 63.3094L215.836 32.5C217.288 26.0574 221.873 21.908 228.539 21.908C238.388 21.908 236.571 31.6854 234.553 40.3507ZM265.173 34.056C270.351 12.1334 258.803 0.208008 233.696 0.208008C208.663 0.208008 191.548 12.1334 186.371 34.056L177.928 69.6054C172.739 91.6758 184.151 103.452 209.257 103.452C234.365 103.452 251.54 91.6758 256.73 69.6054L265.173 34.056ZM271.127 40.0534C270.277 49.756 273.723 55.2374 281.047 58.7174C295.337 65.5307 303.104 64.792 302.54 71.2346C301.95 77.9731 296.186 79.5294 287.743 79.5294C278.484 79.5294 269.731 77.1602 264.831 75.6039L255.921 98.7121C261.376 100.713 273.208 103.452 287.428 103.452C318.089 103.452 329.745 87.8987 331.644 66.1973C332.777 53.2373 327.155 47.2387 315.527 43.0174L306.695 39.832C301.741 38.0547 299.533 36.2027 299.831 32.7973C300.343 26.9454 306.001 24.056 314.223 24.056C321.333 24.056 329.681 25.9827 334.527 27.3147L343.241 3.912C339.776 2.87466 329.936 0.208008 315.79 0.208008C289.572 0.208008 273.128 17.1694 271.127 40.0534ZM425.716 1.69067H351.209L345.773 24.8707H368.584L350.285 101.971H379.171L397.395 24.8707H420.207L425.716 1.69067ZM482.895 62.5694L487.979 40.8694H453.984L457.635 25.3907H493.109L498.739 1.69067H434.452L410.717 101.971H476.411L482.04 78.2706H445.157L448.9 62.5694H482.895ZM550.023 33.0187L547.706 42.5734C546.299 48.4974 542.063 52.052 536.064 52.052H527.176L533.805 23.6867H542.841C548.767 23.6867 551.343 27.2414 550.023 33.0187ZM548.32 1.69067H510.252L486.519 101.971H515.255L522.245 72.8638H529.206L534.437 101.971H565.247L556.854 67.5307C566.532 62.7174 573.734 54.052 576.76 41.4627L578.44 34.1293C583.472 13.0227 572.242 1.69067 548.32 1.69067ZM628.812 101.831H628.815V101.83L628.812 101.831ZM693.843 101.831H693.844L693.841 101.83L693.843 101.831ZM608.723 39.9867L594.065 101.831H628.812L641.336 63.5747L608.723 39.9867ZM661.328 1.76135H617.781L608.723 39.984L648.971 40.0734L661.328 1.76135ZM790.117 1.76135H661.328L673.685 40.0734L713.937 39.984L681.32 63.5747L693.844 101.831H774.679L750.7 51.7973L790.117 1.76135Z" fill="currentColor"/>
<path d="M628.815 101.83H693.843L661.329 78.0996L628.815 101.83Z" fill="currentColor"/>
</svg>
