<?xml version="1.0" encoding="UTF-8" standalone="no"?>
<!-- Page 1 -->

<svg
   xmlns:dc="http://purl.org/dc/elements/1.1/"
   xmlns:cc="http://creativecommons.org/ns#"
   xmlns:rdf="http://www.w3.org/1999/02/22-rdf-syntax-ns#"
   xmlns:svg="http://www.w3.org/2000/svg"
   xmlns="http://www.w3.org/2000/svg"
   xmlns:sodipodi="http://sodipodi.sourceforge.net/DTD/sodipodi-0.dtd"
   xmlns:inkscape="http://www.inkscape.org/namespaces/inkscape"
   x="0"
   y="0"
   width="763"
   height="152"
   viewBox="0 0 763 152"
   version="1.1"
   style="display:block"
   id="svg2"
   inkscape:version="0.91 r13725"
   sodipodi:docname="codepen-logo.svg">
  <metadata
     id="metadata26">
    <rdf:RDF>
      <cc:Work
         rdf:about="">
        <dc:format>image/svg+xml</dc:format>
        <dc:type
           rdf:resource="http://purl.org/dc/dcmitype/StillImage" />
        <dc:title></dc:title>
      </cc:Work>
    </rdf:RDF>
  </metadata>
  <sodipodi:namedview
     pagecolor="#ffffff"
     bordercolor="#666666"
     borderopacity="1"
     objecttolerance="10"
     gridtolerance="10"
     guidetolerance="10"
     inkscape:pageopacity="0"
     inkscape:pageshadow="2"
     inkscape:window-width="1209"
     inkscape:window-height="833"
     id="namedview24"
     showgrid="false"
     inkscape:zoom="1"
     inkscape:cx="381.5"
     inkscape:cy="131.39193"
     inkscape:window-x="281"
     inkscape:window-y="36"
     inkscape:window-maximized="0"
     inkscape:current-layer="svg2"
     fit-margin-top="0"
     fit-margin-left="0"
     fit-margin-right="0"
     fit-margin-bottom="0"
     units="mm" />
  <defs
     id="defs4">
    <style
       type="text/css"
       id="style6"><![CDATA[

.g1_1{
fill: #231F20;
}


]]></style>
  </defs>
  <path
     d="m 107.2,52.272886 c 7,0 13.5,2.5 18.5,6.8 l 6.8,-8.2 c -6.8,-5.8 -15.7,-9.2 -25.3,-9.2 -21.8,0 -39.5,17.7 -39.5,39.5 0,21.700004 17.7,39.500004 39.5,39.500004 9.6,0 18.5,-3.5 25.3,-9.3 l -6.8,-8.1 c -5,4.2 -11.5,6.7 -18.5,6.7 -16,0 -28.9,-12.900004 -28.9,-28.800004 0,-16 12.9,-28.9 28.9,-28.9 z"
     class="g1_1"
     id="path10"
     inkscape:connector-curvature="0"
     style="fill:#231f20" />
  <path
     d="m 325.8,107.67289 -15.9,0 0,-53.100004 15.9,0 c 14.7,0 26.6,11.9 26.6,26.6 0,14.6 -11.9,26.500004 -26.6,26.500004 m 0,-63.800004 -21.2,0 c -3,0 -5.4,2.4 -5.4,5.4 l 0,63.800004 c 0,2.9 2.4,5.3 5.4,5.3 l 21.2,0 c 20.6,0 37.3,-16.7 37.3,-37.200004 0,-20.6 -16.7,-37.3 -37.3,-37.3 z"
     class="g1_1"
     id="path12"
     inkscape:connector-curvature="0"
     style="fill:#231f20" />
  <path
     d="m 391.9,49.272886 0,63.800004 c 0,2.9 2.3,5.3 5.3,5.3 l 44.3,0 0,-10.7 -39,0 0,-21.200004 24.8,0 0,-10.7 -24.8,0 0,-21.2 39,0 0,-10.7 -44.3,0 c -3,0 -5.3,2.4 -5.3,5.4 z"
     class="g1_1"
     id="path14"
     inkscape:connector-curvature="0"
     style="fill:#231f20" />
  <path
     d="m 552.8,49.272886 0,63.800004 c 0,2.9 2.4,5.3 5.3,5.3 l 44.4,0 0,-10.7 -39,0 0,-21.200004 24.8,0 0,-10.7 -24.8,0 0,-21.2 39,0 0,-10.7 -44.4,0 c -2.9,0 -5.3,2.4 -5.3,5.4 z"
     class="g1_1"
     id="path16"
     inkscape:connector-curvature="0"
     style="fill:#231f20" />
  <path
     d="m 502.2,75.772886 -17.7,0 0,-21.2 17.7,0 c 5.9,0 10.7,4.7 10.7,10.6 0,5.9 -4.8,10.6 -10.7,10.6 m 0,-31.9 -23,0 c -3,0 -5.3,2.4 -5.3,5.4 l 0,69.100004 10.6,0 0,-31.900004 17.7,0 c 11.7,0 21.3,-9.6 21.3,-21.3 0,-11.7 -9.6,-21.3 -21.3,-21.3 z"
     class="g1_1"
     id="path18"
     inkscape:connector-curvature="0"
     style="fill:#231f20" />
  <path
     d="m 685.6,43.872886 0,54.5 -43.8,-52.6 c -1.4,-1.7 -3.8,-2.3 -5.9,-1.5 -2.1,0.7 -3.5,2.7 -3.5,5 l 0,69.100004 10.7,0 0,-54.500004 43.7,52.600004 c 1.1,1.2 2.6,1.9 4.1,1.9 0.6,0 1.2,-0.1 1.8,-0.3 2.1,-0.8 3.5,-2.8 3.5,-5 l 0,-69.200004 z"
     class="g1_1"
     id="path20"
     inkscape:connector-curvature="0"
     style="fill:#231f20" />
  <path
     d="m 238.4,75.272886 -21.1,-14.1 0,-22.8 38.2,25.5 z m 8.8,5.9 12.2,-8.2 0,16.3 z m -29.9,20.000004 21.1,-14.200004 17.1,11.4 -38.2,25.500004 z m -30.9,-14.200004 21.1,14.200004 0,22.7 -38.2,-25.500004 z m -8.8,-5.8 -12.2,8.1 0,-16.3 z m 29.9,-20 -21.1,14.1 -17.1,-11.4 38.2,-25.5 z m 4.9,31.5 -17.2,-11.5 17.2,-11.6 17.2,11.6 z m 56.6,-29.7 c 0,-0.1 0,-0.2 0,-0.4 -0.1,-0.1 -0.1,-0.1 -0.1,-0.2 -0.1,-0.1 -0.1,-0.3 -0.2,-0.4 0,-0.1 0,-0.1 -0.1,-0.2 0,-0.1 -0.1,-0.2 -0.1,-0.3 -0.1,-0.1 -0.1,-0.2 -0.2,-0.3 0,-0.1 -0.1,-0.2 -0.2,-0.3 0,0 -0.1,-0.1 -0.1,-0.2 -0.1,-0.1 -0.2,-0.1 -0.3,-0.2 0,-0.1 -0.1,-0.2 -0.2,-0.2 -0.1,-0.1 -0.2,-0.2 -0.3,-0.3 0,0 -0.1,-0.1 -0.2,-0.1 0,0 0,-0.1 -0.1,-0.1 l -51.8,-34.5 c -1.6,-1.1 -3.8,-1.1 -5.4,0 l -51.9,34.5 c 0,0 0,0.1 0,0.1 -0.1,0 -0.2,0.1 -0.3,0.1 -0.1,0.1 -0.1,0.2 -0.2,0.3 -0.1,0 -0.2,0.1 -0.2,0.2 -0.1,0.1 -0.2,0.1 -0.3,0.2 0,0.1 -0.1,0.2 -0.1,0.2 -0.1,0.1 -0.2,0.2 -0.2,0.3 -0.1,0.1 -0.1,0.2 -0.2,0.3 0,0.1 -0.1,0.2 -0.1,0.3 -0.1,0.1 -0.1,0.1 -0.2,0.2 0,0.1 0,0.3 -0.1,0.4 0,0.1 0,0.1 -0.1,0.2 0,0.2 0,0.3 0,0.4 -0.1,0.1 -0.1,0.2 -0.1,0.2 0,0.3 0,0.5 0,0.7 l 0,34.5 c 0,0.3 0,0.5 0,0.7 0,0.1 0,0.1 0.1,0.2 0,0.1 0,0.3 0,0.4 0.1,0.1 0.1,0.2 0.1,0.2 0.1,0.200004 0.1,0.300004 0.1,0.400004 0.1,0.1 0.1,0.2 0.2,0.2 0,0.1 0.1,0.2 0.1,0.4 0.1,0 0.1,0.1 0.2,0.2 0,0.1 0.1,0.2 0.2,0.3 0,0 0.1,0.1 0.1,0.2 0.1,0.1 0.2,0.2 0.3,0.2 0,0.1 0.1,0.2 0.2,0.2 0.1,0.1 0.1,0.2 0.2,0.3 0.1,0 0.2,0.1 0.3,0.1 0,0.1 0,0.1 0,0.1 l 51.9,34.6 c 0.8,0.5 1.8,0.8 2.7,0.8 0.9,0 1.9,-0.3 2.7,-0.8 l 51.8,-34.6 c 0.1,0 0.1,0 0.1,-0.1 0.1,0 0.2,-0.1 0.2,-0.1 0.1,-0.1 0.2,-0.2 0.3,-0.3 0.1,0 0.2,-0.1 0.2,-0.2 0.1,0 0.2,-0.1 0.3,-0.2 0,-0.1 0.1,-0.2 0.1,-0.2 0.1,-0.1 0.2,-0.2 0.2,-0.3 0.1,-0.1 0.1,-0.2 0.2,-0.2 0,-0.2 0.1,-0.3 0.1,-0.4 0.1,0 0.1,-0.1 0.1,-0.2 0.1,-0.1 0.1,-0.2 0.2,-0.400004 0,0 0,-0.1 0.1,-0.2 0,-0.1 0,-0.3 0,-0.4 0,-0.1 0.1,-0.1 0.1,-0.2 0,-0.2 0,-0.4 0,-0.7 l 0,-34.5 c 0,-0.2 0,-0.4 0,-0.7 0,0 -0.1,-0.1 -0.1,-0.2 z"
     class="g1_1"
     id="path22"
     inkscape:connector-curvature="0"
     style="fill:#231f20" />
</svg>
