<?xml version="1.0" encoding="UTF-8"?>
<svg width="80px" height="90px" viewBox="0 0 80 90" version="1.1" xmlns="http://www.w3.org/2000/svg" xmlns:xlink="http://www.w3.org/1999/xlink">
  <path fill="#D0AE56" id="path-1" d="M14.6071468,57.9252613 L15.2716289,57.8994562 L15.387752,57.8994562 L15.9393367,57.873651 L16.0812649,57.873651 L16.6005931,57.8413946 L16.7392957,57.8413946 L17.2683009,57.7962356 L17.3811983,57.7962356 L17.9553624,57.7284972 L18.013424,57.7284972 C18.4284565,57.6725861 18.8391882,57.5983963 19.245619,57.5059279 L19.245619,43.990491 L14.4071571,43.990491 L14.4071571,57.9252613 L14.6071468,57.9252613 Z M40.0155231,48.6386401 C36.7727914,48.6381681 33.795133,46.8478509 32.273984,43.9840397 L23.1841269,43.9840397 C25.0817469,51.7369143 32.0305667,57.1900386 40.0122974,57.1900386 C47.9940282,57.1900386 54.942848,51.7369143 56.8404679,43.9840397 L47.7570621,43.9840397 C46.2371046,46.851371 43.2575801,48.6445459 40.0122974,48.6450914 L40.0155231,48.6386401 Z M35.1770612,82.682058 L44.853985,82.682058 L44.853985,77.8435961 L35.1770612,77.8435961 L35.1770612,82.682058 Z M58.4274835,82.682058 L68.1044073,82.682058 L68.1044073,77.8435961 L58.4274835,77.8435961 L58.4274835,82.682058 Z M11.9782492,82.682058 L21.655173,82.682058 L21.655173,77.8435961 L11.9782492,77.8435961 L11.9782492,82.682058 Z M8.10747965,85.9076993 L71.900987,85.9076993 L71.900987,84.2948787 L8.12360786,84.2948787 L8.10747965,85.9076993 Z M5.20440251,89.0946329 L74.7943873,89.0946329 L74.7943873,87.4818122 L5.23343328,87.4818122 L5.20440251,89.0946329 Z M71.900987,37.5779162 L8.12360786,37.5779162 L8.12360786,39.1907368 L71.900987,39.1907368 L71.900987,37.5779162 Z M69.9365715,40.7648497 L10.0880234,40.7648497 L10.0880234,42.3776704 L69.9397971,42.3776704 L69.9365715,40.7648497 Z M6.84625392,59.2961588 C0.477853081,48.3664149 -0.0775513155,34.9956578 5.36245893,23.5754074 L16.4393111,29.0783514 C15.4310426,31.2743074 14.7371628,33.6013566 14.3781263,35.9909007 L23.1325167,35.9909007 C24.9540424,28.1414509 31.947818,22.5847941 40.0058462,22.5847941 C48.0638743,22.5847941 55.0576499,28.1414509 56.8791756,35.9909007 L65.633566,35.9909007 C65.2738143,33.6035885 64.5799515,31.2787679 63.5723813,29.0848027 L74.6492334,23.5818587 C80.0863343,34.9946882 79.5358353,48.3563624 73.178341,59.2832563 C73.675622,59.4987172 74.1592918,59.7443223 74.6266539,60.0187025 C84.347643,43.2058765 80.5866951,21.8396354 65.7089887,9.35674326 C50.8312822,-3.12614884 29.1365611,-3.11806322 14.2681635,9.37591524 C-0.600234157,21.8698937 -4.34525457,43.2389323 5.38826406,60.0445076 C5.85841059,59.7653157 6.34533188,59.5153915 6.84625392,59.2961588 Z M73.933141,22.1206432 L62.8659658,27.6042334 C60.8592604,23.8647528 57.9691213,20.6723117 54.4470421,18.3047096 L60.6209195,7.66009339 C66.2307785,11.2520111 70.8165968,16.2334076 73.933141,22.1206432 Z M40.8187078,1.69265704 C47.2993052,1.81804382 53.6408213,3.59437885 59.2435707,6.85368307 L53.0793702,17.4724941 C49.3524612,15.2925362 45.1377106,14.0835683 40.8219334,13.9565451 L40.8187078,1.69265704 Z M39.2058871,1.69265704 L39.2058871,13.9500939 C34.809658,14.085794 30.5212316,15.3438953 26.7484605,17.6047454 L20.4907165,7.04077026 C26.1610931,3.6683394 32.6097669,1.82554362 39.2058871,1.69265704 Z M19.1230446,7.88266264 L25.3904656,18.4659916 C21.9527197,20.8192776 19.1297651,23.9630224 17.1586291,27.6332641 L6.0946795,22.149674 C9.1591443,16.3674011 13.6420927,11.4582452 19.1230446,7.88266264 Z M57.092068,57.7284972 L57.092068,66.2796722 C63.2207864,69.8117494 69.3301509,66.0667799 75.4491924,71.0762007 L72.8686794,65.7409901 L75.4491924,62.5153488 C69.3301509,57.5156048 63.2111095,61.2605744 57.092068,57.7284972 Z M23.0099423,66.2828978 L23.0099423,57.7284972 C16.8812239,61.2605744 10.7718593,57.5156048 4.65281785,62.5250257 L7.23333087,65.750667 L4.65281785,71.0858777 C10.7525055,66.0667799 16.8812239,69.814975 23.0099423,66.2828978 Z M14.7393981,69.7085288 L14.416834,69.7085288 L14.416834,75.9888524 L19.2552959,75.9888524 L19.2552959,69.311775 C17.75727,69.5533167 16.2437011,69.6859156 14.7264955,69.7085288 L14.7393981,69.7085288 Z M65.4819609,57.9252613 L65.6819507,57.9252613 L65.6819507,43.990491 L60.8434888,43.990491 L60.8434888,57.4768972 C62.3724672,57.7693797 63.9252697,57.9194767 65.4819609,57.9252613 Z M65.3626122,69.7020776 C63.8497959,69.6799091 62.3405621,69.5483902 60.8467144,69.3085493 L60.8467144,75.9888524 L65.6851763,75.9888524 L65.6851763,69.7182058 L65.3626122,69.7020776 Z M40.0574564,58.8026357 C39.2309525,58.8064817 38.4058991,58.7330476 37.5930665,58.5832921 L37.5930665,76.2307755 L42.4315284,76.2307755 L42.4315284,58.602646 C41.6481131,58.7436441 40.8534505,58.8127451 40.0574564,58.809087 L40.0574564,58.8026357 Z"></path>
</svg>
