<?xml version="1.0" encoding="utf-8"?>
<!-- Generator: Adobe Illustrator 16.0.0, SVG Export Plug-In . SVG Version: 6.00 Build 0)  -->
<!DOCTYPE svg PUBLIC "-//W3C//DTD SVG 1.1//EN" "http://www.w3.org/Graphics/SVG/1.1/DTD/svg11.dtd">
<svg version="1.1" id="Layer_1" xmlns="http://www.w3.org/2000/svg" xmlns:xlink="http://www.w3.org/1999/xlink" x="0px" y="0px"
	 width="472.228px" height="243.427px" viewBox="0 0 472.228 243.427" enable-background="new 0 0 472.228 243.427"
	 xml:space="preserve">
<rect x="157.246" y="56.48" fill="#64B1BC" width="13.724" height="84.039"/>
<g>
	<defs>
		<rect id="SVGID_1_" width="472.228" height="243.427"/>
	</defs>
	<clipPath id="SVGID_2_">
		<use xlink:href="#SVGID_1_"  overflow="visible"/>
	</clipPath>
	<path clip-path="url(#SVGID_2_)" fill="#4296B4" d="M181.338,122.579V56.48h27.56c23.703,0,43.437,8.959,43.437,41.962
		c0,32.437-21.208,42.077-45.025,42.077h-8.032C189.37,140.519,181.338,132.487,181.338,122.579 M195.063,122.177
		c0,3.303,2.677,5.98,5.98,5.98h8.31c18.373,0,28.92-8.167,28.92-29.715c0-21.434-10.094-29.146-30.168-29.146h-13.042V122.177z"/>
	<path clip-path="url(#SVGID_2_)" fill="#276092" d="M258.502,122.579v-66.1h56.479v12.816h-42.757v22.682h42.757v12.249h-42.757
		v17.95c0,3.303,2.677,5.979,5.979,5.979h36.777v12.362h-38.54C266.533,140.519,258.502,132.486,258.502,122.579"/>
	<path clip-path="url(#SVGID_2_)" fill="#1D4F90" d="M411.72,140.519h4.028l-70.126-81.063c-1.635-1.889-4.01-2.975-6.508-2.975
		h-0.04h-13.724v84.039h13.724v-16.444h44.75l5.282,6.106C394.787,136.746,403.039,140.519,411.72,140.519 M339.074,112.166V72.344
		l34.448,39.822H339.074z"/>
	<path clip-path="url(#SVGID_2_)" fill="#83C8BC" d="M133.153,124.654L83.121,66.818c-5.68-6.566-13.932-10.338-22.613-10.338
		h-4.028l70.126,81.063c1.634,1.889,4.009,2.975,6.507,2.975h0.04h13.724V56.48h-13.724V124.654z"/>
	<path clip-path="url(#SVGID_2_)" fill="#1D4F90" d="M187.25,173.619h-2.58v8.362h-3.332v-24.206h5.259
		c5.488,0,6.794,2.973,6.794,7.677c0,3.07-0.686,5.978-3.07,7.35l2.907,9.18h-3.43L187.25,173.619z M186.5,170.516
		c2.809,0,3.495-1.502,3.495-4.867c0-3.43-0.686-4.835-3.528-4.835h-1.796v9.702H186.5z"/>
	<path clip-path="url(#SVGID_2_)" fill="#1D4F90" d="M196.982,180.969c-1.633-1.535-1.895-4.409-1.895-8.167
		c0-3.691,0.229-6.239,1.667-7.808c0.849-0.979,2.188-1.567,4.115-1.567c1.732,0,3.071,0.425,3.822,1.273
		c1.405,1.602,1.536,4.934,1.405,9.802h-7.84c0.131,3.429,0.718,4.768,2.973,4.768c1.437,0,2.809-0.522,3.593-0.881l1.176,2.711
		c-1.437,0.752-3.005,1.143-5.194,1.143C199.237,182.242,197.832,181.785,196.982,180.969 M198.257,171.627h4.802
		c0-3.496-0.229-5.097-2.221-5.097C198.747,166.53,198.323,168.196,198.257,171.627"/>
	<path clip-path="url(#SVGID_2_)" fill="#1D4F90" d="M208.12,176.361c0-4.898,2.09-6.597,6.566-6.597h0.98
		c0-2.188-0.163-3.169-1.993-3.169c-1.176,0-2.385,0.457-3.071,0.849l-1.371-2.841c0.881-0.522,2.417-1.177,4.834-1.177
		c1.862,0,3.103,0.424,3.822,1.208c0.817,0.883,1.013,2.352,1.013,4.41v8.331c0,1.109,0.098,1.403,1.077,1.403v3.202
		c-0.228,0.032-1.045,0.032-1.306,0.032c-1.6,0-2.221-0.555-2.384-1.927c-0.654,1.242-1.634,2.09-4.084,2.09
		C209.132,182.177,208.12,180.12,208.12,176.361 M215.666,175.187v-2.743h-0.752c-2.711,0-3.626,0.751-3.626,3.658
		c0,2.091,0.36,3.267,1.863,3.267C215.338,179.368,215.666,177.408,215.666,175.187"/>
	<path clip-path="url(#SVGID_2_)" fill="#1D4F90" d="M223.274,180.969c-1.666-1.471-1.927-4.443-1.927-8.167
		c0-3.527,0.229-6.305,1.666-7.873c0.882-0.947,2.156-1.502,4.018-1.502c1.764,0,2.875,0.294,3.887,0.914l-1.568,2.777
		c-0.522-0.326-1.111-0.522-2.025-0.522c-2.058,0-2.613,1.896-2.613,6.305s0.555,6.369,2.645,6.369c0.882,0,1.601-0.294,2.352-0.751
		l1.503,2.547c-0.882,0.59-2.025,1.145-4.279,1.145C225.267,182.21,224.091,181.753,223.274,180.969"/>
	<path clip-path="url(#SVGID_2_)" fill="#1D4F90" d="M233.3,157.057h3.267v8.167c0.587-1.013,1.698-1.797,3.92-1.797
		c1.469,0,2.417,0.457,3.037,1.177c0.784,0.98,0.979,2.515,0.979,4.474v12.904h-3.299v-11.727c0-2.908-0.424-3.659-1.991-3.659
		c-2.32,0-2.646,1.698-2.646,4.737v10.648H233.3V157.057z"/>
	<path clip-path="url(#SVGID_2_)" fill="#1D4F90" d="M246.593,184.171c1.372-0.915,1.568-1.015,1.568-2.189h-1.568v-4.443h3.757
		v3.202c0,3.136-0.326,3.822-2.712,5.128L246.593,184.171z"/>
	<path clip-path="url(#SVGID_2_)" fill="#1D4F90" d="M254.202,181.034l1.535-2.612c0.947,0.554,1.928,0.815,3.202,0.815
		c1.601,0,2.254-0.653,2.254-1.927c0-2.973-6.468-4.182-6.468-8.82c0-3.724,2.287-5.063,5.193-5.063
		c1.829,0,3.071,0.425,4.082,0.979l-1.567,2.777c-0.686-0.359-1.371-0.588-2.319-0.588c-1.339,0-2.09,0.522-2.09,1.83
		c0,2.646,6.436,3.854,6.436,8.722c0,3.07-1.667,5.062-5.521,5.062C256.783,182.209,255.477,181.753,254.202,181.034"/>
	<path clip-path="url(#SVGID_2_)" fill="#1D4F90" d="M266.744,181.034c-0.816-0.98-0.979-2.516-0.979-4.475v-12.838h3.299v11.857
		c0,2.939,0.424,3.658,1.992,3.658c2.32,0,2.581-1.633,2.581-4.672v-10.844h3.3v18.13l-2.745,0.163l-0.229-1.83
		c-0.522,1.209-1.601,2.024-4.181,2.024C268.313,182.209,267.364,181.753,266.744,181.034"/>
	<path clip-path="url(#SVGID_2_)" fill="#1D4F90" d="M279.481,163.917l2.712-0.163l0.294,2.123c0.555-1.503,1.632-2.222,3.626-2.352
		l0.62,3.299c-3.006,0.131-3.952,1.34-3.952,4.736v10.421h-3.3V163.917z"/>
	<path clip-path="url(#SVGID_2_)" fill="#1D4F90" d="M290.03,180.969c-1.632-1.535-1.895-4.409-1.895-8.167
		c0-3.691,0.229-6.239,1.667-7.808c0.849-0.979,2.188-1.567,4.115-1.567c1.731,0,3.071,0.425,3.822,1.273
		c1.404,1.602,1.535,4.934,1.404,9.802h-7.84c0.131,3.429,0.718,4.768,2.973,4.768c1.438,0,2.81-0.522,3.593-0.881l1.177,2.711
		c-1.438,0.752-3.006,1.143-5.193,1.143C292.285,182.242,290.881,181.785,290.03,180.969 M291.305,171.627h4.802
		c0-3.496-0.228-5.097-2.221-5.097C291.795,166.53,291.37,168.196,291.305,171.627"/>
	<path clip-path="url(#SVGID_2_)" fill="#1D4F90" d="M304.793,176.361c0-4.898,2.091-6.597,6.565-6.597h0.98
		c0-2.188-0.164-3.169-1.993-3.169c-1.177,0-2.385,0.457-3.07,0.849l-1.372-2.841c0.882-0.522,2.418-1.177,4.834-1.177
		c1.862,0,3.104,0.424,3.823,1.208c0.816,0.883,1.012,2.352,1.012,4.41v8.331c0,1.109,0.099,1.403,1.078,1.403v3.202
		c-0.229,0.032-1.045,0.032-1.307,0.032c-1.601,0-2.222-0.555-2.385-1.927c-0.654,1.242-1.634,2.09-4.083,2.09
		C305.805,182.177,304.793,180.12,304.793,176.361 M312.339,175.187v-2.743h-0.751c-2.712,0-3.627,0.751-3.627,3.658
		c0,2.091,0.36,3.267,1.862,3.267C312.012,179.368,312.339,177.408,312.339,175.187"/>
	<path clip-path="url(#SVGID_2_)" fill="#1D4F90" d="M318.544,163.917l2.711-0.163l0.261,1.73c0.523-1.24,1.666-2.058,4.214-2.058
		c1.47,0,2.417,0.457,3.038,1.177c0.784,0.979,0.98,2.516,0.98,4.475v12.903h-3.3v-11.727c0-2.908-0.425-3.659-1.992-3.659
		c-2.319,0-2.646,1.698-2.646,4.737v10.648h-3.266V163.917z"/>
	<path clip-path="url(#SVGID_2_)" fill="#1D4F90" d="M332.914,181.066c-1.471-1.535-1.536-4.54-1.536-8.264
		c0-3.822,0.065-6.828,1.667-8.33c0.686-0.621,1.633-1.046,2.973-1.046c1.764,0,3.006,0.425,3.724,1.73v-8.101h3.266v24.795
		l-2.711,0.163l-0.228-1.896c-0.751,1.602-2.189,2.123-4.181,2.123C334.515,182.242,333.6,181.785,332.914,181.066 M339.741,172.9
		c0-4.247-0.261-6.305-2.679-6.305c-2.189,0-2.353,2.155-2.353,6.305s0.163,6.369,2.353,6.369
		C339.48,179.27,339.741,177.211,339.741,172.9"/>
	<path clip-path="url(#SVGID_2_)" fill="#1D4F90" d="M348.198,181.034l1.535-2.612c0.947,0.554,1.927,0.815,3.202,0.815
		c1.601,0,2.253-0.653,2.253-1.927c0-2.973-6.467-4.182-6.467-8.82c0-3.724,2.285-5.063,5.192-5.063c1.83,0,3.071,0.425,4.083,0.979
		l-1.567,2.777c-0.686-0.359-1.371-0.588-2.319-0.588c-1.339,0-2.09,0.522-2.09,1.83c0,2.646,6.435,3.854,6.435,8.722
		c0,3.07-1.666,5.062-5.52,5.062C350.779,182.209,349.473,181.753,348.198,181.034"/>
	<path clip-path="url(#SVGID_2_)" fill="#1D4F90" d="M359.955,157.972h3.3v3.953h-3.3V157.972z M359.955,163.721h3.3v18.26h-3.3
		V163.721z"/>
	<path clip-path="url(#SVGID_2_)" fill="#1D4F90" d="M365.573,163.917l2.711-0.163l0.263,1.73c0.522-1.24,1.567-2.058,4.05-2.058
		c1.96,0,3.039,0.883,3.496,2.254c0.554-1.404,1.665-2.254,4.181-2.254c1.34,0,2.254,0.392,2.874,1.078
		c0.85,0.979,1.045,2.614,1.045,4.573v12.903h-3.299v-11.727c0-2.908-0.392-3.659-1.895-3.659c-2.222,0-2.482,1.698-2.482,4.737
		v10.648h-3.3v-11.727c0-2.908-0.425-3.659-1.895-3.659c-2.222,0-2.481,1.698-2.481,4.737v10.648h-3.268V163.917z"/>
	<path clip-path="url(#SVGID_2_)" fill="#1D4F90" d="M385.823,163.917l2.712-0.163l0.26,1.796c0.719-1.6,2.156-2.123,4.15-2.123
		c1.371,0,2.318,0.457,2.972,1.145c1.469,1.535,1.535,4.507,1.535,8.264c0,3.79-0.066,6.794-1.666,8.297
		c-0.653,0.621-1.633,1.045-2.973,1.045c-1.764,0-3.005-0.391-3.725-1.698v6.469h-3.266V163.917z M394.12,172.966
		c0-4.149-0.163-6.37-2.353-6.37c-2.416,0-2.679,2.059-2.679,6.37c0,4.246,0.263,6.272,2.679,6.272
		C393.957,179.238,394.12,177.115,394.12,172.966"/>
	<rect x="399.605" y="157.057" clip-path="url(#SVGID_2_)" fill="#1D4F90" width="3.3" height="24.925"/>
	<path clip-path="url(#SVGID_2_)" fill="#1D4F90" d="M406.596,180.969c-1.634-1.535-1.896-4.409-1.896-8.167
		c0-3.691,0.23-6.239,1.667-7.808c0.85-0.979,2.189-1.567,4.116-1.567c1.73,0,3.071,0.425,3.822,1.273
		c1.404,1.602,1.535,4.934,1.404,9.802h-7.84c0.13,3.429,0.718,4.768,2.973,4.768c1.438,0,2.809-0.522,3.594-0.881l1.176,2.711
		c-1.438,0.752-3.006,1.143-5.194,1.143C408.85,182.242,407.444,181.785,406.596,180.969 M407.869,171.627h4.801
		c0-3.496-0.228-5.097-2.221-5.097C408.358,166.53,407.935,168.196,407.869,171.627"/>
	<polygon clip-path="url(#SVGID_2_)" fill="#1D4F90" points="423.388,140.519 423.388,132.939 420.952,132.939 420.952,131.632 
		427.2,131.632 427.2,132.939 424.767,132.939 424.767,140.519 	"/>
	<polygon clip-path="url(#SVGID_2_)" fill="#1D4F90" points="428.213,140.519 428.213,131.632 430,131.632 432.135,138.24 
		434.293,131.632 436.067,131.632 436.067,140.519 434.736,140.519 434.736,133.838 432.603,140.519 431.595,140.519 
		429.447,133.838 429.447,140.519 	"/>
</g>
</svg>
