  <svg width="307" height="60" viewBox="0 0 307 60" fill="none" xmlns="http://www.w3.org/2000/svg">
  <path d="M303.727 41.5156C303.727 43.5208 303.466 45.3307 302.945 46.9453C302.451 48.5339 301.786 49.9401 300.953 51.1641C300.12 52.388 299.143 53.4297 298.023 54.2891C296.904 55.1484 295.745 55.8516 294.547 56.3984C293.349 56.9453 292.125 57.349 290.875 57.6094C289.651 57.8698 288.492 58 287.398 58H248.219V47.8438H287.398C289.352 47.8438 290.862 47.2708 291.93 46.125C293.023 44.9792 293.57 43.4427 293.57 41.5156C293.57 40.5781 293.427 39.7188 293.141 38.9375C292.854 38.1562 292.438 37.4792 291.891 36.9062C291.37 36.3333 290.719 35.8906 289.938 35.5781C289.182 35.2656 288.336 35.1094 287.398 35.1094H264.039C262.398 35.1094 260.628 34.8229 258.727 34.25C256.826 33.651 255.055 32.7005 253.414 31.3984C251.799 30.0964 250.445 28.3906 249.352 26.2812C248.284 24.1719 247.75 21.5938 247.75 18.5469C247.75 15.5 248.284 12.9349 249.352 10.8516C250.445 8.74219 251.799 7.03646 253.414 5.73438C255.055 4.40625 256.826 3.45573 258.727 2.88281C260.628 2.28385 262.398 1.98438 264.039 1.98438H298.609V12.1406H264.039C262.112 12.1406 260.602 12.7266 259.508 13.8984C258.44 15.0703 257.906 16.6198 257.906 18.5469C257.906 20.5 258.44 22.0495 259.508 23.1953C260.602 24.3151 262.112 24.875 264.039 24.875H287.398H287.477C288.57 24.901 289.729 25.0573 290.953 25.3438C292.177 25.6042 293.388 26.0208 294.586 26.5938C295.81 27.1667 296.969 27.8958 298.062 28.7812C299.156 29.6406 300.12 30.6823 300.953 31.9062C301.812 33.1302 302.49 34.5365 302.984 36.125C303.479 37.7135 303.727 39.5104 303.727 41.5156Z" fill="currentColor"/>
  <path d="M240.719 25.4219C240.719 27.7396 240.432 29.8099 239.859 31.6328C239.286 33.4557 238.505 35.0703 237.516 36.4766C236.552 37.8568 235.432 39.0417 234.156 40.0312C232.88 41.0208 231.539 41.8281 230.133 42.4531C228.753 43.0781 227.346 43.5339 225.914 43.8203C224.508 44.1068 223.18 44.25 221.93 44.25H198.961V34.0938H221.93C223.232 33.9896 224.404 33.7292 225.445 33.3125C226.513 32.8698 227.424 32.2839 228.18 31.5547C228.935 30.8255 229.521 29.9531 229.938 28.9375C230.354 27.8958 230.562 26.724 230.562 25.4219V20.8125C230.432 19.5365 230.159 18.3646 229.742 17.2969C229.326 16.2292 228.753 15.3177 228.023 14.5625C227.32 13.8073 226.461 13.2214 225.445 12.8047C224.43 12.362 223.258 12.1406 221.93 12.1406H199.039C197.685 12.1406 196.656 12.4922 195.953 13.1953C195.25 13.8984 194.898 14.9141 194.898 16.2422V58H184.742V16.2422C184.742 13.638 185.211 11.4245 186.148 9.60156C187.112 7.77865 188.297 6.30729 189.703 5.1875C191.135 4.06771 192.685 3.26042 194.352 2.76562C196.018 2.24479 197.555 1.98438 198.961 1.98438H221.93C224.221 1.98438 226.279 2.28385 228.102 2.88281C229.924 3.45573 231.526 4.23698 232.906 5.22656C234.312 6.1901 235.497 7.3099 236.461 8.58594C237.451 9.86198 238.258 11.2031 238.883 12.6094C239.534 13.9896 240.003 15.3958 240.289 16.8281C240.576 18.2344 240.719 19.5625 240.719 20.8125V25.4219Z" fill="currentColor"/>
  <path d="M176.727 41.5156C176.727 43.5208 176.466 45.3307 175.945 46.9453C175.451 48.5339 174.786 49.9401 173.953 51.1641C173.12 52.388 172.143 53.4297 171.023 54.2891C169.904 55.1484 168.745 55.8516 167.547 56.3984C166.349 56.9453 165.125 57.349 163.875 57.6094C162.651 57.8698 161.492 58 160.398 58H121.219V47.8438H160.398C162.352 47.8438 163.862 47.2708 164.93 46.125C166.023 44.9792 166.57 43.4427 166.57 41.5156C166.57 40.5781 166.427 39.7188 166.141 38.9375C165.854 38.1562 165.438 37.4792 164.891 36.9062C164.37 36.3333 163.719 35.8906 162.938 35.5781C162.182 35.2656 161.336 35.1094 160.398 35.1094H137.039C135.398 35.1094 133.628 34.8229 131.727 34.25C129.826 33.651 128.055 32.7005 126.414 31.3984C124.799 30.0964 123.445 28.3906 122.352 26.2812C121.284 24.1719 120.75 21.5938 120.75 18.5469C120.75 15.5 121.284 12.9349 122.352 10.8516C123.445 8.74219 124.799 7.03646 126.414 5.73438C128.055 4.40625 129.826 3.45573 131.727 2.88281C133.628 2.28385 135.398 1.98438 137.039 1.98438H171.609V12.1406H137.039C135.112 12.1406 133.602 12.7266 132.508 13.8984C131.44 15.0703 130.906 16.6198 130.906 18.5469C130.906 20.5 131.44 22.0495 132.508 23.1953C133.602 24.3151 135.112 24.875 137.039 24.875H160.398H160.477C161.57 24.901 162.729 25.0573 163.953 25.3438C165.177 25.6042 166.388 26.0208 167.586 26.5938C168.81 27.1667 169.969 27.8958 171.062 28.7812C172.156 29.6406 173.12 30.6823 173.953 31.9062C174.812 33.1302 175.49 34.5365 175.984 36.125C176.479 37.7135 176.727 39.5104 176.727 41.5156Z" fill="currentColor"/>
  <path class="text-orange-600" d="M112.359 44.0156C112.359 45.4219 112.112 46.9453 111.617 48.5859C111.122 50.2005 110.315 51.7109 109.195 53.1172C108.102 54.4974 106.656 55.6562 104.859 56.5938C103.089 57.5312 100.927 58 98.375 58H80.0547C78.6484 58 77.125 57.7526 75.4844 57.2578C73.8698 56.763 72.3594 55.9688 70.9531 54.875C69.5729 53.7552 68.4141 52.3099 67.4766 50.5391C66.5391 48.7422 66.0703 46.5677 66.0703 44.0156C66.0703 42.6094 66.3177 41.0859 66.8125 39.4453C67.3073 37.8047 68.1016 36.2943 69.1953 34.9141C70.3151 33.5078 71.7604 32.3359 73.5312 31.3984C75.3281 30.4609 77.5026 29.9922 80.0547 29.9922H98.375V39.6797H80.0547C78.6745 39.6797 77.6068 40.1094 76.8516 40.9688C76.0964 41.8021 75.7188 42.8438 75.7188 44.0938C75.7188 45.4219 76.1484 46.4635 77.0078 47.2188C77.8932 47.9479 78.9349 48.3125 80.1328 48.3125H98.375C99.7552 48.3125 100.823 47.8958 101.578 47.0625C102.333 46.2292 102.711 45.1875 102.711 43.9375V29.7578C102.711 28.4297 102.294 27.375 101.461 26.5938C100.654 25.8125 99.625 25.4219 98.375 25.4219H76.0703V15.7734H98.375C99.7812 15.7734 101.292 16.0208 102.906 16.5156C104.547 17.0104 106.057 17.8177 107.438 18.9375C108.844 20.0312 110.016 21.4766 110.953 23.2734C111.891 25.0443 112.359 27.2057 112.359 29.7578V44.0156Z" fill="currentColor"/>
  <path class="text-orange-600" d="M61.1719 52.8828C61.1719 53.612 61.0417 54.2891 60.7812 54.9141C60.5208 55.5391 60.1562 56.0859 59.6875 56.5547C59.2448 56.9974 58.7109 57.349 58.0859 57.6094C57.4609 57.8698 56.7839 58 56.0547 58H19.4141C18.4766 58 17.4609 57.8958 16.3672 57.6875C15.2995 57.4531 14.2318 57.1016 13.1641 56.6328C12.1224 56.1641 11.1198 55.5651 10.1562 54.8359C9.19271 54.0807 8.33333 53.1823 7.57812 52.1406C6.84896 51.0729 6.26302 49.849 5.82031 48.4688C5.3776 47.0625 5.15625 45.487 5.15625 43.7422V16.2422C5.15625 15.3047 5.26042 14.3021 5.46875 13.2344C5.70312 12.1406 6.05469 11.0729 6.52344 10.0312C6.99219 8.96354 7.60417 7.94792 8.35938 6.98438C9.11458 6.02083 10.013 5.17448 11.0547 4.44531C12.1224 3.6901 13.3464 3.09115 14.7266 2.64844C16.1068 2.20573 17.6693 1.98438 19.4141 1.98438H60.7031V12.1406H19.4141C18.0859 12.1406 17.0703 12.4922 16.3672 13.1953C15.6641 13.8984 15.3125 14.9401 15.3125 16.3203V43.7422C15.3125 45.0443 15.6641 46.0599 16.3672 46.7891C17.0964 47.4922 18.112 47.8438 19.4141 47.8438H51.0156V35.1094H23.9844V24.875H56.0547C56.7839 24.875 57.4609 25.0182 58.0859 25.3047C58.7109 25.5651 59.2448 25.9297 59.6875 26.3984C60.1562 26.8672 60.5208 27.4141 60.7812 28.0391C61.0417 28.638 61.1719 29.2891 61.1719 29.9922V52.8828Z" fill="currentColor"/>
  </svg>
