<svg xmlns="http://www.w3.org/2000/svg" viewBox="0 0 1855.73 455.59"><title>SalesLoft</title><path d="M218.26,255.07l.07-.15c-49.89-36.22-87.64-99.31-57.3-149.18h0c13.56-16.6,30.78-30.29,50-41.6,2.08-1,4.19-2,6.38-3-.36,0-.73,0-1.09-.07,93.47-51.94,229.4-50.44,229.4-50.44S206.15-16.8,78.19,105.46a190.13,190.13,0,0,0-55.75,80.45c0,.08-.07.16-.11.25l0,0A189.31,189.31,0,0,0,109,415.44,97.06,97.06,0,0,0,218.26,255.07Z" fill="#2e94cf"></path><path d="M305.35,92c-.86.23-97.74,40.11-37.46,105.52C318.43,252.36,344,275.07,328.61,347c-5.84,29.56-24.27,55.68-53.94,77.17A189.4,189.4,0,0,0,305.35,92Z" fill="#2e94cf"></path><path d="M607.87,182.46A39.16,39.16,0,0,0,589.79,170a65.07,65.07,0,0,0-21.59-4,56.85,56.85,0,0,0-12.28,1.4A47.08,47.08,0,0,0,544,171.76a25.92,25.92,0,0,0-9.12,7.9,19.92,19.92,0,0,0-3.51,11.93q0,11.24,8.42,17.2A79.73,79.73,0,0,0,561,219q12.81,4.22,27.55,8.43a113.68,113.68,0,0,1,27.56,11.93A65.4,65.4,0,0,1,637.36,260q8.42,13,8.42,34.75,0,20.71-7.72,36.16a73.24,73.24,0,0,1-20.89,25.62,88.79,88.79,0,0,1-30.54,15.1A140.11,140.11,0,0,1,505,369.21q-20.72-7.36-38.61-23.87l39-42.82a56.77,56.77,0,0,0,21.24,17.37,59.81,59.81,0,0,0,40,4.57,44.41,44.41,0,0,0,12.29-4.74,26.44,26.44,0,0,0,8.77-8.08A20,20,0,0,0,591,300.06q0-11.24-8.6-17.73a79.55,79.55,0,0,0-21.59-11.06q-13-4.54-28.08-9.12a125.61,125.61,0,0,1-28.08-12.29,67.48,67.48,0,0,1-21.59-20.36q-8.61-12.63-8.6-33.35,0-20,7.9-35.1a76.08,76.08,0,0,1,21.06-25.27,91.33,91.33,0,0,1,30.36-15.27,124.46,124.46,0,0,1,35.46-5.09,139.27,139.27,0,0,1,40.71,6,94,94,0,0,1,35.46,20Z" fill="#425966"></path><path d="M778.11,348.85h-.7a49.51,49.51,0,0,1-23.34,19.66,80.48,80.48,0,0,1-30.72,6,79.26,79.26,0,0,1-23-3.34,57.84,57.84,0,0,1-19.48-10,48.26,48.26,0,0,1-13.34-16.5q-4.92-9.83-4.91-22.82,0-14.74,5.44-24.92a48.62,48.62,0,0,1,14.74-16.85,73.41,73.41,0,0,1,21.24-10.36,156.7,156.7,0,0,1,24.74-5.44,237.79,237.79,0,0,1,25.63-2.1q12.81-.34,23.69-.35,0-14-10-22.29a36.09,36.09,0,0,0-23.7-8.25,51.49,51.49,0,0,0-23.69,5.44,64.76,64.76,0,0,0-19.13,14.92l-28.08-28.79a96.63,96.63,0,0,1,34.4-20.53,122.77,122.77,0,0,1,40.72-6.85q23.16,0,38.08,5.79t23.87,17q9,11.23,12.46,27.55a181,181,0,0,1,3.51,37.74v86.7H778.11Zm-13-53.35q-6,0-14.91.52a75.32,75.32,0,0,0-17.2,3,38.35,38.35,0,0,0-14,7.37q-5.79,4.92-5.79,13.69,0,9.46,8.08,14a33.76,33.76,0,0,0,16.85,4.56A52.69,52.69,0,0,0,753,336.56a44.37,44.37,0,0,0,12.81-6,29,29,0,0,0,8.95-9.83,28.36,28.36,0,0,0,3.33-14V295.5Z" fill="#425966"></path><path d="M851.47,104.89h52.66V370.26H851.47Z" fill="#425966"></path><path d="M1094.73,340.78a84,84,0,0,1-31.94,24.92,95.7,95.7,0,0,1-40,8.78,107.57,107.57,0,0,1-37-6.32,89.13,89.13,0,0,1-30.19-18.08,84.8,84.8,0,0,1-20.18-28.26Q928,305.33,928,285t7.37-36.85a84.8,84.8,0,0,1,20.18-28.26,89.13,89.13,0,0,1,30.19-18.08,107.57,107.57,0,0,1,37-6.32,84.25,84.25,0,0,1,33.17,6.32,69.08,69.08,0,0,1,25.28,18.08,82.48,82.48,0,0,1,16,28.26,114,114,0,0,1,5.62,36.85v16.5H980.65q3.17,15.1,13.69,24.05t26,8.95q13,0,22-5.79a59.05,59.05,0,0,0,15.62-14.92Zm-44.58-75.12a30.52,30.52,0,0,0-8.77-22.82q-9.14-9.48-23.52-9.48a39.62,39.62,0,0,0-15.45,2.81,39,39,0,0,0-11.41,7.2,31.82,31.82,0,0,0-7.37,10.18,33.53,33.53,0,0,0-3,12.11Z" fill="#425966"></path><path d="M1222.5,249.86q-11.58-14.38-30.54-14.39a28.73,28.73,0,0,0-13,3.16c-4.21,2.1-6.31,5.74-6.31,10.88,0,4.21,2.16,7.32,6.49,9.3a85.76,85.76,0,0,0,16.5,5.27l21.41,4.91a80.7,80.7,0,0,1,21.41,8.25,48,48,0,0,1,16.5,15.27q6.49,9.66,6.5,25.8,0,16.5-7.2,27.21a55.19,55.19,0,0,1-18.43,17.2,79.11,79.11,0,0,1-25.27,9.12,149.87,149.87,0,0,1-27.73,2.64,134.28,134.28,0,0,1-36.16-5.09,67.53,67.53,0,0,1-30.89-18.08l31.94-35.46a53,53,0,0,0,16.33,13.87,44,44,0,0,0,20.88,4.74,48.9,48.9,0,0,0,16.5-2.63c4.92-1.76,7.37-5,7.37-9.66q0-6.66-6.49-10a71.69,71.69,0,0,0-16.5-5.62l-21.41-4.91a88.45,88.45,0,0,1-21.41-7.9,44.69,44.69,0,0,1-16.5-14.92q-6.49-9.65-6.5-25.8,0-15.09,6.15-26a54,54,0,0,1,16.14-17.91,69.83,69.83,0,0,1,23-10.35,105.51,105.51,0,0,1,26.32-3.34,123.35,123.35,0,0,1,34.05,4.92,63.15,63.15,0,0,1,29.14,17.55Z" fill="#425966"></path><path d="M1292,121.74h29.49V342.88h113.73v27.38H1292Z" fill="#425966"></path><path d="M1444.35,288.12A89.34,89.34,0,0,1,1451,253a82.9,82.9,0,0,1,18.25-27.2A81.12,81.12,0,0,1,1497,208.09a100.66,100.66,0,0,1,70.21,0,81,81,0,0,1,27.73,17.73,82.9,82.9,0,0,1,18.25,27.2,95.72,95.72,0,0,1,0,70.21,82.9,82.9,0,0,1-18.25,27.2,81,81,0,0,1-27.73,17.73,100.66,100.66,0,0,1-70.21,0,81.12,81.12,0,0,1-27.73-17.73,82.9,82.9,0,0,1-18.25-27.2A89.32,89.32,0,0,1,1444.35,288.12Zm29.49,0a69.65,69.65,0,0,0,4,24.05,55.43,55.43,0,0,0,30.19,32.29,63.36,63.36,0,0,0,48.09,0,55.43,55.43,0,0,0,30.19-32.29,73.57,73.57,0,0,0,0-48.09,55.48,55.48,0,0,0-30.19-32.3,63.48,63.48,0,0,0-48.09,0,55.48,55.48,0,0,0-30.19,32.3A69.63,69.63,0,0,0,1473.84,288.12Z" fill="#425966"></path><path d="M1667.6,229.15h-35.8V206h35.8V169.13a125.09,125.09,0,0,1,2.81-27.56,56.1,56.1,0,0,1,9.65-21.59,45.69,45.69,0,0,1,18.08-14.21q11.23-5.08,27.73-5.09a65,65,0,0,1,11.23,1,32.09,32.09,0,0,1,9.83,3.16l-3.86,24.57a55.39,55.39,0,0,0-18.6-3.51q-10.53,0-16.5,3.69a22.87,22.87,0,0,0-9,10.17,43.33,43.33,0,0,0-3.51,15.63q-.52,9.12-.53,19.65V206h40v23.17h-40V370.26H1667.6Z" fill="#425966"></path><path d="M1845.22,229.15h-48.44v82.14q0,8.08.35,14.92a30.71,30.71,0,0,0,2.8,11.93,18.87,18.87,0,0,0,7.38,8.08q4.9,3,14,3a56.3,56.3,0,0,0,12.28-1.4,51.59,51.59,0,0,0,11.94-4.21l1,24.92a62.9,62.9,0,0,1-15.62,4.56,102.3,102.3,0,0,1-16.32,1.41q-14.75,0-23.52-3.87a31.8,31.8,0,0,1-13.69-10.88,40.42,40.42,0,0,1-6.49-17.37,152.22,152.22,0,0,1-1.59-23V229.15h-35.8V206h35.8V159.3h27.39V206h48.44Z" fill="#425966"></path></svg>
