<svg height="197" width="197" xmlns="http://www.w3.org/2000/svg"><g fill="none" fill-rule="evenodd"><path d="m13 14h169v169h-169z" fill="#fff"/><g fill="#212121"><path d="m135.4 0h47.8v13.4h-47.8zm.2 13.6v47.8h-13.4v-47.8zm61.2-.4v47.8h-13.4v-47.8z"/><g><path d="m135.4 183.2h47.8v13.4h-47.8z"/><path d="m135.6 135.6v47.8h-13.4v-47.8zm61.2-.4v47.8h-13.4v-47.8z"/></g><g><path d="m74.4 0h47.8v13.4h-47.8zm0 61.2h47.8v13.4h-47.8z"/><path d="m74.6 13.6v47.8h-13.4v-47.8zm61.2-.4v47.8h-13.4v-47.8z"/></g><g><path d="m74.4 61h47.8v13.4h-47.8zm0 61.2h47.8v13.4h-47.8z"/><path d="m74.6 74.6v47.8h-13.4v-47.8z"/></g><g><path d="m74.4 122h47.8v13.4h-47.8zm0 61.2h47.8v13.4h-47.8z"/><path d="m74.6 135.6v47.8h-13.4v-47.8zm61.2-.4v47.8h-13.4v-47.8z"/></g><g><path d="m13.4 0h47.8v13.4h-47.8zm0 61.2h47.8v13.4h-47.8z"/><path d="m13.6 13.6v47.8h-13.4v-47.8zm61.2-.4v47.8h-13.4v-47.8z"/></g><g><path d="m13.4 61h47.8v13.4h-47.8zm0 61.2h47.8v13.4h-47.8z"/><path d="m13.6 74.6v47.8h-13.4v-47.8zm61.2-.4v47.8h-13.4v-47.8z"/></g><g><path d="m13.4 122h47.8v13.4h-47.8zm0 61.2h47.8v13.4h-47.8z"/><path d="m13.6 135.6v47.8h-13.4v-47.8zm61.2-.4v47.8h-13.4v-47.8z"/></g></g><g fill="#ff6d5b"><path d="m135.3 74.3h48.4v48.4h-48.4z" opacity=".4"/><path d="m135.4 61h47.8v13.4h-47.8zm0 61.2h47.8v13.4h-47.8z"/><path d="m135.6 74.6v47.8h-13.4v-47.8zm61.2-.4v47.8h-13.4v-47.8z"/></g></g></svg>