<svg height="187" preserveAspectRatio="xMidYMid meet" viewBox="0 0 6500 1870" width="650" xmlns="http://www.w3.org/2000/svg"><g><path d="m0 1506c0-204 4-387 10-417 21-108 78-186 173-237 47-24 62-27 157-27s110 3 156 27c131 69 204 220 174 364-24 117-89 202-188 246-70 32-218 32-287 0-27-13-62-35-77-49l-28-27v242 242h-45-45zm461-114c173-90 183-363 16-466-67-41-170-48-245-16-157 68-200 278-88 425 65 85 213 111 317 57z"/><path d="m4871 1214c-68-169-126-315-129-326-4-17 0-19 44-16l49 3 104 273c58 149 107 272 110 272 4 0 53-124 111-275l105-275h47c45 0 47 1 39 23-8 19-178 438-233 575l-22 52h-50l-51-1z"/><path d="m760 1297c0-118-3-262-7-321l-6-107 39 3 39 3 3 53c2 28 6 52 10 52s14-13 24-29c27-48 91-84 159-89l59-4v42c0 39-2 42-22 37-34-9-109 11-145 39-18 14-43 44-55 67-21 39-23 58-26 255l-4 212h-34-34z"/><path d="m1254 1490c-74-29-128-81-166-157-29-59-33-77-33-148 0-103 23-169 81-234 84-93 214-130 341-97 136 34 217 122 242 262 27 147-44 294-174 362-69 36-215 42-291 12zm246-72c95-41 144-124 144-243-1-80-16-124-64-179-54-60-102-81-195-81-69 0-86 4-126 27-167 98-173 356-10 464 71 46 162 51 251 12z"/><path d="m1810 1282c0-126-3-270-6-320l-7-92h42 41v59 60l53-52c57-58 104-77 183-77 72 1 128 30 163 85l29 46 22-36c34-55 98-87 186-93 65-4 80-2 129 22 107 53 125 112 125 413v213h-39-39l-4-232c-3-252-6-265-63-318-24-22-35-25-104-25s-82 3-113 27c-19 15-45 47-57 72-19 42-21 62-21 261v215h-40-40v-205c0-238-8-291-55-340-30-32-37-35-89-35-67 0-121 24-160 71-52 61-57 88-59 304l-2 200-37 3-38 3z"/><path d="m2900 1190v-320h40 40v320 320h-40-40z"/><path d="m4344 1190-1-320h38 39v55c0 30 3 55 8 55 4 0 14-13 24-29 28-51 91-85 166-89 58-4 64-3 59 13-4 9-7 27-7 39 0 20-5 22-48 23-99 1-172 67-192 172-5 30-10 132-10 227v174h-37-38z"/><path d="m5525 1482c-67-32-117-83-149-151-31-67-30-236 0-302 31-67 87-124 152-156 49-24 69-28 142-28 72 1 93 5 135 27 98 51 151 134 162 253l6 65h-272-271v33c0 41 33 114 68 150 89 94 247 94 351 1l48-43 24 25c28 30 22 44-40 91-55 42-127 63-220 63-63 0-87-5-136-28zm365-374c-1-40-36-103-79-140-79-67-196-77-274-22-52 37-96 98-104 147l-6 37h232 231z"/><path d="m6158 1500c-47-14-106-52-128-82-12-16-20-31-18-32 1-1 17-12 35-24l31-22 21 29c30 41 102 74 165 74s110-23 136-66c55-89-8-151-184-182-58-10-122-43-151-77-21-25-25-40-25-91 0-76 21-115 83-151 98-58 247-41 320 36l38 40-36 25-35 24-27-32c-67-79-197-78-256 3-18 24-19 32-9 67 15 48 56 70 177 96 137 29 185 67 200 152 13 83-30 162-109 199-40 19-67 24-126 23-41 0-87-4-102-9z"/><path d="m3023 599c4-49 18-114 36-167 17-47 28-88 26-91-10-9-96 189-108 248l-12 61-23-35c-60-86-47-172 37-255 44-43 160-120 182-120 2 0 4 33 5 72 0 40 4 118 8 173 5 66 4 109-3 127-14 37-67 68-115 68h-39z"/><path d="m2762 631c-193-67-234-264-110-531l39-84 29 51c17 29 72 90 129 143l99 92-38 50c-40 54-60 105-60 159-1 33-1 33-16 14-29-37-81-149-109-233-15-46-30-81-32-78-9 9 38 210 67 284 15 40 40 88 54 107 40 53 34 56-52 26z"/></g><g fill="#a9ac36"><path d="m3250 1501c-45-14-85-39-118-72-18-18-32-35-32-38s16-16 35-28l34-23 21 29c46 65 175 95 248 57 72-37 92-128 37-172-27-21-101-47-169-59-96-16-175-78-177-138-2-64 3-93 23-125 67-110 284-122 381-20l38 40-36 25-35 24-27-32c-67-79-197-78-256 3-18 24-19 32-9 67 15 48 57 71 179 96 111 24 152 48 182 109 23 45 24 53 13 103-23 111-98 163-232 162-41 0-86-4-100-8z"/><path d="m3855 1498c-86-31-164-112-190-200-22-74-19-185 5-252 27-72 88-139 158-173 49-24 69-28 142-28 72 1 93 5 135 27 98 51 149 130 161 251l7 67-274 2c-267 3-274 3-271 23 12 94 61 169 134 206 86 44 209 24 287-47l48-43 22 23c19 20 21 28 11 45-17 33-87 79-143 96-58 17-187 19-232 3zm330-405c-10-54-29-87-75-126-78-66-195-75-273-21-52 37-107 116-107 155v29h231 231z"/></g></svg>