<svg height="858" width="1280" xmlns="http://www.w3.org/2000/svg" xmlns:xlink="http://www.w3.org/1999/xlink"><defs><path id="a" d="m0 14h8v8h-8z"/><mask id="b" fill="#fff" height="8" width="8" x="0" y="0"><use xlink:href="#a"/></mask><path id="c" d="m0 9h16v16h-16z"/><mask id="d" fill="#fff" height="16" width="16" x="0" y="0"><use xlink:href="#c"/></mask><path id="e" d="m0 9h24v24h-24z"/><mask id="f" fill="#fff" height="24" width="24" x="0" y="0"><use xlink:href="#e"/></mask><path id="g" d="m0 211h44v44h-44z"/><mask id="h" fill="#fff" height="44" width="44" x="0" y="0"><use xlink:href="#g"/></mask><path id="i" d="m0 0h64v64h-64z"/><mask id="j" fill="#fff" height="64" width="64" x="0" y="0"><use xlink:href="#i"/></mask></defs><g fill="none" fill-rule="evenodd"><path d="m682.09 94.34c3.3 0 5.53 1 7.45 2.79l-2.24 2.59a7.4 7.4 0 0 0 -4.9-1.86c-1.91 0-3.22.84-3.22 2.4 0 1.54.83 2.18 4.44 3.3 4 1.28 6.56 2.94 6.56 7.04 0 4.06-3.2 6.91-8.57 6.91-3.68 0-6.37-1.31-8.2-3.1l2.44-2.66a8.28 8.28 0 0 0 5.63 2.21c2.27 0 3.8-1.09 3.8-3.04 0-1.76-.86-2.53-4.22-3.55-4.8-1.5-6.72-3.43-6.72-6.79 0-3.77 3.27-6.24 7.75-6.24zm20.32 5.19c4.48 0 6.37 3.49 6.37 8.96 0 5.18-2.47 9.02-6.72 9.02-1.7 0-3.14-.57-4.2-1.82v7.84l-4.54.51v-24h4l.22 1.98a6.16 6.16 0 0 1 4.87-2.5zm-1.7 14.59c2.08 0 3.33-1.63 3.33-5.6 0-4.26-1.09-5.63-3.04-5.63-1.25 0-2.37.9-3.14 2.17v7.4c.74 1.12 1.7 1.66 2.85 1.66zm24.64-1.82c0 1.37.42 1.85 1.25 2.14l-.96 3c-1.92-.18-3.2-.8-3.9-2.46-1.22 1.83-3.08 2.53-5.1 2.53-3.38 0-5.5-2.17-5.5-5.25 0-3.7 2.79-5.72 7.81-5.72h1.95v-.84c0-2.1-.9-2.78-3.04-2.78-1.12 0-2.75.32-4.48.9l-1.02-3.04a17.63 17.63 0 0 1 6.27-1.25c4.7 0 6.72 2.08 6.72 5.92zm-7.45 1.95c1.3 0 2.3-.67 3-1.89v-3.23h-1.5c-2.46 0-3.68.9-3.68 2.75 0 1.5.77 2.37 2.18 2.37zm19.07-14.72c2.27 0 4.03.67 5.63 2.05l-1.98 2.68a5.16 5.16 0 0 0 -3.33-1.21c-2.27 0-3.62 1.63-3.62 5.57 0 3.93 1.44 5.24 3.59 5.24 1.24 0 2.1-.38 3.36-1.18l1.98 2.85a8.5 8.5 0 0 1 -5.57 1.98c-5.05 0-8.16-3.45-8.16-8.86 0-5.38 3.14-9.12 8.1-9.12zm22.56 8.6c0 .58-.07 1.29-.1 1.77h-10.59c.32 3.26 1.86 4.22 4.03 4.22 1.44 0 2.66-.45 4.13-1.47l1.89 2.56a10 10 0 0 1 -6.43 2.3c-5.44 0-8.3-3.58-8.3-8.9 0-5.11 2.76-9.08 7.72-9.08 4.8 0 7.65 3.2 7.65 8.6zm-4.51-1.08v-.2c0-2.55-.87-4.22-3.04-4.22-1.8 0-2.88 1.19-3.14 4.42z" fill="#4c5b5c"/><g transform="translate(673 223)"><text fill="#232328" font-family="FiraSans-Regular, Fira Sans" font-size="19"><tspan x="110" y="18">X-Small</tspan></text><use fill="#fafffd" mask="url(#b)" stroke="#4c5b5c" stroke-dasharray="2" stroke-width="2" xlink:href="#a"/></g><g transform="translate(673 287)"><text fill="#232328" font-family="FiraSans-Regular, Fira Sans" font-size="19"><tspan x="110" y="18">Small</tspan></text><use fill="#fafffd" mask="url(#d)" stroke="#4c5b5c" stroke-dasharray="2" stroke-width="2" xlink:href="#c"/></g><g transform="translate(673 354)"><text fill="#232328" font-family="FiraSans-Regular, Fira Sans" font-size="19"><tspan x="110" y="18">Base</tspan></text><use fill="#fafffd" mask="url(#f)" stroke="#4c5b5c" stroke-dasharray="2" stroke-width="2" xlink:href="#e"/></g><g transform="translate(673 223)"><g fill="#232328" font-family="FiraSans-Regular, Fira Sans" font-size="19"><text><tspan x="110" y="228">Large</tspan></text><text><tspan x="430" y="18">Small</tspan></text><text><tspan x="430" y="83">Base</tspan></text><text><tspan x="430" y="149">Large</tspan></text><text><tspan x="430" y="228">X-Large</tspan></text></g><use fill="#fafffd" mask="url(#h)" stroke="#4c5b5c" stroke-dasharray="2" stroke-width="2" xlink:href="#g"/></g><g transform="translate(673 528)"><text fill="#232328" font-family="FiraSans-Regular, Fira Sans" font-size="19"><tspan x="110" y="27">X-Large</tspan></text><use fill="#fafffd" mask="url(#j)" stroke="#4c5b5c" stroke-dasharray="2" stroke-width="2" xlink:href="#i"/></g><path d="m673.5 140.5h260" stroke="#4c5b5c" stroke-width="4"/><path d="m1016.04 94.86v22.14h-4.7v-22.14zm11.68 4.67c2.27 0 4.03.67 5.63 2.05l-1.98 2.68a5.16 5.16 0 0 0 -3.33-1.21c-2.27 0-3.62 1.63-3.62 5.57 0 3.93 1.44 5.24 3.59 5.24 1.25 0 2.11-.38 3.36-1.18l1.98 2.85a8.5 8.5 0 0 1 -5.57 1.98c-5.05 0-8.16-3.45-8.16-8.86 0-5.38 3.14-9.12 8.1-9.12zm15.36 0c5.06 0 8.1 3.36 8.1 8.99 0 5.38-3.04 9-8.13 9-5.06 0-8.13-3.37-8.13-9 0-5.4 3.04-9 8.16-9zm0 3.39c-2.27 0-3.42 1.73-3.42 5.6 0 3.9 1.15 5.6 3.39 5.6s3.39-1.73 3.39-5.6c0-3.9-1.15-5.6-3.36-5.6zm21.02-3.4c2.98 0 4.74 1.93 4.74 5.13v12.35h-4.54v-11.58c0-1.96-.7-2.5-1.86-2.5-1.31 0-2.34.86-3.26 2.37v11.71h-4.55v-16.96h3.94l.35 2.14c1.38-1.7 3.04-2.65 5.18-2.65zm14.7 0c2.46 0 4.54.78 6.14 2.06l-1.73 2.59a7.84 7.84 0 0 0 -4.23-1.35c-1.5 0-2.33.61-2.33 1.54 0 1 .57 1.44 3.55 2.3 3.4.93 5.31 2.34 5.31 5.35 0 3.52-3.3 5.5-7.33 5.5-2.94 0-5.3-.99-6.9-2.46l2.23-2.5a7.47 7.47 0 0 0 4.55 1.67c1.7 0 2.78-.7 2.78-1.86 0-1.28-.6-1.7-3.74-2.56-3.43-.96-5.03-2.66-5.03-5.22 0-2.88 2.63-5.05 6.72-5.05z" fill="#4c5b5c"/><path d="m1009.5 140.5h260" stroke="#4c5b5c" stroke-width="4"/><g transform="translate(8 92)"><circle cx="361" cy="156" fill="#96bb00" r="32"/><circle cx="361" cy="250" fill="#ff715b" r="32"/><circle cx="361" cy="344" fill="#3c91e6" r="32"/><circle cx="361" cy="438" fill="#fafffd" r="32" stroke="#4c5b5c"/><circle cx="361" cy="532" fill="#4c5b5c" r="32"/><circle cx="361" cy="626" fill="#1c2222" r="32"/><path d="m341 2.34c2.95 0 4.87.87 6.7 2.4l-2.37 2.76a5.9 5.9 0 0 0 -4.03-1.6c-2.95 0-5.12 2.24-5.12 8 0 5.56 2.14 7.9 5.18 7.9 1.86 0 3.14-.86 4.42-1.86l2.17 2.79a9.49 9.49 0 0 1 -6.81 2.78c-5.9 0-9.92-4.06-9.92-11.61 0-7.46 4.25-11.56 9.79-11.56zm16.65 5.19c5.05 0 8.1 3.36 8.1 8.99 0 5.38-3.05 9-8.13 9-5.06 0-8.13-3.37-8.13-9 0-5.4 3.04-9 8.16-9zm0 3.39c-2.27 0-3.43 1.73-3.43 5.6 0 3.9 1.16 5.6 3.4 5.6s3.39-1.73 3.39-5.6c0-3.9-1.15-5.6-3.36-5.6zm15.77 14.6c-2.75 0-4.38-1.67-4.38-4.62v-19.6l4.54-.51v20c0 .73.3 1.12.93 1.12.35 0 .64-.07.9-.2l.93 3.24c-.74.32-1.76.57-2.92.57zm12.39-18c5.05 0 8.1 3.37 8.1 9 0 5.38-3.05 9-8.13 9-5.06 0-8.13-3.37-8.13-9 0-5.4 3.04-9 8.16-9zm0 3.4c-2.27 0-3.43 1.73-3.43 5.6 0 3.9 1.16 5.6 3.4 5.6s3.39-1.73 3.39-5.6c0-3.9-1.15-5.6-3.36-5.6zm20.32-3.36c.6 0 1.12.1 1.7.26l-.77 4.38a5.69 5.69 0 0 0 -1.5-.22c-2.09 0-3.05 1.53-3.66 4.28v8.74h-4.54v-16.96h3.94l.41 3.3c.8-2.37 2.43-3.78 4.42-3.78z" fill="#4c5b5c"/><path d="m424.04 167.74h-1.06l-.4 3.01h.94v.97h-1.07l-.3 2.28h-1.09l.3-2.28h-2.16l-.3 2.28h-1.09l.3-2.28h-.9v-.97h1.04l.39-3h-.91v-.99h1.03l.28-2.13h1.1l-.28 2.13h2.14l.28-2.13h1.1l-.29 2.13h.94v.98zm-2.55 3.01.4-3h-2.16l-.4 3zm6.39-6.26c2.01 0 3.02 1.45 3.02 3.64 0 3.88-1.54 5.18-4.98 6.18l-.3-.97c2.36-.67 3.85-1.75 3.95-3.86a2.47 2.47 0 0 1 -2.1 1.12c-1.45 0-2.59-1.15-2.59-3.01 0-1.96 1.37-3.1 3-3.1zm-.14 5.1c.8 0 1.4-.45 1.86-1.16.04-2.12-.53-2.91-1.7-2.91-1.09 0-1.72.75-1.72 2.1 0 1.34.65 1.97 1.56 1.97zm8.17-1.75c1.38 0 2.6.98 2.6 2.98 0 2.05-1.34 3.35-2.99 3.35-2.28 0-3.15-1.88-3.15-4.57 0-3.06 1.33-5.1 3.54-5.1.76 0 1.39.2 1.94.57l-.5.85c-.44-.26-.93-.4-1.45-.4-1.36 0-2.17 1.41-2.24 3.55a2.63 2.63 0 0 1 2.25-1.23zm-.39 5.3c1.1 0 1.68-.9 1.68-2.28 0-1.48-.63-2-1.51-2-.84 0-1.54.52-2.02 1.29.06 2.04.6 3 1.85 3zm9.2-4.24c1.12.2 2.23.72 2.23 2.36 0 2.04-1.59 2.74-3.83 2.74h-2.66v-9.65h2.29c2.38 0 3.78.76 3.78 2.44 0 1.19-.87 1.92-1.81 2.11zm-1.83-3.5h-1.1v3.04h1.46c1.08 0 1.92-.53 1.92-1.55 0-1.2-.86-1.49-2.28-1.49zm.23 7.54c1.4 0 2.43-.28 2.43-1.68 0-1.36-1.01-1.8-2.17-1.8h-1.59v3.48zm10.11-4.04c1.12.2 2.23.72 2.23 2.36 0 2.04-1.58 2.74-3.82 2.74h-2.66v-9.65h2.28c2.38 0 3.78.76 3.78 2.44 0 1.19-.87 1.92-1.8 2.11zm-1.83-3.5h-1.1v3.04h1.46c1.08 0 1.92-.53 1.92-1.55 0-1.2-.85-1.49-2.28-1.49zm.24 7.54c1.4 0 2.42-.28 2.42-1.68 0-1.36-1.01-1.8-2.17-1.8h-1.58v3.48zm8.35-8.45c2.1 0 3.14 1.74 3.14 4.83 0 3.11-1.04 4.85-3.14 4.85s-3.13-1.74-3.13-4.85c0-3.1 1.03-4.83 3.13-4.83zm0 1.03c-1.17 0-1.79 1.06-1.79 3.8 0 2.76.62 3.83 1.8 3.83 1.16 0 1.79-1.07 1.79-3.83 0-2.74-.63-3.8-1.8-3.8zm7.82-1.03c2.1 0 3.13 1.74 3.13 4.83 0 3.11-1.03 4.85-3.13 4.85s-3.14-1.74-3.14-4.85c0-3.1 1.04-4.83 3.14-4.83zm0 1.03c-1.18 0-1.8 1.06-1.8 3.8 0 2.76.62 3.83 1.8 3.83 1.16 0 1.79-1.07 1.79-3.83 0-2.74-.63-3.8-1.8-3.8zm-461.5 21.32c1.37 0 2.6.98 2.6 2.98 0 2.05-1.34 3.35-2.99 3.35-2.28 0-3.15-1.88-3.15-4.57 0-3.06 1.33-5.1 3.54-5.1.76 0 1.39.2 1.93.57l-.5.85c-.43-.26-.92-.4-1.44-.4-1.36 0-2.17 1.41-2.24 3.55a2.63 2.63 0 0 1 2.25-1.23zm-.39 5.3c1.1 0 1.68-.9 1.68-2.28 0-1.48-.63-2-1.51-2-.84 0-1.54.52-2.02 1.29.06 2.04.6 3 1.85 3zm10.57-2.47v1.02h-1.22v2.31h-1.24v-2.31h-4v-.92l2.8-6.28 1.08.45-2.53 5.73h2.66l.11-2.52h1.12v2.52zm5.14-4.22c1.96 0 2.73 1.53 2.73 3.85 0 2.24-1 3.87-2.9 3.87-.8 0-1.46-.27-1.93-.84v3.5l-1.29.15v-10.36h1.1l.1 1a2.68 2.68 0 0 1 2.19-1.17zm-.48 6.67c1.18 0 1.82-.88 1.82-2.82 0-1.91-.56-2.82-1.66-2.82-.79 0-1.39.56-1.78 1.14v3.6c.38.58.95.9 1.62.9zm8.23-3.07 2.57 3.95h-1.56l-1.8-3.12-1.84 3.12h-1.45l2.57-3.9-2.28-3.48h1.51l1.54 2.7 1.56-2.7h1.45zm-20.35 90.62v1.02h-1.23v2.31h-1.24v-2.31h-4v-.92l2.81-6.28 1.08.45-2.53 5.73h2.66l.11-2.52h1.12v2.52zm7.45 0v1.02h-1.22v2.31h-1.26v-2.31h-4v-.92l2.81-6.28 1.08.45-2.53 5.73h2.66l.1-2.52h1.13v2.52h1.22zm5.13-4.22c1.96 0 2.73 1.53 2.73 3.85 0 2.24-.99 3.87-2.9 3.87-.8 0-1.45-.27-1.93-.84v3.5l-1.28.15v-10.36h1.1l.1 1a2.68 2.68 0 0 1 2.18-1.17zm-.47 6.67c1.17 0 1.82-.88 1.82-2.82 0-1.91-.56-2.82-1.67-2.82-.78 0-1.38.56-1.78 1.14v3.6c.38.58.96.9 1.63.9zm8.23-3.07 2.56 3.95h-1.55l-1.8-3.12-1.84 3.12h-1.46l2.58-3.9-2.28-3.48h1.5l1.55 2.7 1.55-2.7h1.46zm-25.17 68.45c1.71 0 2.8 1.1 2.8 2.56 0 1.75-1.11 3-3.98 5.86h4.21l-.15 1.08h-5.53v-1.02c3.3-3.45 4.11-4.34 4.11-5.87 0-.98-.63-1.55-1.54-1.55-.78 0-1.3.3-1.9 1.02l-.87-.67a3.46 3.46 0 0 1 2.84-1.42zm10.76 6.17v1.02h-1.22v2.31h-1.25v-2.31h-4v-.92l2.81-6.28 1.08.45-2.53 5.73h2.66l.11-2.52h1.12v2.52zm5.14-4.22c1.96 0 2.73 1.53 2.73 3.85 0 2.24-1 3.87-2.9 3.87-.8 0-1.46-.27-1.93-.84v3.5l-1.3.15v-10.36h1.11l.1 1a2.68 2.68 0 0 1 2.19-1.17zm-.48 6.67c1.18 0 1.82-.88 1.82-2.82 0-1.91-.56-2.82-1.67-2.82-.78 0-1.38.56-1.77 1.14v3.6c.37.58.95.9 1.62.9zm8.23-3.07 2.56 3.95h-1.55l-1.8-3.12-1.84 3.12h-1.46l2.58-3.9-2.28-3.48h1.51l1.54 2.7 1.55-2.7h1.46zm-22.33 58.58v9.37h-1.29v-8l-2.18 1.34-.56-.91 2.9-1.8zm5.85 3.21c1.38 0 2.6.98 2.6 2.98 0 2.05-1.34 3.35-2.99 3.35-2.28 0-3.15-1.88-3.15-4.57 0-3.06 1.33-5.1 3.54-5.1.76 0 1.39.2 1.94.57l-.5.85c-.44-.26-.93-.4-1.45-.4-1.36 0-2.17 1.41-2.24 3.55a2.63 2.63 0 0 1 2.25-1.23zm-.39 5.3c1.1 0 1.68-.9 1.68-2.28 0-1.48-.63-2-1.51-2-.84 0-1.54.52-2.02 1.29.06 2.04.6 3 1.85 3zm8.26-6.69c1.96 0 2.73 1.53 2.73 3.85 0 2.24-1 3.87-2.9 3.87-.8 0-1.45-.27-1.93-.84v3.5l-1.29.15v-10.36h1.11l.1 1a2.68 2.68 0 0 1 2.18-1.17zm-.47 6.67c1.17 0 1.82-.88 1.82-2.82 0-1.91-.56-2.82-1.67-2.82-.78 0-1.39.56-1.78 1.14v3.6c.38.58.95.9 1.63.9zm8.23-3.07 2.56 3.95h-1.55l-1.81-3.12-1.83 3.12h-1.47l2.58-3.9-2.29-3.48h1.52l1.54 2.7 1.55-2.7h1.46zm-21.48 54.58v9.37h-1.29v-8l-2.18 1.34-.56-.91 2.9-1.8zm5.85 3.21c1.38 0 2.6.98 2.6 2.98 0 2.05-1.34 3.35-2.99 3.35-2.28 0-3.15-1.88-3.15-4.57 0-3.06 1.33-5.1 3.54-5.1.76 0 1.39.2 1.94.57l-.5.85c-.44-.26-.93-.4-1.45-.4-1.36 0-2.17 1.41-2.24 3.55a2.63 2.63 0 0 1 2.25-1.23zm-.39 5.3c1.1 0 1.68-.9 1.68-2.28 0-1.48-.63-2-1.51-2-.84 0-1.54.52-2.02 1.29.06 2.04.6 3 1.85 3zm8.26-6.69c1.96 0 2.73 1.53 2.73 3.85 0 2.24-1 3.87-2.9 3.87-.8 0-1.45-.27-1.93-.84v3.5l-1.29.15v-10.36h1.11l.1 1a2.68 2.68 0 0 1 2.18-1.17zm-.47 6.67c1.17 0 1.82-.88 1.82-2.82 0-1.91-.56-2.82-1.67-2.82-.78 0-1.39.56-1.78 1.14v3.6c.38.58.95.9 1.63.9zm8.23-3.07 2.56 3.95h-1.55l-1.81-3.12-1.83 3.12h-1.47l2.58-3.9-2.29-3.48h1.52l1.54 2.7 1.55-2.7h1.46zm-21.48 46.58v9.37h-1.29v-8l-2.18 1.34-.56-.91 2.9-1.8zm8.57 6.04v1.02h-1.22v2.31h-1.24v-2.31h-4v-.92l2.8-6.28 1.08.45-2.53 5.73h2.66l.11-2.52h1.12v2.52zm5.14-4.22c1.96 0 2.73 1.53 2.73 3.85 0 2.24-1 3.87-2.9 3.87-.8 0-1.46-.27-1.93-.84v3.5l-1.29.15v-10.36h1.1l.1 1a2.68 2.68 0 0 1 2.19-1.17zm-.48 6.67c1.18 0 1.82-.88 1.82-2.82 0-1.91-.56-2.82-1.66-2.82-.79 0-1.39.56-1.78 1.14v3.6c.38.58.95.9 1.62.9zm8.23-3.07 2.57 3.95h-1.56l-1.8-3.12-1.84 3.12h-1.45l2.57-3.9-2.28-3.48h1.51l1.54 2.7 1.56-2.7h1.45zm-21.46 42.58v9.37h-1.29v-8l-2.18 1.34-.56-.91 2.9-1.8zm6.06 0v9.37h-1.28v-8l-2.19 1.34-.56-.91 2.9-1.8zm6.26 1.82c1.96 0 2.73 1.53 2.73 3.85 0 2.24-1 3.87-2.9 3.87-.8 0-1.45-.27-1.93-.84v3.5l-1.29.15v-10.36h1.11l.1 1a2.68 2.68 0 0 1 2.18-1.17zm-.47 6.67c1.17 0 1.82-.88 1.82-2.82 0-1.91-.56-2.82-1.67-2.82-.78 0-1.39.56-1.78 1.14v3.6c.38.58.95.9 1.63.9zm8.23-3.07 2.56 3.95h-1.55l-1.81-3.12-1.83 3.12h-1.47l2.58-3.9-2.29-3.48h1.52l1.54 2.7 1.55-2.7h1.46l-2.27 3.43z" fill="#979797"/><path d="m425.87 149-.99-3.29h-4.95l-1 3.29h-1.82l4.2-13.1h2.28l4.18 13.1zm-5.5-4.75h4.08l-2.03-6.84-2.06 6.84zm13.92-5.5c2.66 0 3.7 2.08 3.7 5.23 0 3.04-1.34 5.25-3.93 5.25a3.23 3.23 0 0 1 -2.62-1.14v4.75l-1.75.2v-14.04h1.5l.14 1.35a3.64 3.64 0 0 1 2.96-1.58zm-.65 9.05c1.6 0 2.47-1.2 2.47-3.82 0-2.6-.76-3.83-2.26-3.83-1.06 0-1.88.76-2.41 1.55v4.89c.51.78 1.3 1.21 2.2 1.21zm11.94-9.04c2.66 0 3.7 2.07 3.7 5.22 0 3.04-1.35 5.25-3.93 5.25a3.23 3.23 0 0 1 -2.62-1.14v4.75l-1.75.2v-14.04h1.5l.13 1.35a3.64 3.64 0 0 1 2.97-1.58zm-.65 9.04c1.6 0 2.47-1.2 2.47-3.82 0-2.6-.76-3.83-2.26-3.83-1.06 0-1.88.76-2.41 1.55v4.89c.5.78 1.29 1.21 2.2 1.21zm9.33 1.43c-1.27 0-2.1-.78-2.1-2.2v-12.07l1.76-.21v12.24c0 .53.17.8.62.8.25 0 .46-.04.65-.12l.46 1.22c-.38.2-.88.34-1.4.34zm11.13-5.53c0 .34-.02.66-.03.9h-6.39c.17 2.31 1.25 3.2 2.7 3.2.99 0 1.73-.26 2.6-.87l.76 1.04a5.46 5.46 0 0 1 -3.5 1.26c-2.79 0-4.42-1.96-4.42-5.13 0-3.12 1.58-5.34 4.16-5.34 2.7 0 4.12 1.88 4.12 4.94zm-1.73-.4v-.11c0-1.96-.78-3.04-2.35-3.04-1.33 0-2.2.93-2.34 3.15h4.7zm14.54-7.62c1.77 0 2.85.51 3.97 1.44l-1.06 1.1a4.11 4.11 0 0 0 -2.87-1.06c-1.88 0-3.76 1.43-3.76 5.28 0 3.77 1.27 5.3 3.57 5.3.87 0 1.75-.17 2.49-.6v-3.93h-2.32l-.21-1.47h4.31v6.33a8.32 8.32 0 0 1 -4.4 1.16c-3.25 0-5.36-2.26-5.36-6.78 0-4.41 2.7-6.77 5.64-6.77zm11.46 3.08c.32 0 .68.04.98.11l-.32 1.71c-.3-.07-.51-.11-.87-.11-1.26 0-1.98.9-2.4 2.81v5.72h-1.75v-10.01h1.5l.18 2.03c.53-1.5 1.46-2.26 2.68-2.26zm10.54 4.94c0 .34-.02.66-.04.9h-6.38c.17 2.31 1.25 3.2 2.7 3.2.98 0 1.73-.26 2.6-.87l.76 1.04a5.46 5.46 0 0 1 -3.5 1.26c-2.79 0-4.42-1.96-4.42-5.13 0-3.12 1.57-5.34 4.16-5.34 2.7 0 4.12 1.88 4.12 4.94zm-1.73-.4v-.11c0-1.96-.78-3.04-2.35-3.04-1.33 0-2.2.93-2.34 3.15h4.7zm12.18.4c0 .34-.02.66-.04.9h-6.38c.17 2.31 1.25 3.2 2.7 3.2.99 0 1.73-.26 2.6-.87l.76 1.04a5.46 5.46 0 0 1 -3.5 1.26c-2.79 0-4.42-1.96-4.42-5.13 0-3.12 1.57-5.34 4.16-5.34 2.7 0 4.12 1.88 4.12 4.94zm-1.73-.4v-.11c0-1.96-.78-3.04-2.35-3.04-1.33 0-2.2.93-2.34 3.15h4.7zm9.33-4.54c1.84 0 2.9 1.16 2.9 3.06v7.18h-1.74v-6.94c0-1.5-.6-1.93-1.58-1.93-1.12 0-1.88.7-2.54 1.76v7.11h-1.75v-10.01h1.5l.15 1.48a3.63 3.63 0 0 1 3.06-1.71zm-93.57 99.32c1.52.27 3.02.97 3.02 3.2 0 2.77-2.15 3.72-5.19 3.72h-3.61v-13.1h3.1c3.23 0 5.13 1.03 5.13 3.31 0 1.62-1.18 2.6-2.45 2.87zm-2.5-4.75h-1.48v4.13h1.98c1.46 0 2.6-.72 2.6-2.11 0-1.62-1.15-2.02-3.1-2.02zm.33 10.23c1.9 0 3.29-.38 3.29-2.28 0-1.85-1.37-2.44-2.95-2.44h-2.15v4.72zm8.7-13.38c.74 0 1.24.51 1.24 1.2 0 .66-.5 1.18-1.24 1.18-.72 0-1.21-.52-1.21-1.18 0-.69.49-1.2 1.21-1.2zm.9 4.8v10.02h-1.75v-10.01h1.75zm8 8.37.66 1.2c-.67.45-1.39.68-2.24.68-1.7 0-2.7-.99-2.7-2.85v-6.04h-1.75v-1.35h1.75v-2.26l1.75-.21v2.47h2.37l-.19 1.35h-2.18v5.96c0 1 .32 1.48 1.2 1.48.43 0 .83-.13 1.32-.43zm6.85 0 .67 1.2c-.67.45-1.39.68-2.24.68-1.7 0-2.7-.99-2.7-2.85v-6.04h-1.75v-1.35h1.75v-2.26l1.75-.21v2.47h2.37l-.19 1.35h-2.18v5.96c0 1 .32 1.48 1.2 1.48.43 0 .83-.13 1.32-.43zm10.04-3.65c0 .34-.02.66-.04.9h-6.39c.17 2.31 1.26 3.2 2.7 3.2.99 0 1.73-.26 2.6-.87l.76 1.04a5.46 5.46 0 0 1 -3.5 1.26c-2.78 0-4.42-1.96-4.42-5.13 0-3.12 1.58-5.34 4.16-5.34 2.7 0 4.13 1.88 4.13 4.94zm-1.73-.4v-.11c0-1.96-.78-3.04-2.36-3.04-1.33 0-2.2.93-2.34 3.15zm8.96-4.54c.33 0 .69.04 1 .11l-.33 1.71c-.3-.07-.51-.11-.88-.11-1.25 0-1.97.9-2.39 2.81v5.72h-1.75v-10.01h1.5l.18 2.03c.53-1.5 1.46-2.26 2.67-2.26zm5.7 0c1.41 0 2.45.42 3.4 1.14l-.74 1.1a4.62 4.62 0 0 0 -2.6-.85c-1.14 0-1.84.5-1.84 1.3 0 .82.53 1.2 2.15 1.62 2.1.53 3.32 1.37 3.32 3.12 0 2.09-1.92 3.04-3.95 3.04-1.7 0-2.9-.55-3.78-1.31l.93-1.07c.8.61 1.73.97 2.81.97 1.31 0 2.15-.57 2.15-1.52 0-.99-.5-1.37-2.43-1.88-2.17-.57-3.03-1.5-3.03-2.9 0-1.6 1.54-2.76 3.61-2.76zm17.6.23-2.28 10.01h-2.38l-1.75-8.44-1.8 8.44h-2.32l-2.33-10.01h1.74l1.8 8.8 1.98-8.8h1.96l1.88 8.8 1.83-8.8zm9.75 4.7c0 .35-.02.67-.04.9h-6.39c.17 2.32 1.26 3.21 2.7 3.21.99 0 1.73-.26 2.6-.87l.76 1.04a5.46 5.46 0 0 1 -3.5 1.26c-2.79 0-4.42-1.96-4.42-5.13 0-3.12 1.58-5.34 4.16-5.34 2.7 0 4.13 1.88 4.13 4.94zm-1.73-.39v-.11c0-1.96-.78-3.04-2.36-3.04-1.33 0-2.2.93-2.34 3.15zm12.18.4c0 .34-.02.66-.04.9h-6.39c.17 2.31 1.26 3.2 2.7 3.2.99 0 1.73-.26 2.6-.87l.76 1.04a5.46 5.46 0 0 1 -3.5 1.26c-2.79 0-4.42-1.96-4.42-5.13 0-3.12 1.58-5.34 4.16-5.34 2.7 0 4.13 1.88 4.13 4.94zm-1.73-.4v-.11c0-1.96-.78-3.04-2.36-3.04-1.33 0-2.2.93-2.34 3.15zm9 4.05.67 1.2c-.67.45-1.39.68-2.25.68-1.69 0-2.7-.99-2.7-2.85v-6.04h-1.74v-1.35h1.75v-2.26l1.75-.21v2.47h2.37l-.19 1.35h-2.18v5.96c0 1 .32 1.48 1.2 1.48.43 0 .83-.13 1.32-.43z" fill="#232328"/><path d="m424.04 263.74h-1.06l-.4 3.01h.94v.97h-1.07l-.3 2.28h-1.09l.3-2.28h-2.16l-.3 2.28h-1.09l.3-2.28h-.9v-.97h1.04l.39-3h-.91v-.99h1.03l.28-2.13h1.1l-.28 2.13h2.14l.28-2.13h1.1l-.29 2.13h.94v.98zm-2.55 3.01.4-3h-2.16l-.4 3zm9.29-6.4-.16 1.07h-3.64v3.29h3.15v1.05h-3.15v4.24h-1.33v-9.65zm6.87 0-.15 1.07h-3.64v3.29h3.14v1.05h-3.15v4.24h-1.33v-9.65h5.12zm6.15.28v.97l-3.5 8.54-1.18-.4 3.37-8.06h-4.14v-1.05zm4.94 0v9.37h-1.29v-8l-2.18 1.34-.56-.91 2.9-1.8zm7.6 0-.18 1.01h-3.66v2.76c.5-.25 1-.36 1.5-.36 1.58 0 2.66 1.1 2.66 2.96 0 1.87-1.3 3.17-3.25 3.17a3.67 3.67 0 0 1 -2.77-1.2l.79-.75c.56.6 1.16.9 1.97.9 1.18 0 1.92-.77 1.92-2.14 0-1.45-.74-1.95-1.71-1.95-.5 0-.88.11-1.33.32h-1v-4.72zm6.6 4.27c1.13.2 2.23.72 2.23 2.36 0 2.04-1.58 2.74-3.82 2.74h-2.66v-9.65h2.28c2.38 0 3.78.76 3.78 2.44 0 1.19-.86 1.92-1.8 2.11zm-1.83-3.5h-1.09v3.04h1.46c1.08 0 1.92-.53 1.92-1.55 0-1.2-.86-1.49-2.29-1.49zm.24 7.54c1.4 0 2.42-.28 2.42-1.68 0-1.36-1-1.8-2.17-1.8h-1.58v3.48zm-37.31 87.8h-1.06l-.4 3.01h.94v.97h-1.07l-.3 2.28h-1.09l.3-2.28h-2.16l-.3 2.28h-1.09l.3-2.28h-.9v-.97h1.04l.39-3h-.91v-.99h1.03l.28-2.13h1.1l-.28 2.13h2.14l.28-2.13h1.1l-.29 2.13h.94v.98zm-2.55 3.01.4-3h-2.16l-.4 3zm5.91-6.26c1.8 0 2.77 1.12 2.77 2.38 0 1.2-.77 1.9-1.82 2.16 1.18.11 2.12.85 2.12 2.27 0 1.64-1.25 2.87-3.2 2.87-1.11 0-2.1-.4-2.8-1.26l.76-.72c.62.65 1.25.93 2 .93 1.18 0 1.9-.73 1.9-1.84 0-1.28-.73-1.68-1.87-1.68h-.7l.16-.99h.47c.93 0 1.7-.56 1.7-1.65 0-.88-.62-1.43-1.56-1.43-.74 0-1.3.25-1.93.84l-.67-.77c.8-.74 1.66-1.1 2.67-1.1zm8.61-.3c1.22 0 1.9.33 2.68.95l-.73.85a2.83 2.83 0 0 0 -1.86-.71c-1.46 0-2.68.98-2.68 3.89 0 2.79 1.16 3.88 2.66 3.88.91 0 1.5-.4 2.05-.81l.67.85a3.77 3.77 0 0 1 -2.76 1.08c-2.34 0-4.03-1.75-4.03-5 0-3.26 1.82-4.98 4-4.98zm6.7.3c2.01 0 3.02 1.45 3.02 3.64 0 3.88-1.54 5.18-4.99 6.18l-.29-.97c2.35-.67 3.85-1.75 3.95-3.86a2.47 2.47 0 0 1 -2.1 1.12c-1.46 0-2.6-1.15-2.6-3.01 0-1.96 1.38-3.1 3-3.1zm-.15 5.1c.8 0 1.4-.45 1.87-1.16.04-2.12-.54-2.91-1.7-2.91-1.09 0-1.72.75-1.72 2.1 0 1.34.64 1.97 1.55 1.97zm8.39-4.96v9.37h-1.29v-8l-2.18 1.34-.56-.91 2.9-1.8zm8.16-.28-.15 1.07h-3.74v3.15h3.25v1.06h-3.25v3.3h4v1.07h-5.33v-9.65zm5.18 3.49c1.37 0 2.6.98 2.6 2.98 0 2.05-1.34 3.35-2.99 3.35-2.28 0-3.15-1.88-3.15-4.57 0-3.06 1.33-5.1 3.54-5.1.76 0 1.39.2 1.93.57l-.5.85c-.43-.26-.92-.4-1.44-.4-1.36 0-2.17 1.41-2.24 3.55a2.63 2.63 0 0 1 2.25-1.23zm-.39 5.3c1.1 0 1.68-.9 1.68-2.28 0-1.48-.63-2-1.51-2-.84 0-1.54.52-2.02 1.29.06 2.04.6 3 1.85 3z" fill="#979797"/><path d="m424.68 331.08c1.52.27 3.02.97 3.02 3.2 0 2.77-2.15 3.72-5.19 3.72h-3.61v-13.1h3.1c3.23 0 5.13 1.04 5.13 3.31 0 1.62-1.18 2.6-2.45 2.87zm-2.5-4.75h-1.48v4.13h1.98c1.46 0 2.6-.72 2.6-2.11 0-1.62-1.15-2.02-3.1-2.02zm.33 10.23c1.9 0 3.29-.38 3.29-2.28 0-1.85-1.37-2.44-2.95-2.44h-2.15v4.72zm9.84 1.67c-1.27 0-2.09-.78-2.09-2.2v-12.07l1.75-.21v12.24c0 .53.17.8.63.8.24 0 .45-.04.64-.12l.46 1.22c-.38.2-.88.34-1.39.34zm11.14-5.53c0 .34-.02.66-.04.9h-6.39c.18 2.31 1.26 3.2 2.7 3.2.99 0 1.73-.26 2.6-.87l.76 1.04a5.46 5.46 0 0 1 -3.5 1.26c-2.78 0-4.42-1.96-4.42-5.13 0-3.12 1.58-5.34 4.16-5.34 2.7 0 4.13 1.88 4.13 4.94zm-1.73-.4v-.11c0-1.96-.78-3.04-2.36-3.04-1.33 0-2.2.93-2.34 3.15zm12.06-4.31v10.01h-1.5l-.13-1.56c-.76 1.22-1.7 1.79-3.12 1.79-1.75 0-2.8-1.1-2.8-3.06v-7.18h1.76v6.99c0 1.37.45 1.88 1.54 1.88 1.08 0 1.9-.72 2.5-1.73v-7.13h1.75zm11.17 4.7c0 .35-.01.67-.03.9h-6.39c.17 2.32 1.26 3.21 2.7 3.21.99 0 1.73-.26 2.6-.87l.76 1.04a5.46 5.46 0 0 1 -3.5 1.26c-2.79 0-4.42-1.96-4.42-5.13 0-3.12 1.58-5.34 4.16-5.34 2.7 0 4.12 1.88 4.12 4.94zm-1.73-.39v-.11c0-1.96-.77-3.04-2.35-3.04-1.33 0-2.2.93-2.34 3.15h4.7zm12.49-7.4c3.34 0 6.55 1.05 6.55 6.49 0 5.34-3.32 6.61-6.15 6.61h-3.15v-13.1h2.74zm.4 1.45h-1.33v10.22h1.46c2.05 0 4.1-.87 4.1-5.18 0-4.43-2.14-5.04-4.23-5.04zm16.56 6.35c0 .34-.01.66-.03.9h-6.39c.17 2.31 1.26 3.2 2.7 3.2.99 0 1.73-.26 2.6-.87l.76 1.04a5.46 5.46 0 0 1 -3.5 1.26c-2.79 0-4.42-1.96-4.42-5.13 0-3.12 1.58-5.34 4.16-5.34 2.7 0 4.13 1.88 4.13 4.94zm-1.72-.4v-.11c0-1.96-.78-3.04-2.36-3.04-1.33 0-2.2.93-2.34 3.15zm16.7-7.4-.21 1.45h-4.94v4.47h4.27v1.42h-4.27v5.76h-1.8v-13.1zm6.63 2.86c.32 0 .68.04.99.11l-.33 1.71c-.3-.07-.51-.11-.87-.11-1.25 0-1.98.9-2.4 2.81v5.72h-1.74v-10.01h1.5l.17 2.03c.53-1.5 1.46-2.26 2.68-2.26zm9.73 7.9c0 .88.32 1.16.83 1.35l-.4 1.22c-1-.12-1.65-.52-1.95-1.5a3.41 3.41 0 0 1 -2.99 1.5c-2 0-3.19-1.24-3.19-3.02 0-2.15 1.62-3.3 4.4-3.3h1.55v-.75c0-1.44-.7-1.98-2.1-1.98-.73 0-1.66.2-2.69.54l-.44-1.28a9.8 9.8 0 0 1 3.46-.68c2.41 0 3.52 1.23 3.52 3.32zm-4.1 1.26c1.02 0 1.78-.52 2.35-1.56v-2.3h-1.31c-1.85 0-2.78.68-2.78 2.05 0 1.18.6 1.8 1.73 1.8zm12.4-9.16c1.84 0 2.9 1.16 2.9 3.06v7.18h-1.74v-6.94c0-1.5-.61-1.93-1.58-1.93-1.12 0-1.88.7-2.54 1.76v7.11h-1.75v-10.01h1.5l.15 1.48a3.63 3.63 0 0 1 3.06-1.71zm10.07 0c1.18 0 2.13.3 3.06 1.08l-.84 1.1a3.43 3.43 0 0 0 -2.14-.74c-1.58 0-2.57 1.24-2.57 3.84 0 2.62.99 3.7 2.57 3.7.83 0 1.42-.26 2.18-.75l.8 1.14c-.9.72-1.9 1.1-3.06 1.1-2.7 0-4.37-1.92-4.37-5.15 0-3.2 1.65-5.32 4.37-5.32zm13 4.94c0 .34-.02.66-.04.9h-6.39c.17 2.31 1.26 3.2 2.7 3.2.99 0 1.73-.26 2.6-.87l.76 1.04a5.46 5.46 0 0 1 -3.5 1.26c-2.78 0-4.42-1.96-4.42-5.13 0-3.12 1.58-5.34 4.16-5.34 2.7 0 4.13 1.88 4.13 4.94zm-1.73-.4v-.11c0-1.96-.78-3.04-2.36-3.04-1.33 0-2.2.93-2.34 3.15z" fill="#232328"/><path d="m424.04 451.74h-1.06l-.4 3.01h.94v.97h-1.07l-.3 2.28h-1.09l.3-2.28h-2.16l-.3 2.28h-1.09l.3-2.28h-.9v-.97h1.04l.39-3h-.91v-.99h1.03l.28-2.13h1.1l-.28 2.13h2.14l.28-2.13h1.1l-.29 2.13h.94v.98zm-2.55 3.01.4-3h-2.16l-.4 3zm9.29-6.4-.16 1.07h-3.64v3.29h3.15v1.05h-3.15v4.24h-1.33v-9.65zm6.88 9.65-.72-2.42h-3.66l-.73 2.42h-1.34l3.1-9.65h1.67l3.08 9.65zm-4.06-3.5h3.01l-1.5-5.04-1.5 5.04zm12.07-6.15-.15 1.07h-3.64v3.29h3.15v1.05h-3.15v4.24h-1.33v-9.65zm6.88 0-.16 1.07h-3.64v3.29h3.15v1.05h-3.15v4.24h-1.33v-9.65zm6.87 0-.15 1.07h-3.64v3.29h3.15v1.05h-3.15v4.24h-1.33v-9.65zm3.77 0c2.46 0 4.83.77 4.83 4.78 0 3.93-2.45 4.87-4.54 4.87h-2.31v-9.65zm.29 1.07h-.98v7.53h1.08c1.51 0 3.02-.64 3.02-3.82 0-3.26-1.58-3.71-3.12-3.71z" fill="#979797"/><path d="m420.7 418.9v13.1h-1.8v-13.1zm7.36 2.86c1.18 0 2.13.3 3.06 1.08l-.84 1.1a3.43 3.43 0 0 0 -2.15-.74c-1.57 0-2.56 1.24-2.56 3.84 0 2.62.99 3.7 2.56 3.7.84 0 1.43-.26 2.19-.75l.8 1.14c-.9.72-1.9 1.1-3.06 1.1-2.7 0-4.37-1.92-4.37-5.15 0-3.2 1.65-5.32 4.37-5.32zm13 4.94c0 .34-.02.66-.04.9h-6.39c.17 2.31 1.26 3.2 2.7 3.2.99 0 1.73-.26 2.6-.87l.76 1.04a5.46 5.46 0 0 1 -3.5 1.26c-2.79 0-4.42-1.96-4.42-5.13 0-3.12 1.58-5.34 4.16-5.34 2.7 0 4.12 1.88 4.12 4.94zm-1.74-.4v-.11c0-1.96-.77-3.04-2.35-3.04-1.33 0-2.2.93-2.34 3.15h4.7zm-13.47 86.6-.2 1.45h-4.94v4.47h4.27v1.42h-4.28v5.76h-1.8v-13.1zm9.85 7.8c0 .34-.02.66-.04.9h-6.39c.18 2.31 1.26 3.2 2.7 3.2.99 0 1.73-.26 2.6-.87l.76 1.04a5.46 5.46 0 0 1 -3.5 1.26c-2.78 0-4.42-1.96-4.42-5.13 0-3.12 1.58-5.34 4.16-5.34 2.7 0 4.13 1.88 4.13 4.94zm-1.73-.4v-.11c0-1.96-.78-3.04-2.36-3.04-1.33 0-2.2.93-2.34 3.15zm6.6 5.93c-1.26 0-2.08-.78-2.08-2.2v-12.07l1.75-.21v12.24c0 .53.17.8.62.8.25 0 .46-.04.65-.12l.46 1.22c-.38.2-.88.34-1.4.34zm9.58-14.48 1.75.2v14.05h-1.54l-.17-1.39a3.35 3.35 0 0 1 -2.88 1.62c-2.44 0-3.79-2.07-3.79-5.19 0-3.06 1.49-5.28 3.94-5.28a3.6 3.6 0 0 1 2.7 1.23v-5.24zm-2.46 13.1c1.12 0 1.8-.56 2.46-1.5v-4.9c-.62-.8-1.32-1.3-2.31-1.3-1.5 0-2.44 1.25-2.44 3.85 0 2.64.84 3.84 2.29 3.84zm15.38-9.98.52 1.57c-.84.27-1.79.3-2.93.3 1.18.54 1.77 1.38 1.77 2.53 0 1.98-1.43 3.4-3.82 3.4-.46 0-.86-.05-1.27-.18-.29.2-.5.56-.5.93 0 .45.29.81 1.31.81h1.6c2.05 0 3.42 1.18 3.42 2.78 0 1.94-1.6 3.04-4.7 3.04-3.26 0-4.29-1.01-4.29-3.04h1.58c0 1.14.51 1.67 2.72 1.67 2.16 0 2.92-.55 2.92-1.56 0-.95-.76-1.42-2.01-1.42h-1.58c-1.78 0-2.58-.9-2.58-1.9 0-.65.38-1.3 1.1-1.77a2.87 2.87 0 0 1 -1.7-2.77c0-2.06 1.66-3.5 3.87-3.5 2.49.06 3.4-.36 4.57-.9zm-4.57 2.13c-1.35 0-2.07.93-2.07 2.25 0 1.33.74 2.26 2.1 2.26 1.37 0 2.11-.84 2.11-2.28 0-1.47-.72-2.23-2.14-2.23zm11.24-1.25c.33 0 .69.04 1 .11l-.33 1.71c-.3-.07-.51-.11-.88-.11-1.25 0-1.97.9-2.39 2.81v5.73h-1.75v-10.01h1.5l.18 2.03c.53-1.5 1.46-2.26 2.67-2.26zm9.73 7.9c0 .88.32 1.16.84 1.35l-.4 1.22c-1-.12-1.65-.51-1.96-1.5a3.41 3.41 0 0 1 -2.98 1.5c-2 0-3.2-1.24-3.2-3.02 0-2.15 1.62-3.3 4.42-3.3h1.53v-.75c0-1.44-.7-1.98-2.09-1.98-.74 0-1.67.2-2.7.54l-.43-1.28a9.8 9.8 0 0 1 3.46-.68c2.41 0 3.51 1.23 3.51 3.32zm-4.1 1.26c1.02 0 1.78-.52 2.35-1.56v-2.3h-1.3c-1.85 0-2.78.68-2.78 2.05 0 1.18.59 1.8 1.73 1.8zm15.14-8.93v10.02h-1.5l-.13-1.56c-.76 1.22-1.7 1.79-3.12 1.79-1.75 0-2.8-1.1-2.8-3.06v-7.18h1.76v6.99c0 1.37.45 1.88 1.53 1.88 1.09 0 1.9-.72 2.51-1.73v-7.13h1.75z" fill="#232328"/><path d="m424.04 544.74h-1.06l-.4 3.01h.94v.97h-1.07l-.3 2.28h-1.09l.3-2.28h-2.16l-.3 2.28h-1.09l.3-2.28h-.9v-.97h1.04l.39-3h-.91v-.99h1.03l.28-2.13h1.1l-.28 2.13h2.14l.28-2.13h1.1l-.29 2.13h.94v.98zm-2.55 3.01.4-3h-2.16l-.4 3zm9.79-.08v1.02h-1.22v2.31h-1.24v-2.31h-4v-.92l2.8-6.28 1.08.45-2.53 5.73h2.66l.11-2.52h1.12v2.52zm5.2-6.48c1.21 0 1.9.33 2.67.95l-.73.85a2.83 2.83 0 0 0 -1.86-.71c-1.46 0-2.68.98-2.68 3.89 0 2.79 1.17 3.88 2.66 3.88.91 0 1.5-.4 2.05-.81l.67.85a3.77 3.77 0 0 1 -2.76 1.08c-2.34 0-4.03-1.75-4.03-5 0-3.26 1.82-4.98 4-4.98zm9.12.44-.18 1.01h-3.65v2.76c.49-.25.99-.36 1.5-.36 1.58 0 2.65 1.1 2.65 2.96 0 1.87-1.3 3.17-3.24 3.17a3.67 3.67 0 0 1 -2.78-1.2l.79-.75c.56.6 1.16.9 1.97.9 1.18 0 1.92-.77 1.92-2.14 0-1.45-.74-1.95-1.7-1.95-.51 0-.89.11-1.34.32h-1v-4.72zm6.61 4.27c1.12.2 2.23.72 2.23 2.36 0 2.04-1.59 2.74-3.83 2.74h-2.66v-9.65h2.29c2.38 0 3.78.76 3.78 2.44 0 1.19-.87 1.92-1.81 2.11zm-1.83-3.5h-1.1v3.04h1.46c1.08 0 1.92-.53 1.92-1.55 0-1.2-.86-1.49-2.28-1.49zm.23 7.54c1.4 0 2.43-.28 2.43-1.68 0-1.36-1.01-1.8-2.17-1.8h-1.59v3.48zm10.52-8.3-.18 1h-3.66v2.76c.5-.25 1-.36 1.5-.36 1.58 0 2.66 1.1 2.66 2.96 0 1.87-1.3 3.17-3.25 3.17a3.67 3.67 0 0 1 -2.77-1.2l.78-.75c.56.6 1.17.9 1.98.9 1.17 0 1.92-.77 1.92-2.14 0-1.45-.75-1.95-1.71-1.95-.5 0-.88.11-1.33.32h-1.01v-4.72h5.07zm5.72-.45c1.22 0 1.9.33 2.68.95l-.73.85a2.83 2.83 0 0 0 -1.86-.71c-1.46 0-2.68.98-2.68 3.89 0 2.79 1.17 3.88 2.66 3.88.91 0 1.5-.4 2.05-.81l.67.85a3.77 3.77 0 0 1 -2.76 1.08c-2.34 0-4.03-1.75-4.03-5 0-3.26 1.82-4.98 4-4.98zm-42.81 99.55h-1.06l-.4 3.01h.94v.97h-1.07l-.3 2.28h-1.09l.3-2.28h-2.16l-.3 2.28h-1.09l.3-2.28h-.9v-.97h1.04l.39-3h-.91v-.99h1.03l.28-2.13h1.1l-.28 2.13h2.14l.28-2.13h1.1l-.29 2.13h.94v.98zm-2.55 3.01.4-3h-2.16l-.4 3zm7.28-6.12v9.37h-1.28v-8l-2.19 1.34-.56-.91 2.9-1.8zm6.32-.44c1.22 0 1.9.33 2.67.95l-.73.85a2.83 2.83 0 0 0 -1.86-.71c-1.45 0-2.67.98-2.67 3.89 0 2.79 1.16 3.88 2.66 3.88.9 0 1.5-.4 2.04-.81l.67.85a3.77 3.77 0 0 1 -2.75 1.08c-2.34 0-4.04-1.75-4.04-5 0-3.26 1.82-4.98 4-4.98zm6.26.3c1.72 0 2.81 1.11 2.81 2.57 0 1.75-1.12 3-3.99 5.86h4.21l-.15 1.08h-5.53v-1.02c3.3-3.45 4.12-4.34 4.12-5.87 0-.98-.63-1.55-1.54-1.55-.79 0-1.3.3-1.9 1.02l-.88-.67a3.46 3.46 0 0 1 2.85-1.42zm6.93 0c1.72 0 2.81 1.11 2.81 2.57 0 1.75-1.12 3-3.99 5.86h4.21l-.15 1.08h-5.53v-1.02c3.3-3.45 4.12-4.34 4.12-5.87 0-.98-.63-1.55-1.54-1.55-.79 0-1.3.3-1.9 1.02l-.88-.67a3.46 3.46 0 0 1 2.85-1.42zm6.93 0c1.72 0 2.81 1.11 2.81 2.57 0 1.75-1.12 3-3.99 5.86h4.21l-.15 1.08h-5.53v-1.02c3.3-3.45 4.12-4.34 4.12-5.87 0-.98-.63-1.55-1.54-1.55-.79 0-1.3.3-1.9 1.02l-.88-.67a3.46 3.46 0 0 1 2.85-1.42zm6.93 0c1.72 0 2.81 1.11 2.81 2.57 0 1.75-1.12 3-3.99 5.86h4.21l-.15 1.08h-5.53v-1.02c3.3-3.45 4.12-4.34 4.12-5.87 0-.98-.63-1.55-1.54-1.55-.79 0-1.3.3-1.9 1.02l-.88-.67a3.46 3.46 0 0 1 2.85-1.42z" fill="#979797"/><path d="m423.48 608.68c1.65 0 2.58.46 3.63 1.3l-.99 1.15a3.84 3.84 0 0 0 -2.53-.97c-1.97 0-3.63 1.33-3.63 5.29 0 3.78 1.58 5.26 3.61 5.26 1.24 0 2.04-.55 2.78-1.1l.91 1.15a5.11 5.11 0 0 1 -3.74 1.47c-3.18 0-5.47-2.38-5.47-6.78 0-4.43 2.46-6.77 5.43-6.77zm10.68 3.08c1.82 0 2.9 1.18 2.9 3.06v7.18h-1.74v-6.93c0-1.5-.65-1.94-1.6-1.94-1.08 0-1.86.7-2.53 1.75v7.12h-1.75v-14.02l1.75-.2v5.6a3.6 3.6 0 0 1 2.97-1.62zm13.16 7.9c0 .88.33 1.16.84 1.35l-.4 1.22c-1-.12-1.65-.51-1.96-1.5a3.41 3.41 0 0 1 -2.98 1.5c-2 0-3.2-1.24-3.2-3.02 0-2.15 1.62-3.3 4.42-3.3h1.54v-.75c0-1.44-.7-1.98-2.1-1.98-.74 0-1.67.2-2.7.54l-.43-1.28a9.8 9.8 0 0 1 3.46-.68c2.41 0 3.51 1.23 3.51 3.32zm-4.1 1.26c1.03 0 1.79-.52 2.36-1.56v-2.3h-1.31c-1.85 0-2.78.68-2.78 2.05 0 1.18.59 1.8 1.73 1.8zm12.05-9.16c.32 0 .68.04.98.11l-.32 1.71c-.3-.07-.51-.11-.87-.11-1.26 0-1.98.9-2.4 2.81v5.72h-1.75v-10.01h1.5l.18 2.03c.53-1.5 1.46-2.26 2.68-2.26zm6.63 0c1.18 0 2.13.3 3.06 1.08l-.84 1.1a3.43 3.43 0 0 0 -2.15-.74c-1.57 0-2.56 1.24-2.56 3.84 0 2.62.99 3.7 2.56 3.7.84 0 1.43-.26 2.19-.75l.8 1.14c-.9.72-1.9 1.1-3.06 1.1-2.7 0-4.37-1.92-4.37-5.15 0-3.2 1.65-5.32 4.37-5.32zm9.2 0c2.84 0 4.44 2.05 4.44 5.22 0 3.1-1.64 5.25-4.47 5.25-2.85 0-4.46-2.05-4.46-5.23 0-3.1 1.63-5.24 4.48-5.24zm0 1.4c-1.68 0-2.61 1.22-2.61 3.84 0 2.6.91 3.82 2.58 3.82 1.68 0 2.59-1.21 2.59-3.84 0-2.6-.91-3.82-2.57-3.82zm14.07 6.5c0 .88.32 1.16.84 1.35l-.4 1.22c-1-.12-1.65-.51-1.96-1.5a3.41 3.41 0 0 1 -2.98 1.5c-2 0-3.2-1.24-3.2-3.02 0-2.15 1.62-3.3 4.41-3.3h1.54v-.75c0-1.44-.7-1.98-2.09-1.98-.74 0-1.67.2-2.7.54l-.43-1.28a9.8 9.8 0 0 1 3.46-.68c2.41 0 3.51 1.23 3.51 3.32zm-4.1 1.26c1.02 0 1.78-.52 2.35-1.56v-2.3h-1.3c-1.85 0-2.78.68-2.78 2.05 0 1.18.59 1.8 1.73 1.8zm9.69 1.3c-1.27 0-2.1-.77-2.1-2.2v-12.06l1.76-.21v12.24c0 .53.17.8.62.8.25 0 .46-.04.65-.12l.45 1.22c-.38.2-.87.34-1.38.34z" fill="#232328"/><path d="m331.5 48.5h260m-591 0h260" stroke="#4c5b5c" stroke-width="4"/></g><path d="m33.97 264v-19h-13.31v19h-10.5v-44.35h10.5v17.15h13.3v-17.15h10.5v44.35h-10.5zm48.14-17.66c0 1.08-.06 2.62-.19 3.64h-20.99c.64 6.08 3.52 7.75 7.68 7.75 2.75 0 5.18-.96 8.13-3.01l4.16 5.63a20.9 20.9 0 0 1 -13.25 4.74c-11.33 0-17.09-7.3-17.09-17.92 0-10.18 5.57-18.24 15.87-18.24 9.73 0 15.68 6.4 15.68 17.4zm-9.92-2.44v-.44c-.06-4.61-1.47-7.81-5.5-7.81-3.4 0-5.31 2.11-5.82 8.25zm42.65 10.24c0 2.63.7 3.59 2.3 4.16l-2.11 6.6c-3.97-.32-6.6-1.54-8.2-4.87-2.42 3.71-6.2 5.06-10.23 5.06-6.79 0-11.07-4.42-11.07-10.63 0-7.42 5.63-11.45 15.93-11.45h3.46v-1.47c0-4.04-1.6-5.25-5.76-5.25-2.18 0-5.5.64-8.9 1.79l-2.3-6.66a38.4 38.4 0 0 1 12.8-2.5c9.85 0 14.08 4.17 14.08 12.04zm-15.3 3.72a6.2 6.2 0 0 0 5.38-3.2v-6.08h-2.5c-4.6 0-6.85 1.6-6.85 4.99 0 2.69 1.48 4.29 3.97 4.29zm43.6-42.44 10.12 1.1v47.48h-8.96l-.52-3.97a11.25 11.25 0 0 1 -9.66 5.06c-8.64 0-12.93-7.17-12.93-18.18 0-10.5 5.31-17.98 14.08-17.98 3.07 0 5.83 1.21 7.87 3.2v-16.7zm-5.82 42.24c2.37 0 4.22-1.28 5.82-3.77v-14.72c-1.53-1.8-3.07-2.88-5.24-2.88-3.65 0-6.21 3.07-6.21 10.69 0 8.44 2.3 10.68 5.63 10.68zm53.4-11.32c0 1.08-.07 2.62-.2 3.64h-20.99c.64 6.08 3.52 7.75 7.68 7.75 2.75 0 5.19-.96 8.13-3.01l4.16 5.63a20.9 20.9 0 0 1 -13.25 4.74c-11.33 0-17.09-7.3-17.09-17.92 0-10.18 5.57-18.24 15.88-18.24 9.72 0 15.68 6.4 15.68 17.4zm-9.92-2.44v-.44c-.07-4.61-1.48-7.81-5.5-7.81-3.4 0-5.32 2.11-5.83 8.25zm34.06-14.84c1.28 0 2.3.12 3.4.44l-1.6 9.8a12.28 12.28 0 0 0 -3.08-.45c-4.16 0-5.95 3.07-7.04 8.19v16.96h-10.1v-33.98h8.82l.83 6.52c1.54-4.67 4.87-7.48 8.77-7.48zm42.66-8.32v43.26h-9.92v-33.4l-9.28 5.69-4.41-6.72 14.59-8.83zm-230.76 135.26v-13.33h-10.08v13.33h-6.47v-30.45h6.47v12.01h10.08v-12h6.46v30.44zm32.4-12.19c0 .8-.09 1.76-.13 2.42h-14.56c.44 4.49 2.55 5.81 5.54 5.81 1.98 0 3.65-.62 5.68-2.02l2.6 3.52a13.75 13.75 0 0 1 -8.85 3.16c-7.48 0-11.4-4.92-11.4-12.23 0-7.04 3.79-12.5 10.6-12.5 6.6 0 10.52 4.4 10.52 11.84zm-6.2-1.5v-.26c0-3.52-1.19-5.8-4.18-5.8-2.47 0-3.96 1.62-4.31 6.07h8.49zm28.58 7.22c0 1.9.57 2.55 1.71 2.95l-1.32 4.14c-2.64-.27-4.4-1.1-5.37-3.4-1.67 2.52-4.22 3.48-7 3.48-4.66 0-7.56-2.99-7.56-7.21 0-5.1 3.83-7.88 10.74-7.88h2.68v-1.14c0-2.9-1.23-3.83-4.18-3.83-1.54 0-3.78.44-6.16 1.23l-1.4-4.18a24.24 24.24 0 0 1 8.62-1.71c6.46 0 9.24 2.86 9.24 8.14zm-10.26 2.69c1.8 0 3.17-.93 4.14-2.6v-4.44h-2.07c-3.39 0-5.06 1.23-5.06 3.78 0 2.07 1.06 3.26 3 3.26zm30.39-29.53 6.25.7v32.61h-5.5l-.4-2.86a7.71 7.71 0 0 1 -6.64 3.56c-5.86 0-8.85-4.92-8.85-12.36 0-7.22 3.6-12.36 9.55-12.36 2.24 0 4.18.96 5.59 2.37v-11.65zm-4.4 29.35c1.85 0 3.2-.97 4.4-2.82v-10.42c-1.15-1.37-2.33-2.2-4-2.2-2.78 0-4.63 2.28-4.63 7.74 0 5.85 1.68 7.7 4.23 7.7zm36.45-8.23c0 .8-.09 1.76-.13 2.42h-14.56c.44 4.49 2.55 5.81 5.54 5.81 1.98 0 3.65-.62 5.68-2.02l2.6 3.52a13.75 13.75 0 0 1 -8.85 3.16c-7.48 0-11.4-4.92-11.4-12.23 0-7.04 3.79-12.5 10.6-12.5 6.6 0 10.52 4.4 10.52 11.84zm-6.2-1.5v-.26c0-3.52-1.2-5.8-4.18-5.8-2.47 0-3.96 1.62-4.31 6.07h8.49zm22.81-10.29c.84 0 1.54.13 2.33.35l-1.05 6.03c-.7-.18-1.28-.3-2.07-.3-2.86 0-4.18 2.1-5.02 5.89v12.01h-6.24v-23.32h5.4l.58 4.53c1.1-3.25 3.34-5.19 6.07-5.19zm23.32-6.25c6.34 0 9.9 3.79 9.9 8.4 0 4.8-2.6 8.37-11.79 16.99h12.45l-.7 4.84h-18.88v-4.53c10.08-10.08 12.5-12.8 12.5-16.77 0-2.55-1.63-4.09-4.05-4.09-2.24 0-3.78.97-5.54 3.13l-3.79-3a11.92 11.92 0 0 1 9.9-4.97zm-148.63-230.91-.5 3.68h-5.6v18.46h-4.72v-18.46h-5.88v-3.68zm16.52 5.18-5.48 17c-1.3 4.12-3.96 6.65-9.15 7l-.48-3.26c3.36-.45 4.51-1.48 5.44-3.78h-1.57l-5.28-16.96h4.84l3.39 14.02 3.58-14.02h4.7zm11.26-.51c4.48 0 6.37 3.49 6.37 8.96 0 5.18-2.47 9.02-6.72 9.02-1.7 0-3.14-.57-4.2-1.82v7.84l-4.54.51v-24h4l.23 1.98a6.16 6.16 0 0 1 4.86-2.5zm-1.7 14.59c2.08 0 3.33-1.63 3.33-5.6 0-4.26-1.09-5.63-3.04-5.63-1.25 0-2.37.9-3.13 2.17v7.4c.73 1.12 1.7 1.66 2.84 1.66zm26.02-5.98c0 .57-.06 1.28-.1 1.76h-10.59c.32 3.26 1.86 4.22 4.03 4.22 1.44 0 2.66-.45 4.13-1.47l1.89 2.56a10 10 0 0 1 -6.43 2.3c-5.44 0-8.29-3.58-8.29-8.9 0-5.11 2.75-9.08 7.71-9.08 4.8 0 7.65 3.2 7.65 8.6zm-4.51-1.1v-.18c0-2.56-.87-4.23-3.04-4.23-1.8 0-2.88 1.19-3.14 4.42h6.18zm-53.83 321.96v-7.27h-5.5v7.27h-3.53v-16.6h3.53v6.54h5.5v-6.55h3.52v16.61zm17.7-6.65c0 .43-.04.96-.06 1.32h-7.95c.24 2.45 1.4 3.17 3.03 3.17 1.08 0 1.99-.34 3.1-1.1l1.4 1.92a7.5 7.5 0 0 1 -4.82 1.72c-4.08 0-6.21-2.68-6.21-6.67 0-3.84 2.06-6.81 5.78-6.81 3.6 0 5.74 2.4 5.74 6.45zm-3.38-.81v-.15c0-1.92-.64-3.17-2.28-3.17-1.34 0-2.16.9-2.35 3.32zm15.63 3.93c0 1.03.31 1.4.93 1.61l-.72 2.26c-1.44-.15-2.4-.6-2.92-1.85a4.34 4.34 0 0 1 -3.82 1.9c-2.54 0-4.13-1.64-4.13-3.94 0-2.79 2.09-4.3 5.86-4.3h1.46v-.62c0-1.59-.67-2.09-2.28-2.09-.84 0-2.06.24-3.36.67l-.77-2.28c1.59-.62 3.27-.93 4.7-.93 3.54 0 5.05 1.56 5.05 4.44zm-5.6 1.47c.99 0 1.73-.5 2.26-1.42v-2.42h-1.13c-1.84 0-2.76.67-2.76 2.06 0 1.13.58 1.78 1.64 1.78zm16.61-16.1 3.41.38v17.78h-3l-.21-1.56a4.2 4.2 0 0 1 -3.63 1.94c-3.19 0-4.82-2.68-4.82-6.74 0-3.94 1.97-6.74 5.2-6.74a4.3 4.3 0 0 1 3.05 1.3v-6.37zm-2.4 16c1.01 0 1.76-.53 2.4-1.54v-5.68c-.62-.75-1.27-1.2-2.18-1.2-1.51 0-2.52 1.24-2.52 4.22 0 3.2.91 4.2 2.3 4.2zm19.92-4.49c0 .43-.04.96-.07 1.32h-7.94c.24 2.45 1.39 3.17 3.02 3.17 1.08 0 2-.34 3.1-1.1l1.41 1.92a7.5 7.5 0 0 1 -4.82 1.72c-4.08 0-6.22-2.68-6.22-6.67 0-3.84 2.07-6.81 5.79-6.81 3.6 0 5.73 2.4 5.73 6.45zm-3.38-.81v-.15c0-1.92-.65-3.17-2.28-3.17-1.34 0-2.16.9-2.35 3.32zm12.48-5.62c.46 0 .84.07 1.27.2l-.57 3.28c-.39-.1-.7-.17-1.13-.17-1.56 0-2.28 1.15-2.74 3.22v6.55h-3.4v-12.72h2.95l.3 2.47c.6-1.77 1.83-2.83 3.32-2.83zm12.77-3.4c3.43 0 5.25 1.84 5.25 4.1 0 1.99-1.22 3.28-3.16 3.81 2.01.22 3.7 1.44 3.7 3.99 0 2.73-2.17 4.96-6.03 4.96a6.6 6.6 0 0 1 -5.38-2.4l1.85-1.77c1.08 1.08 2.09 1.53 3.34 1.53 1.63 0 2.7-.93 2.7-2.54 0-1.8-1-2.45-2.78-2.45h-1.32l.41-2.4h.89c1.46 0 2.47-.81 2.47-2.28 0-1.25-.89-1.99-2.28-1.99-1.22 0-2.2.46-3.19 1.4l-1.7-1.86a7.33 7.33 0 0 1 5.23-2.1zm-83.79 82.48v-4.94h-3.93v4.94h-2.11v-11.06h2.1v4.44h3.94v-4.44h2.13v11.06zm11.78-11.06-.23 1.57h-4.08v3.09h3.55v1.57h-3.55v3.25h4.37v1.58h-6.48v-11.06zm8.57 11.06-.7-2.56h-3.66l-.68 2.56h-2.2l3.44-11.06h2.61l3.43 11.06zm-3.94-4.16h2.83l-1.42-5.28-1.4 5.28zm10.78-6.9c2.91 0 5.66.9 5.66 5.48 0 4.48-2.73 5.58-5.37 5.58h-3.02v-11.06h2.72zm.37 1.59h-.98v7.89h1.04c1.65 0 3.01-.74 3.01-4 0-3.33-1.44-3.9-3.07-3.9zm14.35-1.59-.23 1.57h-4.08v3.09h3.55v1.57h-3.55v3.25h4.37v1.58h-6.48v-11.06zm8.62 11.06-2.45-4.43h-1.35v4.43h-2.1v-11.06h3.29c2.9 0 4.38 1.06 4.38 3.25 0 1.52-.73 2.4-2.24 3l2.9 4.81zm-3.8-9.52v3.57h1.32c1.3 0 2.04-.53 2.04-1.86 0-1.2-.68-1.71-2.22-1.71zm20.07 5.49v1.57h-1.3v2.46h-2v-2.46h-4.57v-1.41l3.14-7.1 1.74.65-2.75 6.29h2.46l.21-2.7h1.78v2.7h1.3z" fill="#4c5b5c"/><path d="m15.47 552-2.64-4.67h-1.71v4.67h-1.52v-11.02h2.9c2.75 0 4.19 1.05 4.19 3.12 0 1.55-.8 2.48-2.39 2.96l2.98 4.94h-1.8zm-4.35-5.84h1.54c1.53 0 2.41-.58 2.41-2.06 0-1.38-.78-1.94-2.59-1.94h-1.36zm14.45 1.38c0 .28-.02.56-.03.75h-5.38c.14 1.95 1.06 2.7 2.27 2.7.83 0 1.46-.22 2.2-.73l.63.88a4.6 4.6 0 0 1 -2.94 1.05c-2.35 0-3.73-1.65-3.73-4.32 0-2.62 1.33-4.5 3.5-4.5 2.28 0 3.48 1.59 3.48 4.17zm-1.46-.34v-.1c0-1.64-.65-2.56-1.98-2.56-1.12 0-1.86.79-1.97 2.66zm10.26-4.58.43 1.33c-.7.23-1.5.26-2.46.26.99.45 1.48 1.15 1.48 2.13 0 1.66-1.2 2.86-3.21 2.86-.39 0-.72-.05-1.07-.16-.24.18-.42.48-.42.78 0 .39.24.7 1.1.7h1.35c1.73 0 2.88.98 2.88 2.33 0 1.63-1.35 2.56-3.95 2.56-2.76 0-3.62-.85-3.62-2.56h1.33c0 .96.43 1.4 2.29 1.4 1.82 0 2.46-.46 2.46-1.3 0-.8-.64-1.2-1.7-1.2h-1.32c-1.5 0-2.18-.76-2.18-1.6 0-.55.32-1.1.93-1.5a2.41 2.41 0 0 1 -1.43-2.33c0-1.73 1.4-2.94 3.25-2.94 2.1.04 2.87-.3 3.86-.76zm-3.86 1.81c-1.13 0-1.74.79-1.74 1.89 0 1.12.62 1.9 1.77 1.9 1.16 0 1.78-.7 1.78-1.92 0-1.23-.6-1.87-1.8-1.87zm12.08-.86v8.43h-1.26l-.11-1.31c-.64 1.02-1.43 1.5-2.63 1.5-1.47 0-2.35-.93-2.35-2.57v-6.05h1.47v5.89c0 1.15.39 1.58 1.3 1.58s1.6-.6 2.11-1.46v-6.01zm4.72 8.62c-1.07 0-1.76-.65-1.76-1.85v-10.16l1.47-.18v10.3c0 .45.15.68.53.68.21 0 .39-.04.55-.1l.38 1.02c-.32.18-.74.3-1.17.3zm8.69-2.16c0 .74.27.98.7 1.14l-.33 1.02c-.85-.1-1.4-.43-1.65-1.26a2.87 2.87 0 0 1 -2.51 1.26c-1.68 0-2.69-1.04-2.69-2.54 0-1.81 1.36-2.79 3.71-2.79h1.3v-.62c0-1.22-.6-1.66-1.76-1.66-.63 0-1.41.16-2.27.44l-.37-1.07a8.26 8.26 0 0 1 2.91-.57c2.03 0 2.96 1.04 2.96 2.8zm-3.46 1.06c.87 0 1.5-.43 1.99-1.31v-1.94h-1.1c-1.56 0-2.34.58-2.34 1.73 0 .99.5 1.52 1.45 1.52zm10.15-7.71c.27 0 .57.03.83.1l-.27 1.43c-.26-.06-.43-.1-.74-.1-1.05 0-1.66.76-2.01 2.37v4.82h-1.48v-8.43h1.27l.14 1.71c.45-1.26 1.23-1.9 2.26-1.9zm10.45 7.23.56 1c-.56.39-1.17.58-1.9.58-1.42 0-2.26-.83-2.26-2.4v-5.09h-1.48v-1.13h1.48v-1.9l1.47-.18v2.08h2l-.16 1.13h-1.85v5.03c0 .85.27 1.25 1 1.25.37 0 .71-.12 1.13-.37zm8.44-3.07c0 .28-.01.56-.03.75h-5.37c.14 1.95 1.05 2.7 2.27 2.7.83 0 1.45-.22 2.19-.73l.64.88a4.6 4.6 0 0 1 -2.94 1.05c-2.36 0-3.73-1.65-3.73-4.32 0-2.62 1.33-4.5 3.5-4.5 2.27 0 3.47 1.59 3.47 4.17zm-1.45-.34v-.1c0-1.64-.66-2.56-1.99-2.56-1.12 0-1.85.79-1.96 2.66zm7.12.29 2.93 4.51h-1.78l-2.06-3.57-2.1 3.57h-1.66l2.94-4.45-2.6-3.98h1.72l1.76 3.09 1.78-3.1h1.66l-2.6 3.93zm8.22 3.12.56 1c-.56.39-1.17.58-1.89.58-1.42 0-2.27-.83-2.27-2.4v-5.09h-1.47v-1.13h1.47v-1.9l1.47-.18v2.08h2l-.16 1.13h-1.84v5.03c0 .85.28 1.25 1.01 1.25.37 0 .7-.12 1.12-.37z" fill="#1c2222"/><path d="m11.78 597.19c1.33 0 2.17.39 2.98 1.12l-.73.8a3.32 3.32 0 0 0 -2.2-.83c-.96 0-1.73.45-1.73 1.37 0 .81.38 1.2 2.11 1.74 1.54.47 2.86 1.07 2.86 2.92 0 1.68-1.27 2.86-3.44 2.86a4.51 4.51 0 0 1 -3.28-1.25l.74-.82c.72.6 1.47.98 2.52.98 1.14 0 2.07-.56 2.07-1.73 0-.93-.44-1.35-2.08-1.86-1.88-.57-2.86-1.29-2.86-2.78s1.26-2.52 3.04-2.52zm12.59 2.26c1.2 0 2 .87 2 2.26v5.29h-1.29v-5.11c0-1.1-.48-1.43-1.04-1.43-.8 0-1.23.52-1.73 1.3v5.24h-1.29v-5.11c0-1.1-.48-1.43-1.04-1.43-.8 0-1.24.52-1.73 1.3v5.24h-1.29v-7.38h1.1l.12 1.08c.49-.74 1.16-1.25 2.13-1.25.9 0 1.58.5 1.86 1.33.53-.8 1.2-1.33 2.2-1.33zm9.56 5.83c0 .64.24.85.61 1l-.29.89c-.74-.09-1.22-.38-1.44-1.1-.52.76-1.3 1.1-2.2 1.1-1.47 0-2.35-.91-2.35-2.23 0-1.58 1.19-2.43 3.25-2.43h1.13v-.55c0-1.06-.52-1.46-1.54-1.46a6.6 6.6 0 0 0 -1.99.4l-.32-.94c.91-.34 1.72-.5 2.55-.5 1.78 0 2.59.9 2.59 2.44zm-3.03.92c.76 0 1.32-.38 1.74-1.15v-1.69h-.97c-1.35 0-2.04.5-2.04 1.51 0 .87.43 1.33 1.27 1.33zm7.14.97c-.93 0-1.54-.58-1.54-1.63v-8.89l1.3-.15v9.02c0 .39.12.58.45.58.19 0 .34-.02.48-.08l.34.9c-.28.15-.65.25-1.03.25zm4.1 0c-.93 0-1.53-.58-1.53-1.63v-8.89l1.28-.15v9.02c0 .39.13.58.47.58.18 0 .33-.02.47-.08l.34.9c-.28.15-.65.25-1.02.25zm9.58-1.39.5.88c-.5.34-1.03.5-1.66.5-1.25 0-1.99-.72-1.99-2.1v-4.44h-1.29v-1h1.3v-1.66l1.28-.16v1.82h1.75l-.14 1h-1.61v4.4c0 .73.24 1.08.88 1.08.32 0 .62-.1.98-.32zm7.4-2.69c0 .26-.02.5-.03.66h-4.7c.12 1.71.92 2.37 1.98 2.37.73 0 1.27-.2 1.92-.65l.56.77c-.73.58-1.56.93-2.58.93-2.06 0-3.26-1.44-3.26-3.78 0-2.3 1.16-3.94 3.07-3.94 1.98 0 3.03 1.39 3.03 3.64zm-1.28-.29v-.08c0-1.45-.57-2.24-1.74-2.24-.98 0-1.62.68-1.72 2.32zm6.23.25 2.56 3.95h-1.55l-1.8-3.12-1.84 3.12h-1.46l2.58-3.9-2.28-3.48h1.5l1.55 2.7 1.55-2.7h1.46zm7.2 2.73.49.88c-.5.34-1.03.5-1.66.5-1.24 0-1.98-.72-1.98-2.1v-4.44h-1.3v-1h1.3v-1.66l1.28-.16v1.82h1.75l-.14 1h-1.6v4.4c0 .73.23 1.08.88 1.08.32 0 .61-.1.98-.32z" fill="#4f4f53"/><path d="m12.71 651.27 2.02 3.73h-1.62l-1.29-2.74-1.27 2.74h-1.57l1.97-3.68-1.81-3.24h1.61l1.09 2.31 1.14-2.31h1.56zm2.58 1.16v-1.12h3.1v1.12zm6.82-4.51c1.03 0 1.73.31 2.33.87l-.7.81c-.49-.4-.97-.58-1.53-.58-.6 0-1.01.26-1.01.75 0 .48.26.68 1.39 1.03 1.25.4 2.05.92 2.05 2.2 0 1.27-1 2.16-2.68 2.16a3.53 3.53 0 0 1 -2.56-.97l.76-.83c.5.43 1.05.69 1.76.69s1.19-.34 1.19-.95c0-.55-.27-.79-1.32-1.11-1.5-.47-2.1-1.07-2.1-2.12 0-1.18 1.02-1.95 2.42-1.95zm10.12.16.53 6.92h-1.44l-.15-2.81c-.06-.99-.09-2.03-.06-2.82l-1.17 4.89h-1.39l-1.25-4.9c.06.97.05 1.89 0 2.86l-.15 2.78h-1.43l.54-6.92h1.87l1.14 4.77 1.07-4.77zm5.82 6.92-.39-1.55h-2.17l-.39 1.55h-1.53l2.13-6.92h1.79l2.12 6.92zm-2.29-2.64h1.62l-.81-3.19zm6.36-4.28v5.74h2.74l-.16 1.18h-4.05v-6.92zm5.49 0v5.74h2.74l-.16 1.18h-4.05v-6.92zm11.45 0-.16 1.15h-1.75v5.77h-1.47v-5.77h-1.84v-1.15zm5.28 0-.16 1.07h-2.5v1.8h2.18v1.06h-2.18v1.91h2.68v1.08h-4.15v-6.92zm4.53 3.19 2.02 3.73h-1.62l-1.29-2.74-1.27 2.74h-1.57l1.97-3.68-1.81-3.24h1.61l1.09 2.31 1.14-2.31h1.56zm7.72-3.19-.16 1.15h-1.75v5.77h-1.47v-5.77h-1.84v-1.15z" fill="#1c2222"/><g fill-rule="nonzero" transform="translate(1009 424)"><circle cx="32" cy="32" fill="#fafffd" r="30"/><path d="m32 64a32 32 0 1 0 0-64 32 32 0 0 0 0 64zm-16-16.13v-4.5c0-.27.1-.53.28-.74l13.61-15.53c-.16-.8-.39-2.04-.39-2.85 0-6.2 5.05-11.25 11.25-11.25s11.25 5.05 11.25 11.25-5.05 11.25-11.25 11.25c-1.84 0-3.12-.15-4.15-.55l-1.25 3.63c-.16.47-.6.77-1.1.76h-3.78l-1.08 4.2a1.13 1.13 0 0 1 -1.08 1.05h-4.46l-1.13 3.53c-.11.51-.57.88-1.1.88h-4.5c-.62 0-1.12-.5-1.12-1.13zm23.75-26a3.38 3.38 0 1 0 6.76 0 3.38 3.38 0 0 0 -6.76 0z" fill="#96bb00"/></g><g fill-rule="nonzero" transform="translate(1012 354)"><circle cx="22" cy="22" fill="#fafffd" r="20.63"/><path d="m22 44a22 22 0 1 0 0-44 22 22 0 0 0 0 44zm-11-11.09v-3.09c0-.19.07-.37.2-.51l9.35-10.68c-.11-.55-.27-1.4-.27-1.96a7.74 7.74 0 1 1 7.74 7.74c-1.27 0-2.15-.1-2.86-.38l-.86 2.5a.77.77 0 0 1 -.75.52h-2.6l-.74 2.89c-.03.4-.35.7-.75.72h-3.06l-.78 2.42c-.08.36-.4.6-.75.6h-3.1a.77.77 0 0 1 -.77-.77zm16.33-17.87a2.32 2.32 0 1 0 4.64 0 2.32 2.32 0 0 0 -4.64 0z" fill="#96bb00"/></g><g fill-rule="nonzero" transform="translate(1015 294)"><circle cx="12" cy="12" fill="#fafffd" r="11.25"/><path d="m12 24a12 12 0 1 0 0-24 12 12 0 0 0 0 24zm-6-6.05v-1.68c0-.1.04-.2.1-.28l5.11-5.83a4.22 4.22 0 1 1 4.07 3.15c-.69 0-1.17-.05-1.55-.2l-.48 1.36a.42.42 0 0 1 -.4.28h-1.43l-.4 1.58a.42.42 0 0 1 -.4.4h-1.69l-.42 1.31a.42.42 0 0 1 -.41.34h-1.68a.42.42 0 0 1 -.42-.43zm8.9-9.75a1.27 1.27 0 1 0 2.54 0 1.27 1.27 0 0 0 -2.53 0z" fill="#96bb00"/></g><g fill-rule="nonzero" transform="translate(1015 233)"><circle cx="8" cy="8" fill="#fafffd" r="7.5"/><path d="m8 16a8 8 0 1 0 0-16 8 8 0 0 0 0 16zm-4-4.03v-1.13c0-.06.02-.13.07-.18l3.4-3.88a2.82 2.82 0 1 1 2.71 2.1c-.45 0-.77-.04-1.03-.14l-.31.9a.28.28 0 0 1 -.28.2h-.94l-.27 1.05a.28.28 0 0 1 -.27.26h-1.12l-.28.88a.28.28 0 0 1 -.27.22h-1.13a.28.28 0 0 1 -.28-.28zm5.94-6.5a.84.84 0 1 0 1.69 0 .84.84 0 0 0 -1.7 0z" fill="#96bb00"/></g><g fill="#979797" font-family="FiraSans-Regular, Fira Sans" font-size="14"><text><tspan x="783" y="259">8px</tspan></text><text><tspan x="783" y="324">16px</tspan></text><text><tspan x="783" y="391">24px</tspan></text><text><tspan x="783" y="470">44px</tspan></text><text><tspan x="783" y="576">64px</tspan></text><text><tspan x="1103" y="259">16px</tspan></text><text><tspan x="1103" y="323">24px</tspan></text><text><tspan x="1104" y="391">44px</tspan></text><text><tspan x="1103" y="468">64px</tspan></text></g></g></svg>