<svg height="387" width="296" xmlns="http://www.w3.org/2000/svg"><g fill="none" fill-rule="evenodd"><path d="m8 25h273.8v303.8h-273.8z" fill="#fff"/><path d="m27 13h242.8v364h-242.8z" fill="#fff"/><g fill="#212121"><path d="m248.1 50h13.7v152h-13.7zm-222.1-50h244v13.4h-244zm-12.8 328h269.4v13.4h-269.4zm162.4-58h71.3v13.4h-71.3zm-126.6-68h200v13h-200z"/><path d="m49 38h200v13h-200zm-35.9-25h13.7v13.4h-13.7zm24.9 267h25v13h-25zm-24.8 93h269.4v13.4h-269.4zm268.9-347h13.7v302.3h-13.7z"/><path d="m.1 26h13.7v302.3h-13.7zm268.9 302h14v58h-14z"/><path d="m13 328h14v58h-14zm23.1-278h13.7v152h-13.7zm233-37h13.7v13.4h-13.7z"/><path d="m196 64h26.3v13h-26.3zm-13.8 13h13.8v25h-13.7zm40.1 0h13.7v25h-13.7z"/><path d="m155.8 64h26.4v13h-26.4zm0 38h26.4v13h-26.4zm-13.7-25h13.7v25h-13.7zm40.1 0h13.8v25h-13.7z"/><path d="m115.8 64h26.4v13h-26.4zm0 38h26.4v13h-26.4zm-13.8-25h13.8v25h-13.8zm40.2 0h13.7v25h-13.7z"/><path d="m75.7 64h26.4v13h-26.4zm0 38h26.4v13h-26.4zm-13.7-25h13.7v25h-13.7zm40.1 0h13.7v25h-13.7z"/><path d="m155.8 102h26.4v13h-26.4zm0 38h26.4v13h-26.4zm-13.7-25h13.7v25h-13.7z"/><path d="m115.8 102h26.4v13h-26.4zm0 38h26.4v13h-26.4zm-13.8-25h13.8v25h-13.8zm40.2 0h13.7v25h-13.7z"/><path d="m75.7 102h26.4v13h-26.4zm0 38h26.4v13h-26.4zm-13.7-25h13.7v25h-13.7zm40.1 0h13.7v25h-13.7z"/><path d="m155.8 140h26.4v13h-26.4zm0 38h26.4v13h-26.4zm-13.7-25h13.7v25h-13.7zm40.1 0h13.8v25h-13.7z"/><path d="m196 178h26.3v13h-26.3zm-13.8-25h13.8v25h-13.7zm40.1 0h13.7v25h-13.7z"/><path d="m115.8 140h26.4v13h-26.4zm0 38h26.4v13h-26.4zm-13.8-25h13.8v25h-13.8zm40.2 0h13.7v25h-13.7z"/><path d="m75.7 140h26.4v13h-26.4zm0 38h26.4v13h-26.4zm-13.7-25h13.7v25h-13.7zm40.1 0h13.7v25h-13.7z"/></g><g fill="#ff6d5b"><path d="m196 115h26.3v25h-26.3z" opacity=".4"/><path d="m196 102h26.3v13h-26.3zm0 38h26.3v13h-26.3zm-13.8-25h13.8v25h-13.7zm40.1 0h13.7v25h-13.7z"/></g></g></svg>