<svg height="783" width="1498" xmlns="http://www.w3.org/2000/svg"><g fill="none" fill-rule="evenodd"><path d="m0 100h1498v683h-1498z" fill="#fff"/><path d="m1.5 101.5h1495v680h-1495z" stroke="#f1f1f1" stroke-width="3"/><path d="m0 0h1498v683h-1498z" fill="#f7f7f7"/><path d="m119 309h85v85h-85z" fill="#ff6d5b"/><path d="m123.7 279.6v-17.7h-6.7v-4.9h19v4.9h-6.7v17.7zm15.4-8.3c0 3.2 1.3 4.3 3.2 4.3 1.8 0 3.1-1.1 3.1-4.3s-1.2-4.4-3-4.4c-2 0-3.3 1.4-3.3 4.4zm-5.7.1c0-5.9 4-8.8 9-8.8s8.8 2.9 8.8 8.7-4 8.7-9.1 8.7c-5.3 0-8.7-3-8.7-8.6zm25.4-14.4v11.3h1.4l3.4-5.3h5.8l-5 7.4 5.8 9.2h-6.2l-4-7h-1v7h-5.5v-22.6h5.4zm25.3 17.6 1.4 3.3c-2 1.3-4.4 2.1-7.2 2.1-5.3 0-8.5-3.2-8.5-8.6 0-5.3 3.3-8.8 8.6-8.8 5 0 7.7 2.6 7.7 7.9v2.3h-10.5c.2 1.6 1.1 3 3.5 3 1.5 0 2.9-.3 5-1.2zm-8.5-5h5.4c0-1.7-.6-3-2.5-3-2 0-2.9 1.8-3 3zm12.6-6.6h4.5l.5 2c1.1-1.3 3-2.4 5.4-2.4 3.3 0 5.4 2 5.4 5.6v11.4h-5.4v-9.6c0-2.1-.8-3-2.2-3a4 4 0 0 0 -2.7 1.3v11.3h-5.5z" fill="#000"/><path d="m401 290.2h115.8v115.8h-115.8z" fill="#fff"/><path d="m466.2 329.5h35.1v35.1h-35.1z" fill="#ff6d5b"/><path d="m401.1 404.9h114.8v14h-114.8zm0-128h114.8v14h-114.8z" fill="#212121"/><path d="m401.6 290.5v114.8h-14v-114.8zm128 0v114.8h-14v-114.8z" fill="#212121"/><path d="m400 253.6v-22.6h16v4.9h-10.3v4h9.3v4.6h-9.3v4.2h10.3v4.9zm23.9 0h-5.4v-22.6h5.4zm16.4-5 1.4 3.3c-2 1.3-4.4 2.1-7.1 2.1-5.4 0-8.5-3.2-8.5-8.6 0-5.3 3.3-8.8 8.5-8.8 5 0 7.7 2.6 7.7 7.9v2.3h-10.5c.3 1.6 1.1 3 3.5 3 1.6 0 3-.3 5-1.2zm-8.5-5h5.4c0-1.7-.6-3-2.5-3-2 0-2.8 1.8-2.9 3zm12.6-6.6h4.5l.5 2c1-1.2 2.6-2.4 5-2.4 2 0 3.3.8 4.1 2.2 1.2-1.1 3-2.2 5.3-2.2 3.2 0 4.9 1.9 4.9 5.4v11.6h-5.5v-10.6c0-1.3-.3-2-1.6-2-1 0-1.9.7-2.3 1v11.5h-5.4v-10.3c0-1.4-.2-2.2-1.5-2.2-1.1 0-2 .7-2.5 1.1v11.4h-5.5zm40.5 11.6 1.5 3.3c-2 1.3-4.4 2.1-7.2 2.1-5.3 0-8.5-3.2-8.5-8.6 0-5.3 3.3-8.8 8.6-8.8 5 0 7.7 2.6 7.7 7.9l-.1 2.3h-10.4c.2 1.6 1.1 3 3.5 3 1.5 0 2.9-.3 5-1.2zm-8.4-5h5.4c0-1.7-.7-3-2.5-3-2 0-2.9 1.8-3 3zm12.5-6.6h4.5l.4 2c1.2-1.3 3-2.4 5.4-2.4 3.3 0 5.4 2 5.4 5.6v11.4h-5.4v-9.6c0-2.1-.7-3-2.1-3a4 4 0 0 0 -2.8 1.3v11.3h-5.4zm27.7 3.9h-2.7v8c0 .8.4 1 1.1 1l1.4-.1.5 3.5c-1.3.5-2.6.7-4 .7-3 0-4.4-1.6-4.4-4.2v-9h-2.3v-3l2.4-.8.5-5h4.8v5h2.8v3.9z" fill="#000"/><path d="m734 266h169v169h-169z" fill="#fff"/><path d="m856.4 252h47.8v13.4h-47.8zm.2 13.6v47.8h-13.4v-47.8zm61.2-.4v47.8h-13.4v-47.8z" fill="#212121"/><g fill="#212121"><path d="m856.4 435.2h47.8v13.4h-47.8z"/><path d="m856.6 387.6v47.8h-13.4v-47.8zm61.2-.4v47.8h-13.4v-47.8z"/></g><g fill="#212121"><path d="m795.4 252h47.8v13.4h-47.8zm0 61.2h47.8v13.4h-47.8z"/><path d="m795.6 265.6v47.8h-13.4v-47.8zm61.2-.4v47.8h-13.4v-47.8z"/></g><g fill="#212121"><path d="m795.4 313h47.8v13.4h-47.8zm0 61.2h47.8v13.4h-47.8z"/><path d="m795.6 326.6v47.8h-13.4v-47.8z"/></g><g fill="#212121"><path d="m795.4 374h47.8v13.4h-47.8zm0 61.2h47.8v13.4h-47.8z"/><path d="m795.6 387.6v47.8h-13.4v-47.8zm61.2-.4v47.8h-13.4v-47.8z"/></g><g fill="#212121"><path d="m734.4 252h47.8v13.4h-47.8zm0 61.2h47.8v13.4h-47.8z"/><path d="m734.6 265.6v47.8h-13.4v-47.8zm61.2-.4v47.8h-13.4v-47.8z"/></g><g fill="#212121"><path d="m734.4 313h47.8v13.4h-47.8zm0 61.2h47.8v13.4h-47.8z"/><path d="m734.6 326.6v47.8h-13.4v-47.8zm61.2-.4v47.8h-13.4v-47.8z"/></g><g fill="#212121"><path d="m734.4 374h47.8v13.4h-47.8zm0 61.2h47.8v13.4h-47.8z"/><path d="m734.6 387.6v47.8h-13.4v-47.8zm61.2-.4v47.8h-13.4v-47.8z"/></g><g fill="#ff6d5b"><path d="m856.3 326.3h48.4v48.4h-48.4z" opacity=".4"/><path d="m856.4 313h47.8v13.4h-47.8zm0 61.2h47.8v13.4h-47.8z"/><path d="m856.6 326.6v47.8h-13.4v-47.8zm61.2-.4v47.8h-13.4v-47.8z"/></g><path d="m773.6 206.8h-3v6.1h2.9c2.3 0 3.4-1.1 3.4-3 0-2-1-3.1-3.3-3.1zm-8.6 17.8v-22.6h9c5.4 0 8.5 2.8 8.5 7.6 0 4.9-2.9 7.8-8.7 7.8h-3.1v7.2zm27.8-5.9v-.7l-1.5-.2c-1.7 0-3 .4-3 2 0 1 .7 1.6 2 1.6 1.5 0 2.5-1.2 2.5-2.7zm5.5-4.8v10.7h-4.3l-.5-2a6.2 6.2 0 0 1 -5.2 2.4c-3 0-5.3-1.6-5.3-5 0-2.8 2.2-5.2 7.6-5.2l2.2.1v-.9c0-1.5-.8-2.3-2.4-2.3-1.8 0-3.3.6-4.9 1.5l-1.7-3.2a13 13 0 0 1 7.4-2.4c4.6 0 7 1.9 7 6.3zm21.7-2h-2.8v8c0 .8.4 1 1.1 1l1.4-.1.5 3.5c-1.4.5-2.6.7-4 .7-3.1 0-4.4-1.6-4.4-4.2v-9h-4.5v8c0 .9.4 1.2 1.2 1.2l1.3-.2.5 3.5c-1.3.5-2.6.7-4 .7-3 0-4.4-1.6-4.4-4.2v-9h-2.3v-3l2.4-.8.5-5h4.8v5h4.6l.5-5h4.8v5h2.8zm15.3 7.7 1.5 3.3c-2 1.3-4.4 2.1-7.2 2.1-5.4 0-8.5-3.2-8.5-8.6 0-5.3 3.3-8.8 8.6-8.8 5 0 7.7 2.6 7.7 7.9l-.1 2.3h-10.4c.2 1.6 1 3 3.5 3 1.5 0 2.9-.3 5-1.2zm-8.4-5h5.3c0-1.7-.6-3-2.5-3-2 0-2.8 1.8-2.8 3zm16.9-6.6.5 2.2c.8-1.5 2.2-2.6 3.7-2.6.7 0 1.3.2 1.8.4l-.4 4.8c-.6-.2-1-.3-1.7-.3-1 0-2.2.8-2.8 1.5v10.6h-5.4v-16.6zm7.4 0h4.5l.5 2c1.1-1.3 3-2.4 5.4-2.4 3.3 0 5.4 2 5.4 5.6v11.4h-5.4v-9.6c0-2.1-.8-3-2.2-3a4 4 0 0 0 -2.7 1.3v11.3h-5.5z" fill="#000"/><path d="m1061 182h273.8v303.8h-273.8z" fill="#fff"/><path d="m1080 170h242.8v364h-242.8z" fill="#fff"/><g fill="#212121"><path d="m1301.1 207h13.7v152h-13.7zm-222.1-50h244v13.4h-244zm-12.8 328h269.4v13.4h-269.4zm162.4-58h71.3v13.4h-71.3zm-126.6-68h200v13h-200z"/><path d="m1102 195h200v13h-200zm-35.9-25h13.7v13.4h-13.7zm24.9 267h25v13h-25zm-24.8 93h269.4v13.4h-269.4zm268.9-347h13.7v302.3h-13.7z"/><path d="m1053.1 183h13.7v302.3h-13.7zm268.9 302h14v58h-14z"/><path d="m1066 485h14v58h-14zm23.1-278h13.7v152h-13.7zm233-37h13.7v13.4h-13.7z"/><path d="m1249 221h26.3v13h-26.3zm-13.8 13h13.7v25h-13.7zm40.1 0h13.7v25h-13.7z"/><path d="m1208.8 221h26.4v13h-26.4zm0 38h26.4v13h-26.4zm-13.7-25h13.7v25h-13.7zm40.1 0h13.7v25h-13.7z"/><path d="m1168.8 221h26.4v13h-26.4zm0 38h26.4v13h-26.4zm-13.8-25h13.8v25h-13.8zm40.2 0h13.7v25h-13.7z"/><path d="m1128.7 221h26.4v13h-26.4zm0 38h26.4v13h-26.4zm-13.7-25h13.7v25h-13.7zm40.1 0h13.7v25h-13.7z"/><path d="m1208.8 259h26.4v13h-26.4zm0 38h26.4v13h-26.4zm-13.7-25h13.7v25h-13.7z"/><path d="m1168.8 259h26.4v13h-26.4zm0 38h26.4v13h-26.4zm-13.8-25h13.8v25h-13.8zm40.2 0h13.7v25h-13.7z"/><path d="m1128.7 259h26.4v13h-26.4zm0 38h26.4v13h-26.4zm-13.7-25h13.7v25h-13.7zm40.1 0h13.7v25h-13.7z"/><path d="m1208.8 297h26.4v13h-26.4zm0 38h26.4v13h-26.4zm-13.7-25h13.7v25h-13.7zm40.1 0h13.7v25h-13.7z"/><path d="m1249 335h26.3v13h-26.3zm-13.8-25h13.7v25h-13.7zm40.1 0h13.7v25h-13.7z"/><path d="m1168.8 297h26.4v13h-26.4zm0 38h26.4v13h-26.4zm-13.8-25h13.8v25h-13.8zm40.2 0h13.7v25h-13.7z"/><path d="m1128.7 297h26.4v13h-26.4zm0 38h26.4v13h-26.4zm-13.7-25h13.7v25h-13.7zm40.1 0h13.7v25h-13.7z"/></g><g fill="#ff6d5b"><path d="m1249 272h26.3v25h-26.3z" opacity=".4"/><path d="m1249 259h26.3v13h-26.3zm0 38h26.3v13h-26.3zm-13.8-25h13.7v25h-13.7zm40.1 0h13.7v25h-13.7z"/></g><path d="m1135.6 128.7v-17.8h-6.6v-4.9h19v5h-6.7v17.7zm24-5 1.4 3.3c-2 1.3-4.4 2.1-7.1 2.1-5.4 0-8.5-3.2-8.5-8.6s3.3-8.9 8.5-8.9c5 0 7.7 2.6 7.7 8v2.3h-10.6c.2 1.5 1.1 3 3.5 3a12 12 0 0 0 5-1.2zm-8.5-5h5.4c0-1.8-.6-3-2.5-3-2 0-2.8 1.7-2.9 3zm12.6-6.7h4.5l.5 2c1-1.2 2.6-2.4 5-2.4 2 0 3.3.8 4.1 2.3a7.3 7.3 0 0 1 5.3-2.3c3.2 0 4.9 1.9 4.9 5.5v11.6h-5.5v-10.5c0-1.4-.3-2-1.6-2-1 0-2 .6-2.3 1v11.5h-5.5v-10.3c0-1.4-.1-2.3-1.4-2.3-1.1 0-2.1.7-2.5 1.2v11.4h-5.5zm32.4 5.6v5.8a5 5 0 0 0 3 1.3c1.8 0 3-1.1 3-4.3 0-3-1-4.4-2.9-4.4-1.3 0-2.6 1-3.1 1.6zm0 17.4h-5.4v-23h4.4l.6 2a7 7 0 0 1 5.3-2.4c3.8 0 6.8 2.7 6.8 8.6 0 5.6-2.4 8.9-7 8.9-2.4 0-4-1.1-4.7-1.8zm19.4-6.3h-5.5v-22.7h5.5zm11.9-5.9v-.8l-1.6-.1c-1.6 0-2.9.4-2.9 2 0 1 .6 1.5 2 1.5s2.5-1.1 2.5-2.6zm5.4-4.8v10.7h-4.3l-.5-2a6.2 6.2 0 0 1 -5.1 2.4c-3.1 0-5.3-1.6-5.3-5 0-2.8 2.1-5.2 7.6-5.2h2.2v-.8c0-1.6-.8-2.3-2.4-2.3a10 10 0 0 0 -5 1.4l-1.6-3.2c2-1.4 4.7-2.4 7.4-2.4 4.5 0 7 1.9 7 6.4zm11.8-2.1h-2.7v8c0 .9.3 1.2 1 1.2l1.4-.2.5 3.5c-1.3.5-2.6.7-4 .7-3 0-4.3-1.6-4.3-4.2v-9h-2.3v-3l2.4-.8.5-5h4.8v5h2.7zm15.4 7.8 1.4 3.3c-2 1.3-4.4 2.1-7.2 2.1-5.3 0-8.4-3.2-8.4-8.6s3.2-8.9 8.5-8.9c5 0 7.7 2.6 7.7 8l-.1 2.3h-10.4c.2 1.5 1.1 3 3.5 3a12 12 0 0 0 5-1.2zm-8.5-5h5.4c0-1.8-.6-3-2.5-3-2 0-2.9 1.7-2.9 3z" fill="#000"/><path d="m965 344h48v13h-48zm-396 0h48v13h-48zm60 0h48v13h-48zm-328 0h48v13h-48zm-60 0h48v13h-48z" fill="#e4e4e4"/><path d="m681.4 724.4h-3v6.4h2.9c2.3 0 3.5-1.2 3.5-3.2s-1-3.2-3.4-3.2zm-8.4 17.3v-21.8h9c5.2 0 8.2 2.7 8.2 7.3 0 4.7-2.8 7.6-8.6 7.6h-3v6.9zm22.3-16 .5 2.1c.8-1.4 2.1-2.5 3.6-2.5.6 0 1.2.2 1.7.4l-.4 4.6c-.6-.2-1-.3-1.7-.3-1 0-2.1.8-2.6 1.5v10.2h-5.3v-16zm7.6-4c0-1.8 1.4-2.7 3.2-2.7s3.1 1 3.1 2.8c0 1.7-1.3 2.6-3.1 2.6s-3.2-.9-3.2-2.6zm5.4 3.6v16.4h-5.3v-16.4h5.4zm2.8.4h4.3l.5 2c1.1-1.3 3-2.4 5.3-2.4 3.2 0 5.3 2 5.3 5.4v11h-5.3v-9.3c0-2-.8-2.8-2.1-2.8a4 4 0 0 0 -2.7 1.2v10.9h-5.4v-16zm30.9 11.3 1.4 3.2a11.2 11.2 0 0 1 -7 2.4c-4.7 0-8.1-3-8.1-8.6 0-5.1 3.2-8.7 8.3-8.7 4.4 0 7 2.4 7 7h-4.3c0-2-1-2.7-2.5-2.7-1.8 0-3 1.2-3 4.2 0 2.9 1.2 4.6 3.5 4.6 1.6 0 3-.6 4.7-1.4zm3.5-15.2c0-1.9 1.4-2.8 3.2-2.8s3.1 1 3.1 2.8c0 1.7-1.3 2.6-3.1 2.6s-3.2-.9-3.2-2.6zm5.4 3.5v16.4h-5.4v-16.4zm8.2 6v5.5c.4.4 1.5 1.2 2.8 1.2 1.6 0 2.6-1 2.6-4 0-2.7-.8-4.1-2.5-4.1-1.2 0-2.4.9-3 1.4zm-.3 16.7h-5.1v-22.3h4.2l.6 1.9a6.6 6.6 0 0 1 5-2.3c3.6 0 6.5 2.6 6.5 8.4 0 5.4-2.3 8.6-6.8 8.6-2.2 0-3.7-1-4.4-1.8zm19.3-6.3h-5.4v-21.8h5.4zm15.3-4.5 1.3 3.3c-1.9 1.3-4.1 2-6.7 2-5.1 0-8-3-8-8.4 0-5.3 3-8.8 8-8.8 4.7 0 7.3 2.6 7.3 7.8v2.3h-10c.3 1.6 1.1 3 3.4 3a11 11 0 0 0 4.7-1.2zm-7.1-5.5h5.4c0-1.5-.6-2.7-2.5-2.7-2 0-2.9 1.6-3 2.7zm10.9 7.8 2-2.9c1.6 1.1 3.8 2 5.1 2 1.2 0 1.6-.5 1.6-1 0-.9-.4-1.2-2.7-1.8-3.4-.8-5.2-2.1-5.2-5 0-3.4 2.7-5.5 6.8-5.5 2.7 0 5 1 6.9 2.7l-2.2 2.8c-1.6-1-3-1.6-4.4-1.6-1 0-1.6.3-1.6 1 0 .8.8 1 3.1 1.7 3.4 1 5 2.1 5 5 0 3.7-2.6 5.7-6.8 5.7a11 11 0 0 1 -7.6-3z" fill="#212121"/></g></svg>