<svg width="60" height="31" viewBox="0 0 60 31" fill="none" xmlns="http://www.w3.org/2000/svg">
<path d="M35.92 15.9381L35.9113 15.9299L35.9022 15.9222L17.9448 0.622275C17.9352 0.612063 17.9293 0.604625 17.9256 0.599656C17.9233 0.596393 17.9219 0.594209 17.9212 0.59302L17.9205 0.591755L17.9203 0.591383C17.9203 0.591393 17.9203 0.591387 17.9203 0.591362C17.9203 0.591337 17.9203 0.591292 17.9203 0.591223L17.9195 0.58801C17.9187 0.584061 17.9172 0.57413 17.9172 0.555777C17.9172 0.53832 17.9234 0.525696 17.9328 0.516309C17.9423 0.506881 17.9558 0.5 17.975 0.5H55.5982C57.7978 0.5 59.5414 2.24127 59.4996 4.41064L56.8373 26.4939L56.8337 26.5238V26.5538C56.8337 28.746 55.0759 30.5 52.871 30.5H15.6823C15.6799 30.4957 15.678 30.4916 15.6765 30.4879C15.6761 30.4868 15.6757 30.4857 15.6754 30.4848L15.8501 29.7306C15.8506 29.7298 15.8512 29.7289 15.8518 29.728C15.8562 29.7216 15.8613 29.7163 15.8659 29.7125C15.8679 29.7109 15.8695 29.7098 15.8706 29.7092H52.871C54.6225 29.7092 56.0195 28.3302 56.036 26.5851L58.6978 4.50606L58.7014 4.47625V4.44621C58.7014 3.92169 58.5522 3.4129 58.3384 2.98689L58.0787 2.46944L57.6046 2.80168L39.0099 15.8316L38.9808 15.852L38.9549 15.8763C38.0779 16.6987 36.7661 16.7314 35.92 15.9381ZM38.5657 15.2052L56.8153 2.38524L57.5718 1.85385L56.713 1.51162C56.3429 1.36413 55.9701 1.29084 55.5362 1.29084H21.3221H19.9604L20.9985 2.17202L36.4803 15.3137C37.0476 15.8633 37.9103 15.8582 38.4721 15.2984L38.5657 15.2052Z" fill="white" stroke="white"/>
<path d="M28.9458 22.2988C29.1672 22.2988 29.3135 22.4472 29.3135 22.6634C29.3135 22.8568 29.1286 23.0279 28.9458 23.0279H9.29744C9.07598 23.0279 8.92969 22.8795 8.92969 22.6634C8.92969 22.4472 9.07597 22.2988 9.29744 22.2988H28.9458Z" fill="white" stroke="white"/>
<path d="M24.7307 16.7329L24.6999 16.7291H24.6689H0.867749C0.646287 16.7291 0.5 16.5807 0.5 16.3645C0.5 16.1484 0.646288 16 0.867749 16H24.6337C24.8975 16.0432 25.0366 16.2254 25.0366 16.4263C25.0366 16.547 24.9924 16.6281 24.945 16.673C24.901 16.7146 24.8338 16.7458 24.7307 16.7329Z" fill="white" stroke="white"/>
<path d="M18.3466 10.6158H6.81795C6.59648 10.6158 6.4502 10.4674 6.4502 10.2513C6.4502 10.0351 6.59648 9.88672 6.81795 9.88672H18.3466C18.5681 9.88672 18.7144 10.0351 18.7144 10.2513C18.7144 10.4674 18.5681 10.6158 18.3466 10.6158Z" fill="white" stroke="white"/>
</svg>
