<svg height="131" viewBox="0 0 355 131" width="355" xmlns="http://www.w3.org/2000/svg"><g fill="none" fill-rule="evenodd"><rect fill="#fff" height="131" rx="6" width="355"/><rect height="130" rx="5.5" stroke="#d5d5d5" width="354" x=".5" y=".5"/><g fill-rule="nonzero"><path d="m.425137 1.42721h.528601v3.321h4.056442v-3.321h.5286v7.57279h-.5286v-3.79214h-4.056442v3.79214h-.528601zm6.971463 6.19383c0-.60521.28729-1.06869.86185-1.39045.57457-.32176 1.47472-.55158 2.70045-.68948.0077-.20684-.0076-.41369-.0459-.62053-.0307-.21451-.0958-.4022-.1954-.56308-.0919-.16854-.226-.3026-.4022-.40219-.1685-.10726-.38687-.16088-.655-.16088-.37539 0-.7163.07278-1.02273.21833-.30644.14556-.55159.28729-.73545.42518l-.22982-.37921c.09959-.06895.21833-.14556.35623-.22983.14555-.08427.3026-.16088.47114-.22983.1762-.06894.36772-.1264.57457-.17236.20684-.05363.42135-.08044.64351-.08044.32945 0 .60525.05745.82735.17237.2222.10725.4022.25664.5401.44816s.2337.41752.2873.67799c.0613.25281.0919.5286.0919.82737v3.52784h-.4251l-.0575-.71246h-.023c-.2834.22216-.5899.42135-.9193.59755-.32175.16854-.66649.25281-1.03421.25281-.22217 0-.42901-.03065-.62053-.09193-.19152-.06129-.36389-.15322-.51711-.2758-.14556-.12257-.26047-.27962-.34474-.47114s-.12641-.41752-.12641-.67799zm.5286-.02298c0 .39836.11492.68182.34474.85036.22983.16854.50179.25281.81589.25281.32176 0 .62819-.07661.91927-.22983.2911-.15322.6091-.37538.9538-.6665v-1.87309c-.5669.06895-1.0457.15322-1.4364.25281-.38305.0996-.69331.21834-.9308.35624-.23749.13789-.40986.29494-.51711.47114-.09959.1762-.14939.37155-.14939.58606zm5.5161-4.1139h.4367l.0459.85036h.0345c.2835-.28345.5746-.51711.8734-.70097.2987-.19152.6396-.28728 1.0227-.28728.5746 0 .9959.17237 1.264.51711.2682.34474.4022.87717.4022 1.59729v3.53933h-.5056v-3.47038c0-.58989-.0996-1.02273-.2988-1.29852-.1915-.28345-.5132-.42518-.9652-.42518-.3294 0-.6282.0881-.8964.2643-.2681.16854-.5707.42518-.9078.76992v4.15986h-.5056zm6.139 6.59604c0 .3447.157.6243.4711.8389.3218.2145.7776.3217 1.3675.3217.3064 0 .5861-.0421.8389-.1264.2528-.0766.4673-.18.6435-.3103.1762-.1302.3102-.2796.4022-.4481.0996-.1609.1494-.3294.1494-.50564 0-.30644-.1111-.52477-.3333-.65501-.2145-.12257-.5286-.18386-.9423-.18386h-1.1836c-.0613 0-.157-.00383-.2873-.01149-.1225-.01532-.2566-.04213-.4022-.08044-.2528.1762-.4366.36389-.5515.56308-.115.19918-.1724.39836-.1724.59756zm-.4827.046c0-.2452.0728-.48269.2184-.71251.1455-.22983.3447-.43667.5975-.62053v-.04597c-.1379-.08427-.2528-.19918-.3447-.34474s-.1379-.32559-.1379-.54009c0-.24515.0689-.45199.2068-.62053.1379-.1762.2682-.30644.3907-.39071v-.04596c-.1762-.15322-.337-.36007-.4826-.62054-.1379-.26047-.2068-.55924-.2068-.89632 0-.28345.0498-.54392.1494-.78141.0995-.23749.2374-.4405.4136-.60904.1762-.1762.3831-.31027.6206-.4022.2375-.09959.4903-.14938.7584-.14938.1532 0 .2911.01532.4137.04596.1226.02298.226.05363.3103.09193h1.873v.42518h-1.287c.1762.15322.3218.3524.4367.59755.1149.23749.1724.50179.1724.7929 0 .28345-.0498.54392-.1494.78141s-.2375.44433-.4137.62053c-.1686.16854-.3716.30261-.6091.4022-.2298.09193-.4788.1379-.7469.1379-.1532 0-.3141-.01916-.4826-.05746-.1609-.0383-.3065-.09576-.4367-.17237-.1226.09959-.2298.21067-.3218.33325-.0842.12257-.1264.27579-.1264.45965 0 .19918.0728.37155.2184.51711.1455.1379.4251.20685.8388.20685h1.1836c.6206 0 1.0764.10342 1.3675.31026.2988.19918.4482.51711.4482.95378 0 .2375-.0613.4673-.1839.6895-.1226.2298-.2988.429-.5286.5975-.2222.1762-.4941.3141-.8159.4137-.3217.1073-.6818.1609-1.0802.1609-.6971 0-1.2487-.1379-1.6547-.4137s-.6091-.6473-.6091-1.1146zm2.1834-3.28657c.1915 0 .3716-.03447.5401-.10342.1762-.07661.3294-.18386.4596-.32176.1303-.1379.2337-.3026.3103-.49413.0766-.19152.1149-.40219.1149-.63202s-.0383-.4405-.1149-.63202-.18-.3524-.3103-.48264c-.1225-.13023-.2719-.22982-.4481-.29877-.1762-.07661-.3601-.11492-.5516-.11492-.1992 0-.3869.03831-.5631.11492-.1685.06895-.3179.16854-.4481.29877-.1303.13024-.2337.29112-.3103.48264-.0766.18386-.1149.39453-.1149.63202 0 .22983.0383.4405.1149.63202.0766.19153.18.35623.3103.49413.1379.1379.2911.24515.4596.32176.1762.06895.3601.10342.5516.10342zm6.2918-2.9188h-.8619v-.3907l.8734-.04597.0689-1.59729h.4367v1.59729h1.5973v.43667h-1.5973v3.59679c0 .1762.0115.33708.0345.48263.0306.1379.0804.26047.1493.36773.069.09959.1609.18003.2758.24131.1226.05363.2797.08044.4712.08044.1072 0 .2221-.01532.3447-.04596.1303-.03831.2452-.08044.3448-.12641l.1379.41369c-.1609.06129-.3218.11108-.4827.14939-.1609.0383-.2988.05746-.4137.05746-.2681 0-.4903-.04214-.6665-.12641-.1762-.07661-.3179-.18769-.4251-.33325-.1073-.14555-.1839-.32175-.2299-.5286-.0383-.20684-.0574-.43284-.0574-.67799zm3.7177-1.76966c-.1302 0-.2413-.04214-.3333-.12641-.0842-.08427-.1264-.19152-.1264-.32175 0-.14556.0422-.25664.1264-.33325.092-.08427.2031-.12641.3333-.12641s.2375.04214.3217.12641c.092.07661.1379.18769.1379.33325 0 .13023-.0459.23748-.1379.32175-.0842.08427-.1915.12641-.3217.12641zm-.2643 1.33299h.5056v5.51584h-.5056zm2.6489 6.59604c0 .3447.1571.6243.4712.8389.3217.2145.7775.3217 1.3674.3217.3065 0 .5861-.0421.8389-.1264.2528-.0766.4673-.18.6435-.3103.1762-.1302.3103-.2796.4022-.4481.0996-.1609.1494-.3294.1494-.50564 0-.30644-.1111-.52477-.3333-.65501-.2145-.12257-.5286-.18386-.9422-.18386h-1.1836c-.0613 0-.1571-.00383-.2873-.01149-.1226-.01532-.2567-.04213-.4022-.08044-.2528.1762-.4367.36389-.5516.56308-.1149.19918-.1724.39836-.1724.59756zm-.4826.046c0-.2452.0728-.48269.2183-.71251.1456-.22983.3448-.43667.5976-.62053v-.04597c-.1379-.08427-.2528-.19918-.3448-.34474-.0919-.14556-.1379-.32559-.1379-.54009 0-.24515.069-.45199.2069-.62053.1379-.1762.2681-.30644.3907-.39071v-.04596c-.1762-.15322-.3371-.36007-.4827-.62054-.1379-.26047-.2068-.55924-.2068-.89632 0-.28345.0498-.54392.1494-.78141s.2375-.4405.4137-.60904c.1762-.1762.383-.31027.6205-.4022.2375-.09959.4903-.14938.7584-.14938.1533 0 .2911.01532.4137.04596.1226.02298.226.05363.3103.09193h1.8731v.42518h-1.2871c.1762.15322.3218.3524.4367.59755.1149.23749.1724.50179.1724.7929 0 .28345-.0498.54392-.1494.78141s-.2375.44433-.4137.62053c-.1685.16854-.3715.30261-.609.4022-.2299.09193-.4788.1379-.747.1379-.1532 0-.3141-.01916-.4826-.05746-.1609-.0383-.3064-.09576-.4367-.17237-.1225.09959-.2298.21067-.3217.33325-.0843.12257-.1264.27579-.1264.45965 0 .19918.0727.37155.2183.51711.1456.1379.4252.20685.8389.20685h1.1836c.6205 0 1.0763.10342 1.3674.31026.2988.19918.4482.51711.4482.95378 0 .2375-.0613.4673-.1839.6895-.1225.2298-.2987.429-.5286.5975-.2221.1762-.4941.3141-.8158.4137-.3218.1073-.6819.1609-1.0802.1609-.6972 0-1.2488-.1379-1.6548-.4137s-.609-.6473-.609-1.1146zm2.1833-3.28657c.1916 0 .3716-.03447.5401-.10342.1762-.07661.3294-.18386.4597-.32176.1302-.1379.2336-.3026.3102-.49413.0767-.19152.115-.40219.115-.63202s-.0383-.4405-.115-.63202c-.0766-.19152-.18-.3524-.3102-.48264-.1226-.13023-.272-.22982-.4482-.29877-.1762-.07661-.36-.11492-.5516-.11492-.1991 0-.3868.03831-.563.11492-.1686.06895-.318.16854-.4482.29877-.1302.13024-.2337.29112-.3103.48264-.0766.18386-.1149.39453-.1149.63202 0 .22983.0383.4405.1149.63202.0766.19153.1801.35623.3103.49413.1379.1379.2911.24515.4597.32176.1762.06895.36.10342.5515.10342zm3.8761-6.101896h.5056v2.390196 1.21808c.2911-.29111.5861-.5286.8849-.71246.2987-.19152.6397-.28728 1.0227-.28728.5746 0 .9959.17237 1.264.51711.2682.34474.4022.87717.4022 1.59729v3.53933h-.5056v-3.47038c0-.58989-.0996-1.02273-.2988-1.29852-.1915-.28345-.5132-.42518-.9652-.42518-.3294 0-.6282.0881-.8964.2643-.2681.16854-.5707.42518-.9078.76992v4.15986h-.5056zm6.1975 3.183096h-.8618v-.3907l.8733-.04597.069-1.59729h.4366v1.59729h1.5973v.43667h-1.5973v3.59679c0 .1762.0115.33708.0345.48263.0307.1379.0804.26047.1494.36773.0689.09959.1609.18003.2758.24131.1226.05363.2796.08044.4711.08044.1073 0 .2222-.01532.3448-.04596.1302-.03831.2451-.08044.3447-.12641l.1379.41369c-.1609.06129-.3218.11108-.4826.14939-.1609.0383-.2988.05746-.4137.05746-.2681 0-.4903-.04214-.6665-.12641-.1762-.07661-.3179-.18769-.4252-.33325-.1072-.14555-.1839-.32175-.2298-.5286-.0383-.20684-.0575-.43284-.0575-.67799zm5.4325 3.70021c0-.60521.2872-1.06869.8618-1.39045s1.4747-.55158 2.7005-.68948c.0076-.20684-.0077-.41369-.046-.62053-.0306-.21451-.0958-.4022-.1953-.56308-.092-.16854-.226-.3026-.4022-.40219-.1686-.10726-.3869-.16088-.655-.16088-.3754 0-.7163.07278-1.0228.21833-.3064.14556-.5516.28729-.7354.42518l-.2298-.37921c.0995-.06895.2183-.14556.3562-.22983.1455-.08427.3026-.16088.4711-.22983.1762-.06894.3677-.1264.5746-.17236.2068-.05363.4213-.08044.6435-.08044.3294 0 .6052.05745.8274.17237.2221.10725.4022.25664.5401.44816s.2336.41752.2873.67799c.0612.25281.0919.5286.0919.82737v3.52784h-.4252l-.0574-.71246h-.023c-.2835.22216-.5899.42135-.9193.59755-.3218.16854-.6665.25281-1.0343.25281-.2221 0-.429-.03065-.6205-.09193-.1915-.06129-.3639-.15322-.5171-.2758-.1456-.12257-.2605-.27962-.3447-.47114-.0843-.19152-.1264-.41752-.1264-.67799zm.5286-.02298c0 .39836.1149.68182.3447.85036s.5018.25281.8159.25281c.3217 0 .6282-.07661.9193-.22983s.609-.37538.9538-.6665v-1.87309c-.5669.06895-1.0457.15322-1.4364.25281-.3831.0996-.6934.21834-.9308.35624-.2375.13789-.4099.29494-.5172.47114-.0995.1762-.1493.37155-.1493.58606zm5.5161-4.1139h.4366l.046.85036h.0345c.2834-.28345.5745-.51711.8733-.70097.2988-.19152.6397-.28728 1.0227-.28728.5746 0 .996.17237 1.2641.51711s.4022.87717.4022 1.59729v3.53933h-.5056v-3.47038c0-.58989-.0996-1.02273-.2988-1.29852-.1915-.28345-.5133-.42518-.9653-.42518-.3294 0-.6282.0881-.8963.2643-.2681.16854-.5707.42518-.9078.76992v4.15986h-.5056zm5.6563 2.76941c0-.44433.0651-.84653.1954-1.20659.1302-.36006.3064-.66649.5286-.9193.2298-.25281.4903-.44434.7814-.57457.2987-.1379.6128-.20684.9423-.20684.337 0 .6282.06128.8733.18386.2528.11491.5171.27962.7929.49412l-.023-1.01123v-2.275286h.5056v8.262266h-.4366l-.046-.71246h-.0345c-.2221.22216-.4864.42135-.7929.59755-.2987.16854-.632.25281-.9997.25281-.6972 0-1.2526-.24515-1.6663-.73545-.4137-.49796-.6205-1.21425-.6205-2.14888zm.5401 0c0 .36772.0383.70097.1149.99975.0843.29877.203.55541.3562.76992.1533.20684.341.37155.5631.49412.2298.11492.4903.17237.7814.17237.3065 0 .5976-.0766.8734-.22982.2834-.16088.5707-.38688.8618-.67799v-3.27503c-.2911-.26047-.5669-.44433-.8274-.55158-.2528-.10726-.5132-.16088-.7814-.16088-.2758 0-.5324.06512-.7699.19535-.2375.12257-.4443.29494-.6205.51711-.1686.2145-.3026.47498-.4022.78141-.0996.29878-.1494.62053-.1494.96527zm7.6781-2.76941h.5516l.9882 3.57381c.069.2528.1341.50178.1954.74693.0613.23749.1226.47881.1838.72396h.046c.0613-.24515.1264-.48647.1954-.72396.0689-.24515.1379-.49413.2068-.74693l.9998-3.57381h.609l.9997 3.57381c.069.2528.1379.50178.2069.74693.0689.23749.1379.47881.2068.72396h.046c.0613-.24515.1264-.48647.1953-.72396.069-.24515.1341-.49413.1954-.74693l.9768-3.57381h.5171l-1.5858 5.51584h-.6665l-.9653-3.42442c-.0843-.26813-.1571-.5286-.2183-.78141-.0537-.26047-.1226-.52477-.2069-.7929h-.0459c-.0613.26813-.1303.53626-.2069.80439-.0689.26047-.1455.52478-.2298.79291l-.9538 3.40143h-.609zm8.2255 4.13688c0-.60521.2873-1.06869.8619-1.39045s1.4747-.55158 2.7005-.68948c.0076-.20684-.0077-.41369-.046-.62053-.0307-.21451-.0958-.4022-.1954-.56308-.0919-.16854-.226-.3026-.4022-.40219-.1685-.10726-.3868-.16088-.655-.16088-.3754 0-.7163.07278-1.0227.21833-.3064.14556-.5516.28729-.7354.42518l-.2299-.37921c.0996-.06895.2184-.14556.3563-.22983.1455-.08427.3026-.16088.4711-.22983.1762-.06894.3677-.1264.5746-.17236.2068-.05363.4213-.08044.6435-.08044.3294 0 .6052.05745.8274.17237.2221.10725.4022.25664.5401.44816s.2336.41752.2872.67799c.0613.25281.092.5286.092.82737v3.52784h-.4252l-.0575-.71246h-.0229c-.2835.22216-.5899.42135-.9194.59755-.3217.16854-.6665.25281-1.0342.25281-.2221 0-.429-.03065-.6205-.09193-.1915-.06129-.3639-.15322-.5171-.2758-.1456-.12257-.2605-.27962-.3448-.47114-.0842-.19152-.1264-.41752-.1264-.67799zm.5286-.02298c0 .39836.115.68182.3448.85036s.5018.25281.8159.25281c.3217 0 .6282-.07661.9193-.22983s.609-.37538.9538-.6665v-1.87309c-.567.06895-1.0458.15322-1.4365.25281-.383.0996-.6933.21834-.9308.35624-.2375.13789-.4098.29494-.5171.47114-.0996.1762-.1494.37155-.1494.58606zm5.7804-5.44689c-.1302 0-.2413-.04214-.3332-.12641-.0843-.08427-.1264-.19152-.1264-.32175 0-.14556.0421-.25664.1264-.33325.0919-.08427.203-.12641.3332-.12641.1303 0 .2375.04214.3218.12641.0919.07661.1379.18769.1379.33325 0 .13023-.046.23748-.1379.32175-.0843.08427-.1915.12641-.3218.12641zm-.2643 1.33299h.5057v5.51584h-.5057zm2.7524.43667h-.8619v-.3907l.8734-.04597.0689-1.59729h.4367v1.59729h1.5973v.43667h-1.5973v3.59679c0 .1762.0115.33708.0345.48263.0306.1379.0804.26047.1494.36773.0689.09959.1608.18003.2758.24131.1225.05363.2796.08044.4711.08044.1073 0 .2222-.01532.3447-.04596.1303-.03831.2452-.08044.3448-.12641l.1379.41369c-.1609.06129-.3218.11108-.4827.14939-.1608.0383-.2987.05746-.4136.05746-.2682 0-.4903-.04214-.6665-.12641-.1762-.07661-.318-.18769-.4252-.33325-.1073-.14555-.1839-.32175-.2298-.5286-.0383-.20684-.0575-.43284-.0575-.67799zm7.8571-2.72344c-.1149-.06129-.2298-.10342-.3447-.12641-.1073-.02298-.2145-.03447-.3218-.03447-.2911 0-.5094.11108-.655.33325-.1379.2145-.2068.52094-.2068.9193v1.1951h1.2755v.43667h-1.2755v5.07917h-.5057v-5.07917h-.7584v-.3907l.7584-.04597v-1.22957c0-.55158.1188-.96527.3563-1.24106.2375-.275796.5745-.413692 1.0112-.413692.2681 0 .5363.061287.8044.183861zm.3324 5.05618c0-.45965.0652-.86951.1954-1.22957.1379-.36772.3179-.67416.5401-.91931.2298-.24514.4941-.43284.7929-.56307.2988-.13024.6129-.19535.9423-.19535s.6435.06511.9423.19535c.3064.13023.5707.31793.7928.56307.23.24515.41.55159.54.91931.138.36006.207.76992.207 1.22957 0 .45966-.069.86951-.207 1.22957-.13.35241-.31.65118-.54.89633-.2221.24515-.4864.43284-.7928.56307-.2988.13024-.6129.19536-.9423.19536s-.6435-.06512-.9423-.19536c-.2988-.13023-.5631-.31792-.7929-.56307-.2222-.24515-.4022-.54392-.5401-.89633-.1302-.36006-.1954-.76991-.1954-1.22957zm.5286 0c0 .36006.0498.68948.1494.98826.0996.29877.2337.55541.4022.76992.1762.2145.3831.38304.6206.50561.2374.11492.4941.17237.7699.17237s.5324-.05745.7699-.17237c.2451-.12257.452-.29111.6205-.50561.1767-.21451.3137-.47115.4137-.76992.1-.29878.149-.6282.149-.98826 0-.36772-.049-.70097-.149-.99974-.1-.29878-.237-.55542-.4137-.76992-.1685-.22217-.3754-.39071-.6205-.50562-.2375-.12258-.4941-.18386-.7699-.18386s-.5325.06128-.7699.18386c-.2375.11491-.4444.28345-.6206.50562-.1685.2145-.3026.47114-.4022.76992-.0996.29877-.1494.63202-.1494.99974zm6.0812-2.76941h.436l.046 1.02273h.035c.184-.34474.406-.62436.666-.83887.268-.2145.567-.32175.896-.32175.108 0 .203.00766.288.02298.084.01532.172.04596.264.09193l-.115.45965c-.092-.0383-.172-.06128-.241-.06895-.069-.01532-.157-.02298-.264-.02298-.246 0-.506.10725-.782.32176-.268.20684-.509.57073-.724 1.09168v3.75766h-.505zm6.062.43667h-.861v-.3907l.873-.04597.069-1.59729h.437v1.59729h1.597v.43667h-1.597v3.59679c0 .1762.011.33708.034.48263.031.1379.08.26047.149.36773.069.09959.161.18003.276.24131.123.05363.28.08044.471.08044.108 0 .222-.01532.345-.04596.13-.03831.245-.08044.345-.12641l.138.41369c-.161.06129-.322.11108-.483.14939-.161.0383-.299.05746-.414.05746-.268 0-.49-.04214-.666-.12641-.176-.07661-.318-.18769-.425-.33325-.108-.14555-.184-.32175-.23-.5286-.038-.20684-.058-.43284-.058-.67799zm3.454-3.183096h.505v2.390196 1.21808c.292-.29111.586-.5286.885-.71246.299-.19152.64-.28728 1.023-.28728.575 0 .996.17237 1.264.51711s.402.87717.402 1.59729v3.53933h-.505v-3.47038c0-.58989-.1-1.02273-.299-1.29852-.192-.28345-.513-.42518-.965-.42518-.33 0-.629.0881-.897.2643-.268.16854-.57.42518-.908.76992v4.15986h-.505zm5.611 5.515836c0-.45199.065-.85802.196-1.21808.138-.36006.318-.66267.54-.90781.23-.25281.486-.44434.77-.57457.291-.1379.59-.20684.896-.20684.659 0 1.176.22216 1.551.66649.376.44433.563 1.07253.563 1.88458v.20684c0 .06895-.007.1379-.023.20685h-3.976c.008.34474.062.6665.161.96527.1.29111.238.54392.414.75843.184.20684.402.37155.655.49413.253.11491.536.17237.85.17237.299 0 .567-.04214.805-.12641.245-.09193.471-.2145.678-.36772l.207.3907c-.223.13024-.468.25281-.736.36773-.26.11491-.594.17237-1 .17237-.352 0-.685-.06512-.999-.19536-.307-.13023-.575-.31792-.805-.56307-.23-.25281-.413-.55542-.551-.90782-.131-.36006-.196-.76609-.196-1.21808zm4.034-.33325c0-.71246-.146-1.24489-.437-1.59729-.291-.36006-.686-.54009-1.184-.54009-.237 0-.463.04979-.678.14938-.214.0996-.409.24132-.586.42518-.168.18386-.31.40986-.425.67799-.107.26047-.176.55542-.207.88483zm4.098-4.41267h2.735c.406 0 .785.04214 1.137.12641.36.07661.671.21067.931.40219.268.18387.479.43284.632.74694.153.30644.23.68565.23 1.13764 0 .43667-.08.81589-.241 1.13764-.154.32176-.364.58606-.632.79291-.269.20684-.579.36006-.931.45965-.353.09959-.728.14939-1.126.14939h-1.046v2.53958h-1.689zm2.631 3.60828c.92 0 1.379-.39837 1.379-1.1951 0-.3907-.119-.66649-.356-.82737-.23-.16088-.571-.24132-1.023-.24132h-.942v2.26379zm4.2-4.171352h1.689v6.354702c0 .1762.031.29878.092.36773.069.06894.138.10342.207.10342h.092c.03 0 .069-.00766.115-.02298l.206 1.25255c-.092.0383-.21.06895-.356.09193-.138.03064-.302.04597-.494.04597-.291 0-.536-.04597-.735-.1379-.2-.09193-.36-.21834-.483-.37921-.115-.16854-.199-.36773-.253-.59755-.053-.23749-.08-.50179-.08-.7929zm2.955 5.205572c0-.45965.076-.87334.229-1.24106.154-.37539.353-.68948.598-.94229.253-.26047.54-.45966.862-.59755.321-.1379.655-.20685.999-.20685.407 0 .759.06895 1.058.20685.306.13789.559.32942.758.57456.207.24515.36.53627.46.87335.099.32941.149.68948.149 1.08018 0 .15322-.008.29495-.023.42518-.015.12257-.03.21834-.046.28728h-3.413c.077.43667.245.7546.506.95378.268.19153.594.28729.977.28729.406 0 .816-.12641 1.229-.37922l.563 1.02273c-.291.19918-.616.35623-.976.47115-.353.11491-.701.17237-1.046.17237-.406 0-.785-.06512-1.138-.19536-.352-.13789-.659-.33325-.919-.58605-.261-.26047-.464-.57457-.609-.94229-.146-.36773-.218-.78907-.218-1.26405zm3.677-.58606c0-.32942-.073-.59755-.219-.80439-.145-.20684-.39-.31027-.735-.31027-.268 0-.506.09193-.713.2758-.199.1762-.329.45582-.39.83886zm2.305.58606c0-.46731.065-.88483.195-1.25255.138-.36773.314-.67799.529-.9308.222-.26047.475-.45966.758-.59755.291-.1379.586-.20685.885-.20685.322 0 .586.05363.793.16088.207.10726.41.25281.609.43667l-.069-.87334v-1.942032h1.689v8.055422h-1.379l-.115-.56308h-.046c-.199.19919-.433.36773-.701.50562-.268.13024-.54.19536-.816.19536-.352 0-.674-.06895-.965-.20685-.283-.13789-.529-.33325-.735-.58606-.2-.26047-.357-.57456-.472-.94228-.107-.36773-.16-.78525-.16-1.25256zm1.735-.02298c0 .5669.088.98059.264 1.24106.184.26047.441.39071.77.39071.184 0 .349-.03831.494-.11492.153-.07661.299-.21067.437-.40219v-2.33274c-.153-.1379-.31-.23366-.471-.28729-.161-.05362-.318-.08044-.471-.08044-.269 0-.506.13024-.713.39071-.207.25281-.31.65117-.31 1.1951zm6.185 3.58529c0 .21451.115.37534.345.48264.23.1149.536.1724.919.1724s.697-.069.942-.2069c.245-.1302.368-.29492.368-.4941 0-.1762-.077-.29495-.23-.35623-.145-.06129-.36-.09193-.643-.09193h-.586c-.2 0-.36-.00767-.483-.02299-.123-.00766-.23-.02298-.322-.04596-.207.18386-.31.37155-.31.56307zm-1.391.2643c0-.45965.272-.84269.816-1.14913v-.04597c-.153-.09959-.279-.22599-.379-.37921-.099-.15322-.149-.34857-.149-.58606 0-.20684.061-.40219.184-.58605.122-.19153.275-.35241.459-.48264v-.04597c-.199-.13789-.379-.33324-.54-.58605-.153-.26047-.23-.55925-.23-.89633 0-.34474.065-.64351.196-.89632.13-.26047.302-.47498.517-.64352.222-.1762.475-.30643.758-.3907.284-.08427.579-.12641.885-.12641.337 0 .632.04597.885.1379h2.08v1.22957h-.908c.054.08427.096.19152.126.32176.039.13024.058.27196.058.42518 0 .32942-.058.6167-.172.86185-.115.23749-.276.43667-.483.59755-.199.15322-.437.26813-.713.34474-.268.07661-.559.11491-.873.11491-.222 0-.452-.0383-.689-.11491-.077.06129-.131.12257-.161.18386-.031.06129-.046.14173-.046.24132 0 .14555.061.25281.184.32175.13.06895.356.10343.678.10343h.919c.705 0 1.241.11491 1.609.34474.375.22216.563.58988.563 1.10316 0 .29878-.077.57074-.23.81589-.146.2528-.356.4673-.632.6435-.276.1839-.609.3256-1 .4252-.391.1072-.831.1609-1.321.1609-.337 0-.651-.0307-.943-.092-.283-.0536-.536-.1379-.758-.2528-.215-.1149-.383-.2643-.506-.4481-.122-.1839-.184-.4022-.184-.65504zm2.517-3.80363c.222 0 .406-.07661.552-.22982.153-.16088.23-.4022.23-.72396 0-.29877-.077-.52477-.23-.67799-.146-.16087-.33-.24131-.552-.24131s-.41.07661-.563.22982c-.146.15322-.218.38305-.218.68948 0 .32176.072.56308.218.72396.153.15321.341.22982.563.22982zm3.443-.02298c0-.45965.077-.87334.23-1.24106.153-.37539.352-.68948.597-.94229.253-.26047.54-.45966.862-.59755.322-.1379.655-.20685 1-.20685.406 0 .758.06895 1.057.20685.307.13789.559.32942.759.57456.206.24515.36.53627.459.87335.1.32941.15.68948.15 1.08018 0 .15322-.008.29495-.023.42518-.016.12257-.031.21834-.046.28728h-3.413c.076.43667.245.7546.505.95378.268.19153.594.28729.977.28729.406 0 .816-.12641 1.23-.37922l.563 1.02273c-.291.19918-.617.35623-.977.47115-.352.11491-.701.17237-1.046.17237-.406 0-.785-.06512-1.137-.19536-.353-.13789-.659-.33325-.92-.58605-.26-.26047-.463-.57457-.609-.94229-.145-.36773-.218-.78907-.218-1.26405zm3.677-.58606c0-.32942-.073-.59755-.218-.80439-.146-.20684-.391-.31027-.736-.31027-.268 0-.505.09193-.712.2758-.199.1762-.33.45582-.391.83886zm2.857 1.7237c.26.19918.509.34857.747.44816.237.0996.478.14939.724.14939.252 0 .436-.04213.551-.1264s.172-.20302.172-.35623c0-.09194-.034-.17237-.103-.24132-.061-.07661-.149-.14556-.264-.20685-.108-.06128-.23-.11491-.368-.16088-.138-.05362-.28-.11108-.425-.17237-.176-.06894-.353-.14938-.529-.24131s-.337-.20302-.482-.33325c-.146-.1379-.265-.29495-.357-.47115-.092-.18386-.138-.39453-.138-.63202 0-.26047.05-.50179.15-.72395.107-.22217.257-.40986.448-.56308.192-.15322.421-.27196.69-.35623.268-.09193.566-.1379.896-.1379.437 0 .82.07661 1.149.22983.329.14556.617.31027.862.49413l-.759 1.01124c-.206-.15322-.409-.27197-.609-.35624-.199-.08427-.398-.1264-.597-.1264-.429 0-.644.14939-.644.44816 0 .09193.031.17237.092.24132.062.06129.142.11874.242.17237.107.05363.226.10725.356.16088.138.04596.279.09576.425.14938.184.06895.364.14939.54.24132.184.08427.349.19153.494.32176.153.13024.276.29111.368.48264.092.18386.138.40602.138.66649s-.05.50179-.15.72396c-.099.22216-.249.41752-.448.58605-.199.16088-.444.29112-.735.39071-.291.09193-.628.1379-1.011.1379-.376 0-.763-.07278-1.161-.21834-.391-.14556-.732-.33708-1.023-.57457zm7.568-3.36696h-.862v-.3907l.873-.04597.069-1.59729h.437v1.59729h1.597v.43667h-1.597v3.59679c0 .1762.011.33708.034.48263.031.1379.081.26047.15.36773.068.09959.16.18003.275.24131.123.05363.28.08044.471.08044.108 0 .223-.01532.345-.04596.13-.03831.245-.08044.345-.12641l.138.41369c-.161.06129-.322.11108-.483.14939-.161.0383-.299.05746-.413.05746-.269 0-.491-.04214-.667-.12641-.176-.07661-.318-.18769-.425-.33325-.107-.14555-.184-.32175-.23-.5286-.038-.20684-.057-.43284-.057-.67799zm2.881 2.33274c0-.45965.065-.86951.195-1.22957.138-.36772.318-.67416.541-.91931.229-.24514.494-.43284.792-.56307.299-.13024.613-.19535.943-.19535.329 0 .643.06511.942.19535.306.13023.571.31793.793.56307.23.24515.41.55159.54.91931.138.36006.207.76992.207 1.22957 0 .45966-.069.86951-.207 1.22957-.13.35241-.31.65118-.54.89633-.222.24515-.487.43284-.793.56307-.299.13024-.613.19536-.942.19536-.33 0-.644-.06512-.943-.19536-.298-.13023-.563-.31792-.792-.56307-.223-.24515-.403-.54392-.541-.89633-.13-.36006-.195-.76991-.195-1.22957zm.529 0c0 .36006.049.68948.149.98826.1.29877.234.55541.402.76992.176.2145.383.38304.621.50561.237.11492.494.17237.77.17237s.532-.05745.77-.17237c.245-.12257.452-.29111.62-.50561.176-.21451.314-.47115.414-.76992.099-.29878.149-.6282.149-.98826 0-.36772-.05-.70097-.149-.99974-.1-.29878-.238-.55542-.414-.76992-.168-.22217-.375-.39071-.62-.50562-.238-.12258-.494-.18386-.77-.18386s-.533.06128-.77.18386c-.238.11491-.445.28345-.621.50562-.168.2145-.302.47114-.402.76992-.1.29877-.149.63202-.149.99974zm7.979 1.74668c.237.19919.49.36773.758.50562.269.13024.602.19536 1 .19536.437 0 .762-.10726.977-.32176.222-.22217.333-.47881.333-.76992 0-.16854-.042-.31793-.126-.44816-.077-.13024-.18-.24132-.31-.33325-.131-.09193-.276-.17237-.437-.24132-.153-.06895-.31-.13406-.471-.19535-.207-.07661-.418-.15705-.632-.24132-.207-.08427-.395-.18386-.563-.29877-.169-.12258-.307-.26431-.414-.42518-.1-.16854-.149-.37156-.149-.60904 0-.19919.038-.38688.114-.56308.077-.18386.192-.34091.345-.47114.153-.1379.337-.24515.552-.32176.222-.07661.479-.11491.77-.11491s.574.05362.85.16087c.283.10726.525.24515.724.41369l-.276.35623c-.184-.13789-.379-.25281-.586-.34474-.207-.09959-.452-.14938-.735-.14938-.215 0-.399.03064-.552.09193-.153.05362-.283.1264-.391.21833-.099.09193-.176.19919-.229.32176-.046.12257-.069.24515-.069.36772 0 .16088.034.29878.103.41369.077.10725.176.20301.299.28728.122.08427.26.16088.414.22983.16.06129.321.12257.482.18386.215.08427.429.16854.644.25281.214.08427.406.18769.574.31027.176.12257.318.27579.425.45965.108.1762.161.39837.161.6665 0 .20684-.042.40602-.126.59755-.077.18386-.195.34857-.356.49412-.161.1379-.357.24898-.586.33325-.23.08427-.495.12641-.793.12641-.414 0-.793-.07278-1.138-.21834-.345-.15322-.64-.33325-.885-.54009zm5.174-4.07942h-.862v-.3907l.874-.04597.069-1.59729h.436v1.59729h1.598v.43667h-1.598v3.59679c0 .1762.012.33708.035.48263.03.1379.08.26047.149.36773.069.09959.161.18003.276.24131.123.05363.28.08044.471.08044.107 0 .222-.01532.345-.04596.13-.03831.245-.08044.345-.12641l.138.41369c-.161.06129-.322.11108-.483.14939-.161.0383-.299.05746-.414.05746-.268 0-.49-.04214-.666-.12641-.176-.07661-.318-.18769-.425-.33325-.108-.14555-.184-.32175-.23-.5286-.039-.20684-.058-.43284-.058-.67799zm2.896 3.70021c0-.60521.288-1.06869.862-1.39045.575-.32176 1.475-.55158 2.701-.68948.007-.20684-.008-.41369-.046-.62053-.031-.21451-.096-.4022-.196-.56308-.091-.16854-.226-.3026-.402-.40219-.168-.10726-.387-.16088-.655-.16088-.375 0-.716.07278-1.022.21833-.307.14556-.552.28729-.736.42518l-.23-.37921c.1-.06895.219-.14556.357-.22983.145-.08427.302-.16088.471-.22983.176-.06894.367-.1264.574-.17236.207-.05363.422-.08044.644-.08044.329 0 .605.05745.827.17237.222.10725.402.25664.54.44816s.234.41752.287.67799c.062.25281.092.5286.092.82737v3.52784h-.425l-.057-.71246h-.023c-.284.22216-.59.42135-.92.59755-.321.16854-.666.25281-1.034.25281-.222 0-.429-.03065-.62-.09193-.192-.06129-.364-.15322-.517-.2758-.146-.12257-.261-.27962-.345-.47114s-.127-.41752-.127-.67799zm.529-.02298c0 .39836.115.68182.345.85036s.502.25281.816.25281c.321 0 .628-.07661.919-.22983s.609-.37538.954-.6665v-1.87309c-.567.06895-1.046.15322-1.437.25281-.383.0996-.693.21834-.93.35624-.238.13789-.41.29494-.518.47114-.099.1762-.149.37155-.149.58606zm5.516-4.1139h.437l.046 1.02273h.034c.184-.34474.406-.62436.667-.83887.268-.2145.567-.32175.896-.32175.107 0 .203.00766.287.02298.085.01532.173.04596.265.09193l-.115.45965c-.092-.0383-.173-.06128-.242-.06895-.068-.01532-.157-.02298-.264-.02298-.245 0-.505.10725-.781.32176-.268.20684-.51.57073-.724 1.09168v3.75766h-.506zm3.774.43667h-.862v-.3907l.873-.04597.069-1.59729h.437v1.59729h1.597v.43667h-1.597v3.59679c0 .1762.011.33708.034.48263.031.1379.081.26047.15.36773.069.09959.161.18003.276.24131.122.05363.279.08044.471.08044.107 0 .222-.01532.344-.04596.131-.03831.246-.08044.345-.12641l.138.41369c-.161.06129-.322.11108-.483.14939-.16.0383-.298.05746-.413.05746-.268 0-.491-.04214-.667-.12641-.176-.07661-.318-.18769-.425-.33325-.107-.14555-.184-.32175-.23-.5286-.038-.20684-.057-.43284-.057-.67799zm5.742-.43667h.437l.046 1.02273h.035c.183-.34474.406-.62436.666-.83887.268-.2145.567-.32175.896-.32175.108 0 .203.00766.288.02298.084.01532.172.04596.264.09193l-.115.45965c-.092-.0383-.172-.06128-.241-.06895-.069-.01532-.157-.02298-.265-.02298-.245 0-.505.10725-.781.32176-.268.20684-.509.57073-.724 1.09168v3.75766h-.506zm3.076 2.76941c0-.45965.065-.86951.195-1.22957.138-.36772.318-.67416.54-.91931.23-.24514.494-.43284.793-.56307.299-.13024.613-.19535.942-.19535.33 0 .644.06511.943.19535.306.13023.57.31793.793.56307.229.24515.409.55159.54.91931.138.36006.207.76992.207 1.22957 0 .45966-.069.86951-.207 1.22957-.131.35241-.311.65118-.54.89633-.223.24515-.487.43284-.793.56307-.299.13024-.613.19536-.943.19536-.329 0-.643-.06512-.942-.19536-.299-.13023-.563-.31792-.793-.56307-.222-.24515-.402-.54392-.54-.89633-.13-.36006-.195-.76991-.195-1.22957zm.528 0c0 .36006.05.68948.15.98826.099.29877.233.55541.402.76992.176.2145.383.38304.62.50561.238.11492.495.17237.77.17237.276 0 .533-.05745.77-.17237.245-.12257.452-.29111.621-.50561.176-.21451.314-.47115.414-.76992.099-.29878.149-.6282.149-.98826 0-.36772-.05-.70097-.149-.99974-.1-.29878-.238-.55542-.414-.76992-.169-.22217-.376-.39071-.621-.50562-.237-.12258-.494-.18386-.77-.18386-.275 0-.532.06128-.77.18386-.237.11491-.444.28345-.62.50562-.169.2145-.303.47114-.402.76992-.1.29877-.15.63202-.15.99974zm6.081-5.515836h.506v7.595766c0 .12258.023.21451.069.27579.046.05363.103.08044.172.08044h.069c.031 0 .077-.00766.138-.02298l.092.41369c-.054.01532-.107.02681-.161.03447-.054.01533-.123.02299-.207.02299-.452 0-.678-.29112-.678-.87335zm2.727 0h.506v7.595766c0 .12258.023.21451.069.27579.046.05363.103.08044.172.08044h.069c.031 0 .076-.00766.138-.02298l.092.41369c-.054.01532-.108.02681-.161.03447-.054.01533-.123.02299-.207.02299-.452 0-.678-.29112-.678-.87335zm2.991 1.413436c-.13 0-.241-.04214-.333-.12641-.084-.08427-.126-.19152-.126-.32175 0-.14556.042-.25664.126-.33325.092-.08427.203-.12641.333-.12641s.238.04214.322.12641c.092.07661.138.18769.138.33325 0 .13023-.046.23748-.138.32175-.084.08427-.192.12641-.322.12641zm-.264 1.33299h.506v5.51584h-.506zm2.626 0h.437l.046.85036h.034c.283-.28345.575-.51711.873-.70097.299-.19152.64-.28728 1.023-.28728.575 0 .996.17237 1.264.51711s.402.87717.402 1.59729v3.53933h-.505v-3.47038c0-.58989-.1-1.02273-.299-1.29852-.192-.28345-.513-.42518-.965-.42518-.33 0-.629.0881-.897.2643-.268.16854-.57.42518-.907.76992v4.15986h-.506zm6.139 6.59604c0 .3447.157.6243.471.8389.322.2145.778.3217 1.367.3217.307 0 .587-.0421.839-.1264.253-.0766.468-.18.644-.3103.176-.1302.31-.2796.402-.4481.1-.1609.149-.3294.149-.50564 0-.30644-.111-.52477-.333-.65501-.214-.12257-.528-.18386-.942-.18386h-1.184c-.061 0-.157-.00383-.287-.01149-.123-.01532-.257-.04213-.402-.08044-.253.1762-.437.36389-.552.56308-.115.19918-.172.39836-.172.59756zm-.483.046c0-.2452.073-.48269.219-.71251.145-.22983.344-.43667.597-.62053v-.04597c-.138-.08427-.253-.19918-.345-.34474s-.138-.32559-.138-.54009c0-.24515.069-.45199.207-.62053.138-.1762.268-.30644.391-.39071v-.04596c-.176-.15322-.337-.36007-.483-.62054-.137-.26047-.206-.55924-.206-.89632 0-.28345.049-.54392.149-.78141s.237-.4405.414-.60904c.176-.1762.383-.31027.62-.4022.238-.09959.49-.14938.759-.14938.153 0 .291.01532.413.04596.123.02298.226.05363.311.09193h1.873v.42518h-1.287c.176.15322.321.3524.436.59755.115.23749.173.50179.173.7929 0 .28345-.05.54392-.15.78141-.099.23749-.237.44433-.413.62053-.169.16854-.372.30261-.609.4022-.23.09193-.479.1379-.747.1379-.154 0-.315-.01916-.483-.05746-.161-.0383-.306-.09576-.437-.17237-.122.09959-.23.21067-.321.33325-.085.12257-.127.27579-.127.45965 0 .19918.073.37155.218.51711.146.1379.426.20685.839.20685h1.184c.62 0 1.076.10342 1.367.31026.299.19918.449.51711.449.95378 0 .2375-.062.4673-.184.6895-.123.2298-.299.429-.529.5975-.222.1762-.494.3141-.816.4137-.322.1073-.682.1609-1.08.1609-.697 0-1.249-.1379-1.655-.4137s-.609-.6473-.609-1.1146zm2.184-3.28657c.191 0 .371-.03447.54-.10342.176-.07661.329-.18386.459-.32176.131-.1379.234-.3026.311-.49413.076-.19152.115-.40219.115-.63202s-.039-.4405-.115-.63202c-.077-.19152-.18-.3524-.311-.48264-.122-.13023-.272-.22982-.448-.29877-.176-.07661-.36-.11492-.551-.11492-.2 0-.387.03831-.563.11492-.169.06895-.318.16854-.449.29877-.13.13024-.233.29112-.31.48264-.077.18386-.115.39453-.115.63202 0 .22983.038.4405.115.63202.077.19153.18.35623.31.49413.138.1379.291.24515.46.32176.176.06895.36.10342.552.10342zm6.429-4.68846c-.13 0-.241-.04214-.333-.12641-.084-.08427-.126-.19152-.126-.32175 0-.14556.042-.25664.126-.33325.092-.08427.203-.12641.333-.12641s.238.04214.322.12641c.092.07661.138.18769.138.33325 0 .13023-.046.23748-.138.32175-.084.08427-.192.12641-.322.12641zm-.264 1.33299h.506v5.51584h-.506zm2.626 0h.437l.046.85036h.034c.283-.28345.575-.51711.873-.70097.299-.19152.64-.28728 1.023-.28728.575 0 .996.17237 1.264.51711s.402.87717.402 1.59729v3.53933h-.505v-3.47038c0-.58989-.1-1.02273-.299-1.29852-.192-.28345-.513-.42518-.965-.42518-.33 0-.629.0881-.897.2643-.268.16854-.57.42518-.907.76992v4.15986h-.506zm6.288-1.36747v-.81588h.529l-.012.81588-.069 4.82636h-.379zm-.23 6.5041c0-.16854.05-.29878.15-.39071.099-.09193.214-.1379.345-.1379.13 0 .241.04597.333.1379.099.09193.149.22217.149.39071 0 .16087-.05.28728-.149.37921-.092.09193-.203.1379-.333.1379-.131 0-.246-.04597-.345-.1379-.1-.09193-.15-.21834-.15-.37921z" fill="#4a4a4a" transform="translate(55 97)"/><path d="m20.3378 40.9755c4.3175 0 7.8397-3.5806 7.8397-7.9699 0-4.3892-3.5222-7.9698-7.8397-7.9698s-7.8397 3.5806-7.8397 7.9698c.0568 4.447 3.5222 7.9699 7.8397 7.9699zm-2.7268-4.7935c.0568-.2887.1136-.5197.2272-.8085s.1704-.3465.4545-.1733c.4544.2311.9657.4043 1.477.4621.3409.0577.6817 0 .9658-.1155.5681-.231.6817-.9241.1704-1.3283-.1704-.1155-.3408-.2311-.5681-.3466-.5113-.231-1.0226-.4042-1.5338-.693-.7954-.462-1.2499-1.0973-1.193-2.0791.0568-1.0973.6817-1.7326 1.6474-2.1368.3977-.1733.3977-.1155.3977-.5776 0-.1732 0-.2887 0-.462 0-.3465.0568-.4043.3977-.4043h.284c.6817 0 .6817 0 .6817.6931 0 .462 0 .462.4545.5775.3409.0578.6817.1733 1.0226.2888.1704.0577.2272.231.1704.4042-.0568.2888-.1704.5776-.284.8663-.1137.2888-.1705.2888-.4545.1733-.5113-.231-1.0794-.3465-1.6475-.3465-.1704 0-.284.0577-.4545.1155-.5113.231-.5681.8085-.1704 1.155.2272.1733.4545.2888.7385.4043.4545.1733.909.3465 1.3066.5775 1.3635.7508 1.7043 2.4834.7386 3.6384-.3409.4043-.7954.6931-1.3067.8663-.2272.0578-.3408.1733-.3408.4043v.693c0 .231-.1136.3465-.2841.3465-.2272 0-.5112 0-.7385 0-.2272 0-.3408-.1155-.3408-.3465 0-.1732 0-.3465 0-.5197 0-.4043 0-.4043-.3977-.4621-.4545-.0577-.909-.1732-1.3066-.4042-.1705 0-.1705-.1155-.1136-.4621zm-10.79386-2.7143c0-1.2128.96577-2.1946 2.15877-2.1946 1.19299 0 2.15879.9818 2.15879 2.1946s-.9658 2.1946-2.15879 2.1946c-1.193 0-2.15877-.9818-2.15877-2.1946zm22.78066 0c0-1.2128.9657-2.1946 2.1587-2.1946s2.1588.9818 2.1588 2.1946-.9658 2.1946-2.1588 2.1946-2.1587-.9818-2.1587-2.1946zm25.337-2.6567-10.9642 11.1463v-4.1582l4.1471-4.2159-4.1471-4.216v-5.602c0-.5198-.0568-.9818-.1704-1.4438l7.726 7.8544 1.3635-1.3861c.3408-.3465.3408-.924 0-1.2128l-23.9168-24.37163c-.3409-.34651-.909-.34651-1.193 0l-1.3635 1.38607 12.6686 12.87886c-.4545-.1155-.909-.1733-1.4203-.1733h-5.5105l-9.0895-9.2404-8.067 8.1431c-.284.2888-.3408.7508-.1136 1.0973h-3.0109c-.1136-1.155.2272-2.3101 1.0794-3.1764l12.7821-12.99432c1.4771-1.501572 3.8631-1.501572 5.2833 0l23.9168 24.31392c1.4203 1.4438 1.4203 3.8694 0 5.3709zm-51.3558 15.189h34.0857c1.9884 0 3.579-1.6171 3.579-3.6384v-18.6541c0-2.0214-1.5906-3.6384-3.579-3.6384h-34.0857c-1.98833 0-3.579 1.617-3.579 3.6384v18.6541c0 2.0213 1.59067 3.6384 3.579 3.6384zm-.51129-18.3653c.28405.0577.5681.1155.90896.1155 1.98833 0 3.63581-1.6171 3.63581-3.6962 0-.2888-.05681-.6353-.11362-.9241h26.53004c-.0568.2311-.0568.4621-.0568.6931 0 2.0213 1.5907 3.6961 3.6358 3.6961.2273 0 .4545 0 .6249-.0577v11.1463c-.2272-.0578-.3976-.0578-.6249-.0578-1.9883 0-3.6358 1.6171-3.6358 3.6962 0 .231 0 .462.0568.693h-26.47323c0-.1732 0-.2888 0-.462 0-2.0214-1.59067-3.6962-3.63581-3.6962-.28405 0-.62491.0578-.90895.1155v-11.2617z" fill="#2e86de" transform="translate(150 27)"/></g></g></svg>