<svg height="46" viewBox="0 0 56 46" width="56" xmlns="http://www.w3.org/2000/svg"><path d="m115.3378 40.9755c4.3175 0 7.8397-3.5806 7.8397-7.9699 0-4.3892-3.5222-7.9698-7.8397-7.9698s-7.8397 3.5806-7.8397 7.9698c.0568 4.447 3.5222 7.9699 7.8397 7.9699zm-2.7268-4.7935c.0568-.2887.1136-.5197.2272-.8085s.1704-.3465.4545-.1733c.4544.2311.9657.4043 1.477.4621.3409.0577.6817 0 .9658-.1155.5681-.231.6817-.9241.1704-1.3283-.1704-.1155-.3408-.2311-.5681-.3466-.5113-.231-1.0226-.4042-1.5338-.693-.7954-.462-1.2499-1.0973-1.193-2.0791.0568-1.0973.6817-1.7326 1.6474-2.1368.3977-.1733.3977-.1155.3977-.5776 0-.1732 0-.2887 0-.462 0-.3465.0568-.4043.3977-.4043h.284c.6817 0 .6817 0 .6817.6931 0 .462 0 .462.4545.5775.3409.0578.6817.1733 1.0226.2888.1704.0577.2272.231.1704.4042-.0568.2888-.1704.5776-.284.8663-.1137.2888-.1705.2888-.4545.1733-.5113-.231-1.0794-.3465-1.6475-.3465-.1704 0-.284.0577-.4545.1155-.5113.231-.5681.8085-.1704 1.155.2272.1733.4545.2888.7385.4043.4545.1733.909.3465 1.3066.5775 1.3635.7508 1.7043 2.4834.7386 3.6384-.3409.4043-.7954.6931-1.3067.8663-.2272.0578-.3408.1733-.3408.4043v.693c0 .231-.1136.3465-.2841.3465-.2272 0-.5112 0-.7385 0-.2272 0-.3408-.1155-.3408-.3465 0-.1732 0-.3465 0-.5197 0-.4043 0-.4043-.3977-.4621-.4545-.0577-.909-.1732-1.3066-.4042-.1705 0-.1705-.1155-.1136-.4621zm-10.79386-2.7143c0-1.2128.96577-2.1946 2.15877-2.1946 1.19299 0 2.15879.9818 2.15879 2.1946s-.9658 2.1946-2.15879 2.1946c-1.193 0-2.15877-.9818-2.15877-2.1946zm22.78066 0c0-1.2128.9657-2.1946 2.1587-2.1946s2.1588.9818 2.1588 2.1946-.9658 2.1946-2.1588 2.1946-2.1587-.9818-2.1587-2.1946zm25.337-2.6567-10.9642 11.1463v-4.1582l4.1471-4.2159-4.1471-4.216v-5.602c0-.5198-.0568-.9818-.1704-1.4438l7.726 7.8544 1.3635-1.3861c.3408-.3465.3408-.924 0-1.2128l-23.9168-24.37163c-.3409-.34651-.909-.34651-1.193 0l-1.3635 1.38607 12.6686 12.87886c-.4545-.1155-.909-.1733-1.4203-.1733h-5.5105l-9.0895-9.2404-8.067 8.1431c-.284.2888-.3408.7508-.1136 1.0973h-3.0109c-.1136-1.155.2272-2.3101 1.0794-3.1764l12.7821-12.99432c1.4771-1.501572 3.8631-1.501572 5.2833 0l23.9168 24.31392c1.4203 1.4438 1.4203 3.8694 0 5.3709zm-51.3558 15.189h34.0857c1.9884 0 3.579-1.6171 3.579-3.6384v-18.6541c0-2.0214-1.5906-3.6384-3.579-3.6384h-34.0857c-1.98833 0-3.579 1.617-3.579 3.6384v18.6541c0 2.0213 1.59067 3.6384 3.579 3.6384zm-.51129-18.3653c.28405.0577.5681.1155.90896.1155 1.98833 0 3.63581-1.6171 3.63581-3.6962 0-.2888-.05681-.6353-.11362-.9241h26.53004c-.0568.2311-.0568.4621-.0568.6931 0 2.0213 1.5907 3.6961 3.6358 3.6961.2273 0 .4545 0 .6249-.0577v11.1463c-.2272-.0578-.3976-.0578-.6249-.0578-1.9883 0-3.6358 1.6171-3.6358 3.6962 0 .231 0 .462.0568.693h-26.47323c0-.1732 0-.2888 0-.462 0-2.0214-1.59067-3.6962-3.63581-3.6962-.28405 0-.62491.0578-.90895.1155v-11.2617z" fill="#2e86de" transform="translate(-95)"/></svg>