<svg width="30" height="40" viewBox="0 0 30 40" fill="none" xmlns="http://www.w3.org/2000/svg">
<path d="M26.6389 17.286H24.1337V11.9415C24.1337 6.76408 19.8748 2.50522 14.6974 2.50522C9.51994 2.50522 5.26108 6.76408 5.26108 11.9415V17.286H2.75586V11.9415C2.75586 5.34446 8.10032 0 14.6974 0C21.2945 0 26.6389 5.34446 26.6389 11.9415V17.286Z" fill="white"/>
<path d="M25.3862 40.0003H4.00837C1.83718 40.0003 0 38.1631 0 35.992V19.9585C0 17.7873 1.83718 15.9502 4.00837 15.9502H25.3862C27.5574 15.9502 29.3946 17.7873 29.3946 19.9585V35.992C29.3946 38.2466 27.5574 40.0003 25.3862 40.0003ZM4.00837 18.6224C3.2568 18.6224 2.67224 19.207 2.67224 19.9585V35.992C2.67224 36.7435 3.2568 37.3281 4.00837 37.3281H25.3862C26.1378 37.3281 26.7223 36.7435 26.7223 35.992V19.9585C26.7223 19.207 26.1378 18.6224 25.3862 18.6224H4.00837Z" fill="white"/>
<path d="M17.3699 23.9667C17.3699 25.4698 16.2008 26.6389 14.6976 26.6389C13.1945 26.6389 12.0254 25.4698 12.0254 23.9667C12.0254 22.4635 13.1945 21.2944 14.6976 21.2944C16.2008 21.2944 17.3699 22.5471 17.3699 23.9667Z" fill="white"/>
<path d="M15.3656 23.9668H14.0295L12.6934 31.9835H16.7017L15.3656 23.9668Z" fill="white"/>
</svg>
