<?xml version="1.0" encoding="UTF-8"?>
<svg width="78px" height="77px" viewBox="0 0 78 77" version="1.1" xmlns="http://www.w3.org/2000/svg" xmlns:xlink="http://www.w3.org/1999/xlink">
    <!-- Generator: Sketch 51.2 (57519) - http://www.bohemiancoding.com/sketch -->
    <title>Userpic 60px</title>
    <desc>Created with Sketch.</desc>
    <defs></defs>
    <g id="Login" stroke="none" stroke-width="1" fill="none" fill-rule="evenodd">
        <g id="Sign-up-using-email-error-state-Copy-17" transform="translate(-148.000000, -91.000000)">
            <g id="Group-2" transform="translate(134.000000, 91.000000)">
                <g id="Userpic-/-Userpic-60px" transform="translate(14.692308, 0.000000)">
                    <g id="Userpic-">
                        <rect id="Rectangle-3" fill="#E4F1FD" x="0" y="0" width="76.9230769" height="76.9230769" rx="3.84615385"></rect>
                        <path d="M38.3807558,48.0645736 C28.8897567,48.0645736 26.8979782,39.5072688 26.8979782,32.3275989 L26.8979782,29.4646026 C26.8979782,23.4559856 32.0499763,18.5677267 38.3807558,18.5677267 C44.7115352,18.5677267 49.8622408,23.4559856 49.8622408,29.4646026 L49.8622408,32.3275989 C49.8622408,38.2056764 48.3706688,48.0645736 38.3807558,48.0645736 L38.3807558,48.0645736 Z M66.1338173,63.7153668 C64.8451715,61.2972185 62.6672697,59.4139017 60.0020865,58.4114094 L48.1405996,53.9553248 C47.1505267,53.582717 46.5120202,52.7069621 46.5120202,51.7196782 L46.5120202,47.2116313 C49.9359146,44.3207527 51.8010258,39.2373183 51.8010258,32.3275989 L51.8010258,29.4646026 C51.8010258,22.4078679 45.7817445,16.6666667 38.3807558,16.6666667 C30.979767,16.6666667 24.9591932,22.4078679 24.9591932,29.4646026 L24.9591932,32.3275989 C24.9591932,39.3792641 26.7945764,44.4614312 30.2494913,47.3092191 L30.2494913,51.7196782 C30.2494913,52.7056947 29.6096922,53.582717 28.6196193,53.9553248 L16.7581325,58.4114094 C14.0929493,59.4139017 11.9150475,61.2972185 10.6186465,63.7318427 L7.05128205,70.7784384 L8.78714092,71.6237764 L12.3454577,64.5949239 C13.4156671,62.5886719 15.2290773,61.0234659 17.45351,60.1857321 L29.3137044,55.7296475 C31.0599034,55.0744154 32.1882763,53.5003378 32.1882763,51.7196782 L32.1882763,48.5715229 C33.9538632,49.4814969 36.0167305,49.9656336 38.3807558,49.9656336 C40.7344408,49.9656336 42.7998931,49.4586842 44.5732352,48.5144911 L44.5732352,51.7196782 C44.5732352,53.5003378 45.7003155,55.0744154 47.4465146,55.7296475 L59.3067089,60.1857321 C61.5311416,61.0234659 63.3445519,62.5886719 64.4095912,64.5847849 L68.1423986,71.7948718 L69.8717949,70.9343253 L66.1338173,63.7153668 Z" id="Icon" fill="#297FCA"></path>
                    </g>
                </g>
            </g>
        </g>
    </g>
</svg>