<svg width="24" height="24" viewBox="0 0 24 24" fill="none" xmlns="http://www.w3.org/2000/svg">
<path d="M21 14.6875H20V11.4472C20 10.8904 19.5744 10.4375 19.0497 10.4375H12.5V8.3125H14C14.5522 8.3125 15 7.8367 15 7.25V4.0625C15 3.4758 14.5522 3 14 3H10C9.44781 3 9 3.4758 9 4.0625V7.25C9 7.8367 9.44781 8.3125 10 8.3125H11.5V10.4375H4.95031C4.42563 10.4375 4 10.8904 4 11.4472V14.6875H3C2.44781 14.6875 2 15.1633 2 15.75V18.9375C2 19.5242 2.44781 20 3 20H6C6.55219 20 7 19.5242 7 18.9375V15.75C7 15.1633 6.55219 14.6875 6 14.6875H5V11.5H11.5V14.6875H10.5C9.94781 14.6875 9.5 15.1633 9.5 15.75V18.9375C9.5 19.5242 9.94781 20 10.5 20H13.5C14.0522 20 14.5 19.5242 14.5 18.9375V15.75C14.5 15.1633 14.0522 14.6875 13.5 14.6875H12.5V11.5H19V14.6875H18C17.4478 14.6875 17 15.1633 17 15.75V18.9375C17 19.5242 17.4478 20 18 20H21C21.5522 20 22 19.5242 22 18.9375V15.75C22 15.1633 21.5522 14.6875 21 14.6875ZM6 15.75V18.9375H3V15.75H6ZM13.5 15.75V18.9375H10.5V15.75H13.5ZM10 7.25V4.0625H14V7.25H10ZM21 18.9375H18V15.75H21V18.9375Z" fill="black"/>
</svg>
