<svg width="20" height="24" viewBox="0 0 20 24" fill="none" xmlns="http://www.w3.org/2000/svg">
<g clip-path="url(#clip0)">
<path d="M20.0002 19.7705H13.7401V21.1968H20.0002V19.7705Z" fill="white"/>
<path d="M9.27979 0H10.4927V3.9224H9.27979V0Z" fill="white"/>
<path d="M9.27979 18.9385H10.4927V23.9306H9.27979V18.9385Z" fill="white"/>
<path d="M8.06689 3.92285H11.7838V11.4111H8.06689V3.92285Z" fill="white"/>
<path d="M6.97144 11.4111H13.0359V18.4635H6.97144V11.4111Z" fill="white"/>
<path d="M8.06665 14.5012L9.35783 14.5408V13.2334H10.6196V14.5012H11.8619V15.7294V17.0765H10.6196V15.8087H9.35783V17.0765H8.10578L8.06665 14.5012Z" fill="#10306A"/>
<path d="M0.00683594 19.7705H6.11045V21.1968H0.00683594V19.7705Z" fill="white"/>
<path d="M7.98853 18.3438H11.7837V21.3945H7.98853V18.3438Z" fill="white"/>
<path d="M11.0403 18.4629H12.5148V19.7307H13.8573V22.2664H11.0403V18.4629Z" fill="#DF2C39"/>
<path d="M8.73186 18.4629H7.2573V19.7307H5.91479V22.2664H8.73186V18.4629Z" fill="#DF2C39"/>
<path d="M0.00683594 14.9365H1.41536V21.1965H0.00683594V14.9365Z" fill="white"/>
<path d="M0.00683594 14.9365H1.41536V17.4326H0.00683594V14.9365Z" fill="#DF2C39"/>
<path d="M20 14.9365H18.5915V21.1965H20V14.9365Z" fill="white"/>
<path d="M20 14.9365H18.5915V17.4326H20V14.9365Z" fill="#DF2C39"/>
<path d="M14.4441 11.1328H15.8526V17.3928H14.4441V11.1328Z" fill="white"/>
<path d="M14.4441 11.1328H15.8526V13.6289H14.4441V11.1328Z" fill="#DF2C39"/>
<path d="M4.15405 11.1328H5.56258V17.3928H4.15405V11.1328Z" fill="white"/>
<path d="M4.15405 17.0361H5.56258V18.4625H4.15405V17.0361Z" fill="#10306A"/>
<path d="M5.5625 15.6104H6.97103V17.0367H5.5625V15.6104Z" fill="#10306A"/>
<path d="M14.4441 17.0361H15.8526V18.4625H14.4441V17.0361Z" fill="#10306A"/>
<path d="M13.0356 15.6104H14.4442V17.0367H13.0356V15.6104Z" fill="#10306A"/>
<path d="M4.15405 11.1328H5.56258V13.6289H4.15405V11.1328Z" fill="#DF2C39"/>
<path d="M5.5625 17.0371H6.97103V18.4634H5.5625V17.0371Z" fill="white"/>
<path d="M13.0356 17.0371H14.4442V18.4634H13.0356V17.0371Z" fill="white"/>
<path d="M2.82373 18.4629H7.24494V19.7704H2.82373V18.4629Z" fill="white"/>
<path d="M12.5269 18.4629H17.0654V19.7704H12.5269V18.4629Z" fill="white"/>
</g>
<defs>
<clipPath id="clip0">
<rect width="20" height="24" fill="white"/>
</clipPath>
</defs>
</svg>
