<svg width="24" height="24" viewBox="0 0 24 24" fill="none" xmlns="http://www.w3.org/2000/svg">
<path d="M11.2453 21.7388C11.2207 21.7366 11.0602 21.7165 10.8885 21.6964C8.9307 21.4734 7.10446 20.6618 5.59263 19.3462C5.15112 18.9604 4.54015 18.3026 4.2079 17.8499C3.9537 17.5021 3.63037 17.0115 3.63037 16.9736C3.63037 16.9647 3.87565 16.958 4.17445 16.958H4.71853L4.83002 17.1208C5.36965 17.8968 6.17908 18.6951 7.01973 19.2793C7.49022 19.6071 8.23499 20.0084 8.72555 20.2024C10.3154 20.829 11.9923 20.9962 13.6446 20.693C14.7617 20.4856 15.8655 20.0441 16.831 19.4131C17.723 18.8333 18.5391 18.0595 19.1545 17.2122L19.3396 16.958H19.8792C20.3854 16.958 20.4188 16.9602 20.4054 16.9981C20.3765 17.0695 19.9439 17.7028 19.7543 17.9503C19.4868 18.2959 19.159 18.6616 18.8111 18.9983C18.4387 19.3618 18.1555 19.6048 17.8077 19.8635C17.6917 19.9505 17.1142 20.3362 17.0741 20.3541C17.0585 20.363 17.0027 20.3942 16.9537 20.4254C16.8377 20.4968 16.7641 20.5347 16.4296 20.7064C15.5578 21.1501 14.6815 21.4444 13.7092 21.6161C13.1005 21.7254 12.7348 21.7522 11.9923 21.7499C11.6065 21.7477 11.2698 21.7432 11.2453 21.7388Z" fill="#1A2141"/>
<path d="M3.52752 15.9301C3.46955 15.9167 3.40488 15.8788 3.35583 15.8275C3.05034 15.5242 3.34022 15.0158 3.76389 15.1095C3.97795 15.1563 4.10728 15.3079 4.10728 15.5086C4.10728 15.716 3.98687 15.8743 3.79064 15.9256C3.67246 15.9568 3.65462 15.9568 3.52752 15.9301ZM3.83078 15.6982C3.87538 15.6513 3.88653 15.6201 3.88653 15.5287C3.88653 15.4284 3.87761 15.4083 3.81294 15.3503C3.75943 15.3035 3.71929 15.2856 3.65685 15.2856C3.52529 15.2879 3.45171 15.3704 3.45171 15.5198C3.45171 15.6246 3.48293 15.6781 3.56989 15.7338C3.65908 15.7874 3.75274 15.7762 3.83078 15.6982Z" fill="#1A2141"/>
<path d="M14.8037 15.928C14.69 15.8968 14.6275 15.8455 14.5629 15.7385C14.5138 15.656 14.5071 15.6203 14.5161 15.4999C14.5272 15.3304 14.5963 15.2234 14.7413 15.1476C14.9642 15.0339 15.2742 15.1409 15.3567 15.3594C15.3901 15.4464 15.3879 15.6069 15.35 15.6961C15.3099 15.792 15.1761 15.9013 15.0557 15.9302C14.9442 15.9592 14.9063 15.9592 14.8037 15.928ZM15.0378 15.7429C15.2675 15.6471 15.1828 15.2858 14.9308 15.2858C14.7992 15.2858 14.7346 15.3616 14.7346 15.5133C14.7368 15.6426 14.7613 15.6917 14.8594 15.7429C14.9397 15.7831 14.9419 15.7831 15.0378 15.7429Z" fill="#1A2141"/>
<path d="M1.60983 15.91C1.5028 15.8766 1.47604 15.8342 1.52064 15.7651C1.56301 15.7026 1.58977 15.6982 1.66781 15.7428C1.74362 15.7874 1.91086 15.7874 1.92647 15.7428C1.94877 15.6893 1.90417 15.6558 1.74585 15.6001C1.52733 15.522 1.46043 15.4038 1.54517 15.2411C1.61206 15.1117 1.82167 15.0694 2.01789 15.1429L2.11155 15.1786L2.07587 15.25C2.05803 15.2879 2.03796 15.3213 2.03573 15.3258C2.03127 15.3302 1.97999 15.3169 1.92201 15.2968C1.78822 15.2522 1.70572 15.2678 1.71687 15.3369C1.72133 15.3748 1.75477 15.3971 1.85735 15.4328C1.93093 15.4596 2.02458 15.5109 2.06695 15.5488C2.13608 15.6134 2.14054 15.629 2.12939 15.7116C2.1227 15.7695 2.09594 15.8275 2.06026 15.8632C2.00897 15.9122 1.97999 15.9212 1.83951 15.9256C1.75254 15.9278 1.64774 15.9212 1.60983 15.91Z" fill="#1A2141"/>
<path d="M5.35625 15.9079C5.2626 15.8589 5.23584 15.7541 5.23584 15.4196V15.1074H5.34733H5.45882V15.3817C5.45882 15.6404 5.46105 15.6604 5.51011 15.705C5.57478 15.7652 5.63721 15.7675 5.70634 15.7117C5.75762 15.6716 5.75985 15.6515 5.76654 15.3884L5.77546 15.1074H5.88472H5.99398L5.98953 15.5155L5.98284 15.9213L5.87803 15.928C5.77546 15.9347 5.771 15.9325 5.771 15.8789C5.771 15.8076 5.73978 15.8054 5.69519 15.87C5.66843 15.9079 5.63498 15.9191 5.53241 15.9258C5.46105 15.928 5.38301 15.9213 5.35625 15.9079Z" fill="#1A2141"/>
<path d="M7.24649 15.8879C7.2175 15.8522 7.20635 15.7853 7.19743 15.569C7.18628 15.3081 7.18405 15.297 7.13722 15.2903C7.09486 15.2836 7.08594 15.268 7.08594 15.1944C7.08594 15.1163 7.09263 15.1074 7.14168 15.1074C7.19297 15.1074 7.19743 15.0985 7.19743 15.0071V14.9067H7.29777H7.39811V15.0071V15.1074H7.49846H7.5988V15.1966V15.2858H7.49846H7.39811V15.4776C7.39811 15.7095 7.41818 15.7541 7.52076 15.7541C7.59434 15.7541 7.5988 15.7585 7.5988 15.8299C7.5988 15.9169 7.56758 15.9325 7.39143 15.9325C7.31338 15.9325 7.27547 15.9213 7.24649 15.8879Z" fill="#1A2141"/>
<path d="M8.73633 15.3748V14.8174H8.84782H8.95931V15.0203V15.221L9.03959 15.1608C9.13324 15.0894 9.27372 15.0783 9.36514 15.1385C9.46549 15.2031 9.49447 15.3191 9.49447 15.6424V15.9323H9.38521H9.27595L9.26703 15.6513C9.26034 15.3882 9.25811 15.3682 9.20682 15.328C9.13993 15.2723 9.05965 15.2745 9.00391 15.3302C8.96377 15.3704 8.95931 15.4038 8.95931 15.6536V15.9323H8.84782H8.73633V15.3748Z" fill="#1A2141"/>
<path d="M11.635 15.6177C11.635 15.3233 11.6328 15.3033 11.5904 15.2921C11.528 15.2765 11.5258 15.1293 11.5882 15.1293C11.6217 15.1293 11.6328 15.107 11.644 15.0312C11.6729 14.8506 11.7889 14.7726 11.9807 14.8082C12.052 14.8216 12.0587 14.8283 12.0587 14.9041C12.0587 14.9822 12.0565 14.9844 11.9784 14.9844C11.8892 14.9844 11.8402 15.0312 11.8647 15.0937C11.8736 15.1182 11.9071 15.1293 11.9695 15.1293C12.0565 15.1293 12.0587 15.1316 12.0587 15.2074C12.0587 15.2854 12.0587 15.2854 11.9584 15.2854H11.858V15.6088V15.9321H11.7465H11.635V15.6177Z" fill="#1A2141"/>
<path d="M13.1514 15.3748V14.8174H13.2629H13.3744V15.3748V15.9323H13.2629H13.1514V15.3748Z" fill="#1A2141"/>
<path d="M16.5186 15.5196V15.1071H16.63H16.7415V15.1874V15.2654L16.8174 15.1874C16.8575 15.1428 16.9021 15.1071 16.9155 15.1071C16.9288 15.1071 16.9534 15.1004 16.9734 15.0937C17.0024 15.0826 17.0091 15.1004 17.0091 15.2052C17.0091 15.3167 17.0047 15.3301 16.9645 15.3301C16.9378 15.3301 16.8887 15.3457 16.853 15.3635C16.7705 15.4059 16.7415 15.5062 16.7415 15.7493V15.9321H16.63H16.5186V15.5196Z" fill="#1A2141"/>
<path d="M18.1465 15.5222V15.1074H18.258H18.3695L18.365 15.5155L18.3583 15.9213L18.2535 15.928L18.1465 15.9347V15.5222Z" fill="#1A2141"/>
<path d="M19.6849 15.9055C19.5645 15.8409 19.4686 15.6157 19.4931 15.4551C19.5444 15.1474 19.8789 14.9891 20.0796 15.1786L20.1308 15.2254V15.0225V14.8174H20.2423H20.3538V15.3748V15.9323H20.2423C20.1353 15.9323 20.1308 15.9301 20.1308 15.8721V15.8141L20.0751 15.8654C20.0305 15.9078 19.9881 15.9212 19.8789 15.9256C19.7941 15.9323 19.7183 15.9234 19.6849 15.9055ZM19.9948 15.7517C20.1398 15.7004 20.1821 15.4663 20.0662 15.3503C19.9391 15.2254 19.7585 15.2812 19.7139 15.4596C19.6916 15.5488 19.7451 15.6848 19.8254 15.7316C19.9101 15.7829 19.9034 15.7829 19.9948 15.7517Z" fill="#1A2141"/>
<path d="M21.5759 15.899C21.4689 15.8388 21.4443 15.647 21.5335 15.5445C21.6071 15.4597 21.6918 15.4352 21.8635 15.4486C22.0464 15.4619 22.0709 15.4397 21.9706 15.3415C21.9126 15.2813 21.7699 15.2657 21.6606 15.3059C21.6116 15.3259 21.6026 15.3215 21.5826 15.259C21.5491 15.1632 21.5491 15.1609 21.645 15.1342C21.781 15.0918 21.9706 15.1007 22.0731 15.1542C22.2047 15.2211 22.227 15.2925 22.227 15.6426V15.9324H22.1289C22.0464 15.9324 22.0285 15.9235 22.0196 15.8834C22.0063 15.8343 22.0063 15.8343 21.9594 15.8767C21.897 15.9324 21.6606 15.9481 21.5759 15.899ZM21.9706 15.7429C22.0442 15.6716 22.0419 15.6024 21.9683 15.5757C21.8346 15.5244 21.6918 15.5757 21.6918 15.676C21.6918 15.8009 21.8702 15.8455 21.9706 15.7429Z" fill="#1A2141"/>
<path d="M18.124 14.9088V14.8174H18.2489H18.3715L18.3648 14.9021L18.3582 14.9846L18.2422 14.9913L18.124 14.998V14.9088Z" fill="#1A2141"/>
<path d="M3.92 14.427C3.25774 14.3021 2.74264 14.0524 2.31674 13.6465C1.92206 13.2675 1.7905 12.9999 1.73476 12.4513C1.6857 11.9496 1.77712 11.4836 2.06031 10.7745C2.13613 10.5872 2.31005 10.2371 2.43715 10.0119C2.46614 9.96285 2.58432 9.74209 2.70028 9.51911C3.00353 8.93935 3.27111 8.56697 3.55207 8.32615C3.74161 8.1656 3.81519 8.121 3.97574 8.07417C4.15636 8.02289 4.32137 8.00951 4.5109 8.0385C4.60902 8.05188 4.81416 8.07194 4.96802 8.08309C5.30696 8.10539 5.47197 8.14553 5.73732 8.27263C5.93354 8.36851 6.39289 8.52906 6.46424 8.52906C6.5356 8.52906 6.73182 8.64724 6.76304 8.70968C6.80987 8.79887 6.80541 8.8457 6.73182 9.00848C6.491 9.53918 5.56562 10.5404 4.63355 11.2807C4.0694 11.7289 3.67249 12.1102 3.57883 12.2953C3.50302 12.4424 3.46511 12.6743 3.47849 12.9107C3.48518 13.0556 3.50079 13.1181 3.55876 13.2363C3.68363 13.4905 3.97797 13.8026 4.20988 13.9253L4.28792 13.9654L4.6001 13.7759C4.7718 13.6711 5.03938 13.4927 5.19547 13.3767C5.53663 13.127 5.98037 12.8282 6.32376 12.6208C6.48431 12.5249 6.58465 12.4491 6.59803 12.4157C6.60918 12.3867 6.62256 12.2261 6.63148 12.0589C6.6404 11.8515 6.66047 11.7088 6.68723 11.6241C6.71176 11.5527 6.72959 11.4546 6.72959 11.4056C6.72959 11.3543 6.7452 11.2472 6.76304 11.1647C6.82325 10.8882 6.88345 10.3709 6.90798 9.90041C6.92136 9.64398 6.93697 9.421 6.94143 9.40762C6.95258 9.36748 7.18002 9.30504 7.3651 9.2939C7.54126 9.28275 7.69288 9.30059 8.21244 9.39424C8.33508 9.41654 8.45772 9.44775 8.48225 9.46113C8.56029 9.5035 8.59151 9.61276 8.59151 9.85582C8.58928 10.1279 8.51793 11.6508 8.49786 11.7735C8.48671 11.8627 8.48671 11.8627 8.86132 11.4925C9.0687 11.2874 9.40317 10.9685 9.60609 10.779C9.809 10.5917 10.0587 10.3598 10.1613 10.2616C10.4155 10.0231 10.5426 9.92494 10.692 9.85359C10.8994 9.75547 11.1068 9.71088 11.361 9.71088C11.5594 9.71088 11.6486 9.71979 11.8738 9.76662C11.934 9.78 11.9786 9.9071 12.0255 10.2014C12.0812 10.5493 12.0611 10.9038 11.9496 11.6508C11.9006 11.963 11.8694 12.3867 11.8917 12.3867C11.9942 12.3867 13.6443 10.828 13.8718 10.5158C14.0189 10.3152 14.3378 10.1078 14.679 9.98961C14.8172 9.94055 14.902 9.92717 15.0469 9.92494C15.2164 9.92271 15.2476 9.9294 15.3412 9.98515C15.504 10.081 15.5062 10.11 15.3903 10.6853C15.3345 10.9529 15.281 11.2227 15.2699 11.2829C15.261 11.3453 15.2409 11.439 15.2275 11.4947C15.2141 11.5505 15.1673 11.7601 15.1227 11.963C15.0781 12.1659 15.0268 12.3911 15.0112 12.4647C14.9644 12.661 14.9466 13.0958 14.9778 13.2028C15.0201 13.3388 15.0959 13.5016 15.1205 13.5016C15.1539 13.5016 15.339 13.3589 15.426 13.2675C15.4683 13.2206 15.5553 13.1448 15.6155 13.0958C15.6779 13.0467 15.7738 12.9508 15.8296 12.8862L15.9321 12.7635L15.9455 12.4915C15.9745 11.8783 16.1574 11.352 16.6479 10.4713C16.9846 9.8625 17.1987 9.52134 17.3035 9.41877C17.4529 9.27383 17.5198 9.26268 18.1441 9.27829C19.1163 9.29836 19.7184 9.38086 19.9481 9.51911C20.0172 9.56148 20.1153 9.6083 20.1621 9.62614C20.238 9.65067 20.3985 9.81568 20.3985 9.86696C20.3985 9.88703 19.9169 9.97846 19.8165 9.97846C19.7742 9.97846 19.6939 9.96285 19.6359 9.94724C19.4977 9.90487 19.0205 9.82237 18.9134 9.82237C18.6838 9.82237 18.3827 10.168 18.0906 10.77C17.8007 11.3632 17.609 11.9363 17.5109 12.5093C17.4663 12.768 17.4395 13.3232 17.473 13.3232C17.5153 13.3232 17.7227 13.1448 17.7918 13.0489C17.8297 12.9977 17.9278 12.8527 18.0081 12.7256C18.6659 11.7133 18.8287 11.4992 19.4687 10.799C19.7229 10.5181 19.7296 10.5181 20.1978 10.5448C20.5301 10.5649 20.7062 10.5939 20.8311 10.6452C21.0206 10.7277 21.0162 10.8459 20.8043 11.4524C20.6928 11.7757 20.6126 12.1436 20.5546 12.5941C20.5145 12.9129 20.5122 12.9798 20.5457 13.1047C20.5546 13.1314 20.6527 13.0467 20.9181 12.7814C21.2994 12.4001 21.5937 12.157 22.0084 11.885C22.2493 11.7244 22.2939 11.7021 22.2939 11.7311C22.2939 11.7601 21.9059 12.4491 21.7565 12.6877C21.694 12.7858 21.5112 13.04 21.3484 13.2519C21.1879 13.4659 21.0206 13.6889 20.9783 13.7469C20.8467 13.9275 20.6973 14.0278 20.4453 14.1037C20.2157 14.175 19.986 14.1594 19.7407 14.0568C19.4285 13.9297 19.2836 13.7357 19.0361 13.1337C18.938 12.8906 18.9313 12.8862 18.8733 12.9731C18.6949 13.234 18.5321 13.4748 18.5098 13.5128C18.4965 13.5373 18.4362 13.6376 18.3783 13.7357C18.2489 13.9587 18.0772 14.1237 17.9189 14.1817C17.8164 14.2196 17.7428 14.2263 17.3659 14.2263C16.9779 14.2263 16.911 14.2196 16.7416 14.175C16.6368 14.146 16.4918 14.0903 16.4182 14.0524C16.2421 13.9587 16.0592 13.7736 16.028 13.6599L16.0035 13.5707L15.8429 13.6755C15.5464 13.8718 15.2966 13.952 14.9443 13.9654C14.5875 13.9788 14.34 13.9164 13.8918 13.6978C13.6867 13.5975 13.6622 13.5663 13.6198 13.35C13.5351 12.9263 13.6912 12.2886 14.1327 11.2606C14.311 10.8414 14.3423 10.7032 14.2397 10.7968C14.2129 10.8191 13.874 11.2361 13.4815 11.7244C13.0913 12.2128 12.7033 12.6743 12.6231 12.7501C12.5428 12.826 12.4558 12.9085 12.4291 12.933C12.215 13.1381 11.8761 13.4347 11.8114 13.4748C11.749 13.5128 11.6954 13.5239 11.5773 13.5239C11.4925 13.5239 11.3922 13.515 11.3565 13.5038C10.973 13.3812 10.643 13.1381 10.5315 12.8929C10.4512 12.7212 10.4378 12.4513 10.4824 11.9742C10.5025 11.7668 10.5248 11.5059 10.5315 11.3966C10.5404 11.2874 10.5538 11.1469 10.5671 11.0845C10.5939 10.9306 10.6563 10.3285 10.6452 10.3174C10.6274 10.3018 10.5069 10.3776 10.3999 10.4735C10.3397 10.5248 10.2126 10.6697 10.1145 10.7923C10.0186 10.915 9.92941 11.0265 9.91826 11.0421C9.90711 11.0555 9.86475 11.1201 9.82684 11.187C9.70866 11.3788 9.52804 11.6152 9.33182 11.8359C9.11329 12.079 8.90592 12.3332 8.80334 12.487C8.76098 12.5495 8.60043 12.7234 8.44434 12.8772C8.24366 13.0757 8.13662 13.2028 8.06973 13.3165C7.96716 13.4949 7.88911 13.5685 7.80215 13.5685C7.77093 13.5685 7.67505 13.5417 7.58808 13.5105C7.50335 13.4793 7.40747 13.4459 7.37625 13.4369C7.12651 13.3522 6.86784 13.2095 6.7898 13.1069L6.74743 13.0534L6.54229 13.263C6.4308 13.3767 6.27917 13.5172 6.20558 13.573C6.08294 13.6666 5.69941 13.9297 5.61022 13.981C5.58792 13.9922 5.45859 14.0724 5.32034 14.1594C4.98586 14.3668 4.95687 14.3824 4.78072 14.4359C4.58003 14.4983 4.28792 14.4939 3.92 14.427ZM4.30576 10.3152C4.88552 9.79561 5.30696 9.3318 5.54109 8.95942C5.59461 8.87023 5.63697 8.78549 5.63251 8.77211C5.62136 8.7409 5.32703 8.66508 5.20884 8.66285C5.16202 8.66285 5.09735 8.68069 5.06168 8.70299C4.91228 8.79441 4.63355 9.06868 4.41056 9.34741C4.24332 9.55479 3.98912 10.0743 3.92669 10.3352C3.89101 10.4824 3.89101 10.4913 3.93115 10.5359C3.95344 10.5604 3.9802 10.5805 3.99135 10.5805C4.00027 10.5805 4.14298 10.4623 4.30576 10.3152Z" fill="#1A2141"/>
<path d="M21.1965 8.95057C21.0917 8.89036 20.6302 8.72312 20.2667 8.61163C20.1686 8.58264 20.1664 8.58041 20.0526 8.32621C19.5777 7.27373 18.7816 6.19449 17.9008 5.42073C16.8283 4.47751 15.671 3.8487 14.3108 3.47185C13.4835 3.24218 12.3909 3.12177 11.6194 3.17305C10.9683 3.21765 10.5781 3.27117 10.0407 3.39158C9.79761 3.44732 9.7151 3.46962 9.41631 3.56105C8.66039 3.79072 7.68818 4.25676 7.09727 4.66928C6.92558 4.78746 6.67583 4.96807 6.64685 4.99483C6.63347 5.00598 6.58887 5.04166 6.54873 5.07288C6.39488 5.18883 6.0158 5.51884 5.95114 5.59243C5.93107 5.61473 5.88424 5.63034 5.83742 5.63034C5.67464 5.63034 4.95663 5.76859 4.65337 5.85555C4.50397 5.89792 4.43262 5.90907 4.43262 5.88454C4.43262 5.87785 4.49505 5.7998 4.56864 5.71061C5.57652 4.54218 6.75165 3.66362 8.11185 3.06602C9.04615 2.65573 9.92471 2.42383 11.0329 2.29227C11.5525 2.23206 12.5515 2.23652 13.1067 2.30342C14.3019 2.44613 15.3454 2.75607 16.3846 3.27563C17.3724 3.77065 18.1394 4.32811 18.9377 5.12639C19.736 5.9269 20.3403 6.7787 20.8353 7.8022C21.0293 8.20357 21.2902 8.86137 21.2902 8.94611C21.2902 8.97955 21.2501 8.98178 21.1965 8.95057Z" fill="#1A2141"/>
<path d="M2.25861 7.73309C2.17834 7.71525 2.08023 7.67289 2.01779 7.62829C1.95312 7.58146 1.79481 7.31388 1.77028 7.20908C1.74129 7.08421 1.85501 7.04853 2.38571 7.01285C2.97885 6.97272 3.5207 6.89244 4.08708 6.75642C4.2231 6.7252 4.42825 6.67838 4.5442 6.65385C4.66015 6.63155 4.90766 6.58027 5.09051 6.54236C5.34248 6.48884 5.48965 6.471 5.68141 6.46877C5.92447 6.46654 5.94454 6.46877 6.08279 6.53567C6.30354 6.6427 6.39942 6.72297 6.44848 6.84562C6.48193 6.93035 6.48416 6.95488 6.46186 6.96826C6.39496 7.00839 5.49188 7.16671 4.65569 7.28266C4.10938 7.35848 3.61212 7.45659 3.10595 7.59038C2.74249 7.68627 2.35004 7.75316 2.25861 7.73309Z" fill="#1A2141"/>
</svg>
