<svg width="24" height="24" viewBox="0 0 24 24" fill="none" xmlns="http://www.w3.org/2000/svg">
  <path d="M16.7198 20.1C16.8531 18.4666 17.3198 16.3 17.9198 14.5333C18.4864 12.9666 18.8531 11.6 18.7864 11.5C18.4531 11.2 15.5864 17.8 15.1864 19.7666L14.7864 21.8L14.0198 20.6333C12.0198 17.7666 12.4531 14.9 15.2531 12.1333C16.7198 10.7 20.5864 8.1333 21.3198 8.1333C21.3864 8.1333 21.4531 9.2333 21.4864 10.5333C21.4864 11.8666 21.6198 14.4666 21.7531 16.3C21.9198 18.5 21.8864 19.9333 21.6531 20.5333C21.1864 21.7666 19.4198 22.8 17.8198 22.8H16.5198L16.7198 20.1Z" fill="black"/>
  <path d="M8.01988 21.1665C1.58655 18.9332 0.21988 12.3665 4.35321 3.4665L5.65321 0.666504L6.61988 2.3665C7.18655 3.33317 9.01988 5.3665 10.9199 7.13317L14.2199 10.1998L12.9532 11.8665C11.6199 13.6665 10.9532 15.3665 10.9532 17.1665C10.9199 18.2665 10.9199 18.2665 10.4199 17.6332C9.45321 16.3998 7.71988 12.6665 6.78655 9.8665C6.28655 8.33317 5.78655 7.1665 5.71988 7.2665C5.41988 7.5665 6.98655 14.2665 7.95321 16.7332C8.45321 18.0665 9.28655 19.6665 9.75321 20.2998C11.0865 22.0665 10.8865 22.1665 8.01988 21.1665Z" fill="black"/>
</svg>
