<svg width="147" height="27" viewBox="0 0 147 27" fill="none" xmlns="http://www.w3.org/2000/svg">
<path fill-rule="evenodd" clip-rule="evenodd" d="M29.2769 22.6769C29.2769 25.1199 28.4269 26.1189 26.1119 26.1189H5.56988C3.25388 26.1189 2.40488 25.1199 2.40488 22.6769V17.9199C2.40488 15.6259 1.29988 14.3299 0.237884 13.7359C0.164822 13.6916 0.104413 13.6293 0.0624869 13.5548C0.0205612 13.4804 -0.00146484 13.3964 -0.00146484 13.3109C-0.00146484 13.2255 0.0205612 13.1415 0.0624869 13.0671C0.104413 12.9926 0.164822 12.9302 0.237884 12.8859C1.34288 12.1849 2.40488 10.7189 2.40488 8.76494V4.08994C2.40488 1.45594 3.12688 0.689941 5.44188 0.689941H26.2399C28.5559 0.689941 29.2779 1.45594 29.2779 4.08994V8.76294C29.2779 10.7169 30.3399 12.1829 31.4439 12.8829C31.7639 13.0959 31.7639 13.5429 31.4439 13.7329C30.3819 14.3489 29.2779 15.6449 29.2779 17.9179V22.6759L29.2769 22.6769ZM9.81888 19.5549C11.4969 21.0199 13.3029 21.7639 15.7889 21.7639C19.6969 21.7639 22.2459 19.8099 22.2459 16.6439C22.2459 13.2919 19.2099 12.4369 16.7409 11.7419C15.0479 11.2649 13.6209 10.8629 13.6209 9.78294C13.6209 9.08294 14.3649 8.40294 15.6179 8.40294C16.8289 8.40294 17.8279 8.65794 18.7829 9.14594C19.1019 9.29494 19.3989 9.40094 19.6749 9.40094C20.0789 9.40094 20.3979 9.20994 20.6739 8.82794L21.0559 8.25394C21.2049 8.04194 21.2689 7.80794 21.2689 7.55394C21.2689 7.12794 21.0559 6.70394 20.7379 6.49094C19.4629 5.68394 17.7419 5.00394 15.4059 5.00394C12.0919 5.00394 9.54288 6.74594 9.54288 9.86794C9.54288 13.3589 12.6449 14.2449 15.1289 14.9529C16.7859 15.4259 18.1669 15.8199 18.1669 16.8569C18.1669 17.8549 17.2329 18.3439 16.0639 18.3439C14.6602 18.3573 13.2846 17.9505 12.1139 17.1759C11.7519 16.9419 11.4119 16.7929 11.0509 16.7929C10.7319 16.7929 10.4559 16.9419 10.2009 17.2609L9.69088 17.9189C9.50088 18.1319 9.43688 18.4079 9.43688 18.6629C9.43688 18.9809 9.54288 19.2999 9.81888 19.5549V19.5549ZM41.5549 17.5999C41.2789 17.5999 41.0449 17.7069 40.8329 17.9829L40.4079 18.5779C40.2379 18.7679 40.1949 19.0019 40.1949 19.2149C40.1949 19.4909 40.3009 19.7669 40.5349 19.9799C41.9369 21.1899 43.4669 21.8279 45.5699 21.8279C48.8619 21.8279 51.0289 20.1709 51.0289 17.5149C51.0289 14.6909 48.4609 13.9699 46.3749 13.3839C44.9459 12.9819 43.7429 12.6439 43.7429 11.7379C43.7429 11.1219 44.3799 10.5689 45.4209 10.5689C46.3442 10.5657 47.2548 10.7845 48.0759 11.2069L48.1399 11.2309C48.3919 11.3289 48.6249 11.4189 48.8399 11.4189C49.1599 11.4189 49.4359 11.2699 49.6699 10.9299L50.0099 10.4419C50.1246 10.2572 50.1837 10.0434 50.1799 9.82594C50.1799 9.46494 50.0099 9.10394 49.7329 8.93394C48.6499 8.21094 47.2049 7.65894 45.2299 7.65894C42.4469 7.65894 40.2799 9.14594 40.2799 11.7799C40.2799 14.7069 42.8949 15.4539 44.9919 16.0519C46.3949 16.4519 47.5659 16.7869 47.5659 17.6639C47.5659 18.5349 46.7799 18.9389 45.7819 18.9389C44.4859 18.9389 43.4019 18.5779 42.4469 17.9399C42.1709 17.7279 41.8309 17.5999 41.5549 17.5999V17.5999ZM61.8409 19.8949C61.8443 19.7137 61.7923 19.5358 61.6919 19.3849L61.4159 18.9389C61.1609 18.4929 60.8639 18.3229 60.4809 18.3229C60.2909 18.3229 60.0779 18.3649 59.8009 18.4709C59.5259 18.5779 59.2069 18.6199 58.8459 18.6199C57.7199 18.6199 57.2309 17.6429 57.2309 16.1769V11.2499H60.4809C61.0969 11.2499 61.6069 10.7399 61.6069 10.1239V9.10394C61.6069 8.48894 61.0969 7.97894 60.4809 7.97894H57.2309V5.34494C57.2309 4.72894 56.7209 4.21894 56.1059 4.21894H54.8949C54.2789 4.21894 53.7689 4.72894 53.7689 5.34494V16.3049C53.7689 19.7679 54.9159 21.7439 57.9539 21.7439C59.2919 21.7439 60.3119 21.4679 61.3309 20.8509C61.6709 20.6809 61.8409 20.2779 61.8409 19.8959V19.8949ZM68.7229 13.1399C65.9829 13.1399 63.7949 14.5419 63.7949 17.5149C63.7949 20.1279 65.5579 21.6579 67.9589 21.6789C69.7849 21.6789 71.2289 20.9779 71.9519 19.9589V20.4039C71.9519 21.0199 72.4619 21.5299 73.0779 21.5299H73.8639C74.4799 21.5299 74.9899 21.0199 74.9899 20.4039V13.3099C74.9899 9.74194 73.6089 7.70294 69.6159 7.70294C68.2349 7.70294 66.8959 8.06294 65.7279 8.59494C65.3679 8.76494 65.0909 9.16794 65.0909 9.55094C65.096 9.67333 65.1238 9.7937 65.1729 9.90594C65.1889 9.95094 65.2059 9.99594 65.2179 10.0389L65.3879 10.3999C65.6009 10.8249 65.9619 11.0379 66.4079 11.0379C66.5419 11.0379 66.6889 10.9979 66.8289 10.9599L66.9389 10.9309C67.5759 10.7189 68.2349 10.5709 69.2539 10.5709C71.1239 10.5709 71.7609 11.6319 71.7609 13.6079V14.0119C71.1019 13.5229 69.9129 13.1409 68.7229 13.1409V13.1399ZM69.4029 15.4549C70.3799 15.4549 71.1449 15.6669 71.7609 16.1139H71.7819V17.5149C71.3569 18.0889 70.6139 18.7259 69.1689 18.7259C68.0649 18.7259 67.2359 18.1529 67.2359 17.1329C67.2359 15.9859 68.2559 15.4549 69.4029 15.4549V15.4549ZM86.3119 19.8949C86.3153 19.7137 86.2633 19.5358 86.1629 19.3849L85.8869 18.9389C85.6319 18.4929 85.3349 18.3229 84.9519 18.3229C84.7619 18.3229 84.5489 18.3649 84.2719 18.4709C83.9959 18.5779 83.6779 18.6199 83.3169 18.6199C82.1909 18.6199 81.7019 17.6429 81.7019 16.1769V11.2499H84.9519C85.5679 11.2499 86.0779 10.7399 86.0779 10.1239V9.10394C86.0779 8.48894 85.5679 7.97894 84.9519 7.97894H81.7019V5.34494C81.7019 4.72894 81.1919 4.21894 80.5759 4.21894H79.3659C78.7499 4.21894 78.2399 4.72894 78.2399 5.34494V16.3049C78.2399 19.7679 79.3869 21.7439 82.4239 21.7439C83.7629 21.7439 84.7819 21.4679 85.8019 20.8509C86.1419 20.6809 86.3119 20.2779 86.3119 19.8959V19.8949ZM93.1939 13.1399C90.4539 13.1399 88.2659 14.5419 88.2659 17.5149C88.2659 20.1279 90.0499 21.6579 92.4289 21.6789C94.2559 21.6789 95.7009 20.9779 96.4229 19.9589V20.4039C96.4229 21.0199 96.9329 21.5299 97.5489 21.5299H98.3349C98.9509 21.5299 99.4609 21.0199 99.4609 20.4039V13.3099C99.4609 9.74194 98.0799 7.70294 94.0859 7.70294C92.7059 7.70294 91.3669 8.06294 90.1989 8.59494C89.8379 8.76494 89.5619 9.16794 89.5619 9.55094C89.567 9.67333 89.5948 9.7937 89.6439 9.90594C89.6599 9.95094 89.6769 9.99594 89.6889 10.0389L89.8589 10.3999C90.0719 10.8249 90.4329 11.0379 90.8789 11.0379C91.0129 11.0379 91.1599 10.9979 91.2989 10.9599L91.4089 10.9309C92.0469 10.7189 92.7059 10.5709 93.7249 10.5709C95.5949 10.5709 96.2319 11.6319 96.2319 13.6079V14.0119C95.5729 13.5229 94.3839 13.1409 93.1939 13.1409V13.1399ZM93.8739 15.4549C94.8509 15.4549 95.6159 15.6669 96.2319 16.1139H96.2529V17.5149C95.8279 18.0889 95.0849 18.7259 93.6399 18.7259C92.5359 18.7259 91.7069 18.1529 91.7069 17.1329C91.7069 15.9859 92.7269 15.4549 93.8739 15.4549V15.4549ZM110.676 7.74494C109.019 7.74494 107.426 8.40294 106.47 9.46494H106.407V9.08194C106.407 8.46594 105.897 7.95594 105.281 7.95594H104.07C103.454 7.95594 102.944 8.46594 102.944 9.08194V20.3619C102.944 20.9779 103.454 21.4879 104.07 21.4879H105.281C105.897 21.4879 106.407 20.9779 106.407 20.3619V12.4169C107.023 11.5039 108.021 10.9729 109.232 10.9729C110.676 10.9729 111.462 11.8859 111.462 13.3099V20.3199C111.462 20.9349 111.972 21.4449 112.588 21.4449H113.799C114.415 21.4449 114.925 20.9349 114.925 20.3189V13.5009C114.925 13.3249 114.918 13.1049 114.913 12.9069C114.908 12.7449 114.903 12.5969 114.903 12.5019C115.371 11.5889 116.39 10.9519 117.686 10.9519C119.322 10.9519 120.002 11.8649 120.002 13.5429V20.3619C120.002 20.9779 120.511 21.4879 121.127 21.4879H122.338C122.954 21.4879 123.464 20.9779 123.464 20.3619V12.6719C123.464 8.95494 121.616 7.74394 119.152 7.74394C117.07 7.74394 115.562 8.63594 114.606 9.91094C114.118 8.67894 112.737 7.74394 110.676 7.74394V7.74494ZM129.284 5.27994C130.261 5.27994 131.26 4.49394 131.26 3.11294C131.26 1.90294 130.261 1.11694 129.284 1.11694C128.116 1.11694 127.118 1.90294 127.118 3.11294C127.118 4.49394 128.116 5.27994 129.284 5.27994ZM130.941 9.10394C130.941 8.48794 130.431 7.97794 129.815 7.97794V7.95594H128.605C127.989 7.95594 127.479 8.46594 127.479 9.08194V20.3619C127.479 20.9779 127.989 21.4879 128.605 21.4879H129.815C130.431 21.4879 130.941 20.9779 130.941 20.3619V9.10394V9.10394ZM141.881 10.8879C142.752 10.8879 143.453 11.0369 144.26 11.4189C144.403 11.4989 144.558 11.5299 144.698 11.5589L144.833 11.5889C145.237 11.5889 145.619 11.3339 145.853 10.9519L146.299 10.1659C146.405 10.0169 146.427 9.84694 146.427 9.67694C146.427 9.29494 146.235 8.84894 145.896 8.67894C144.579 7.95594 143.262 7.65894 141.456 7.65894C137.335 7.65894 134.467 10.8029 134.467 14.7329C134.467 18.9809 137.42 21.8059 141.881 21.8059C143.559 21.8059 144.982 21.5089 146.597 20.2129C146.851 20.0219 147 19.6179 147 19.2569C147 19.0239 146.936 18.7899 146.788 18.6409L146.278 18.0039C146.165 17.8643 146.023 17.7518 145.861 17.6746C145.699 17.5974 145.522 17.5575 145.343 17.5579C145.11 17.5579 144.855 17.6429 144.621 17.7919C143.835 18.3019 143.07 18.5779 142.008 18.5779C139.969 18.5779 138.121 17.0909 138.121 14.7119C138.121 12.3539 139.948 10.8879 141.881 10.8879V10.8879Z" fill="#9FA6B2"/>
</svg>
