<svg viewBox="0 0 195 154" xmlns="http://www.w3.org/2000/svg"><g fill="none" fill-rule="evenodd" transform="translate(-111 -13)"><rect height="222.29" rx="16.0058" width="437.6" x=".410405" y=".29712"/><path d="m143.962 142.966-.588-1.722c-.187-.551-.364-1.078-.532-1.582s-.332-1.041-.49-1.61h-.056c-.159.569-.322 1.106-.49 1.61s-.346 1.031-.532 1.582l-.588 1.722zm.182.546h-3.654l-1.092 3.164h-.644l3.248-9.226h.644l3.248 9.226h-.672zm2.595-.182c0-.542.079-1.032.238-1.47.158-.439.373-.812.644-1.12.28-.308.597-.542.952-.7.364-.168.746-.252 1.148-.252.41 0 .765.074 1.064.224.308.14.63.34.966.602l-.028-1.232v-2.772h.616v10.066h-.532l-.056-.868h-.042c-.271.27-.593.513-.966.728-.364.205-.77.308-1.218.308-.85 0-1.526-.299-2.03-.896-.504-.607-.756-1.48-.756-2.618zm.658 0c0 .448.046.854.14 1.218.102.364.247.676.434.938.186.252.415.452.686.602.28.14.597.21.952.21.373 0 .728-.094 1.064-.28.345-.196.695-.472 1.05-.826v-3.99c-.355-.318-.691-.542-1.008-.672-.308-.131-.626-.196-.952-.196-.336 0-.649.079-.938.238-.29.149-.542.359-.756.63-.206.261-.369.578-.49.952-.122.364-.182.756-.182 1.176zm6.957 0c0-.542.079-1.032.238-1.47.159-.439.373-.812.644-1.12.28-.308.597-.542.952-.7.364-.168.747-.252 1.148-.252.411 0 .765.074 1.064.224.308.14.63.34.966.602l-.028-1.232v-2.772h.616v10.066h-.532l-.056-.868h-.042c-.271.27-.593.513-.966.728-.364.205-.77.308-1.218.308-.849 0-1.526-.299-2.03-.896-.504-.607-.756-1.48-.756-2.618zm.658 0c0 .448.047.854.14 1.218.103.364.247.676.434.938.187.252.415.452.686.602.28.14.597.21.952.21.373 0 .728-.094 1.064-.28.345-.196.695-.472 1.05-.826v-3.99c-.355-.318-.691-.542-1.008-.672-.308-.131-.625-.196-.952-.196-.336 0-.649.079-.938.238-.289.149-.541.359-.756.63-.205.261-.369.578-.49.952-.121.364-.182.756-.182 1.176zm9.746 0c0-.551.08-1.046.238-1.484.168-.439.388-.808.658-1.106.28-.308.593-.542.938-.7.355-.168.719-.252 1.092-.252.803 0 1.433.27 1.89.812.458.541.686 1.306.686 2.296v.252c0 .084-.009.168-.028.252h-4.844c.01.42.075.812.196 1.176.122.354.29.662.504.924.224.252.49.452.798.602.308.14.654.21 1.036.21.364 0 .691-.052.98-.154.299-.112.574-.262.826-.448l.252.476c-.27.158-.569.308-.896.448-.317.14-.723.21-1.218.21-.429 0-.835-.08-1.218-.238-.373-.159-.7-.388-.98-.686-.28-.308-.504-.677-.672-1.106-.158-.439-.238-.934-.238-1.484zm4.914-.406c0-.868-.177-1.517-.532-1.946-.354-.439-.835-.658-1.442-.658-.289 0-.564.06-.826.182-.261.121-.499.294-.714.518-.205.224-.378.499-.518.826-.13.317-.214.676-.252 1.078zm2.414-2.968h.532l.056 1.036h.042c.298-.346.63-.63.994-.854.373-.234.746-.35 1.12-.35.541 0 .956.126 1.246.378.289.242.494.574.616.994.392-.42.77-.752 1.134-.994.373-.252.756-.378 1.148-.378 1.344 0 2.016.858 2.016 2.576v4.312h-.63v-4.228c0-.719-.122-1.246-.364-1.582-.243-.346-.621-.518-1.134-.518-.607 0-1.279.42-2.016 1.26v5.068h-.616v-4.228c0-.719-.122-1.246-.364-1.582-.243-.346-.626-.518-1.148-.518-.607 0-1.279.42-2.016 1.26v5.068h-.616zm10.983 5.04c0-.738.35-1.302 1.05-1.694s1.797-.672 3.29-.84c.009-.252-.009-.504-.056-.756-.037-.262-.117-.49-.238-.686-.112-.206-.275-.369-.49-.49-.205-.131-.471-.196-.798-.196-.457 0-.873.088-1.246.266-.373.177-.672.35-.896.518l-.28-.462c.121-.084.266-.178.434-.28.177-.103.369-.196.574-.28.215-.084.448-.154.7-.21.252-.066.513-.098.784-.098.401 0 .737.07 1.008.21.271.13.49.312.658.546.168.233.285.508.35.826.075.308.112.644.112 1.008v4.298h-.518l-.07-.868h-.028c-.345.27-.719.513-1.12.728-.392.205-.812.308-1.26.308-.271 0-.523-.038-.756-.112-.233-.075-.443-.187-.63-.336-.177-.15-.317-.341-.42-.574-.103-.234-.154-.509-.154-.826zm.644-.028c0 .485.14.83.42 1.036.28.205.611.308.994.308.392 0 .765-.094 1.12-.28.355-.187.742-.458 1.162-.812v-2.282c-.691.084-1.274.186-1.75.308-.467.121-.845.266-1.134.434s-.499.359-.63.574c-.121.214-.182.452-.182.714zm7.042-6.636c-.158 0-.294-.052-.406-.154-.102-.103-.154-.234-.154-.392 0-.178.052-.313.154-.406.112-.103.248-.154.406-.154.159 0 .29.051.392.154.112.093.168.228.168.406 0 .158-.056.289-.168.392-.102.102-.233.154-.392.154zm-.322 1.624h.616v6.72h-.616zm3.2-3.346h.616v9.254c0 .149.028.261.084.336.056.065.126.098.21.098h.084c.037 0 .093-.01.168-.028l.112.504c-.066.018-.131.032-.196.042-.066.018-.15.028-.252.028-.551 0-.826-.355-.826-1.064zm2.846 8.848c.289.242.597.448.924.616.327.158.733.238 1.218.238.532 0 .929-.131 1.19-.392.271-.271.406-.584.406-.938 0-.206-.051-.388-.154-.546-.093-.159-.219-.294-.378-.406s-.336-.21-.532-.294c-.187-.084-.378-.164-.574-.238-.252-.094-.509-.192-.77-.294-.252-.103-.481-.224-.686-.364-.205-.15-.373-.322-.504-.518-.121-.206-.182-.453-.182-.742 0-.243.047-.472.14-.686.093-.224.233-.416.42-.574.187-.168.411-.299.672-.392.271-.094.583-.14.938-.14s.7.065 1.036.196c.345.13.639.298.882.504l-.336.434c-.224-.168-.462-.308-.714-.42-.252-.122-.551-.182-.896-.182-.261 0-.485.037-.672.112-.187.065-.345.154-.476.266-.121.112-.215.242-.28.392-.056.149-.084.298-.084.448 0 .196.042.364.126.504.093.13.215.247.364.35.149.102.317.196.504.28.196.074.392.149.588.224.261.102.523.205.784.308.261.102.495.228.7.378.215.149.387.336.518.56.131.214.196.485.196.812 0 .252-.051.494-.154.728-.093.224-.238.424-.434.602-.196.168-.434.303-.714.406-.28.102-.602.154-.966.154-.504 0-.966-.089-1.386-.266-.42-.187-.779-.406-1.078-.658zm9.093-4.97h-1.05v-.476l1.064-.056.084-1.946h.532v1.946h1.946v.532h-1.946v4.382c0 .214.014.41.042.588.037.168.098.317.182.448.084.121.196.219.336.294.149.065.341.098.574.098.131 0 .271-.019.42-.056.159-.047.299-.098.42-.154l.168.504c-.196.074-.392.135-.588.182-.196.046-.364.07-.504.07-.327 0-.597-.052-.812-.154-.215-.094-.387-.229-.518-.406-.131-.178-.224-.392-.28-.644-.047-.252-.07-.528-.07-.826zm3.51 2.842c0-.56.08-1.06.238-1.498.168-.448.388-.822.658-1.12.28-.299.602-.528.966-.686.364-.159.747-.238 1.148-.238.402 0 .784.079 1.148.238.374.158.696.387.966.686.28.298.5.672.658 1.12.168.438.252.938.252 1.498s-.084 1.059-.252 1.498c-.158.429-.378.793-.658 1.092-.27.298-.592.527-.966.686-.364.158-.746.238-1.148.238-.401 0-.784-.08-1.148-.238-.364-.159-.686-.388-.966-.686-.27-.299-.49-.663-.658-1.092-.158-.439-.238-.938-.238-1.498zm.644 0c0 .438.061.84.182 1.204.122.364.285.676.49.938.215.261.467.466.756.616.29.14.602.21.938.21s.649-.07.938-.21c.299-.15.551-.355.756-.616.215-.262.383-.574.504-.938.122-.364.182-.766.182-1.204 0-.448-.06-.854-.182-1.218-.121-.364-.289-.677-.504-.938-.205-.271-.457-.476-.756-.616-.289-.15-.602-.224-.938-.224s-.648.074-.938.224c-.289.14-.541.345-.756.616-.205.261-.368.574-.49.938-.121.364-.182.77-.182 1.218zm10.226 4.662c0 .42.191.76.574 1.022.392.261.947.392 1.666.392.373 0 .714-.052 1.022-.154.308-.094.569-.22.784-.378.214-.159.378-.341.49-.546.121-.196.182-.402.182-.616 0-.374-.136-.64-.406-.798-.262-.15-.644-.224-1.148-.224h-1.442c-.075 0-.192-.005-.35-.014-.15-.019-.313-.052-.49-.098-.308.214-.532.443-.672.686-.14.242-.21.485-.21.728zm-.588.056c0-.299.088-.588.266-.868.177-.28.42-.532.728-.756v-.056c-.168-.103-.308-.243-.42-.42-.112-.178-.168-.397-.168-.658 0-.299.084-.551.252-.756.168-.215.326-.374.476-.476v-.056c-.215-.187-.411-.439-.588-.756-.168-.318-.252-.682-.252-1.092 0-.346.06-.663.182-.952.121-.29.289-.537.504-.742.214-.215.466-.378.756-.49.289-.122.597-.182.924-.182.186 0 .354.018.504.056.149.028.275.065.378.112h2.282v.518h-1.568c.214.186.392.429.532.728.14.289.21.611.21.966 0 .345-.061.662-.182.952-.122.289-.29.541-.504.756-.206.205-.453.368-.742.49-.28.112-.584.168-.91.168-.187 0-.383-.024-.588-.07-.196-.047-.374-.117-.532-.21-.15.121-.28.256-.392.406-.103.149-.154.336-.154.56 0 .242.088.452.266.63.177.168.518.252 1.022.252h1.442c.756 0 1.311.126 1.666.378.364.242.546.63.546 1.162 0 .289-.075.569-.224.84-.15.28-.364.522-.644.728-.271.214-.602.382-.994.504-.392.13-.831.196-1.316.196-.85 0-1.522-.168-2.016-.504-.495-.336-.742-.789-.742-1.358zm2.66-4.004c.233 0 .452-.042.658-.126.214-.094.401-.224.56-.392.158-.168.284-.369.378-.602.093-.234.14-.49.14-.77s-.047-.537-.14-.77c-.094-.234-.22-.43-.378-.588-.15-.159-.332-.28-.546-.364-.215-.094-.439-.14-.672-.14-.243 0-.472.046-.686.14-.206.084-.388.205-.546.364-.159.158-.285.354-.378.588-.094.224-.14.48-.14.77 0 .28.046.536.14.77.093.233.219.434.378.602.168.168.354.298.56.392.214.084.438.126.672.126zm4.012-.714c0-.551.079-1.046.238-1.484.168-.439.387-.808.658-1.106.28-.308.592-.542.938-.7.354-.168.718-.252 1.092-.252.802 0 1.432.27 1.89.812.457.541.686 1.306.686 2.296v.252c0 .084-.01.168-.028.252h-4.844c.009.42.074.812.196 1.176.121.354.289.662.504.924.224.252.49.452.798.602.308.14.653.21 1.036.21.364 0 .69-.052.98-.154.298-.112.574-.262.826-.448l.252.476c-.271.158-.57.308-.896.448-.318.14-.724.21-1.218.21-.43 0-.836-.08-1.218-.238-.374-.159-.7-.388-.98-.686-.28-.308-.504-.677-.672-1.106-.159-.439-.238-.934-.238-1.484zm4.914-.406c0-.868-.178-1.517-.532-1.946-.355-.439-.836-.658-1.442-.658-.29 0-.565.06-.826.182-.262.121-.5.294-.714.518-.206.224-.378.499-.518.826-.131.317-.215.676-.252 1.078zm2.417-2.436h-1.05v-.476l1.064-.056.084-1.946h.532v1.946h1.946v.532h-1.946v4.382c0 .214.014.41.042.588.037.168.098.317.182.448.084.121.196.219.336.294.149.065.34.098.574.098.13 0 .27-.019.42-.056.158-.047.298-.098.42-.154l.168.504c-.196.074-.392.135-.588.182-.196.046-.364.07-.504.07-.327 0-.598-.052-.812-.154-.215-.094-.388-.229-.518-.406-.131-.178-.224-.392-.28-.644-.047-.252-.07-.528-.07-.826zm6.52 4.97c.289.242.597.448.924.616.327.158.733.238 1.218.238.532 0 .929-.131 1.19-.392.271-.271.406-.584.406-.938 0-.206-.051-.388-.154-.546-.093-.159-.219-.294-.378-.406s-.336-.21-.532-.294c-.187-.084-.378-.164-.574-.238-.252-.094-.509-.192-.77-.294-.252-.103-.481-.224-.686-.364-.205-.15-.373-.322-.504-.518-.121-.206-.182-.453-.182-.742 0-.243.047-.472.14-.686.093-.224.233-.416.42-.574.187-.168.411-.299.672-.392.271-.094.583-.14.938-.14s.7.065 1.036.196c.345.13.639.298.882.504l-.336.434c-.224-.168-.462-.308-.714-.42-.252-.122-.551-.182-.896-.182-.261 0-.485.037-.672.112-.187.065-.345.154-.476.266-.121.112-.215.242-.28.392-.056.149-.084.298-.084.448 0 .196.042.364.126.504.093.13.215.247.364.35.149.102.317.196.504.28.196.074.392.149.588.224.261.102.523.205.784.308.261.102.495.228.7.378.215.149.387.336.518.56.131.214.196.485.196.812 0 .252-.051.494-.154.728-.093.224-.238.424-.434.602-.196.168-.434.303-.714.406-.28.102-.602.154-.966.154-.504 0-.966-.089-1.386-.266-.42-.187-.779-.406-1.078-.658zm6.304-4.97h-1.05v-.476l1.064-.056.084-1.946h.532v1.946h1.946v.532h-1.946v4.382c0 .214.014.41.042.588.037.168.098.317.182.448.084.121.196.219.336.294.149.065.341.098.574.098.131 0 .271-.019.42-.056.159-.047.299-.098.42-.154l.168.504c-.196.074-.392.135-.588.182-.196.046-.364.07-.504.07-.327 0-.597-.052-.812-.154-.215-.094-.387-.229-.518-.406-.131-.178-.224-.392-.28-.644-.047-.252-.07-.528-.07-.826zm3.529 4.508c0-.738.35-1.302 1.05-1.694s1.796-.672 3.29-.84c.009-.252-.01-.504-.056-.756-.038-.262-.117-.49-.238-.686-.112-.206-.276-.369-.49-.49-.206-.131-.472-.196-.798-.196-.458 0-.873.088-1.246.266-.374.177-.672.35-.896.518l-.28-.462c.121-.084.266-.178.434-.28.177-.103.368-.196.574-.28.214-.084.448-.154.7-.21.252-.066.513-.098.784-.098.401 0 .737.07 1.008.21.27.13.49.312.658.546.168.233.284.508.35.826.074.308.112.644.112 1.008v4.298h-.518l-.07-.868h-.028c-.346.27-.719.513-1.12.728-.392.205-.812.308-1.26.308-.271 0-.523-.038-.756-.112-.234-.075-.444-.187-.63-.336-.178-.15-.318-.341-.42-.574-.103-.234-.154-.509-.154-.826zm.644-.028c0 .485.14.83.42 1.036.28.205.611.308.994.308.392 0 .765-.094 1.12-.28.354-.187.742-.458 1.162-.812v-2.282c-.691.084-1.274.186-1.75.308-.467.121-.845.266-1.134.434-.29.168-.5.359-.63.574-.122.214-.182.452-.182.714zm6.72-5.012h.532l.056 1.246h.042c.224-.42.495-.761.812-1.022.327-.262.691-.392 1.092-.392.131 0 .247.009.35.028.103.018.21.056.322.112l-.14.56c-.112-.047-.21-.075-.294-.084-.084-.019-.191-.028-.322-.028-.299 0-.616.13-.952.392-.327.252-.621.695-.882 1.33v4.578h-.616zm4.597.532h-1.05v-.476l1.064-.056.084-1.946h.532v1.946h1.946v.532h-1.946v4.382c0 .214.014.41.042.588.038.168.098.317.182.448.084.121.196.219.336.294.15.065.341.098.574.098.131 0 .271-.019.42-.056.159-.047.299-.098.42-.154l.168.504c-.196.074-.392.135-.588.182-.196.046-.364.07-.504.07-.326 0-.597-.052-.812-.154-.214-.094-.387-.229-.518-.406-.13-.178-.224-.392-.28-.644-.046-.252-.07-.528-.07-.826zm3.511 2.842c0-.551.079-1.046.238-1.484.168-.439.387-.808.658-1.106.28-.308.593-.542.938-.7.355-.168.719-.252 1.092-.252.803 0 1.433.27 1.89.812.457.541.686 1.306.686 2.296v.252c0 .084-.009.168-.028.252h-4.844c.009.42.075.812.196 1.176.121.354.289.662.504.924.224.252.49.452.798.602.308.14.653.21 1.036.21.364 0 .691-.052.98-.154.299-.112.574-.262.826-.448l.252.476c-.271.158-.569.308-.896.448-.317.14-.723.21-1.218.21-.429 0-.835-.08-1.218-.238-.373-.159-.7-.388-.98-.686-.28-.308-.504-.677-.672-1.106-.159-.439-.238-.934-.238-1.484zm4.914-.406c0-.868-.177-1.517-.532-1.946-.355-.439-.835-.658-1.442-.658-.289 0-.565.06-.826.182-.261.121-.499.294-.714.518-.205.224-.378.499-.518.826-.131.317-.215.676-.252 1.078zm1.853.406c0-.542.08-1.032.238-1.47.159-.439.374-.812.644-1.12.28-.308.598-.542.952-.7.364-.168.747-.252 1.148-.252.411 0 .766.074 1.064.224.308.14.63.34.966.602l-.028-1.232v-2.772h.616v10.066h-.532l-.056-.868h-.042c-.27.27-.592.513-.966.728-.364.205-.77.308-1.218.308-.849 0-1.526-.299-2.03-.896-.504-.607-.756-1.48-.756-2.618zm.658 0c0 .448.047.854.14 1.218.103.364.248.676.434.938.187.252.416.452.686.602.28.14.598.21.952.21.374 0 .728-.094 1.064-.28.346-.196.696-.472 1.05-.826v-3.99c-.354-.318-.69-.542-1.008-.672-.308-.131-.625-.196-.952-.196-.336 0-.648.079-.938.238-.289.149-.541.359-.756.63-.205.261-.368.578-.49.952-.121.364-.182.756-.182 1.176zm-160.854 18.666c0-.738.35-1.302 1.05-1.694s1.797-.672 3.29-.84c.01-.252-.009-.504-.056-.756-.037-.262-.116-.49-.238-.686-.112-.206-.275-.369-.49-.49-.205-.131-.471-.196-.798-.196-.457 0-.872.088-1.246.266-.373.177-.672.35-.896.518l-.28-.462c.122-.084.266-.178.434-.28.178-.103.369-.196.574-.28.215-.084.448-.154.7-.21.252-.066.514-.098.784-.098.402 0 .738.07 1.008.21.271.13.49.312.658.546.168.233.285.508.35.826.075.308.112.644.112 1.008v4.298h-.518l-.07-.868h-.028c-.345.27-.718.513-1.12.728-.392.205-.812.308-1.26.308-.27 0-.522-.038-.756-.112-.233-.075-.443-.187-.63-.336-.177-.15-.317-.341-.42-.574-.102-.234-.154-.509-.154-.826zm.644-.028c0 .485.14.83.42 1.036.28.205.612.308.994.308.392 0 .766-.094 1.12-.28.355-.187.742-.458 1.162-.812v-2.282c-.69.084-1.274.186-1.75.308-.466.121-.844.266-1.134.434-.289.168-.499.359-.63.574-.121.214-.182.452-.182.714zm6.721-5.012h.532l.056 1.036h.042c.345-.346.7-.63 1.064-.854.364-.234.779-.35 1.246-.35.7 0 1.213.21 1.54.63.326.42.49 1.068.49 1.946v4.312h-.616v-4.228c0-.719-.122-1.246-.364-1.582-.234-.346-.626-.518-1.176-.518-.402 0-.766.107-1.092.322-.327.205-.696.518-1.106.938v5.068h-.616zm6.891 3.374c0-.542.079-1.032.238-1.47.159-.439.373-.812.644-1.12.28-.308.597-.542.952-.7.364-.168.747-.252 1.148-.252.411 0 .765.074 1.064.224.308.14.63.34.966.602l-.028-1.232v-2.772h.616v10.066h-.532l-.056-.868h-.042c-.271.27-.593.513-.966.728-.364.205-.77.308-1.218.308-.849 0-1.526-.299-2.03-.896-.504-.607-.756-1.48-.756-2.618zm.658 0c0 .448.047.854.14 1.218.103.364.247.676.434.938.187.252.415.452.686.602.28.14.597.21.952.21.373 0 .728-.094 1.064-.28.345-.196.695-.472 1.05-.826v-3.99c-.355-.318-.691-.542-1.008-.672-.308-.131-.625-.196-.952-.196-.336 0-.649.079-.938.238-.289.149-.541.359-.756.63-.205.261-.369.578-.49.952-.121.364-.182.756-.182 1.176zm10.306-6.72h.616v9.254c0 .149.028.261.084.336.056.065.126.098.21.098h.084c.038 0 .094-.01.168-.028l.112.504c-.065.018-.13.032-.196.042-.065.018-.149.028-.252.028-.55 0-.826-.355-.826-1.064zm2.763 6.72c0-.551.079-1.046.238-1.484.168-.439.387-.808.658-1.106.28-.308.592-.542.938-.7.354-.168.718-.252 1.092-.252.802 0 1.432.27 1.89.812.457.541.686 1.306.686 2.296v.252c0 .084-.01.168-.028.252h-4.844c.009.42.074.812.196 1.176.121.354.289.662.504.924.224.252.49.452.798.602.308.14.653.21 1.036.21.364 0 .69-.052.98-.154.298-.112.574-.262.826-.448l.252.476c-.271.158-.57.308-.896.448-.318.14-.724.21-1.218.21-.43 0-.836-.08-1.218-.238-.374-.159-.7-.388-.98-.686-.28-.308-.504-.677-.672-1.106-.159-.439-.238-.934-.238-1.484zm4.914-.406c0-.868-.178-1.517-.532-1.946-.355-.439-.836-.658-1.442-.658-.29 0-.565.06-.826.182-.262.121-.5.294-.714.518-.206.224-.378.499-.518.826-.131.317-.215.676-.252 1.078zm2.417-2.436h-1.05v-.476l1.064-.056.084-1.946h.532v1.946h1.946v.532h-1.946v4.382c0 .214.014.41.042.588.037.168.098.317.182.448.084.121.196.219.336.294.149.065.34.098.574.098.13 0 .27-.019.42-.056.158-.047.298-.098.42-.154l.168.504c-.196.074-.392.135-.588.182-.196.046-.364.07-.504.07-.327 0-.598-.052-.812-.154-.215-.094-.388-.229-.518-.406-.131-.178-.224-.392-.28-.644-.047-.252-.07-.528-.07-.826zm7.15 0h-1.05v-.476l1.064-.056.084-1.946h.532v1.946h1.946v.532h-1.946v4.382c0 .214.014.41.042.588.037.168.098.317.182.448.084.121.196.219.336.294.149.065.341.098.574.098.131 0 .271-.019.42-.056.159-.047.299-.098.42-.154l.168.504c-.196.074-.392.135-.588.182-.196.046-.364.07-.504.07-.327 0-.597-.052-.812-.154-.215-.094-.387-.229-.518-.406-.131-.178-.224-.392-.28-.644-.047-.252-.07-.528-.07-.826zm4.207-3.878h.616v2.912 1.484c.355-.355.714-.644 1.078-.868.364-.234.78-.35 1.246-.35.7 0 1.214.21 1.54.63.327.42.49 1.068.49 1.946v4.312h-.616v-4.228c0-.719-.121-1.246-.364-1.582-.233-.346-.625-.518-1.176-.518-.401 0-.765.107-1.092.322-.326.205-.695.518-1.106.938v5.068h-.616zm6.837 6.72c0-.551.079-1.046.238-1.484.168-.439.387-.808.658-1.106.28-.308.593-.542.938-.7.355-.168.719-.252 1.092-.252.803 0 1.433.27 1.89.812.457.541.686 1.306.686 2.296v.252c0 .084-.009.168-.028.252h-4.844c.009.42.075.812.196 1.176.121.354.289.662.504.924.224.252.49.452.798.602.308.14.653.21 1.036.21.364 0 .691-.052.98-.154.299-.112.574-.262.826-.448l.252.476c-.271.158-.569.308-.896.448-.317.14-.723.21-1.218.21-.429 0-.835-.08-1.218-.238-.373-.159-.7-.388-.98-.686-.28-.308-.504-.677-.672-1.106-.159-.439-.238-.934-.238-1.484zm4.914-.406c0-.868-.177-1.517-.532-1.946-.355-.439-.835-.658-1.442-.658-.289 0-.565.06-.826.182-.261.121-.499.294-.714.518-.205.224-.378.499-.518.826-.131.317-.215.676-.252 1.078zm4.993-5.376h3.332c.494 0 .956.051 1.386.154.438.093.816.256 1.134.49.326.224.583.527.77.91.186.373.28.835.28 1.386 0 .532-.098.994-.294 1.386-.187.392-.444.714-.77.966-.327.252-.705.438-1.134.56-.43.121-.887.182-1.372.182h-1.274v3.094h-2.058zm3.206 4.396c1.12 0 1.68-.486 1.68-1.456 0-.476-.145-.812-.434-1.008-.28-.196-.696-.294-1.246-.294h-1.148v2.758zm5.116-5.082h2.058v7.742c0 .214.037.364.112.448.084.084.168.126.252.126h.112c.037 0 .084-.01.14-.028l.252 1.526c-.112.046-.257.084-.434.112-.168.037-.369.056-.602.056-.355 0-.654-.056-.896-.168-.243-.112-.439-.266-.588-.462-.14-.206-.243-.448-.308-.728-.066-.29-.098-.612-.098-.966zm3.6 6.342c0-.56.093-1.064.28-1.512.186-.458.429-.84.728-1.148.308-.318.658-.56 1.05-.728s.798-.252 1.218-.252c.494 0 .924.084 1.288.252.373.168.681.401.924.7.252.298.438.653.56 1.064.121.401.182.84.182 1.316 0 .186-.01.359-.028.518-.019.149-.038.266-.056.35h-4.158c.093.532.298.919.616 1.162.326.233.723.35 1.19.35.494 0 .994-.154 1.498-.462l.686 1.246c-.355.242-.752.434-1.19.574-.43.14-.854.21-1.274.21-.495 0-.957-.08-1.386-.238-.43-.168-.803-.406-1.12-.714-.318-.318-.565-.7-.742-1.148-.178-.448-.266-.962-.266-1.54zm4.48-.714c0-.402-.089-.728-.266-.98-.178-.252-.476-.378-.896-.378-.327 0-.616.112-.868.336-.243.214-.402.555-.476 1.022zm2.808.714c0-.57.079-1.078.238-1.526.168-.448.382-.826.644-1.134.27-.318.578-.56.924-.728.354-.168.714-.252 1.078-.252.392 0 .714.065.966.196.252.13.499.308.742.532l-.084-1.064v-2.366h2.058v9.814h-1.68l-.14-.686h-.056c-.243.242-.528.448-.854.616-.327.158-.658.238-.994.238-.43 0-.822-.084-1.176-.252-.346-.168-.644-.406-.896-.714-.243-.318-.434-.7-.574-1.148-.131-.448-.196-.957-.196-1.526zm2.114-.028c0 .69.107 1.194.322 1.512.224.317.536.476.938.476.224 0 .424-.047.602-.14.186-.094.364-.257.532-.49v-2.842c-.187-.168-.378-.285-.574-.35-.196-.066-.388-.098-.574-.098-.327 0-.616.158-.868.476-.252.308-.378.793-.378 1.456zm7.535 4.368c0 .261.14.457.42.588.28.14.653.21 1.12.21s.849-.084 1.148-.252c.299-.159.448-.36.448-.602 0-.215-.093-.36-.28-.434-.177-.075-.439-.112-.784-.112h-.714c-.243 0-.439-.01-.588-.028-.149-.01-.28-.028-.392-.056-.252.224-.378.452-.378.686zm-1.694.322c0-.56.331-1.027.994-1.4v-.056c-.187-.122-.341-.276-.462-.462-.121-.187-.182-.425-.182-.714 0-.252.075-.49.224-.714.149-.234.336-.43.56-.588v-.056c-.243-.168-.462-.406-.658-.714-.187-.318-.28-.682-.28-1.092 0-.42.079-.784.238-1.092.159-.318.369-.579.63-.784.271-.215.579-.374.924-.476.345-.103.705-.154 1.078-.154.411 0 .77.056 1.078.168h2.534v1.498h-1.106c.065.102.117.233.154.392.047.158.07.331.07.518 0 .401-.07.751-.21 1.05-.14.289-.336.532-.588.728-.243.186-.532.326-.868.42-.327.093-.681.14-1.064.14-.271 0-.551-.047-.84-.14-.093.074-.159.149-.196.224-.037.074-.056.172-.056.294 0 .177.075.308.224.392.159.084.434.126.826.126h1.12c.859 0 1.512.14 1.96.42.457.27.686.718.686 1.344 0 .364-.093.695-.28.994-.177.308-.434.569-.77.784-.336.224-.742.396-1.218.518-.476.13-1.013.196-1.61.196-.411 0-.793-.038-1.148-.112-.345-.066-.653-.168-.924-.308-.261-.14-.467-.322-.616-.546s-.224-.49-.224-.798zm3.066-4.634c.271 0 .495-.094.672-.28.187-.196.28-.49.28-.882 0-.364-.093-.64-.28-.826-.177-.196-.401-.294-.672-.294s-.499.093-.686.28c-.177.186-.266.466-.266.84 0 .392.089.686.266.882.187.186.415.28.686.28zm4.195-.028c0-.56.093-1.064.28-1.512.186-.458.429-.84.728-1.148.308-.318.658-.56 1.05-.728s.798-.252 1.218-.252c.494 0 .924.084 1.288.252.373.168.681.401.924.7.252.298.438.653.56 1.064.121.401.182.84.182 1.316 0 .186-.01.359-.028.518-.019.149-.038.266-.056.35h-4.158c.093.532.298.919.616 1.162.326.233.723.35 1.19.35.494 0 .994-.154 1.498-.462l.686 1.246c-.355.242-.752.434-1.19.574-.43.14-.854.21-1.274.21-.495 0-.957-.08-1.386-.238-.43-.168-.803-.406-1.12-.714-.318-.318-.565-.7-.742-1.148-.178-.448-.266-.962-.266-1.54zm4.48-.714c0-.402-.089-.728-.266-.98-.178-.252-.476-.378-.896-.378-.327 0-.616.112-.868.336-.243.214-.402.555-.476 1.022zm3.48 2.1c.317.242.62.424.91.546.289.121.583.182.882.182.308 0 .532-.052.672-.154.14-.103.21-.248.21-.434 0-.112-.042-.21-.126-.294-.075-.094-.182-.178-.322-.252-.131-.075-.28-.14-.448-.196-.168-.066-.341-.136-.518-.21-.215-.084-.43-.182-.644-.294-.215-.112-.411-.248-.588-.406-.178-.168-.322-.36-.434-.574-.112-.224-.168-.481-.168-.77 0-.318.06-.612.182-.882.13-.271.312-.5.546-.686.233-.187.513-.332.84-.434.326-.112.69-.168 1.092-.168.532 0 .998.093 1.4.28.401.177.751.378 1.05.602l-.924 1.232c-.252-.187-.5-.332-.742-.434-.243-.103-.486-.154-.728-.154-.523 0-.784.182-.784.546 0 .112.037.21.112.294.074.074.172.144.294.21.13.065.275.13.434.196.168.056.34.116.518.182.224.084.443.182.658.294.224.102.424.233.602.392.186.158.336.354.448.588.112.224.168.494.168.812 0 .317-.061.611-.182.882-.122.27-.304.508-.546.714-.243.196-.542.354-.896.476-.355.112-.766.168-1.232.168-.458 0-.929-.089-1.414-.266-.476-.178-.892-.411-1.246-.7zm8.59.868c.289.242.597.448.924.616.326.158.732.238 1.218.238.532 0 .928-.131 1.19-.392.27-.271.406-.584.406-.938 0-.206-.052-.388-.154-.546-.094-.159-.22-.294-.378-.406-.159-.112-.336-.21-.532-.294-.187-.084-.378-.164-.574-.238-.252-.094-.509-.192-.77-.294-.252-.103-.481-.224-.686-.364-.206-.15-.374-.322-.504-.518-.122-.206-.182-.453-.182-.742 0-.243.046-.472.14-.686.093-.224.233-.416.42-.574.186-.168.41-.299.672-.392.27-.094.583-.14.938-.14.354 0 .7.065 1.036.196.345.13.639.298.882.504l-.336.434c-.224-.168-.462-.308-.714-.42-.252-.122-.551-.182-.896-.182-.262 0-.486.037-.672.112-.187.065-.346.154-.476.266-.122.112-.215.242-.28.392-.056.149-.084.298-.084.448 0 .196.042.364.126.504.093.13.214.247.364.35.149.102.317.196.504.28.196.074.392.149.588.224.261.102.522.205.784.308.261.102.494.228.7.378.214.149.387.336.518.56.13.214.196.485.196.812 0 .252-.052.494-.154.728-.094.224-.238.424-.434.602-.196.168-.434.303-.714.406-.28.102-.602.154-.966.154-.504 0-.966-.089-1.386-.266-.42-.187-.78-.406-1.078-.658zm6.304-4.97h-1.05v-.476l1.064-.056.084-1.946h.532v1.946h1.946v.532h-1.946v4.382c0 .214.014.41.042.588.037.168.098.317.182.448.084.121.196.219.336.294.149.065.34.098.574.098.13 0 .27-.019.42-.056.158-.047.298-.098.42-.154l.168.504c-.196.074-.392.135-.588.182-.196.046-.364.07-.504.07-.327 0-.598-.052-.812-.154-.215-.094-.388-.229-.518-.406-.131-.178-.224-.392-.28-.644-.047-.252-.07-.528-.07-.826zm3.528 4.508c0-.738.35-1.302 1.05-1.694s1.797-.672 3.29-.84c.009-.252-.009-.504-.056-.756-.037-.262-.117-.49-.238-.686-.112-.206-.275-.369-.49-.49-.205-.131-.471-.196-.798-.196-.457 0-.873.088-1.246.266-.373.177-.672.35-.896.518l-.28-.462c.121-.084.266-.178.434-.28.177-.103.369-.196.574-.28.215-.084.448-.154.7-.21.252-.066.513-.098.784-.098.401 0 .737.07 1.008.21.271.13.49.312.658.546.168.233.285.508.35.826.075.308.112.644.112 1.008v4.298h-.518l-.07-.868h-.028c-.345.27-.719.513-1.12.728-.392.205-.812.308-1.26.308-.271 0-.523-.038-.756-.112-.233-.075-.443-.187-.63-.336-.177-.15-.317-.341-.42-.574-.103-.234-.154-.509-.154-.826zm.644-.028c0 .485.14.83.42 1.036.28.205.611.308.994.308.392 0 .765-.094 1.12-.28.355-.187.742-.458 1.162-.812v-2.282c-.691.084-1.274.186-1.75.308-.467.121-.845.266-1.134.434s-.499.359-.63.574c-.121.214-.182.452-.182.714zm6.72-5.012h.532l.056 1.246h.042c.224-.42.495-.761.812-1.022.327-.262.691-.392 1.092-.392.131 0 .248.009.35.028.103.018.21.056.322.112l-.14.56c-.112-.047-.21-.075-.294-.084-.084-.019-.191-.028-.322-.028-.298 0-.616.13-.952.392-.326.252-.62.695-.882 1.33v4.578h-.616zm4.598.532h-1.05v-.476l1.064-.056.084-1.946h.532v1.946h1.946v.532h-1.946v4.382c0 .214.014.41.042.588.037.168.098.317.182.448.084.121.196.219.336.294.149.065.34.098.574.098.13 0 .27-.019.42-.056.158-.047.298-.098.42-.154l.168.504c-.196.074-.392.135-.588.182-.196.046-.364.07-.504.07-.327 0-.598-.052-.812-.154-.215-.094-.388-.229-.518-.406-.131-.178-.224-.392-.28-.644-.047-.252-.07-.528-.07-.826zm6.996-.532h.532l.056 1.246h.042c.224-.42.495-.761.812-1.022.327-.262.691-.392 1.092-.392.131 0 .248.009.35.028.103.018.21.056.322.112l-.14.56c-.112-.047-.21-.075-.294-.084-.084-.019-.191-.028-.322-.028-.298 0-.616.13-.952.392-.326.252-.62.695-.882 1.33v4.578h-.616zm3.747 3.374c0-.56.079-1.06.238-1.498.168-.448.387-.822.658-1.12.28-.299.602-.528.966-.686.364-.159.747-.238 1.148-.238s.784.079 1.148.238c.373.158.695.387.966.686.28.298.499.672.658 1.12.168.438.252.938.252 1.498s-.084 1.059-.252 1.498c-.159.429-.378.793-.658 1.092-.271.298-.593.527-.966.686-.364.158-.747.238-1.148.238s-.784-.08-1.148-.238c-.364-.159-.686-.388-.966-.686-.271-.299-.49-.663-.658-1.092-.159-.439-.238-.938-.238-1.498zm.644 0c0 .438.061.84.182 1.204s.285.676.49.938c.215.261.467.466.756.616.289.14.602.21.938.21s.649-.07.938-.21c.299-.15.551-.355.756-.616.215-.262.383-.574.504-.938s.182-.766.182-1.204c0-.448-.061-.854-.182-1.218s-.289-.677-.504-.938c-.205-.271-.457-.476-.756-.616-.289-.15-.602-.224-.938-.224s-.649.074-.938.224c-.289.14-.541.345-.756.616-.205.261-.369.574-.49.938s-.182.77-.182 1.218zm7.408-6.72h.616v9.254c0 .149.028.261.084.336.056.065.126.098.21.098h.084c.037 0 .093-.01.168-.028l.112.504c-.065.018-.131.032-.196.042-.065.018-.149.028-.252.028-.551 0-.826-.355-.826-1.064zm3.322 0h.616v9.254c0 .149.028.261.084.336.056.065.126.098.21.098h.084c.038 0 .094-.01.168-.028l.112.504c-.065.018-.13.032-.196.042-.065.018-.149.028-.252.028-.55 0-.826-.355-.826-1.064zm3.645 1.722c-.159 0-.294-.052-.406-.154-.103-.103-.154-.234-.154-.392 0-.178.051-.313.154-.406.112-.103.247-.154.406-.154.158 0 .289.051.392.154.112.093.168.228.168.406 0 .158-.056.289-.168.392-.103.102-.234.154-.392.154zm-.322 1.624h.616v6.72h-.616zm3.199 0h.532l.056 1.036h.042c.345-.346.7-.63 1.064-.854.364-.234.779-.35 1.246-.35.7 0 1.213.21 1.54.63.326.42.49 1.068.49 1.946v4.312h-.616v-4.228c0-.719-.122-1.246-.364-1.582-.234-.346-.626-.518-1.176-.518-.402 0-.766.107-1.092.322-.327.205-.696.518-1.106.938v5.068h-.616zm7.479 8.036c0 .42.191.76.574 1.022.392.261.947.392 1.666.392.373 0 .714-.052 1.022-.154.308-.094.569-.22.784-.378.215-.159.378-.341.49-.546.121-.196.182-.402.182-.616 0-.374-.135-.64-.406-.798-.261-.15-.644-.224-1.148-.224h-1.442c-.075 0-.191-.005-.35-.014-.149-.019-.313-.052-.49-.098-.308.214-.532.443-.672.686-.14.242-.21.485-.21.728zm-.588.056c0-.299.089-.588.266-.868s.42-.532.728-.756v-.056c-.168-.103-.308-.243-.42-.42-.112-.178-.168-.397-.168-.658 0-.299.084-.551.252-.756.168-.215.327-.374.476-.476v-.056c-.215-.187-.411-.439-.588-.756-.168-.318-.252-.682-.252-1.092 0-.346.061-.663.182-.952.121-.29.289-.537.504-.742.215-.215.467-.378.756-.49.289-.122.597-.182.924-.182.187 0 .355.018.504.056.149.028.275.065.378.112h2.282v.518h-1.568c.215.186.392.429.532.728.14.289.21.611.21.966 0 .345-.061.662-.182.952-.121.289-.289.541-.504.756-.205.205-.453.368-.742.49-.28.112-.583.168-.91.168-.187 0-.383-.024-.588-.07-.196-.047-.373-.117-.532-.21-.149.121-.28.256-.392.406-.103.149-.154.336-.154.56 0 .242.089.452.266.63.177.168.518.252 1.022.252h1.442c.756 0 1.311.126 1.666.378.364.242.546.63.546 1.162 0 .289-.075.569-.224.84-.149.28-.364.522-.644.728-.271.214-.602.382-.994.504-.392.13-.831.196-1.316.196-.849 0-1.521-.168-2.016-.504s-.742-.789-.742-1.358zm2.66-4.004c.233 0 .453-.042.658-.126.215-.094.401-.224.56-.392s.285-.369.378-.602c.093-.234.14-.49.14-.77s-.047-.537-.14-.77c-.093-.234-.219-.43-.378-.588-.149-.159-.331-.28-.546-.364-.215-.094-.439-.14-.672-.14-.243 0-.471.046-.686.14-.205.084-.387.205-.546.364-.159.158-.285.354-.378.588-.093.224-.14.48-.14.77 0 .28.047.536.14.77.093.233.219.434.378.602.168.168.355.298.56.392.215.084.439.126.672.126zm7.833-5.712c-.158 0-.294-.052-.406-.154-.102-.103-.154-.234-.154-.392 0-.178.052-.313.154-.406.112-.103.248-.154.406-.154.159 0 .29.051.392.154.112.093.168.228.168.406 0 .158-.056.289-.168.392-.102.102-.233.154-.392.154zm-.322 1.624h.616v6.72h-.616zm3.2 0h.532l.056 1.036h.042c.345-.346.7-.63 1.064-.854.364-.234.779-.35 1.246-.35.7 0 1.213.21 1.54.63.326.42.49 1.068.49 1.946v4.312h-.616v-4.228c0-.719-.122-1.246-.364-1.582-.234-.346-.626-.518-1.176-.518-.402 0-.766.107-1.092.322-.327.205-.696.518-1.106.938v5.068h-.616zm7.661-1.666v-.994h.644l-.014.994-.084 5.88h-.462zm-.28 7.924c0-.206.06-.364.182-.476.121-.112.261-.168.42-.168.158 0 .294.056.406.168.121.112.182.27.182.476 0 .196-.061.35-.182.462-.112.112-.248.168-.406.168-.159 0-.299-.056-.42-.168-.122-.112-.182-.266-.182-.462z" fill="#4a4a4a" fill-rule="nonzero"/><path d="m255.394 66.116c.901 0 1.631-.7198 1.631-1.6078s-.73-1.6078-1.631-1.6078-1.631.7198-1.631 1.6078.73 1.6078 1.631 1.6078z" fill="#1cce9f"/><path d="m285.587 77.9168c.901 0 1.631-.7198 1.631-1.6078s-.73-1.6078-1.631-1.6078-1.631.7198-1.631 1.6078.73 1.6078 1.631 1.6078z" fill="#1cce9f"/><path d="m271.666 97.0223c.901 0 1.631-.7199 1.631-1.6078 0-.888-.73-1.6079-1.631-1.6079s-1.631.7199-1.631 1.6079c0 .8879.73 1.6078 1.631 1.6078z" fill="#1cce9f"/><path d="m292.367 104.337c.901 0 1.631-.72 1.631-1.608s-.73-1.608-1.631-1.608c-.9 0-1.631.72-1.631 1.608s.731 1.608 1.631 1.608z" fill="#1cce9f"/><path d="m243.656 60.9188c.901 0 1.631-.7199 1.631-1.6079 0-.8879-.73-1.6078-1.631-1.6078-.9 0-1.631.7199-1.631 1.6078 0 .888.731 1.6079 1.631 1.6079z" fill="#1cce9f"/><path d="m269.512 49.2352c.901 0 1.631-.7199 1.631-1.6078 0-.888-.73-1.6079-1.631-1.6079s-1.631.7199-1.631 1.6079c0 .8879.73 1.6078 1.631 1.6078z" fill="#1cce9f"/><path d="m252.273 38.616c.9 0 1.631-.7198 1.631-1.6078s-.731-1.6078-1.631-1.6078c-.901 0-1.631.7198-1.631 1.6078s.73 1.6078 1.631 1.6078z" fill="#1cce9f"/><path d="m282.442 47.1141c.9 0 1.631-.7199 1.631-1.6078 0-.888-.731-1.6079-1.631-1.6079-.901 0-1.631.7199-1.631 1.6079 0 .8879.73 1.6078 1.631 1.6078z" fill="#1cce9f"/><path d="m227.495 48.1746c.901 0 1.631-.7198 1.631-1.6078s-.73-1.6078-1.631-1.6078c-.9 0-1.631.7198-1.631 1.6078s.731 1.6078 1.631 1.6078z" fill="#1cce9f"/><path d="m264.62 59.6024c.901 0 1.631-.7199 1.631-1.6079 0-.8879-.73-1.6078-1.631-1.6078-.9 0-1.631.7199-1.631 1.6078 0 .888.731 1.6079 1.631 1.6079z" fill="#1cce9f"/><path d="m260.778 88.5321c.9 0 1.631-.7199 1.631-1.6079 0-.8879-.731-1.6078-1.631-1.6078-.901 0-1.632.7199-1.632 1.6078 0 .888.731 1.6079 1.632 1.6079z" fill="#1cce9f"/><path d="m260.777 113.526c.9 0 1.631-.72 1.631-1.608s-.731-1.607-1.631-1.607c-.901 0-1.631.719-1.631 1.607s.73 1.608 1.631 1.608z" fill="#1cce9f"/><path d="m271.614 38.8716-2.658-4.5357h5.315zm-.791-3.4737.791 1.3508.791-1.3508z" fill="#00a3ff" fill-rule="nonzero"/><path d="m254.146 52.1109-4.977-1.8361 4.1-3.3314zm-2.853-2.1855 1.483.5469-.261-1.5399z" fill="#00a3ff" fill-rule="nonzero"/><path d="m276.541 112.654 1.482-5.031 3.679 3.782zm1.997-2.969-.441 1.499 1.537-.373z" fill="#00a3ff" fill-rule="nonzero"/><path d="m277.577 67.1729.408-5.2217 4.385 2.9618zm1.338-3.3059-.122 1.5558 1.429-.6733z" fill="#00a3ff" fill-rule="nonzero"/><path d="m282.963 57.6123.408-5.2217 4.385 2.9619zm1.338-3.3059-.122 1.5558 1.429-.6733z" fill="#00a3ff" fill-rule="nonzero"/><path d="m285.4 95.3257-4.569-2.674 4.631-2.5658zm-2.419-2.6486 1.362.7965.018-1.5621z" fill="#00a3ff" fill-rule="nonzero"/><path d="m233.942 57.4541-3.77-3.6882 5.129-1.3753zm-1.687-3.1456 1.124 1.0992.405-1.5091z" fill="#00a3ff" fill-rule="nonzero"/><path d="m239.871 37.3581.98-5.1452 4.034 3.4121zm1.694-3.1413-.292 1.5335 1.494-.5161z" fill="#00a3ff" fill-rule="nonzero"/><path d="m260.841 74.0946.544-5.2079 4.306 3.0712zm1.424-3.2687-.163 1.5515 1.446-.6372z" fill="#00a3ff" fill-rule="nonzero"/><path d="m255.908 103.69-.466-5.215 4.816 2.206zm.768-3.479.139 1.555 1.297-.898z" fill="#00a3ff" fill-rule="nonzero"/><path d="m228.073 66.5028 2.344-4.6981 2.959 4.3477zm2.487-2.5837-.698 1.3997 1.58-.1041z" fill="#00a3ff" fill-rule="nonzero"/><path d="m297.449 85.0463-3.716-3.7456 5.151-1.2987zm-1.64-3.1732 1.107 1.1162.426-1.5017z" fill="#00a3ff" fill-rule="nonzero"/><path d="m228.959 31.7961-5.249-.8294 3.355-4.0663zm-3.233-1.5887 1.562.2463-.564-1.457z" fill="#00a3ff" fill-rule="nonzero"/><path d="m245.257 75.4495 1.573-5.0061 3.613 3.8443zm2.049-2.9332-.469 1.49 1.544-.3462z" fill="#00a3ff" fill-rule="nonzero"/><path d="m276.206 82.9774-5.094-1.5048 3.871-3.5937zm-2.994-1.9944 1.516.4482-.364-1.5186z" fill="#00a3ff" fill-rule="nonzero"/><path d="m216.576 32.026c.451-.7691.183-1.7524-.597-2.1964s-1.778-.1805-2.228.5885-.183 1.7524.597 2.1964c.78.4439 1.778.1805 2.228-.5885z" fill="#1cce9f"/><path d="m201.496 47.9576c.45-.769.183-1.7523-.597-2.1963s-1.778-.1805-2.228.5885-.183 1.7523.597 2.1963 1.778.1805 2.228-.5885z" fill="#1cce9f"/><path d="m224.119 17.1588c.45-.769.183-1.7524-.597-2.1964s-1.778-.1805-2.228.5885c-.45.7691-.183 1.7524.597 2.1964s1.778.1805 2.228-.5885z" fill="#1cce9f"/><path d="m225.22 52.6041c.45-.769.183-1.7524-.597-2.1963-.78-.444-1.778-.1806-2.228.5885-.451.769-.183 1.7523.597 2.1963s1.777.1805 2.228-.5885z" fill="#1cce9f"/><path d="m187.007 18.5243-5.314.0011 2.658-4.5378zm-3.447-1.0618 1.582.0004-.791-1.3505z" fill="#00a3ff" fill-rule="nonzero"/><path d="m205.674 34.6695-4.383-2.9595 4.794-2.2622zm-2.235-2.7953 1.306.8819.123-1.5562z" fill="#00a3ff" fill-rule="nonzero"/><path d="m209.147 18.2066-4.383-2.9595 4.794-2.2622zm-2.235-2.7953 1.306.8819.122-1.5562z" fill="#00a3ff" fill-rule="nonzero"/><path d="m212.563 45.3305-4.304-3.0684 4.851-2.1404zm-2.16-2.8502 1.282.9147.163-1.5529z" fill="#00a3ff" fill-rule="nonzero"/><path d="m205.965 59.3136-3.611-3.8458 5.184-1.1625zm-1.552-3.2158 1.075 1.145.467-1.491z" fill="#00a3ff" fill-rule="nonzero"/><path d="m228.051 36.658-3.868 3.5959-1.222-5.1013zm-3.249 1.5586 1.152-1.0699-1.516-.4485z" fill="#00a3ff" fill-rule="nonzero"/><path d="m163.781 62.9285c-.901 0-1.631-.7198-1.631-1.6078s.73-1.6078 1.631-1.6078 1.631.7198 1.631 1.6078-.73 1.6078-1.631 1.6078z" fill="#1cce9f"/><path d="m133.589 74.7235c-.901 0-1.631-.7199-1.631-1.6079 0-.8879.73-1.6078 1.631-1.6078.9 0 1.631.7199 1.631 1.6078 0 .888-.731 1.6079-1.631 1.6079z" fill="#1cce9f"/><path d="m147.51 93.8328c-.901 0-1.631-.7198-1.631-1.6078s.73-1.6078 1.631-1.6078c.9 0 1.631.7198 1.631 1.6078s-.731 1.6078-1.631 1.6078z" fill="#1cce9f"/><path d="m126.809 101.147c-.9 0-1.631-.72-1.631-1.608s.731-1.6074 1.631-1.6074c.901 0 1.631.7194 1.631 1.6074s-.73 1.608-1.631 1.608z" fill="#1cce9f"/><path d="m175.519 57.7254c-.9 0-1.631-.7198-1.631-1.6078s.731-1.6078 1.631-1.6078c.901 0 1.631.7198 1.631 1.6078s-.73 1.6078-1.631 1.6078z" fill="#1cce9f"/><path d="m149.664 46.0457c-.901 0-1.631-.7198-1.631-1.6078s.73-1.6078 1.631-1.6078 1.631.7198 1.631 1.6078-.73 1.6078-1.631 1.6078z" fill="#1cce9f"/><path d="m166.903 35.4227c-.901 0-1.631-.7199-1.631-1.6078 0-.888.73-1.6079 1.631-1.6079s1.631.7199 1.631 1.6079c0 .8879-.73 1.6078-1.631 1.6078z" fill="#1cce9f"/><path d="m136.736 43.9246c-.901 0-1.631-.7198-1.631-1.6078s.73-1.6078 1.631-1.6078 1.631.7198 1.631 1.6078-.73 1.6078-1.631 1.6078z" fill="#1cce9f"/><path d="m191.679 44.9813c-.901 0-1.632-.7199-1.632-1.6079 0-.8879.731-1.6078 1.632-1.6078.9 0 1.631.7199 1.631 1.6078 0 .888-.731 1.6079-1.631 1.6079z" fill="#1cce9f"/><path d="m154.555 56.4129c-.9 0-1.631-.7198-1.631-1.6078s.731-1.6078 1.631-1.6078c.901 0 1.632.7198 1.632 1.6078s-.731 1.6078-1.632 1.6078z" fill="#1cce9f"/><path d="m158.396 85.3426c-.9 0-1.631-.7198-1.631-1.6078s.731-1.6078 1.631-1.6078c.901 0 1.631.7198 1.631 1.6078s-.73 1.6078-1.631 1.6078z" fill="#1cce9f"/><path d="m158.398 110.343c-.901 0-1.631-.72-1.631-1.608s.73-1.608 1.631-1.608 1.631.72 1.631 1.608-.73 1.608-1.631 1.608z" fill="#1cce9f"/><g fill-rule="nonzero"><path d="m147.56 35.6822 2.658-4.5357h-5.316zm.791-3.4737-.791 1.3508-.791-1.3508z" fill="#00a3ff"/><path d="m165.03 48.9234 4.977-1.8361-4.1-3.3314zm2.852-2.1855-1.482.5469.261-1.5399z" fill="#00a3ff"/><path d="m142.635 109.47-1.483-5.031-3.679 3.782zm-1.998-2.968.442 1.498-1.537-.373z" fill="#00a3ff"/><path d="m141.601 63.9834-.409-5.2217-4.384 2.9619zm-1.338-3.3059.121 1.5558-1.428-.6733z" fill="#00a3ff"/><path d="m136.213 54.4229-.408-5.2217-4.385 2.9618zm-1.338-3.3059.122 1.5558-1.429-.6733z" fill="#00a3ff"/><path d="m133.776 92.1402 4.569-2.6741-4.632-2.5657zm2.418-2.6486-1.361.7965-.019-1.5622z" fill="#00a3ff"/><path d="m185.229 54.2627 3.771-3.6882-5.129-1.3753zm1.687-3.1456-1.123 1.0992-.405-1.5091z" fill="#00a3ff"/><path d="m179.306 34.1706-.981-5.1452-4.033 3.4121zm-1.694-3.1413.292 1.5335-1.494-.5161z" fill="#00a3ff"/><path d="m158.332 70.9052-.544-5.2079-4.306 3.0712zm-1.424-3.2688.163 1.5516-1.446-.6372z" fill="#00a3ff"/><path d="m163.268 100.501.465-5.2158-4.815 2.2067zm-.768-3.4795-.139 1.5545-1.297-.8972z" fill="#00a3ff"/><path d="m191.1 63.3193-2.345-4.6982-2.958 4.3477zm-2.487-2.5838.698 1.3997-1.58-.1041z" fill="#00a3ff"/><path d="m121.724 81.8569 3.715-3.7456-5.15-1.2988zm1.639-3.1732-1.106 1.1161-.427-1.5016z" fill="#00a3ff"/><path d="m190.216 28.6105 5.249-.8294-3.355-4.0663zm3.233-1.5887-1.562.2464.564-1.457z" fill="#00a3ff"/><path d="m173.919 72.26-1.573-5.0061-3.613 3.8443zm-2.049-2.9331.469 1.4899-1.544-.3462z" fill="#00a3ff"/><path d="m142.969 79.788 5.093-1.5048-3.87-3.5937zm2.994-1.9944-1.516.4481.364-1.5186z" fill="#00a3ff"/><path d="m229.352 79.1309h-40.566c-1.716 0-3.12 1.4042-3.12 3.1204v28.0837c0 1.716 1.404 3.121 3.12 3.121h40.566c1.716 0 3.121-1.405 3.121-3.121v-28.0837c0-1.7162-1.405-3.1204-3.121-3.1204zm-2.591 3.1204-15.819 14.4991c-.951.8331-1.305 1.1031-1.873 1.1031s-.922-.27-1.872-1.1031l-15.819-14.4991zm-37.975 28.0837v-26.2286l16.352 14.9886c1.053.926 2.142 1.879 3.931 1.879 1.79 0 2.879-.953 3.932-1.877l16.351-14.9906v26.2286z" fill="#2e86de"/></g></g></svg>
