<svg width="280" height="107" viewBox="0 0 280 107" fill="none" xmlns="http://www.w3.org/2000/svg">
<path d="M19.3871 70.7L18.5471 68.24C18.2804 67.4533 18.0271 66.7 17.7871 65.98C17.5471 65.26 17.3138 64.4933 17.0871 63.68H17.0071C16.7804 64.4933 16.5471 65.26 16.3071 65.98C16.0671 66.7 15.8138 67.4533 15.5471 68.24L14.7071 70.7H19.3871ZM19.6471 71.48H14.4271L12.8671 76H11.9471L16.5871 62.82H17.5071L22.1471 76H21.1871L19.6471 71.48ZM23.3545 71.22C23.3545 70.4467 23.4678 69.7467 23.6945 69.12C23.9211 68.4933 24.2278 67.96 24.6145 67.52C25.0145 67.08 25.4678 66.7467 25.9745 66.52C26.4945 66.28 27.0411 66.16 27.6145 66.16C28.2011 66.16 28.7078 66.2667 29.1345 66.48C29.5745 66.68 30.0345 66.9667 30.5145 67.34L30.4745 65.58V61.62H31.3545V76H30.5945L30.5145 74.76H30.4545C30.0678 75.1467 29.6078 75.4933 29.0745 75.8C28.5545 76.0933 27.9745 76.24 27.3345 76.24C26.1211 76.24 25.1545 75.8133 24.4345 74.96C23.7145 74.0933 23.3545 72.8467 23.3545 71.22ZM24.2945 71.22C24.2945 71.86 24.3611 72.44 24.4945 72.96C24.6411 73.48 24.8478 73.9267 25.1145 74.3C25.3811 74.66 25.7078 74.9467 26.0945 75.16C26.4945 75.36 26.9478 75.46 27.4545 75.46C27.9878 75.46 28.4945 75.3267 28.9745 75.06C29.4678 74.78 29.9678 74.3867 30.4745 73.88V68.18C29.9678 67.7267 29.4878 67.4067 29.0345 67.22C28.5945 67.0333 28.1411 66.94 27.6745 66.94C27.1945 66.94 26.7478 67.0533 26.3345 67.28C25.9211 67.4933 25.5611 67.7933 25.2545 68.18C24.9611 68.5533 24.7278 69.0067 24.5545 69.54C24.3811 70.06 24.2945 70.62 24.2945 71.22ZM34.2334 71.22C34.2334 70.4467 34.3467 69.7467 34.5734 69.12C34.8 68.4933 35.1067 67.96 35.4934 67.52C35.8934 67.08 36.3467 66.7467 36.8534 66.52C37.3734 66.28 37.92 66.16 38.4934 66.16C39.08 66.16 39.5867 66.2667 40.0134 66.48C40.4534 66.68 40.9134 66.9667 41.3934 67.34L41.3534 65.58V61.62H42.2334V76H41.4734L41.3934 74.76H41.3334C40.9467 75.1467 40.4867 75.4933 39.9534 75.8C39.4334 76.0933 38.8534 76.24 38.2134 76.24C37 76.24 36.0334 75.8133 35.3134 74.96C34.5934 74.0933 34.2334 72.8467 34.2334 71.22ZM35.1734 71.22C35.1734 71.86 35.24 72.44 35.3734 72.96C35.52 73.48 35.7267 73.9267 35.9934 74.3C36.26 74.66 36.5867 74.9467 36.9734 75.16C37.3734 75.36 37.8267 75.46 38.3334 75.46C38.8667 75.46 39.3734 75.3267 39.8534 75.06C40.3467 74.78 40.8467 74.3867 41.3534 73.88V68.18C40.8467 67.7267 40.3667 67.4067 39.9134 67.22C39.4734 67.0333 39.02 66.94 38.5534 66.94C38.0734 66.94 37.6267 67.0533 37.2134 67.28C36.8 67.4933 36.44 67.7933 36.1334 68.18C35.84 68.5533 35.6067 69.0067 35.4334 69.54C35.26 70.06 35.1734 70.62 35.1734 71.22ZM48.7366 79.4C48.8433 79.44 48.9633 79.4733 49.0966 79.5C49.23 79.54 49.37 79.56 49.5166 79.56C50.1166 79.56 50.6166 79.32 51.0166 78.84C51.4166 78.36 51.7366 77.7533 51.9766 77.02L52.2366 76.18L48.2966 66.4H49.2566L51.5766 72.44C51.7233 72.84 51.8833 73.28 52.0566 73.76C52.2433 74.24 52.43 74.6933 52.6166 75.12H52.6966C52.8433 74.6933 52.99 74.24 53.1366 73.76C53.2966 73.28 53.4433 72.84 53.5766 72.44L55.6366 66.4H56.5366L52.7366 77.2C52.6033 77.6 52.4366 77.9867 52.2366 78.36C52.05 78.7467 51.8233 79.0867 51.5566 79.38C51.3033 79.6867 51.0033 79.9267 50.6566 80.1C50.3233 80.2867 49.9433 80.38 49.5166 80.38C49.1566 80.38 48.83 80.3133 48.5366 80.18L48.7366 79.4ZM57.8076 71.22C57.8076 70.42 57.9209 69.7067 58.1476 69.08C58.3876 68.44 58.7009 67.9067 59.0876 67.48C59.4876 67.0533 59.9476 66.7267 60.4676 66.5C60.9876 66.2733 61.5342 66.16 62.1076 66.16C62.6809 66.16 63.2276 66.2733 63.7476 66.5C64.2809 66.7267 64.7409 67.0533 65.1276 67.48C65.5276 67.9067 65.8409 68.44 66.0676 69.08C66.3076 69.7067 66.4276 70.42 66.4276 71.22C66.4276 72.02 66.3076 72.7333 66.0676 73.36C65.8409 73.9733 65.5276 74.4933 65.1276 74.92C64.7409 75.3467 64.2809 75.6733 63.7476 75.9C63.2276 76.1267 62.6809 76.24 62.1076 76.24C61.5342 76.24 60.9876 76.1267 60.4676 75.9C59.9476 75.6733 59.4876 75.3467 59.0876 74.92C58.7009 74.4933 58.3876 73.9733 58.1476 73.36C57.9209 72.7333 57.8076 72.02 57.8076 71.22ZM58.7276 71.22C58.7276 71.8467 58.8142 72.42 58.9876 72.94C59.1609 73.46 59.3942 73.9067 59.6876 74.28C59.9942 74.6533 60.3542 74.9467 60.7676 75.16C61.1809 75.36 61.6276 75.46 62.1076 75.46C62.5876 75.46 63.0342 75.36 63.4476 75.16C63.8742 74.9467 64.2342 74.6533 64.5276 74.28C64.8342 73.9067 65.0742 73.46 65.2476 72.94C65.4209 72.42 65.5076 71.8467 65.5076 71.22C65.5076 70.58 65.4209 70 65.2476 69.48C65.0742 68.96 64.8342 68.5133 64.5276 68.14C64.2342 67.7533 63.8742 67.46 63.4476 67.26C63.0342 67.0467 62.5876 66.94 62.1076 66.94C61.6276 66.94 61.1809 67.0467 60.7676 67.26C60.3542 67.46 59.9942 67.7533 59.6876 68.14C59.3942 68.5133 59.1609 68.96 58.9876 69.48C58.8142 70 58.7276 70.58 58.7276 71.22ZM69.1707 66.4H70.0507V72.44C70.0507 73.4667 70.2174 74.2267 70.5507 74.72C70.8974 75.2 71.4574 75.44 72.2307 75.44C72.804 75.44 73.324 75.2867 73.7907 74.98C74.2574 74.66 74.7707 74.16 75.3307 73.48V66.4H76.2107V76H75.4707L75.3707 74.4H75.3307C74.864 74.96 74.3707 75.4067 73.8507 75.74C73.3307 76.0733 72.7374 76.24 72.0707 76.24C71.0707 76.24 70.3374 75.94 69.8707 75.34C69.404 74.74 69.1707 73.8133 69.1707 72.56V66.4ZM79.8966 66.4H80.6566L80.7366 68.18H80.7966C81.1166 67.58 81.5033 67.0933 81.9566 66.72C82.4233 66.3467 82.9433 66.16 83.5166 66.16C83.7033 66.16 83.87 66.1733 84.0166 66.2C84.1633 66.2267 84.3166 66.28 84.4766 66.36L84.2766 67.16C84.1166 67.0933 83.9766 67.0533 83.8566 67.04C83.7366 67.0133 83.5833 67 83.3966 67C82.97 67 82.5166 67.1867 82.0366 67.56C81.57 67.92 81.15 68.5533 80.7766 69.46V76H79.8966V66.4ZM89.4287 71.22C89.4287 70.42 89.5487 69.7067 89.7887 69.08C90.0287 68.44 90.3487 67.9067 90.7487 67.48C91.1487 67.0533 91.6087 66.7267 92.1287 66.5C92.662 66.2733 93.222 66.16 93.8087 66.16C94.4753 66.16 95.0287 66.28 95.4687 66.52C95.922 66.76 96.3087 67.0333 96.6287 67.34L96.1087 67.96C95.802 67.6667 95.462 67.4267 95.0887 67.24C94.7153 67.04 94.2953 66.94 93.8287 66.94C93.3353 66.94 92.8753 67.0467 92.4487 67.26C92.0353 67.46 91.6687 67.7533 91.3487 68.14C91.042 68.5133 90.7953 68.96 90.6087 69.48C90.4353 70 90.3487 70.58 90.3487 71.22C90.3487 71.8467 90.4287 72.42 90.5887 72.94C90.762 73.46 90.9953 73.9067 91.2887 74.28C91.5953 74.6533 91.962 74.9467 92.3887 75.16C92.8287 75.36 93.3087 75.46 93.8287 75.46C94.3353 75.46 94.802 75.3533 95.2287 75.14C95.6687 74.9267 96.0553 74.6667 96.3887 74.36L96.8487 74.96C96.4353 75.3333 95.9753 75.64 95.4687 75.88C94.962 76.12 94.402 76.24 93.7887 76.24C93.162 76.24 92.582 76.1267 92.0487 75.9C91.5287 75.6733 91.0687 75.3467 90.6687 74.92C90.282 74.4933 89.9753 73.9733 89.7487 73.36C89.5353 72.7333 89.4287 72.02 89.4287 71.22ZM98.081 71.22C98.081 70.42 98.1943 69.7067 98.421 69.08C98.661 68.44 98.9743 67.9067 99.361 67.48C99.761 67.0533 100.221 66.7267 100.741 66.5C101.261 66.2733 101.808 66.16 102.381 66.16C102.954 66.16 103.501 66.2733 104.021 66.5C104.554 66.7267 105.014 67.0533 105.401 67.48C105.801 67.9067 106.114 68.44 106.341 69.08C106.581 69.7067 106.701 70.42 106.701 71.22C106.701 72.02 106.581 72.7333 106.341 73.36C106.114 73.9733 105.801 74.4933 105.401 74.92C105.014 75.3467 104.554 75.6733 104.021 75.9C103.501 76.1267 102.954 76.24 102.381 76.24C101.808 76.24 101.261 76.1267 100.741 75.9C100.221 75.6733 99.761 75.3467 99.361 74.92C98.9743 74.4933 98.661 73.9733 98.421 73.36C98.1943 72.7333 98.081 72.02 98.081 71.22ZM99.001 71.22C99.001 71.8467 99.0877 72.42 99.261 72.94C99.4343 73.46 99.6677 73.9067 99.961 74.28C100.268 74.6533 100.628 74.9467 101.041 75.16C101.454 75.36 101.901 75.46 102.381 75.46C102.861 75.46 103.308 75.36 103.721 75.16C104.148 74.9467 104.508 74.6533 104.801 74.28C105.108 73.9067 105.348 73.46 105.521 72.94C105.694 72.42 105.781 71.8467 105.781 71.22C105.781 70.58 105.694 70 105.521 69.48C105.348 68.96 105.108 68.5133 104.801 68.14C104.508 67.7533 104.148 67.46 103.721 67.26C103.308 67.0467 102.861 66.94 102.381 66.94C101.901 66.94 101.454 67.0467 101.041 67.26C100.628 67.46 100.268 67.7533 99.961 68.14C99.6677 68.5133 99.4343 68.96 99.261 69.48C99.0877 70 99.001 70.58 99.001 71.22ZM109.584 66.4H110.344L110.424 67.88H110.484C110.977 67.3867 111.484 66.98 112.004 66.66C112.524 66.3267 113.117 66.16 113.784 66.16C114.784 66.16 115.517 66.46 115.984 67.06C116.451 67.66 116.684 68.5867 116.684 69.84V76H115.804V69.96C115.804 68.9333 115.631 68.18 115.284 67.7C114.951 67.2067 114.391 66.96 113.604 66.96C113.031 66.96 112.511 67.1133 112.044 67.42C111.577 67.7133 111.051 68.16 110.464 68.76V76H109.584V66.4ZM120.449 67.16H118.949V66.48L120.469 66.4L120.589 63.62H121.349V66.4H124.129V67.16H121.349V73.42C121.349 73.7267 121.369 74.0067 121.409 74.26C121.462 74.5 121.549 74.7133 121.669 74.9C121.789 75.0733 121.949 75.2133 122.149 75.32C122.362 75.4133 122.635 75.46 122.969 75.46C123.155 75.46 123.355 75.4333 123.569 75.38C123.795 75.3133 123.995 75.24 124.169 75.16L124.409 75.88C124.129 75.9867 123.849 76.0733 123.569 76.14C123.289 76.2067 123.049 76.24 122.849 76.24C122.382 76.24 121.995 76.1667 121.689 76.02C121.382 75.8867 121.135 75.6933 120.949 75.44C120.762 75.1867 120.629 74.88 120.549 74.52C120.482 74.16 120.449 73.7667 120.449 73.34V67.16ZM125.489 73.6C125.489 72.5467 125.989 71.74 126.989 71.18C127.989 70.62 129.556 70.22 131.689 69.98C131.703 69.62 131.676 69.26 131.609 68.9C131.556 68.5267 131.443 68.2 131.269 67.92C131.109 67.6267 130.876 67.3933 130.569 67.22C130.276 67.0333 129.896 66.94 129.429 66.94C128.776 66.94 128.183 67.0667 127.649 67.32C127.116 67.5733 126.689 67.82 126.369 68.06L125.969 67.4C126.143 67.28 126.349 67.1467 126.589 67C126.843 66.8533 127.116 66.72 127.409 66.6C127.716 66.48 128.049 66.38 128.409 66.3C128.769 66.2067 129.143 66.16 129.529 66.16C130.103 66.16 130.583 66.26 130.969 66.46C131.356 66.6467 131.669 66.9067 131.909 67.24C132.149 67.5733 132.316 67.9667 132.409 68.42C132.516 68.86 132.569 69.34 132.569 69.86V76H131.829L131.729 74.76H131.689C131.196 75.1467 130.663 75.4933 130.089 75.8C129.529 76.0933 128.929 76.24 128.289 76.24C127.903 76.24 127.543 76.1867 127.209 76.08C126.876 75.9733 126.576 75.8133 126.309 75.6C126.056 75.3867 125.856 75.1133 125.709 74.78C125.563 74.4467 125.489 74.0533 125.489 73.6ZM126.409 73.56C126.409 74.2533 126.609 74.7467 127.009 75.04C127.409 75.3333 127.883 75.48 128.429 75.48C128.989 75.48 129.523 75.3467 130.029 75.08C130.536 74.8133 131.089 74.4267 131.689 73.92V70.66C130.703 70.78 129.869 70.9267 129.189 71.1C128.523 71.2733 127.983 71.48 127.569 71.72C127.156 71.96 126.856 72.2333 126.669 72.54C126.496 72.8467 126.409 73.1867 126.409 73.56ZM135.21 71.22C135.21 70.42 135.33 69.7067 135.57 69.08C135.81 68.44 136.13 67.9067 136.53 67.48C136.93 67.0533 137.39 66.7267 137.91 66.5C138.443 66.2733 139.003 66.16 139.59 66.16C140.257 66.16 140.81 66.28 141.25 66.52C141.703 66.76 142.09 67.0333 142.41 67.34L141.89 67.96C141.583 67.6667 141.243 67.4267 140.87 67.24C140.497 67.04 140.077 66.94 139.61 66.94C139.117 66.94 138.657 67.0467 138.23 67.26C137.817 67.46 137.45 67.7533 137.13 68.14C136.823 68.5133 136.577 68.96 136.39 69.48C136.217 70 136.13 70.58 136.13 71.22C136.13 71.8467 136.21 72.42 136.37 72.94C136.543 73.46 136.777 73.9067 137.07 74.28C137.377 74.6533 137.743 74.9467 138.17 75.16C138.61 75.36 139.09 75.46 139.61 75.46C140.117 75.46 140.583 75.3533 141.01 75.14C141.45 74.9267 141.837 74.6667 142.17 74.36L142.63 74.96C142.217 75.3333 141.757 75.64 141.25 75.88C140.743 76.12 140.183 76.24 139.57 76.24C138.943 76.24 138.363 76.1267 137.83 75.9C137.31 75.6733 136.85 75.3467 136.45 74.92C136.063 74.4933 135.757 73.9733 135.53 73.36C135.317 72.7333 135.21 72.02 135.21 71.22ZM145.214 67.16H143.714V66.48L145.234 66.4L145.354 63.62H146.114V66.4H148.894V67.16H146.114V73.42C146.114 73.7267 146.134 74.0067 146.174 74.26C146.228 74.5 146.314 74.7133 146.434 74.9C146.554 75.0733 146.714 75.2133 146.914 75.32C147.128 75.4133 147.401 75.46 147.734 75.46C147.921 75.46 148.121 75.4333 148.334 75.38C148.561 75.3133 148.761 75.24 148.934 75.16L149.174 75.88C148.894 75.9867 148.614 76.0733 148.334 76.14C148.054 76.2067 147.814 76.24 147.614 76.24C147.148 76.24 146.761 76.1667 146.454 76.02C146.148 75.8867 145.901 75.6933 145.714 75.44C145.528 75.1867 145.394 74.88 145.314 74.52C145.248 74.16 145.214 73.7667 145.214 73.34V67.16ZM150.545 74.26C150.958 74.6067 151.398 74.9 151.865 75.14C152.331 75.3667 152.911 75.48 153.605 75.48C154.365 75.48 154.931 75.2933 155.305 74.92C155.691 74.5333 155.885 74.0867 155.885 73.58C155.885 73.2867 155.811 73.0267 155.665 72.8C155.531 72.5733 155.351 72.38 155.125 72.22C154.898 72.06 154.645 71.92 154.365 71.8C154.098 71.68 153.825 71.5667 153.545 71.46C153.185 71.3267 152.818 71.1867 152.445 71.04C152.085 70.8933 151.758 70.72 151.465 70.52C151.171 70.3067 150.931 70.06 150.745 69.78C150.571 69.4867 150.485 69.1333 150.485 68.72C150.485 68.3733 150.551 68.0467 150.685 67.74C150.818 67.42 151.018 67.1467 151.285 66.92C151.551 66.68 151.871 66.4933 152.245 66.36C152.631 66.2267 153.078 66.16 153.585 66.16C154.091 66.16 154.585 66.2533 155.065 66.44C155.558 66.6267 155.978 66.8667 156.325 67.16L155.845 67.78C155.525 67.54 155.185 67.34 154.825 67.18C154.465 67.0067 154.038 66.92 153.545 66.92C153.171 66.92 152.851 66.9733 152.585 67.08C152.318 67.1733 152.091 67.3 151.905 67.46C151.731 67.62 151.598 67.8067 151.505 68.02C151.425 68.2333 151.385 68.4467 151.385 68.66C151.385 68.94 151.445 69.18 151.565 69.38C151.698 69.5667 151.871 69.7333 152.085 69.88C152.298 70.0267 152.538 70.16 152.805 70.28C153.085 70.3867 153.365 70.4933 153.645 70.6C154.018 70.7467 154.391 70.8933 154.765 71.04C155.138 71.1867 155.471 71.3667 155.765 71.58C156.071 71.7933 156.318 72.06 156.505 72.38C156.691 72.6867 156.785 73.0733 156.785 73.54C156.785 73.9 156.711 74.2467 156.565 74.58C156.431 74.9 156.225 75.1867 155.945 75.44C155.665 75.68 155.325 75.8733 154.925 76.02C154.525 76.1667 154.065 76.24 153.545 76.24C152.825 76.24 152.165 76.1133 151.565 75.86C150.965 75.5933 150.451 75.28 150.025 74.92L150.545 74.26ZM163.535 67.16H162.035V66.48L163.555 66.4L163.675 63.62H164.435V66.4H167.215V67.16H164.435V73.42C164.435 73.7267 164.455 74.0067 164.495 74.26C164.548 74.5 164.635 74.7133 164.755 74.9C164.875 75.0733 165.035 75.2133 165.235 75.32C165.448 75.4133 165.721 75.46 166.055 75.46C166.241 75.46 166.441 75.4333 166.655 75.38C166.881 75.3133 167.081 75.24 167.255 75.16L167.495 75.88C167.215 75.9867 166.935 76.0733 166.655 76.14C166.375 76.2067 166.135 76.24 165.935 76.24C165.468 76.24 165.081 76.1667 164.775 76.02C164.468 75.8867 164.221 75.6933 164.035 75.44C163.848 75.1867 163.715 74.88 163.635 74.52C163.568 74.16 163.535 73.7667 163.535 73.34V67.16ZM168.55 71.22C168.55 70.42 168.663 69.7067 168.89 69.08C169.13 68.44 169.443 67.9067 169.83 67.48C170.23 67.0533 170.69 66.7267 171.21 66.5C171.73 66.2733 172.276 66.16 172.85 66.16C173.423 66.16 173.97 66.2733 174.49 66.5C175.023 66.7267 175.483 67.0533 175.87 67.48C176.27 67.9067 176.583 68.44 176.81 69.08C177.05 69.7067 177.17 70.42 177.17 71.22C177.17 72.02 177.05 72.7333 176.81 73.36C176.583 73.9733 176.27 74.4933 175.87 74.92C175.483 75.3467 175.023 75.6733 174.49 75.9C173.97 76.1267 173.423 76.24 172.85 76.24C172.276 76.24 171.73 76.1267 171.21 75.9C170.69 75.6733 170.23 75.3467 169.83 74.92C169.443 74.4933 169.13 73.9733 168.89 73.36C168.663 72.7333 168.55 72.02 168.55 71.22ZM169.47 71.22C169.47 71.8467 169.556 72.42 169.73 72.94C169.903 73.46 170.136 73.9067 170.43 74.28C170.736 74.6533 171.096 74.9467 171.51 75.16C171.923 75.36 172.37 75.46 172.85 75.46C173.33 75.46 173.776 75.36 174.19 75.16C174.616 74.9467 174.976 74.6533 175.27 74.28C175.576 73.9067 175.816 73.46 175.99 72.94C176.163 72.42 176.25 71.8467 176.25 71.22C176.25 70.58 176.163 70 175.99 69.48C175.816 68.96 175.576 68.5133 175.27 68.14C174.976 67.7533 174.616 67.46 174.19 67.26C173.776 67.0467 173.33 66.94 172.85 66.94C172.37 66.94 171.923 67.0467 171.51 67.26C171.096 67.46 170.736 67.7533 170.43 68.14C170.136 68.5133 169.903 68.96 169.73 69.48C169.556 70 169.47 70.58 169.47 71.22ZM184.077 77.88C184.077 78.48 184.351 78.9667 184.897 79.34C185.457 79.7133 186.251 79.9 187.277 79.9C187.811 79.9 188.297 79.8267 188.737 79.68C189.177 79.5467 189.551 79.3667 189.857 79.14C190.164 78.9133 190.397 78.6533 190.557 78.36C190.731 78.08 190.817 77.7867 190.817 77.48C190.817 76.9467 190.624 76.5667 190.237 76.34C189.864 76.1267 189.317 76.02 188.597 76.02H186.537C186.431 76.02 186.264 76.0133 186.037 76C185.824 75.9733 185.591 75.9267 185.337 75.86C184.897 76.1667 184.577 76.4933 184.377 76.84C184.177 77.1867 184.077 77.5333 184.077 77.88ZM183.237 77.96C183.237 77.5333 183.364 77.12 183.617 76.72C183.871 76.32 184.217 75.96 184.657 75.64V75.56C184.417 75.4133 184.217 75.2133 184.057 74.96C183.897 74.7067 183.817 74.3933 183.817 74.02C183.817 73.5933 183.937 73.2333 184.177 72.94C184.417 72.6333 184.644 72.4067 184.857 72.26V72.18C184.551 71.9133 184.271 71.5533 184.017 71.1C183.777 70.6467 183.657 70.1267 183.657 69.54C183.657 69.0467 183.744 68.5933 183.917 68.18C184.091 67.7667 184.331 67.4133 184.637 67.12C184.944 66.8133 185.304 66.58 185.717 66.42C186.131 66.2467 186.571 66.16 187.037 66.16C187.304 66.16 187.544 66.1867 187.757 66.24C187.971 66.28 188.151 66.3333 188.297 66.4H191.557V67.14H189.317C189.624 67.4067 189.877 67.7533 190.077 68.18C190.277 68.5933 190.377 69.0533 190.377 69.56C190.377 70.0533 190.291 70.5067 190.117 70.92C189.944 71.3333 189.704 71.6933 189.397 72C189.104 72.2933 188.751 72.5267 188.337 72.7C187.937 72.86 187.504 72.94 187.037 72.94C186.771 72.94 186.491 72.9067 186.197 72.84C185.917 72.7733 185.664 72.6733 185.437 72.54C185.224 72.7133 185.037 72.9067 184.877 73.12C184.731 73.3333 184.657 73.6 184.657 73.92C184.657 74.2667 184.784 74.5667 185.037 74.82C185.291 75.06 185.777 75.18 186.497 75.18H188.557C189.637 75.18 190.431 75.36 190.937 75.72C191.457 76.0667 191.717 76.62 191.717 77.38C191.717 77.7933 191.611 78.1933 191.397 78.58C191.184 78.98 190.877 79.3267 190.477 79.62C190.091 79.9267 189.617 80.1667 189.057 80.34C188.497 80.5267 187.871 80.62 187.177 80.62C185.964 80.62 185.004 80.38 184.297 79.9C183.591 79.42 183.237 78.7733 183.237 77.96ZM187.037 72.24C187.371 72.24 187.684 72.18 187.977 72.06C188.284 71.9267 188.551 71.74 188.777 71.5C189.004 71.26 189.184 70.9733 189.317 70.64C189.451 70.3067 189.517 69.94 189.517 69.54C189.517 69.14 189.451 68.7733 189.317 68.44C189.184 68.1067 189.004 67.8267 188.777 67.6C188.564 67.3733 188.304 67.2 187.997 67.08C187.691 66.9467 187.371 66.88 187.037 66.88C186.691 66.88 186.364 66.9467 186.057 67.08C185.764 67.2 185.504 67.3733 185.277 67.6C185.051 67.8267 184.871 68.1067 184.737 68.44C184.604 68.76 184.537 69.1267 184.537 69.54C184.537 69.94 184.604 70.3067 184.737 70.64C184.871 70.9733 185.051 71.26 185.277 71.5C185.517 71.74 185.784 71.9267 186.077 72.06C186.384 72.18 186.704 72.24 187.037 72.24ZM192.769 71.22C192.769 70.4333 192.882 69.7267 193.109 69.1C193.349 68.4733 193.662 67.9467 194.049 67.52C194.449 67.08 194.895 66.7467 195.389 66.52C195.895 66.28 196.415 66.16 196.949 66.16C198.095 66.16 198.995 66.5467 199.649 67.32C200.302 68.0933 200.629 69.1867 200.629 70.6C200.629 70.72 200.629 70.84 200.629 70.96C200.629 71.08 200.615 71.2 200.589 71.32H193.669C193.682 71.92 193.775 72.48 193.949 73C194.122 73.5067 194.362 73.9467 194.669 74.32C194.989 74.68 195.369 74.9667 195.809 75.18C196.249 75.38 196.742 75.48 197.289 75.48C197.809 75.48 198.275 75.4067 198.689 75.26C199.115 75.1 199.509 74.8867 199.869 74.62L200.229 75.3C199.842 75.5267 199.415 75.74 198.949 75.94C198.495 76.14 197.915 76.24 197.209 76.24C196.595 76.24 196.015 76.1267 195.469 75.9C194.935 75.6733 194.469 75.3467 194.069 74.92C193.669 74.48 193.349 73.9533 193.109 73.34C192.882 72.7133 192.769 72.0067 192.769 71.22ZM199.789 70.64C199.789 69.4 199.535 68.4733 199.029 67.86C198.522 67.2333 197.835 66.92 196.969 66.92C196.555 66.92 196.162 67.0067 195.789 67.18C195.415 67.3533 195.075 67.6 194.769 67.92C194.475 68.24 194.229 68.6333 194.029 69.1C193.842 69.5533 193.722 70.0667 193.669 70.64H199.789ZM203.242 67.16H201.742V66.48L203.262 66.4L203.382 63.62H204.142V66.4H206.922V67.16H204.142V73.42C204.142 73.7267 204.162 74.0067 204.202 74.26C204.255 74.5 204.342 74.7133 204.462 74.9C204.582 75.0733 204.742 75.2133 204.942 75.32C205.155 75.4133 205.428 75.46 205.762 75.46C205.948 75.46 206.148 75.4333 206.362 75.38C206.588 75.3133 206.788 75.24 206.962 75.16L207.202 75.88C206.922 75.9867 206.642 76.0733 206.362 76.14C206.082 76.2067 205.842 76.24 205.642 76.24C205.175 76.24 204.788 76.1667 204.482 76.02C204.175 75.8867 203.928 75.6933 203.742 75.44C203.555 75.1867 203.422 74.88 203.342 74.52C203.275 74.16 203.242 73.7667 203.242 73.34V67.16ZM212.556 74.26C212.97 74.6067 213.41 74.9 213.876 75.14C214.343 75.3667 214.923 75.48 215.616 75.48C216.376 75.48 216.943 75.2933 217.316 74.92C217.703 74.5333 217.896 74.0867 217.896 73.58C217.896 73.2867 217.823 73.0267 217.676 72.8C217.543 72.5733 217.363 72.38 217.136 72.22C216.91 72.06 216.656 71.92 216.376 71.8C216.11 71.68 215.836 71.5667 215.556 71.46C215.196 71.3267 214.83 71.1867 214.456 71.04C214.096 70.8933 213.77 70.72 213.476 70.52C213.183 70.3067 212.943 70.06 212.756 69.78C212.583 69.4867 212.496 69.1333 212.496 68.72C212.496 68.3733 212.563 68.0467 212.696 67.74C212.83 67.42 213.03 67.1467 213.296 66.92C213.563 66.68 213.883 66.4933 214.256 66.36C214.643 66.2267 215.09 66.16 215.596 66.16C216.103 66.16 216.596 66.2533 217.076 66.44C217.57 66.6267 217.99 66.8667 218.336 67.16L217.856 67.78C217.536 67.54 217.196 67.34 216.836 67.18C216.476 67.0067 216.05 66.92 215.556 66.92C215.183 66.92 214.863 66.9733 214.596 67.08C214.33 67.1733 214.103 67.3 213.916 67.46C213.743 67.62 213.61 67.8067 213.516 68.02C213.436 68.2333 213.396 68.4467 213.396 68.66C213.396 68.94 213.456 69.18 213.576 69.38C213.71 69.5667 213.883 69.7333 214.096 69.88C214.31 70.0267 214.55 70.16 214.816 70.28C215.096 70.3867 215.376 70.4933 215.656 70.6C216.03 70.7467 216.403 70.8933 216.776 71.04C217.15 71.1867 217.483 71.3667 217.776 71.58C218.083 71.7933 218.33 72.06 218.516 72.38C218.703 72.6867 218.796 73.0733 218.796 73.54C218.796 73.9 218.723 74.2467 218.576 74.58C218.443 74.9 218.236 75.1867 217.956 75.44C217.676 75.68 217.336 75.8733 216.936 76.02C216.536 76.1667 216.076 76.24 215.556 76.24C214.836 76.24 214.176 76.1133 213.576 75.86C212.976 75.5933 212.463 75.28 212.036 74.92L212.556 74.26ZM221.562 67.16H220.062V66.48L221.582 66.4L221.702 63.62H222.462V66.4H225.242V67.16H222.462V73.42C222.462 73.7267 222.482 74.0067 222.522 74.26C222.575 74.5 222.662 74.7133 222.782 74.9C222.902 75.0733 223.062 75.2133 223.262 75.32C223.475 75.4133 223.749 75.46 224.082 75.46C224.269 75.46 224.469 75.4333 224.682 75.38C224.909 75.3133 225.109 75.24 225.282 75.16L225.522 75.88C225.242 75.9867 224.962 76.0733 224.682 76.14C224.402 76.2067 224.162 76.24 223.962 76.24C223.495 76.24 223.109 76.1667 222.802 76.02C222.495 75.8867 222.249 75.6933 222.062 75.44C221.875 75.1867 221.742 74.88 221.662 74.52C221.595 74.16 221.562 73.7667 221.562 73.34V67.16ZM226.603 73.6C226.603 72.5467 227.103 71.74 228.103 71.18C229.103 70.62 230.669 70.22 232.803 69.98C232.816 69.62 232.789 69.26 232.723 68.9C232.669 68.5267 232.556 68.2 232.383 67.92C232.223 67.6267 231.989 67.3933 231.683 67.22C231.389 67.0333 231.009 66.94 230.543 66.94C229.889 66.94 229.296 67.0667 228.763 67.32C228.229 67.5733 227.803 67.82 227.483 68.06L227.083 67.4C227.256 67.28 227.463 67.1467 227.703 67C227.956 66.8533 228.229 66.72 228.523 66.6C228.829 66.48 229.163 66.38 229.523 66.3C229.883 66.2067 230.256 66.16 230.643 66.16C231.216 66.16 231.696 66.26 232.083 66.46C232.469 66.6467 232.783 66.9067 233.023 67.24C233.263 67.5733 233.429 67.9667 233.523 68.42C233.629 68.86 233.683 69.34 233.683 69.86V76H232.943L232.843 74.76H232.803C232.309 75.1467 231.776 75.4933 231.203 75.8C230.643 76.0933 230.043 76.24 229.403 76.24C229.016 76.24 228.656 76.1867 228.323 76.08C227.989 75.9733 227.689 75.8133 227.423 75.6C227.169 75.3867 226.969 75.1133 226.823 74.78C226.676 74.4467 226.603 74.0533 226.603 73.6ZM227.523 73.56C227.523 74.2533 227.723 74.7467 228.123 75.04C228.523 75.3333 228.996 75.48 229.543 75.48C230.103 75.48 230.636 75.3467 231.143 75.08C231.649 74.8133 232.203 74.4267 232.803 73.92V70.66C231.816 70.78 230.983 70.9267 230.303 71.1C229.636 71.2733 229.096 71.48 228.683 71.72C228.269 71.96 227.969 72.2333 227.783 72.54C227.609 72.8467 227.523 73.1867 227.523 73.56ZM237.123 66.4H237.883L237.963 68.18H238.023C238.343 67.58 238.73 67.0933 239.183 66.72C239.65 66.3467 240.17 66.16 240.743 66.16C240.93 66.16 241.097 66.1733 241.243 66.2C241.39 66.2267 241.543 66.28 241.703 66.36L241.503 67.16C241.343 67.0933 241.203 67.0533 241.083 67.04C240.963 67.0133 240.81 67 240.623 67C240.197 67 239.743 67.1867 239.263 67.56C238.797 67.92 238.377 68.5533 238.003 69.46V76H237.123V66.4ZM243.691 67.16H242.191V66.48L243.711 66.4L243.831 63.62H244.591V66.4H247.371V67.16H244.591V73.42C244.591 73.7267 244.611 74.0067 244.651 74.26C244.704 74.5 244.791 74.7133 244.911 74.9C245.031 75.0733 245.191 75.2133 245.391 75.32C245.604 75.4133 245.878 75.46 246.211 75.46C246.398 75.46 246.598 75.4333 246.811 75.38C247.038 75.3133 247.238 75.24 247.411 75.16L247.651 75.88C247.371 75.9867 247.091 76.0733 246.811 76.14C246.531 76.2067 246.291 76.24 246.091 76.24C245.624 76.24 245.238 76.1667 244.931 76.02C244.624 75.8867 244.378 75.6933 244.191 75.44C244.004 75.1867 243.871 74.88 243.791 74.52C243.724 74.16 243.691 73.7667 243.691 73.34V67.16ZM248.706 71.22C248.706 70.4333 248.819 69.7267 249.046 69.1C249.286 68.4733 249.599 67.9467 249.986 67.52C250.386 67.08 250.833 66.7467 251.326 66.52C251.833 66.28 252.353 66.16 252.886 66.16C254.033 66.16 254.933 66.5467 255.586 67.32C256.239 68.0933 256.566 69.1867 256.566 70.6C256.566 70.72 256.566 70.84 256.566 70.96C256.566 71.08 256.553 71.2 256.526 71.32H249.606C249.619 71.92 249.713 72.48 249.886 73C250.059 73.5067 250.299 73.9467 250.606 74.32C250.926 74.68 251.306 74.9667 251.746 75.18C252.186 75.38 252.679 75.48 253.226 75.48C253.746 75.48 254.213 75.4067 254.626 75.26C255.053 75.1 255.446 74.8867 255.806 74.62L256.166 75.3C255.779 75.5267 255.353 75.74 254.886 75.94C254.433 76.14 253.853 76.24 253.146 76.24C252.533 76.24 251.953 76.1267 251.406 75.9C250.873 75.6733 250.406 75.3467 250.006 74.92C249.606 74.48 249.286 73.9533 249.046 73.34C248.819 72.7133 248.706 72.0067 248.706 71.22ZM255.726 70.64C255.726 69.4 255.473 68.4733 254.966 67.86C254.459 67.2333 253.773 66.92 252.906 66.92C252.493 66.92 252.099 67.0067 251.726 67.18C251.353 67.3533 251.013 67.6 250.706 67.92C250.413 68.24 250.166 68.6333 249.966 69.1C249.779 69.5533 249.659 70.0667 249.606 70.64H255.726ZM258.374 71.22C258.374 70.4467 258.487 69.7467 258.714 69.12C258.941 68.4933 259.247 67.96 259.634 67.52C260.034 67.08 260.487 66.7467 260.994 66.52C261.514 66.28 262.061 66.16 262.634 66.16C263.221 66.16 263.727 66.2667 264.154 66.48C264.594 66.68 265.054 66.9667 265.534 67.34L265.494 65.58V61.62H266.374V76H265.614L265.534 74.76H265.474C265.087 75.1467 264.627 75.4933 264.094 75.8C263.574 76.0933 262.994 76.24 262.354 76.24C261.141 76.24 260.174 75.8133 259.454 74.96C258.734 74.0933 258.374 72.8467 258.374 71.22ZM259.314 71.22C259.314 71.86 259.381 72.44 259.514 72.96C259.661 73.48 259.867 73.9267 260.134 74.3C260.401 74.66 260.727 74.9467 261.114 75.16C261.514 75.36 261.967 75.46 262.474 75.46C263.007 75.46 263.514 75.3267 263.994 75.06C264.487 74.78 264.987 74.3867 265.494 73.88V68.18C264.987 67.7267 264.507 67.4067 264.054 67.22C263.614 67.0333 263.161 66.94 262.694 66.94C262.214 66.94 261.767 67.0533 261.354 67.28C260.941 67.4933 260.581 67.7933 260.274 68.18C259.981 68.5533 259.747 69.0067 259.574 69.54C259.401 70.06 259.314 70.62 259.314 71.22ZM1.45625 98.6C1.45625 97.5467 1.95625 96.74 2.95625 96.18C3.95625 95.62 5.52292 95.22 7.65625 94.98C7.66958 94.62 7.64292 94.26 7.57625 93.9C7.52292 93.5267 7.40958 93.2 7.23625 92.92C7.07625 92.6267 6.84292 92.3933 6.53625 92.22C6.24292 92.0333 5.86292 91.94 5.39625 91.94C4.74292 91.94 4.14958 92.0667 3.61625 92.32C3.08292 92.5733 2.65625 92.82 2.33625 93.06L1.93625 92.4C2.10958 92.28 2.31625 92.1467 2.55625 92C2.80958 91.8533 3.08292 91.72 3.37625 91.6C3.68292 91.48 4.01625 91.38 4.37625 91.3C4.73625 91.2067 5.10958 91.16 5.49625 91.16C6.06958 91.16 6.54958 91.26 6.93625 91.46C7.32292 91.6467 7.63625 91.9067 7.87625 92.24C8.11625 92.5733 8.28292 92.9667 8.37625 93.42C8.48292 93.86 8.53625 94.34 8.53625 94.86V101H7.79625L7.69625 99.76H7.65625C7.16292 100.147 6.62958 100.493 6.05625 100.8C5.49625 101.093 4.89625 101.24 4.25625 101.24C3.86958 101.24 3.50958 101.187 3.17625 101.08C2.84292 100.973 2.54292 100.813 2.27625 100.6C2.02292 100.387 1.82292 100.113 1.67625 99.78C1.52958 99.4467 1.45625 99.0533 1.45625 98.6ZM2.37625 98.56C2.37625 99.2533 2.57625 99.7467 2.97625 100.04C3.37625 100.333 3.84958 100.48 4.39625 100.48C4.95625 100.48 5.48958 100.347 5.99625 100.08C6.50292 99.8133 7.05625 99.4267 7.65625 98.92V95.66C6.66958 95.78 5.83625 95.9267 5.15625 96.1C4.48958 96.2733 3.94958 96.48 3.53625 96.72C3.12292 96.96 2.82292 97.2333 2.63625 97.54C2.46292 97.8467 2.37625 98.1867 2.37625 98.56ZM11.9767 91.4H12.7367L12.8167 92.88H12.8767C13.3701 92.3867 13.8767 91.98 14.3967 91.66C14.9167 91.3267 15.5101 91.16 16.1767 91.16C17.1767 91.16 17.9101 91.46 18.3767 92.06C18.8434 92.66 19.0767 93.5867 19.0767 94.84V101H18.1967V94.96C18.1967 93.9333 18.0234 93.18 17.6767 92.7C17.3434 92.2067 16.7834 91.96 15.9967 91.96C15.4234 91.96 14.9034 92.1133 14.4367 92.42C13.9701 92.7133 13.4434 93.16 12.8567 93.76V101H11.9767V91.4ZM21.8213 96.22C21.8213 95.4467 21.9346 94.7467 22.1613 94.12C22.3879 93.4933 22.6946 92.96 23.0813 92.52C23.4813 92.08 23.9346 91.7467 24.4413 91.52C24.9613 91.28 25.5079 91.16 26.0813 91.16C26.6679 91.16 27.1746 91.2667 27.6013 91.48C28.0413 91.68 28.5013 91.9667 28.9813 92.34L28.9413 90.58V86.62H29.8213V101H29.0613L28.9813 99.76H28.9213C28.5346 100.147 28.0746 100.493 27.5413 100.8C27.0213 101.093 26.4413 101.24 25.8013 101.24C24.5879 101.24 23.6213 100.813 22.9013 99.96C22.1813 99.0933 21.8213 97.8467 21.8213 96.22ZM22.7613 96.22C22.7613 96.86 22.8279 97.44 22.9613 97.96C23.1079 98.48 23.3146 98.9267 23.5813 99.3C23.8479 99.66 24.1746 99.9467 24.5613 100.16C24.9613 100.36 25.4146 100.46 25.9212 100.46C26.4546 100.46 26.9613 100.327 27.4413 100.06C27.9346 99.78 28.4346 99.3867 28.9413 98.88V93.18C28.4346 92.7267 27.9546 92.4067 27.5013 92.22C27.0613 92.0333 26.6079 91.94 26.1413 91.94C25.6613 91.94 25.2146 92.0533 24.8013 92.28C24.3879 92.4933 24.0279 92.7933 23.7212 93.18C23.4279 93.5533 23.1946 94.0067 23.0213 94.54C22.8479 95.06 22.7613 95.62 22.7613 96.22ZM37.4845 86.62H38.3645V99.84C38.3645 100.053 38.4045 100.213 38.4845 100.32C38.5645 100.413 38.6645 100.46 38.7845 100.46C38.8245 100.46 38.8645 100.46 38.9045 100.46C38.9579 100.46 39.0379 100.447 39.1445 100.42L39.3045 101.14C39.2112 101.167 39.1179 101.187 39.0245 101.2C38.9312 101.227 38.8112 101.24 38.6645 101.24C37.8779 101.24 37.4845 100.733 37.4845 99.72V86.62ZM41.4306 96.22C41.4306 95.4333 41.544 94.7267 41.7706 94.1C42.0106 93.4733 42.324 92.9467 42.7106 92.52C43.1106 92.08 43.5573 91.7467 44.0506 91.52C44.5573 91.28 45.0773 91.16 45.6106 91.16C46.7573 91.16 47.6573 91.5467 48.3106 92.32C48.964 93.0933 49.2906 94.1867 49.2906 95.6C49.2906 95.72 49.2906 95.84 49.2906 95.96C49.2906 96.08 49.2773 96.2 49.2506 96.32H42.3306C42.344 96.92 42.4373 97.48 42.6106 98C42.784 98.5067 43.024 98.9467 43.3306 99.32C43.6506 99.68 44.0306 99.9667 44.4706 100.18C44.9106 100.38 45.404 100.48 45.9506 100.48C46.4706 100.48 46.9373 100.407 47.3506 100.26C47.7773 100.1 48.1706 99.8867 48.5306 99.62L48.8906 100.3C48.504 100.527 48.0773 100.74 47.6106 100.94C47.1573 101.14 46.5773 101.24 45.8706 101.24C45.2573 101.24 44.6773 101.127 44.1306 100.9C43.5973 100.673 43.1306 100.347 42.7306 99.92C42.3306 99.48 42.0106 98.9533 41.7706 98.34C41.544 97.7133 41.4306 97.0067 41.4306 96.22ZM48.4506 95.64C48.4506 94.4 48.1973 93.4733 47.6906 92.86C47.184 92.2333 46.4973 91.92 45.6306 91.92C45.2173 91.92 44.824 92.0067 44.4506 92.18C44.0773 92.3533 43.7373 92.6 43.4306 92.92C43.1373 93.24 42.8906 93.6333 42.6906 94.1C42.504 94.5533 42.384 95.0667 42.3306 95.64H48.4506ZM51.9038 92.16H50.4038V91.48L51.9238 91.4L52.0438 88.62H52.8038V91.4H55.5838V92.16H52.8038V98.42C52.8038 98.7267 52.8238 99.0067 52.8638 99.26C52.9171 99.5 53.0038 99.7133 53.1238 99.9C53.2438 100.073 53.4038 100.213 53.6038 100.32C53.8171 100.413 54.0904 100.46 54.4238 100.46C54.6104 100.46 54.8104 100.433 55.0238 100.38C55.2504 100.313 55.4504 100.24 55.6238 100.16L55.8638 100.88C55.5838 100.987 55.3038 101.073 55.0238 101.14C54.7438 101.207 54.5038 101.24 54.3038 101.24C53.8371 101.24 53.4504 101.167 53.1438 101.02C52.8371 100.887 52.5904 100.693 52.4038 100.44C52.2171 100.187 52.0838 99.88 52.0038 99.52C51.9371 99.16 51.9038 98.7667 51.9038 98.34V92.16ZM62.1186 92.16H60.6186V91.48L62.1386 91.4L62.2586 88.62H63.0186V91.4H65.7986V92.16H63.0186V98.42C63.0186 98.7267 63.0386 99.0067 63.0786 99.26C63.1319 99.5 63.2186 99.7133 63.3386 99.9C63.4586 100.073 63.6186 100.213 63.8186 100.32C64.0319 100.413 64.3053 100.46 64.6386 100.46C64.8253 100.46 65.0253 100.433 65.2386 100.38C65.4653 100.313 65.6653 100.24 65.8386 100.16L66.0786 100.88C65.7986 100.987 65.5186 101.073 65.2386 101.14C64.9586 101.207 64.7186 101.24 64.5186 101.24C64.0519 101.24 63.6653 101.167 63.3586 101.02C63.0519 100.887 62.8053 100.693 62.6186 100.44C62.4319 100.187 62.2986 99.88 62.2186 99.52C62.1519 99.16 62.1186 98.7667 62.1186 98.34V92.16ZM68.1291 86.62H69.0091V90.78V92.9C69.5157 92.3933 70.0291 91.98 70.5491 91.66C71.0691 91.3267 71.6624 91.16 72.3291 91.16C73.3291 91.16 74.0624 91.46 74.5291 92.06C74.9957 92.66 75.2291 93.5867 75.2291 94.84V101H74.3491V94.96C74.3491 93.9333 74.1757 93.18 73.8291 92.7C73.4957 92.2067 72.9357 91.96 72.1491 91.96C71.5757 91.96 71.0557 92.1133 70.5891 92.42C70.1224 92.7133 69.5957 93.16 69.0091 93.76V101H68.1291V86.62ZM77.8955 96.22C77.8955 95.4333 78.0088 94.7267 78.2355 94.1C78.4755 93.4733 78.7888 92.9467 79.1755 92.52C79.5755 92.08 80.0221 91.7467 80.5155 91.52C81.0221 91.28 81.5421 91.16 82.0755 91.16C83.2221 91.16 84.1221 91.5467 84.7755 92.32C85.4288 93.0933 85.7555 94.1867 85.7555 95.6C85.7555 95.72 85.7555 95.84 85.7555 95.96C85.7555 96.08 85.7421 96.2 85.7155 96.32H78.7955C78.8088 96.92 78.9021 97.48 79.0755 98C79.2488 98.5067 79.4888 98.9467 79.7955 99.32C80.1155 99.68 80.4955 99.9667 80.9355 100.18C81.3755 100.38 81.8688 100.48 82.4155 100.48C82.9355 100.48 83.4021 100.407 83.8155 100.26C84.2421 100.1 84.6355 99.8867 84.9955 99.62L85.3555 100.3C84.9688 100.527 84.5421 100.74 84.0755 100.94C83.6221 101.14 83.0421 101.24 82.3355 101.24C81.7221 101.24 81.1421 101.127 80.5955 100.9C80.0621 100.673 79.5955 100.347 79.1955 99.92C78.7955 99.48 78.4755 98.9533 78.2355 98.34C78.0088 97.7133 77.8955 97.0067 77.8955 96.22ZM84.9155 95.64C84.9155 94.4 84.6621 93.4733 84.1555 92.86C83.6488 92.2333 82.9621 91.92 82.0955 91.92C81.6821 91.92 81.2888 92.0067 80.9155 92.18C80.5421 92.3533 80.2021 92.6 79.8955 92.92C79.6021 93.24 79.3555 93.6333 79.1555 94.1C78.9688 94.5533 78.8488 95.0667 78.7955 95.64H84.9155ZM92.0478 87.96H96.8078C97.5145 87.96 98.1745 88.0333 98.7878 88.18C99.4145 88.3133 99.9545 88.5467 100.408 88.88C100.874 89.2 101.241 89.6333 101.508 90.18C101.774 90.7133 101.908 91.3733 101.908 92.16C101.908 92.92 101.768 93.58 101.488 94.14C101.221 94.7 100.854 95.16 100.388 95.52C99.9211 95.88 99.3811 96.1467 98.7678 96.32C98.1545 96.4933 97.5011 96.58 96.8078 96.58H94.9878V101H92.0478V87.96ZM96.6278 94.24C98.2278 94.24 99.0278 93.5467 99.0278 92.16C99.0278 91.48 98.8211 91 98.4078 90.72C98.0078 90.44 97.4145 90.3 96.6278 90.3H94.9878V94.24H96.6278ZM103.937 86.98H106.877V98.04C106.877 98.3467 106.93 98.56 107.037 98.68C107.157 98.8 107.277 98.86 107.397 98.86C107.463 98.86 107.517 98.86 107.557 98.86C107.61 98.86 107.677 98.8467 107.757 98.82L108.117 101C107.957 101.067 107.75 101.12 107.497 101.16C107.257 101.213 106.97 101.24 106.637 101.24C106.13 101.24 105.703 101.16 105.357 101C105.01 100.84 104.73 100.62 104.517 100.34C104.317 100.047 104.17 99.7 104.077 99.3C103.983 98.8867 103.937 98.4267 103.937 97.92V86.98ZM109.079 96.04C109.079 95.24 109.213 94.52 109.479 93.88C109.746 93.2267 110.093 92.68 110.519 92.24C110.959 91.7867 111.459 91.44 112.019 91.2C112.579 90.96 113.159 90.84 113.759 90.84C114.466 90.84 115.079 90.96 115.599 91.2C116.133 91.44 116.573 91.7733 116.919 92.2C117.279 92.6267 117.546 93.1333 117.719 93.72C117.893 94.2933 117.979 94.92 117.979 95.6C117.979 95.8667 117.966 96.1133 117.939 96.34C117.913 96.5533 117.886 96.72 117.859 96.84H111.919C112.053 97.6 112.346 98.1533 112.799 98.5C113.266 98.8333 113.833 99 114.499 99C115.206 99 115.919 98.78 116.639 98.34L117.619 100.12C117.113 100.467 116.546 100.74 115.919 100.94C115.306 101.14 114.699 101.24 114.099 101.24C113.393 101.24 112.733 101.127 112.119 100.9C111.506 100.66 110.973 100.32 110.519 99.88C110.066 99.4267 109.713 98.88 109.459 98.24C109.206 97.6 109.079 96.8667 109.079 96.04ZM115.479 95.02C115.479 94.4467 115.353 93.98 115.099 93.62C114.846 93.26 114.419 93.08 113.819 93.08C113.353 93.08 112.939 93.24 112.579 93.56C112.233 93.8667 112.006 94.3533 111.899 95.02H115.479ZM119.491 96.04C119.491 95.2267 119.604 94.5 119.831 93.86C120.071 93.22 120.378 92.68 120.751 92.24C121.138 91.7867 121.578 91.44 122.071 91.2C122.578 90.96 123.091 90.84 123.611 90.84C124.171 90.84 124.631 90.9333 124.991 91.12C125.351 91.3067 125.704 91.56 126.051 91.88L125.931 90.36V86.98H128.871V101H126.471L126.271 100.02H126.191C125.844 100.367 125.438 100.66 124.971 100.9C124.504 101.127 124.031 101.24 123.551 101.24C122.938 101.24 122.378 101.12 121.871 100.88C121.378 100.64 120.951 100.3 120.591 99.86C120.244 99.4067 119.971 98.86 119.771 98.22C119.584 97.58 119.491 96.8533 119.491 96.04ZM122.511 96C122.511 96.9867 122.664 97.7067 122.971 98.16C123.291 98.6133 123.738 98.84 124.311 98.84C124.631 98.84 124.918 98.7733 125.171 98.64C125.438 98.5067 125.691 98.2733 125.931 97.94V93.88C125.664 93.64 125.391 93.4733 125.111 93.38C124.831 93.2867 124.558 93.24 124.291 93.24C123.824 93.24 123.411 93.4667 123.051 93.92C122.691 94.36 122.511 95.0533 122.511 96ZM133.276 102.24C133.276 102.613 133.476 102.893 133.876 103.08C134.276 103.28 134.809 103.38 135.476 103.38C136.142 103.38 136.689 103.26 137.116 103.02C137.542 102.793 137.756 102.507 137.756 102.16C137.756 101.853 137.622 101.647 137.356 101.54C137.102 101.433 136.729 101.38 136.236 101.38H135.216C134.869 101.38 134.589 101.367 134.376 101.34C134.162 101.327 133.976 101.3 133.816 101.26C133.456 101.58 133.276 101.907 133.276 102.24ZM130.856 102.7C130.856 101.9 131.329 101.233 132.276 100.7V100.62C132.009 100.447 131.789 100.227 131.616 99.96C131.442 99.6933 131.356 99.3533 131.356 98.94C131.356 98.58 131.462 98.24 131.676 97.92C131.889 97.5867 132.156 97.3067 132.476 97.08V97C132.129 96.76 131.816 96.42 131.536 95.98C131.269 95.5267 131.136 95.0067 131.136 94.42C131.136 93.82 131.249 93.3 131.476 92.86C131.702 92.4067 132.002 92.0333 132.376 91.74C132.762 91.4333 133.202 91.2067 133.696 91.06C134.189 90.9133 134.702 90.84 135.236 90.84C135.822 90.84 136.336 90.92 136.776 91.08H140.396V93.22H138.816C138.909 93.3667 138.982 93.5533 139.036 93.78C139.102 94.0067 139.136 94.2533 139.136 94.52C139.136 95.0933 139.036 95.5933 138.836 96.02C138.636 96.4333 138.356 96.78 137.996 97.06C137.649 97.3267 137.236 97.5267 136.756 97.66C136.289 97.7933 135.782 97.86 135.236 97.86C134.849 97.86 134.449 97.7933 134.036 97.66C133.902 97.7667 133.809 97.8733 133.756 97.98C133.702 98.0867 133.676 98.2267 133.676 98.4C133.676 98.6533 133.782 98.84 133.996 98.96C134.222 99.08 134.616 99.14 135.176 99.14H136.776C138.002 99.14 138.936 99.34 139.576 99.74C140.229 100.127 140.556 100.767 140.556 101.66C140.556 102.18 140.422 102.653 140.156 103.08C139.902 103.52 139.536 103.893 139.056 104.2C138.576 104.52 137.996 104.767 137.316 104.94C136.636 105.127 135.869 105.22 135.016 105.22C134.429 105.22 133.882 105.167 133.376 105.06C132.882 104.967 132.442 104.82 132.056 104.62C131.682 104.42 131.389 104.16 131.176 103.84C130.962 103.52 130.856 103.14 130.856 102.7ZM135.236 96.08C135.622 96.08 135.942 95.9467 136.196 95.68C136.462 95.4 136.596 94.98 136.596 94.42C136.596 93.9 136.462 93.5067 136.196 93.24C135.942 92.96 135.622 92.82 135.236 92.82C134.849 92.82 134.522 92.9533 134.256 93.22C134.002 93.4867 133.876 93.8867 133.876 94.42C133.876 94.98 134.002 95.4 134.256 95.68C134.522 95.9467 134.849 96.08 135.236 96.08ZM141.228 96.04C141.228 95.24 141.361 94.52 141.628 93.88C141.894 93.2267 142.241 92.68 142.668 92.24C143.108 91.7867 143.608 91.44 144.168 91.2C144.728 90.96 145.308 90.84 145.908 90.84C146.614 90.84 147.228 90.96 147.748 91.2C148.281 91.44 148.721 91.7733 149.068 92.2C149.428 92.6267 149.694 93.1333 149.868 93.72C150.041 94.2933 150.128 94.92 150.128 95.6C150.128 95.8667 150.114 96.1133 150.088 96.34C150.061 96.5533 150.034 96.72 150.008 96.84H144.068C144.201 97.6 144.494 98.1533 144.948 98.5C145.414 98.8333 145.981 99 146.648 99C147.354 99 148.068 98.78 148.788 98.34L149.768 100.12C149.261 100.467 148.694 100.74 148.068 100.94C147.454 101.14 146.848 101.24 146.248 101.24C145.541 101.24 144.881 101.127 144.268 100.9C143.654 100.66 143.121 100.32 142.668 99.88C142.214 99.4267 141.861 98.88 141.608 98.24C141.354 97.6 141.228 96.8667 141.228 96.04ZM147.628 95.02C147.628 94.4467 147.501 93.98 147.248 93.62C146.994 93.26 146.568 93.08 145.968 93.08C145.501 93.08 145.088 93.24 144.728 93.56C144.381 93.8667 144.154 94.3533 144.048 95.02H147.628ZM152.599 98.02C153.053 98.3667 153.486 98.6267 153.899 98.8C154.313 98.9733 154.733 99.06 155.159 99.06C155.599 99.06 155.919 98.9867 156.119 98.84C156.319 98.6933 156.419 98.4867 156.419 98.22C156.419 98.06 156.359 97.92 156.239 97.8C156.133 97.6667 155.979 97.5467 155.779 97.44C155.593 97.3333 155.379 97.24 155.139 97.16C154.899 97.0667 154.653 96.9667 154.399 96.86C154.093 96.74 153.786 96.6 153.479 96.44C153.173 96.28 152.893 96.0867 152.639 95.86C152.386 95.62 152.179 95.3467 152.019 95.04C151.859 94.72 151.779 94.3533 151.779 93.94C151.779 93.4867 151.866 93.0667 152.039 92.68C152.226 92.2933 152.486 91.9667 152.819 91.7C153.153 91.4333 153.553 91.2267 154.019 91.08C154.486 90.92 155.006 90.84 155.579 90.84C156.339 90.84 157.006 90.9733 157.579 91.24C158.153 91.4933 158.653 91.78 159.079 92.1L157.759 93.86C157.399 93.5933 157.046 93.3867 156.699 93.24C156.353 93.0933 156.006 93.02 155.659 93.02C154.913 93.02 154.539 93.28 154.539 93.8C154.539 93.96 154.593 94.1 154.699 94.22C154.806 94.3267 154.946 94.4267 155.119 94.52C155.306 94.6133 155.513 94.7067 155.739 94.8C155.979 94.88 156.226 94.9667 156.479 95.06C156.799 95.18 157.113 95.32 157.419 95.48C157.739 95.6267 158.026 95.8133 158.279 96.04C158.546 96.2667 158.759 96.5467 158.919 96.88C159.079 97.2 159.159 97.5867 159.159 98.04C159.159 98.4933 159.073 98.9133 158.899 99.3C158.726 99.6867 158.466 100.027 158.119 100.32C157.773 100.6 157.346 100.827 156.839 101C156.333 101.16 155.746 101.24 155.079 101.24C154.426 101.24 153.753 101.113 153.059 100.86C152.379 100.607 151.786 100.273 151.279 99.86L152.599 98.02ZM164.871 99.26C165.284 99.6067 165.724 99.9 166.191 100.14C166.658 100.367 167.238 100.48 167.931 100.48C168.691 100.48 169.258 100.293 169.631 99.92C170.018 99.5333 170.211 99.0867 170.211 98.58C170.211 98.2867 170.138 98.0267 169.991 97.8C169.858 97.5733 169.678 97.38 169.451 97.22C169.224 97.06 168.971 96.92 168.691 96.8C168.424 96.68 168.151 96.5667 167.871 96.46C167.511 96.3267 167.144 96.1867 166.771 96.04C166.411 95.8933 166.084 95.72 165.791 95.52C165.498 95.3067 165.258 95.06 165.071 94.78C164.898 94.4867 164.811 94.1333 164.811 93.72C164.811 93.3733 164.878 93.0467 165.011 92.74C165.144 92.42 165.344 92.1467 165.611 91.92C165.878 91.68 166.198 91.4933 166.571 91.36C166.958 91.2267 167.404 91.16 167.911 91.16C168.418 91.16 168.911 91.2533 169.391 91.44C169.884 91.6267 170.304 91.8667 170.651 92.16L170.171 92.78C169.851 92.54 169.511 92.34 169.151 92.18C168.791 92.0067 168.364 91.92 167.871 91.92C167.498 91.92 167.178 91.9733 166.911 92.08C166.644 92.1733 166.418 92.3 166.231 92.46C166.058 92.62 165.924 92.8067 165.831 93.02C165.751 93.2333 165.711 93.4467 165.711 93.66C165.711 93.94 165.771 94.18 165.891 94.38C166.024 94.5667 166.198 94.7333 166.411 94.88C166.624 95.0267 166.864 95.16 167.131 95.28C167.411 95.3867 167.691 95.4933 167.971 95.6C168.344 95.7467 168.718 95.8933 169.091 96.04C169.464 96.1867 169.798 96.3667 170.091 96.58C170.398 96.7933 170.644 97.06 170.831 97.38C171.018 97.6867 171.111 98.0733 171.111 98.54C171.111 98.9 171.038 99.2467 170.891 99.58C170.758 99.9 170.551 100.187 170.271 100.44C169.991 100.68 169.651 100.873 169.251 101.02C168.851 101.167 168.391 101.24 167.871 101.24C167.151 101.24 166.491 101.113 165.891 100.86C165.291 100.593 164.778 100.28 164.351 99.92L164.871 99.26ZM173.876 92.16H172.376V91.48L173.896 91.4L174.016 88.62H174.776V91.4H177.556V92.16H174.776V98.42C174.776 98.7267 174.796 99.0067 174.836 99.26C174.89 99.5 174.976 99.7133 175.096 99.9C175.216 100.073 175.376 100.213 175.576 100.32C175.79 100.413 176.063 100.46 176.396 100.46C176.583 100.46 176.783 100.433 176.996 100.38C177.223 100.313 177.423 100.24 177.596 100.16L177.836 100.88C177.556 100.987 177.276 101.073 176.996 101.14C176.716 101.207 176.476 101.24 176.276 101.24C175.81 101.24 175.423 101.167 175.116 101.02C174.81 100.887 174.563 100.693 174.376 100.44C174.19 100.187 174.056 99.88 173.976 99.52C173.91 99.16 173.876 98.7667 173.876 98.34V92.16ZM178.917 98.6C178.917 97.5467 179.417 96.74 180.417 96.18C181.417 95.62 182.984 95.22 185.117 94.98C185.131 94.62 185.104 94.26 185.037 93.9C184.984 93.5267 184.871 93.2 184.697 92.92C184.537 92.6267 184.304 92.3933 183.997 92.22C183.704 92.0333 183.324 91.94 182.857 91.94C182.204 91.94 181.611 92.0667 181.077 92.32C180.544 92.5733 180.117 92.82 179.797 93.06L179.397 92.4C179.571 92.28 179.777 92.1467 180.017 92C180.271 91.8533 180.544 91.72 180.837 91.6C181.144 91.48 181.477 91.38 181.837 91.3C182.197 91.2067 182.571 91.16 182.957 91.16C183.531 91.16 184.011 91.26 184.397 91.46C184.784 91.6467 185.097 91.9067 185.337 92.24C185.577 92.5733 185.744 92.9667 185.837 93.42C185.944 93.86 185.997 94.34 185.997 94.86V101H185.257L185.157 99.76H185.117C184.624 100.147 184.091 100.493 183.517 100.8C182.957 101.093 182.357 101.24 181.717 101.24C181.331 101.24 180.971 101.187 180.637 101.08C180.304 100.973 180.004 100.813 179.737 100.6C179.484 100.387 179.284 100.113 179.137 99.78C178.991 99.4467 178.917 99.0533 178.917 98.6ZM179.837 98.56C179.837 99.2533 180.037 99.7467 180.437 100.04C180.837 100.333 181.311 100.48 181.857 100.48C182.417 100.48 182.951 100.347 183.457 100.08C183.964 99.8133 184.517 99.4267 185.117 98.92V95.66C184.131 95.78 183.297 95.9267 182.617 96.1C181.951 96.2733 181.411 96.48 180.997 96.72C180.584 96.96 180.284 97.2333 180.097 97.54C179.924 97.8467 179.837 98.1867 179.837 98.56ZM189.438 91.4H190.198L190.278 93.18H190.338C190.658 92.58 191.044 92.0933 191.498 91.72C191.964 91.3467 192.484 91.16 193.058 91.16C193.244 91.16 193.411 91.1733 193.558 91.2C193.704 91.2267 193.858 91.28 194.018 91.36L193.818 92.16C193.658 92.0933 193.518 92.0533 193.398 92.04C193.278 92.0133 193.124 92 192.938 92C192.511 92 192.058 92.1867 191.578 92.56C191.111 92.92 190.691 93.5533 190.318 94.46V101H189.438V91.4ZM196.005 92.16H194.505V91.48L196.025 91.4L196.145 88.62H196.905V91.4H199.685V92.16H196.905V98.42C196.905 98.7267 196.925 99.0067 196.965 99.26C197.019 99.5 197.105 99.7133 197.225 99.9C197.345 100.073 197.505 100.213 197.705 100.32C197.919 100.413 198.192 100.46 198.525 100.46C198.712 100.46 198.912 100.433 199.125 100.38C199.352 100.313 199.552 100.24 199.725 100.16L199.965 100.88C199.685 100.987 199.405 101.073 199.125 101.14C198.845 101.207 198.605 101.24 198.405 101.24C197.939 101.24 197.552 101.167 197.245 101.02C196.939 100.887 196.692 100.693 196.505 100.44C196.319 100.187 196.185 99.88 196.105 99.52C196.039 99.16 196.005 98.7667 196.005 98.34V92.16ZM206 91.4H206.76L206.84 93.18H206.9C207.22 92.58 207.607 92.0933 208.06 91.72C208.527 91.3467 209.047 91.16 209.62 91.16C209.807 91.16 209.973 91.1733 210.12 91.2C210.267 91.2267 210.42 91.28 210.58 91.36L210.38 92.16C210.22 92.0933 210.08 92.0533 209.96 92.04C209.84 92.0133 209.687 92 209.5 92C209.073 92 208.62 92.1867 208.14 92.56C207.673 92.92 207.253 93.5533 206.88 94.46V101H206V91.4ZM211.353 96.22C211.353 95.42 211.466 94.7067 211.693 94.08C211.933 93.44 212.246 92.9067 212.633 92.48C213.033 92.0533 213.493 91.7267 214.013 91.5C214.533 91.2733 215.079 91.16 215.653 91.16C216.226 91.16 216.773 91.2733 217.293 91.5C217.826 91.7267 218.286 92.0533 218.673 92.48C219.073 92.9067 219.386 93.44 219.613 94.08C219.853 94.7067 219.973 95.42 219.973 96.22C219.973 97.02 219.853 97.7333 219.613 98.36C219.386 98.9733 219.073 99.4933 218.673 99.92C218.286 100.347 217.826 100.673 217.293 100.9C216.773 101.127 216.226 101.24 215.653 101.24C215.079 101.24 214.533 101.127 214.013 100.9C213.493 100.673 213.033 100.347 212.633 99.92C212.246 99.4933 211.933 98.9733 211.693 98.36C211.466 97.7333 211.353 97.02 211.353 96.22ZM212.273 96.22C212.273 96.8467 212.359 97.42 212.533 97.94C212.706 98.46 212.939 98.9067 213.233 99.28C213.539 99.6533 213.899 99.9467 214.313 100.16C214.726 100.36 215.173 100.46 215.653 100.46C216.133 100.46 216.579 100.36 216.993 100.16C217.419 99.9467 217.779 99.6533 218.073 99.28C218.379 98.9067 218.619 98.46 218.793 97.94C218.966 97.42 219.053 96.8467 219.053 96.22C219.053 95.58 218.966 95 218.793 94.48C218.619 93.96 218.379 93.5133 218.073 93.14C217.779 92.7533 217.419 92.46 216.993 92.26C216.579 92.0467 216.133 91.94 215.653 91.94C215.173 91.94 214.726 92.0467 214.313 92.26C213.899 92.46 213.539 92.7533 213.233 93.14C212.939 93.5133 212.706 93.96 212.533 94.48C212.359 95 212.273 95.58 212.273 96.22ZM222.856 86.62H223.736V99.84C223.736 100.053 223.776 100.213 223.856 100.32C223.936 100.413 224.036 100.46 224.156 100.46C224.196 100.46 224.236 100.46 224.276 100.46C224.329 100.46 224.409 100.447 224.516 100.42L224.676 101.14C224.582 101.167 224.489 101.187 224.396 101.2C224.302 101.227 224.182 101.24 224.036 101.24C223.249 101.24 222.856 100.733 222.856 99.72V86.62ZM227.602 86.62H228.482V99.84C228.482 100.053 228.522 100.213 228.602 100.32C228.682 100.413 228.782 100.46 228.902 100.46C228.942 100.46 228.982 100.46 229.022 100.46C229.075 100.46 229.155 100.447 229.262 100.42L229.422 101.14C229.328 101.167 229.235 101.187 229.142 101.2C229.048 101.227 228.928 101.24 228.782 101.24C227.995 101.24 227.602 100.733 227.602 99.72V86.62ZM232.808 89.08C232.581 89.08 232.388 89.0067 232.228 88.86C232.081 88.7133 232.008 88.5267 232.008 88.3C232.008 88.0467 232.081 87.8533 232.228 87.72C232.388 87.5733 232.581 87.5 232.808 87.5C233.034 87.5 233.221 87.5733 233.368 87.72C233.528 87.8533 233.608 88.0467 233.608 88.3C233.608 88.5267 233.528 88.7133 233.368 88.86C233.221 89.0067 233.034 89.08 232.808 89.08ZM232.348 91.4H233.228V101H232.348V91.4ZM236.918 91.4H237.678L237.758 92.88H237.818C238.311 92.3867 238.818 91.98 239.338 91.66C239.858 91.3267 240.451 91.16 241.118 91.16C242.118 91.16 242.851 91.46 243.318 92.06C243.785 92.66 244.018 93.5867 244.018 94.84V101H243.138V94.96C243.138 93.9333 242.965 93.18 242.618 92.7C242.285 92.2067 241.725 91.96 240.938 91.96C240.365 91.96 239.845 92.1133 239.378 92.42C238.911 92.7133 238.385 93.16 237.798 93.76V101H236.918V91.4ZM247.603 102.88C247.603 103.48 247.876 103.967 248.423 104.34C248.983 104.713 249.776 104.9 250.803 104.9C251.336 104.9 251.823 104.827 252.263 104.68C252.703 104.547 253.076 104.367 253.383 104.14C253.689 103.913 253.923 103.653 254.083 103.36C254.256 103.08 254.343 102.787 254.343 102.48C254.343 101.947 254.149 101.567 253.763 101.34C253.389 101.127 252.843 101.02 252.123 101.02H250.063C249.956 101.02 249.789 101.013 249.563 101C249.349 100.973 249.116 100.927 248.863 100.86C248.423 101.167 248.103 101.493 247.903 101.84C247.703 102.187 247.603 102.533 247.603 102.88ZM246.763 102.96C246.763 102.533 246.889 102.12 247.143 101.72C247.396 101.32 247.743 100.96 248.183 100.64V100.56C247.943 100.413 247.743 100.213 247.583 99.96C247.423 99.7067 247.343 99.3933 247.343 99.02C247.343 98.5933 247.463 98.2333 247.703 97.94C247.943 97.6333 248.169 97.4067 248.383 97.26V97.18C248.076 96.9133 247.796 96.5533 247.543 96.1C247.303 95.6467 247.183 95.1267 247.183 94.54C247.183 94.0467 247.269 93.5933 247.443 93.18C247.616 92.7667 247.856 92.4133 248.163 92.12C248.469 91.8133 248.829 91.58 249.243 91.42C249.656 91.2467 250.096 91.16 250.563 91.16C250.829 91.16 251.069 91.1867 251.283 91.24C251.496 91.28 251.676 91.3333 251.823 91.4H255.083V92.14H252.843C253.149 92.4067 253.403 92.7533 253.603 93.18C253.803 93.5933 253.903 94.0533 253.903 94.56C253.903 95.0533 253.816 95.5067 253.643 95.92C253.469 96.3333 253.229 96.6933 252.923 97C252.629 97.2933 252.276 97.5267 251.863 97.7C251.463 97.86 251.029 97.94 250.563 97.94C250.296 97.94 250.016 97.9067 249.723 97.84C249.443 97.7733 249.189 97.6733 248.963 97.54C248.749 97.7133 248.563 97.9067 248.403 98.12C248.256 98.3333 248.183 98.6 248.183 98.92C248.183 99.2667 248.309 99.5667 248.563 99.82C248.816 100.06 249.303 100.18 250.023 100.18H252.083C253.163 100.18 253.956 100.36 254.463 100.72C254.983 101.067 255.243 101.62 255.243 102.38C255.243 102.793 255.136 103.193 254.923 103.58C254.709 103.98 254.403 104.327 254.003 104.62C253.616 104.927 253.143 105.167 252.583 105.34C252.023 105.527 251.396 105.62 250.703 105.62C249.489 105.62 248.529 105.38 247.823 104.9C247.116 104.42 246.763 103.773 246.763 102.96ZM250.563 97.24C250.896 97.24 251.209 97.18 251.503 97.06C251.809 96.9267 252.076 96.74 252.303 96.5C252.529 96.26 252.709 95.9733 252.843 95.64C252.976 95.3067 253.043 94.94 253.043 94.54C253.043 94.14 252.976 93.7733 252.843 93.44C252.709 93.1067 252.529 92.8267 252.303 92.6C252.089 92.3733 251.829 92.2 251.523 92.08C251.216 91.9467 250.896 91.88 250.563 91.88C250.216 91.88 249.889 91.9467 249.583 92.08C249.289 92.2 249.029 92.3733 248.803 92.6C248.576 92.8267 248.396 93.1067 248.263 93.44C248.129 93.76 248.063 94.1267 248.063 94.54C248.063 94.94 248.129 95.3067 248.263 95.64C248.396 95.9733 248.576 96.26 248.803 96.5C249.043 96.74 249.309 96.9267 249.603 97.06C249.909 97.18 250.229 97.24 250.563 97.24ZM261.753 89.08C261.526 89.08 261.333 89.0067 261.173 88.86C261.026 88.7133 260.953 88.5267 260.953 88.3C260.953 88.0467 261.026 87.8533 261.173 87.72C261.333 87.5733 261.526 87.5 261.753 87.5C261.98 87.5 262.166 87.5733 262.313 87.72C262.473 87.8533 262.553 88.0467 262.553 88.3C262.553 88.5267 262.473 88.7133 262.313 88.86C262.166 89.0067 261.98 89.08 261.753 89.08ZM261.293 91.4H262.173V101H261.293V91.4ZM265.863 91.4H266.623L266.703 92.88H266.763C267.257 92.3867 267.763 91.98 268.283 91.66C268.803 91.3267 269.397 91.16 270.063 91.16C271.063 91.16 271.797 91.46 272.263 92.06C272.73 92.66 272.963 93.5867 272.963 94.84V101H272.083V94.96C272.083 93.9333 271.91 93.18 271.563 92.7C271.23 92.2067 270.67 91.96 269.883 91.96C269.31 91.96 268.79 92.1133 268.323 92.42C267.857 92.7133 267.33 93.16 266.743 93.76V101H265.863V91.4ZM276.808 89.02V87.6H277.728L277.708 89.02L277.588 97.42H276.928L276.808 89.02ZM276.408 100.34C276.408 100.047 276.495 99.82 276.668 99.66C276.841 99.5 277.041 99.42 277.268 99.42C277.495 99.42 277.688 99.5 277.848 99.66C278.021 99.82 278.108 100.047 278.108 100.34C278.108 100.62 278.021 100.84 277.848 101C277.688 101.16 277.495 101.24 277.268 101.24C277.041 101.24 276.841 101.16 276.668 101C276.495 100.84 276.408 100.62 276.408 100.34Z" fill="#2E86DE"/>
<path d="M135.941 28.2353C139.84 28.2353 143.37 26.6541 145.925 24.0988C148.477 21.5464 150.059 18.0169 150.059 14.1176C150.059 10.2184 148.477 6.68894 145.925 4.13647C143.37 1.58118 139.84 0 135.941 0C132.042 0 128.512 1.58118 125.957 4.13647C123.404 6.68894 121.823 10.2184 121.823 14.1176C121.823 18.0169 123.404 21.5464 125.957 24.0988C128.512 26.6541 132.042 28.2353 135.941 28.2353Z" fill="#2E86DE"/>
<path d="M135.941 47.9998C145.874 47.9998 152.882 45.1762 152.882 42.3527C152.882 36.7057 146.236 31.0586 135.941 31.0586C125.353 31.0586 119 36.7057 119 42.3527C119 45.1762 125.353 47.9998 135.941 47.9998Z" fill="#2E86DE"/>
<path d="M169.823 22.5878H164.176V16.9407C164.176 15.3793 162.914 14.1172 161.353 14.1172C159.791 14.1172 158.529 15.3793 158.529 16.9407V22.5878H152.882C151.321 22.5878 150.059 23.8499 150.059 25.4113C150.059 26.9727 151.321 28.2348 152.882 28.2348H158.529V33.8819C158.529 35.4433 159.791 36.7054 161.353 36.7054C162.914 36.7054 164.176 35.4433 164.176 33.8819V28.2348H169.823C171.385 28.2348 172.647 26.9727 172.647 25.4113C172.647 23.8499 171.385 22.5878 169.823 22.5878Z" fill="#2E86DE"/>
</svg>
