<svg xmlns="http://www.w3.org/2000/svg">
  <defs>
    <symbol id="add-email" viewBox="0 0 22 22" width="22">
      <path d="m20 9.46939h-7.5v-7.49077c0-.82698-.672-1.498151-1.5-1.498151s-1.5.671171-1.5 1.498151v7.49077h-7.5c-.828 0-1.5.67121-1.5 1.49811 0 .827.672 1.4982 1.5 1.4982h7.5v7.4908c0 .8269.672 1.4981 1.5 1.4981s1.5-.6712 1.5-1.4981v-7.4908h7.5c.828 0 1.5-.6712 1.5-1.4982 0-.8269-.672-1.49811-1.5-1.49811z" fill="#02518a" fill-rule="evenodd"/>
    </symbol>
    <symbol id="cog" viewBox="0 0 24 28">
      <path fill="currentColor" d="M16 14q0-1.656-1.172-2.828T12 10t-2.828 1.172T8 14t1.172 2.828T12 18t2.828-1.172T16 14zm8-1.703v3.469q0 .187-.125.359t-.313.203l-2.891.438q-.297.844-.609 1.422.547.781 1.672 2.156.156.187.156.391t-.141.359q-.422.578-1.547 1.687t-1.469 1.109q-.187 0-.406-.141l-2.156-1.687q-.688.359-1.422.594-.25 2.125-.453 2.906-.109.438-.562.438h-3.469q-.219 0-.383-.133t-.18-.336l-.438-2.875q-.766-.25-1.406-.578L5.655 23.75q-.156.141-.391.141-.219 0-.391-.172-1.969-1.781-2.578-2.625-.109-.156-.109-.359 0-.187.125-.359.234-.328.797-1.039t.844-1.102q-.422-.781-.641-1.547l-2.859-.422q-.203-.031-.328-.195t-.125-.367v-3.469q0-.187.125-.359t.297-.203l2.906-.438q.219-.719.609-1.437-.625-.891-1.672-2.156-.156-.187-.156-.375 0-.156.141-.359.406-.562 1.539-1.68t1.477-1.117q.203 0 .406.156l2.156 1.672q.688-.359 1.422-.594.25-2.125.453-2.906.109-.437.562-.437h3.469q.219 0 .383.133t.18.336l.438 2.875q.766.25 1.406.578l2.219-1.672q.141-.141.375-.141.203 0 .391.156 2.016 1.859 2.578 2.656.109.125.109.344 0 .187-.125.359-.234.328-.797 1.039t-.844 1.102q.406.781.641 1.531l2.859.438q.203.031.328.195t.125.367z" />
    </symbol>
    <symbol id="info-circle" viewBox="0 0 496 496">
      <path fill="currentColor" d="m248 0c-136.957 0-248 111.083-248 248 0 136.997 111.043 248 248 248s248-111.003 248-248c0-136.917-111.043-248-248-248zm0 448c-110.532 0-200-89.431-200-200 0-110.495 89.472-200 200-200 110.491 0 200 89.471 200 200 0 110.53-89.431 200-200 200zm0-338c23.196 0 42 18.804 42 42s-18.804 42-42 42-42-18.804-42-42 18.804-42 42-42zm56 254c0 6.627-5.373 12-12 12h-88c-6.627 0-12-5.373-12-12v-24c0-6.627 5.373-12 12-12h12v-64h-12c-6.627 0-12-5.373-12-12v-24c0-6.627 5.373-12 12-12h64c6.627 0 12 5.373 12 12v100h12c6.627 0 12 5.373 12 12z"/>
    </symbol>
    <symbol id="gmail" viewBox="0 0 64 48">
      <g fill="none" fill-rule="evenodd" transform="translate(-2)">
        <path d="m61.9714689 47.4291713h-55.95643181c-2.1854032 0-4.01503633-1.7279862-4.01503633-3.9642187v-38.71280844c0-2.18540319 1.77881547-4.01503633 4.01503633-4.01503633h55.95643181c2.1854032 0 4.0150422 1.77881547 4.0150422 4.01503633v38.66199084c-.0508409 2.2870501-1.829639 4.0150363-4.0150422 4.0150363z" fill="#f2f2f2"/>
        <path d="m9.97925575 47.4291713 23.93776495-17.5195048.1524704-1.0164635-24.64929347-17.7373255-.05082346 35.4093007z" fill="#221f1f" opacity=".1"/>
        <g fill="#d44c3d" transform="translate(1.518504 1.945902)">
          <path d="m4.49653309 45.4832694c-2.23622666 0-4.01503633-1.7279862-4.01503633-3.9642187v-38.76363191c0-2.23622665 1.77881547-2.64280857 4.01503633-2.64280857 2.23622085 0 4.01503632.45741119 4.01503632 2.64280857v42.72785061z"/>
          <path d="m4.49653309.7224918c2.84610243 0 3.40516054.8639931 3.40516054 2.0329328v42.1687983h-3.40516054c-1.88046241 0-3.40516055-1.5246982-3.40516055-3.4051548v-38.76364931c-.05082347-1.21975735.55905811-2.03292699 3.40516055-2.03292699zm0-.55905812c-2.23622666 0-4.01503633.45741119-4.01503633 2.59198511v38.71281431c0 2.2870501 1.77881547 4.0150363 4.01503633 4.0150363h4.01503632v-42.72785061c-.05081766-2.18539738-1.77880967-2.59198511-4.01503632-2.59198511z" fill-rule="nonzero"/>
          <path d="m60.4529649.7224918c2.5919852 0 3.4051548.50823465 3.4051548 1.93128587v38.91610233c0 1.8804566-1.5246982 3.4051547-3.4051548 3.4051547h-3.4051547v-42.32126284c-.0508293-1.47387468.8131696-1.93128006 3.4051547-1.93128006zm0-.55905812c-2.2362266 0-4.0150421.3049408-4.0150421 2.49033818v42.88032674h4.0150421c2.2362267 0 4.0150422-1.7788154 4.0150422-4.0150421v-38.9161023c-.0508409-2.18540319-1.829639-2.43952052-4.0150422-2.43952052z" fill-rule="nonzero"/>
          <path d="m60.4529649 45.4832694h-4.0150421v-42.82949754c0-2.23622665 1.7788155-2.49033818 4.0150421-2.49033818 2.2362267 0 4.0150422.3049408 4.0150422 2.49033818v38.91610234c-.0508409 2.185409-1.829639 3.9133952-4.0150422 3.9133952z"/>
        </g>
        <path d="m44.8440251 47.4291713-42.48826589-41.05068207 2.23622666.91481657 29.57915213 21.2949564 31.8153731-23.32788339v38.25539729c0 2.1854032-1.7788155 3.9642186-4.0150422 3.9642186z" fill="#221f1f" opacity=".08"/>
        <g fill="#d44c3d">
          <path d="m33.9170207 29.9604958-30.18902793-21.90483802c-1.77881547-1.32140429-2.28705013-3.86257174-.96564003-5.64138141 1.32141009-1.77880966 3.86257173-2.18540319 5.69220486-.8639931l25.5132866 18.55049513 25.665757-18.80461245c1.7788154-1.32140429 4.2691594-.91481657 5.5905637.91481656 1.3214043 1.77881548.9148224 4.26915366-.9148224 5.59055794z"/>
          <path d="m61.9714689 1.14369555c1.067287 0 2.1345798.50823465 2.795279 1.42305122 1.0672928 1.52469815.762352 3.65927787-.762352 4.7773883l-30.0873752 21.90483213-29.83326948-21.6507148c-1.52469815-1.11811623-1.93128006-3.30351362-.8639931-4.77738831.60988158-.91481656 1.67716854-1.47387468 2.84610243-1.47387468.76235198 0 1.47387468.20329386 2.0329328.66070505l25.46246315 18.49967164.3557642.2032938.3557643-.2032938 25.6149335-18.80461824c.6606992-.35576425 1.3213985-.55905231 2.0837504-.55905231zm0-.60988158c-.8131754 0-1.6771685.20329386-2.3378735.76235198l-25.6657512 18.80461245-25.56411006-18.6013244c-.66070505-.50822884-1.52469815-.76234617-2.38869705-.76234617-1.27058083.05082347-2.54116165.60987578-3.30351362 1.67716854-1.27058083 1.77881548-.76235198 4.26915366 1.01646349 5.59055794l30.18903374 21.95565559 30.3923218-22.15894945c1.7788097-1.32140428 2.1854032-3.7609248.9148224-5.59056374-.8131754-1.06728116-2.0329328-1.67716274-3.252696-1.67716274z" fill-rule="nonzero"/>
        </g>
      </g>
    </symbol>
    <symbol id="outlook" viewBox="0 0 104 105">
      <g fill="#0072c6" fill-rule="evenodd" transform="translate(-2 -3)">
        <path d="m66.566509 25.116383v20.404273l7.130526 4.489881c.188058.05485.595516.05877.783574 0l30.688681-20.690278c0-2.44867-2.28412-4.203876-3.573094-4.203876z"/>
        <path d="m66.566509 53.13308 6.507584 4.470291c.916782.673874 2.021622 0 2.021622 0-1.100922.673874 30.077495-20.035993 30.077495-20.035993v37.501863c0 4.082422-2.61322 5.794531-5.551621 5.794531h-33.058998v-27.730692z"/>
        <g transform="translate(.272211 .794239)">
          <path d="m32.6006063 42.9320326c-2.2175151 0-3.9844751 1.0421537-5.2891262 3.1225434-1.3046511 2.0803896-1.9589356 4.834653-1.9589356 8.2627903 0 3.4790696.6542845 6.2294152 1.9589356 8.2510368 1.3046511 2.0255394 3.0167609 3.0324323 5.1324113 3.0324323 2.1822543 0 3.9139533-.9833857 5.1911793-2.950157 1.2772261-1.9667714 1.9197569-4.6975276 1.9197569-8.1883508 0-3.6397024-.6190236-6.4723233-1.8609888-8.4978627-1.2419652-2.0216215-2.9384034-3.0324323-5.0932325-3.0324323z"/>
          <path d="m1.7277812 13.9593751v79.8266257l60.7270036 12.7330812v-104.31332051zm40.6361601 53.4084202c-2.5662057 3.377205-5.9120677 5.0697253-10.0415039 5.0697253-4.0236537 0-7.298994-1.6376701-9.8338567-4.9090926-2.5309448-3.2753403-3.8003351-7.5379842-3.8003351-12.7957673 0-5.5516235 1.2850618-10.0415039 3.8591032-13.4696412 2.5740413-3.4281373 5.9825893-5.1441649 10.2256438-5.1441649 4.0079822 0 7.2519796 1.6376702 9.7241563 4.9208462 2.4760946 3.2831761 3.7141419 7.6085059 3.7141419 12.9799073.0039179 5.5202805-1.2811439 9.9709822-3.8473495 13.3481872z" fill-rule="nonzero"/>
        </g>
      </g>
    </symbol>
    <symbol id="yahoo" viewBox="0 0 24 25" fill="none">
      <path d="M23.3055 6.00446L20.568 6.92283C20.16 7.10411 19.0522 8.38727 17.1307 10.8652C15.0907 13.4308 14.0422 15.078 13.866 15.9043L13.7512 18.1972L13.6912 19.5702L13.9268 23.052L17.538 23.1426L17.0625 24.9539H6.3165L6.5265 23.3269L8.21475 23.2325C9.09075 23.1418 9.61425 22.9583 9.789 22.6842C9.90525 22.5036 9.96225 21.398 9.96225 19.4744V18.2826L9.90525 15.902C9.789 15.3544 8.85675 13.3357 7.05075 9.85472C5.187 6.27937 3.963 4.17297 3.3795 3.43812L0 2.70628V0.983398H11.4375L11.3033 2.43286L7.7505 2.98268C8.8575 5.54752 10.5472 9.11912 12.8182 13.6106C15.7912 10.0367 17.364 7.74606 17.421 6.74005L14.3925 6.00596L14.25 4.35424H24L23.3055 6.00446Z" fill="#6F2B90"/>
    </symbol>
  </defs>
</svg>
