<svg width="60" height="31" viewBox="0 0 60 31" fill="none" xmlns="http://www.w3.org/2000/svg">
<g id="send-emails">
<path id="topLine" d="M35.9195 15.9381L35.9108 15.9299L35.9017 15.9222L17.9443 0.622275C17.9347 0.612064 17.9288 0.604625 17.9252 0.599656C17.9228 0.596393 17.9214 0.594208 17.9207 0.59302L17.92 0.591755L17.9198 0.591383C17.9198 0.591403 17.9198 0.591359 17.9198 0.591223L17.919 0.58801C17.9182 0.584061 17.9167 0.57413 17.9167 0.555777C17.9167 0.53832 17.9229 0.525695 17.9323 0.516309C17.9418 0.506881 17.9553 0.5 17.9745 0.5H55.5977C57.7973 0.5 59.5409 2.24127 59.4991 4.41064L56.8368 26.4939L56.8332 26.5238V26.5538C56.8332 28.746 55.0754 30.5 52.8705 30.5H15.6818C15.6794 30.4957 15.6775 30.4916 15.676 30.4879C15.6756 30.4868 15.6752 30.4857 15.6749 30.4848L15.8496 29.7306C15.8501 29.7298 15.8507 29.7289 15.8513 29.728C15.8557 29.7216 15.8608 29.7163 15.8654 29.7125C15.8674 29.7109 15.869 29.7098 15.8701 29.7092H52.8705C54.622 29.7092 56.0191 28.3302 56.0356 26.5851L58.6973 4.50606L58.7009 4.47625V4.44621C58.7009 3.92169 58.5517 3.4129 58.3379 2.98689L58.0782 2.46944L57.6041 2.80168L39.0095 15.8316L38.9803 15.852L38.9544 15.8763C38.0774 16.6987 36.7656 16.7314 35.9195 15.9381ZM38.5652 15.2052L56.8148 2.38524L57.5713 1.85385L56.7125 1.51162C56.3424 1.36413 55.9696 1.29084 55.5357 1.29084H21.3216H19.9599L20.998 2.17202L36.4798 15.3138C37.0471 15.8633 37.9098 15.8582 38.4716 15.2984L38.5652 15.2052Z" fill="currentColor" stroke="currentColor"/>
<path id="topLine" d="M28.9453 22.2988C29.1667 22.2988 29.313 22.4472 29.313 22.6634C29.313 22.8568 29.1281 23.0279 28.9453 23.0279H9.29695C9.07549 23.0279 8.9292 22.8795 8.9292 22.6634C8.9292 22.4472 9.07549 22.2988 9.29695 22.2988H28.9453Z" fill="currentColor" stroke="currentColor"/>
<path id="middleLine" d="M24.7307 16.7329L24.6999 16.7291H24.6689H0.867749C0.646287 16.7291 0.5 16.5807 0.5 16.3645C0.5 16.1484 0.646288 16 0.867749 16H24.6337C24.8975 16.0432 25.0366 16.2254 25.0366 16.4263C25.0366 16.547 24.9924 16.6281 24.945 16.673C24.901 16.7146 24.8338 16.7458 24.7307 16.7329Z" fill="currentColor" stroke="currentColor"/>
<path id="bottomLine" d="M18.3466 10.6158H6.81795C6.59648 10.6158 6.4502 10.4674 6.4502 10.2513C6.4502 10.0351 6.59648 9.88672 6.81795 9.88672H18.3466C18.5681 9.88672 18.7144 10.0351 18.7144 10.2513C18.7144 10.4674 18.5681 10.6158 18.3466 10.6158Z" fill="currentColor" stroke="currentColor"/>
</g>
</svg>
